<?xml version="1.0" encoding="utf-8"?>
<!-- Generator: Adobe Illustrator 27.9.5, SVG Export Plug-In . SVG Version: 9.03 Build 54986)  -->
<svg version="1.1" xmlns="http://www.w3.org/2000/svg" xmlns:xlink="http://www.w3.org/1999/xlink" x="0px" y="0px"
	 viewBox="0 0 700 450" style="enable-background:new 0 0 700 450;" xml:space="preserve">
<style type="text/css">
	.st0{fill:#7E92A3;}
	.st1{fill:#7E92A3;stroke:#7E92A3;stroke-miterlimit:10;}
</style>
<g id="BACKGROUND">
</g>
<g id="OBJECT">
	<g>
		<path class="st0" d="M420.1,160c-0.2,2.5,0.2,4.7-0.4,7.4c-0.6,2.8-4.2,7.3-4.1,7.7c0,0.3,4,2.8,4.1,5c4.2-6,9.3-19.1,17.4-20
			c5.2-0.6,11.9,5.6,9.5,10.9c3.6-3.8,10.1,2.6,10.9,2.3c5.8-2,6.9-16.9,8.2-22.4c-5.1,3.6-4,14.3-6.5,18.5
			c-3.2,5.4-4.6-1.6-4.3-5.2c0.4-5.1,2.9-9.5,4.5-14.3c-3.7,2.2-14.5,9.8-14.6,1.8c-1.4-0.4-0.8,1.2-1.4,1.7
			c-5.7,4.9-1.7-5.3-0.6-7.8c5.3-11.4,17.8-19.1,29-23.9c4-1.7,14.4-7.1,10.8,1.7c-1,2.5-9.6,13.4-11.9,16.4c-1.2,1.5-2.7,2.8-4,4.2
			c0.6,1,2.6,0.1,3.7,0.9c3.3,2.2-4.5,19.6-3.7,20.6c1.8-2.6,15.9-8.4,16.4-9.2c0.1-0.2-1-2.1-0.8-3.8c0.9-6.7,11.9-20.1,19.3-17.9
			c5.3,1.6,1,8.3-1.2,10.7c0.7,0.6,11.1-6.2,9.1-0.4c-0.2,0.6-11.7,6.8-11.4,2.3l-5,4.5c4-0.2,7.4-1.1,11.4-0.9
			c2.3,0.1,10.1,1,6.3,3.8c-4.8,3.5-19.9,1.5-25.9,3.1c-4.6,1.2-11.3,6.6-15.5,9.2c4.4,0.3,17.6-5.6,20.6-1.4
			c1.7,2.4-2.8,6.1-5.1,6.4c-0.3,1.7,1.9,0.5,2.7,0.9c0.1,0.1-0.3,2.9-0.3,3c-1.1,2.5-4.2,3.2-4.2,6.1c5.4-5,12-8.9,18.9-11.6
			c5.6-2.2,18.1-6,23.8-6.4c4.6-0.3,4.9,1.6,2,4.9c-2,2.2-8.9,8.4-11.5,10.4c-10.3,8.2-22.9,11-36,11c1.5,2.3,5.2,1.3,4.6,5.5
			c12-7.2,5.1,14.7,3.4,20.3c-0.9,2.8-3.8,7.6-4.1,9.6c-0.5,3.1,2.1,5.4,0.8,8.4H499c2.6,0,15.7-3.8,16-6.9
			c0.9-9.4-14.7-11.1-16.1-13.2c-1.9-2.8,0.1-4.8,3.4-4.4c11.7,1.3,25.1,11.5,15.3,23.5c31-11.6,19.2-37.8-11.4-35.6
			c-2.6,0.2-11.8,3.2-12.3,2.8c-3.2-3.2,9-6.1,10.6-6.3c18.3-2.1,45.1,5,36.1,28.8c-6,16-28.9,21.8-44.3,20.2
			c-6.6-0.7-12.4-3.7-18.7-5.3c-8.4,16.3-17.4,36.1-33,46.8c-14.4,9.9-34.9,11.1-51.9,12.4c1.6,2.2,5.2,2.9,5,6.5
			c-0.3,6.4-7.2,6.7-7.6,8.7c-0.3,1.1,1.1,7.2,0.5,10.6c-0.6,4-5.9,13.2-5.8,15.7c0.1,5.4,16.7,14.6-1,18.4
			c-10.3,2.3-31.4,0.3-42.6-0.7c-2.7-0.2-11.5-2.6-12.8-2.4c-2.5,0.4-8.1,10.6-12.3,9.7c-1.3-1.2,9.1-10,10-11.4
			c-3.5-3.8-19.6,6.4-20.1,8.2c-1,3.9,18.9,8.3,22.4,8.6c19.3,1.7,53.6,1.2,72.9-0.9c1.3-0.1,7.8-1.1,7.7-2.3
			c-1.7-1.6-3.2-3.5-5.1-4.9c-3-2-14.2-4.6-11.8-8.4c2.8-4.5,17,3.8,19.7,6.9c6.8,7.8,3.2,11.3-5.3,13c-6.6,1.3-16.5,1.8-23.4,2.1
			c-17.5,0.7-66.3,2.4-79.8-6.9c-15.5-10.7,11.2-21.6,20.8-20.6c0.8-4,5.1-6.1,6.1-9.9c1.4-5.2-8.5-17.1-3.3-23.3
			c0.7-0.9,3-1.3,2.8-1.8c-1.2-2.8-7.8-5.9-4.6-11.4c-3.5-0.2-7,0.2-10.5,0c-9.3-0.7-38.2-6.4-45.1-11.5
			c-16.1-12-27.5-34.3-32.9-53.3c-2.4,2-10.8,12.8-13.2,12.8c-3.6,0-3.8-6.1-4.1-6.4c-0.3-0.3-4.2,0.9-5.8,0.9
			c-5.7-0.3-22.3-4.6-25.4-9.3c-6.6-9.9-2.2-18.6,5.7-25.8c7.3-6.6,20.6-15.2,30.1-8.1c1.5,1.1,3,4.6,4.2,4c0.2-0.1,2.9-2.7,3-2.9
			c0.4-1-1.9-3.9,3.2-4.1c6.1-0.2,12.3,3.6,17.5,6.1c1,0.5,2.2,1.2,2.3-0.5c0-0.5-5.1-8.3-5.5-8.6c-0.8-0.6-4.5,2.5-7.6,1.7
			c-3.3-0.9,1.3-3.2-0.6-4.9c-8.2-7.3-31.4-4.2-40.7,1.2l-6.7,3.8c13.9-2.5,27.8-5,42-4.5l-1.5,2.6l-45,4.7
			c-0.2-1.4,0.1-2.1,0.9-3.2c2.6-3.8,19.6-9.8,24.6-10.9c2.4-0.5,8.3,0.2,9.2-1.8c-2.4-1.1-7-4-8.3-6.3c-1.2-2-0.7-4.9-0.9-5.1
			c-2.6-2.7-24.2,5.6-28.3,7.3c-1.8-1.7,6.2-4.9,7.1-5.3c5.3-2.2,11.8-4.1,17.6-3.9c0.4-0.9-2.1-1.8-2.3-1.8h-14.6
			c-1,0-13.3,10.5-16,12.2c-3.9,2.5-12.3,8.6-16.7,7.8c-8.3-1.4,2.7-8.8,2.9-11.6c0.3-2.9-5.2-7.8-4.2-11.5c0.9-3.4,8.2-4.3,8.1-7.5
			c0-1.6-9.1-6.9-6.3-11.3c2.4-3.8,17.1,0.9,19.9,4.4c-1.9-7.1-1.6-24.1,8.7-13.7c5.8,5.8,6.7,14.9,7.3,22.4c0,0.5,3,4.5-0.5,3.7
			c-2.5-0.6-5.8-3.8-9.1-3.3l4.7,5.3c15-2.3,30.8,1.5,43.1,10.2c1.3-10.7-5.1-18.2-4.1-29.6c0.7-8.2,7.9-20.8,13.6-8.1l-1.8,26.3
			c2.9,1.3,5.7,2.6,7.8,5.1c0.5-10.4,2.2-21,15.1-20.1c-2.9-11.1,12.9-4.9,13.6-5.5c0.5-0.5-0.5-3.8,3.3-4.5
			c7.3-1.5,9.2,5.9,8.6,11.8c6.4-3.1,12.3,4,16.4,8.2c-1.9-3.7-5-14.6-7.5-17.1c-3.8-3.8-19.7-6.3-19.9-14.4
			c-0.2-8.2,16.7,0.9,18.8,5l4.2-11.3l4-6c5.3,1.4-1.8,19.6-3.2,20.5c-0.7,0.4-2.9-1.7-1.9,2.6c0.3,1.2,3.3,0.7,2.8,3.8
			c-0.1,0.4-1.9,0.4-1.9,0.9c0.2,1.4,5.1,10.1,6.2,13c1,2.7,1.7,5.6,2.1,8.4l8.7-20.9c1.4-2.6,8.8-8.8,10.4-4
			c0.9,2.9-11.3,27.2-13.3,27.5c-0.9,0.2-2.7-1.1-3.1-0.7c-0.5,0.4-0.6,9.8-3.2,3.7c-4.7,5.6-18-6.8-20.8-11.2
			c-4.4-7,0.4-13.4-6.2-16.2c-0.4,17.5-3.7,5.5-9.8,3.9c-2.5-0.6-6-0.3-3.9,3c5.1,7.6-7.5,1.9-9.7,5l1.4,10.1
			c4.3-2.7,22.5-7.3,25.4-2.6c3.8,6.1-9.3,13.6-13.5,15.8c12.8,9.9,7.4,19.9-7.3,11.4c-0.4,5.9-4.6,11.1-10,13.2
			c2.1,5.2,4.5,2,8.6,2.3c6.7,0.4,15.4,4,19.7,9.2c-2.9-4.2,6.1-18.3,5.5-19.1c-0.1-0.1-1.8-0.2-2.8-1.3c-3-3.5-3.9-9.7-3.6-14.2
			c2-0.1,4.2-0.4,5.5,1.3l3.6,8.7c1.1-3,3.7-7.1,6.2-9.1c1.9-1.4,10.1-6.6,10.2-1.5c0.1,5.6-15.2,27.4-18.2,33.8
			c1.3,0,8.7,1.6,9.1,1.3c0.2-0.2-0.3-2.4,1.5-3.6c1.6-1.1,4.3-0.6,4.9-1c0.1,0-0.6-1.1-0.3-1.8c0.5-0.9,1.6-1.4,1.9-2.5
			c0.4-1.1,0.2-2.7,0.5-4.1c0.2-0.8,1.3-1.6,1.3-2.1c0-0.6-2.2-2.2-2.7-3.4c-3.1-6.9,5.7-13.2,10.9-16c1.4-0.8,3.8-0.9,4-1.1
			c0.3-0.3-1-2.8-0.9-4c0.3-4.9,8.4-10.2,12.7-11.5c-4.1-2.6-5-16.6-1.9-18.8c4.1-2.8,7.3,10.4,6.4,11.5c-0.3,0.4-6.9-3-1,5.9
			c6.7,0.9,11.7-2,18.3-1.4c-3.5-6-8.1-11.9-8.2-19.1c5.8-1,7.8,3.1,10.6,7.2c1.8,2.5,10.9,17.8,11.3,19.7c0.1,0.6,0.2,1.6-0.5,1.4
			c-3.3-1.2-3.6-4.6-5.9-6.4c0.3,1.9-2.3,2.5-2.6,2.9c-0.2,0.4,0.5,4.9-1.8,8.7c-0.9,1.5-4.7,4.9-4.7,5.3c0,0.4,4.8,4.3,3.6,6.8
			c1,1,5.6-5.3,6.4-1.4c0.2,1.1-10.2,15.6-9.1,19.6c3.7-1,6.1-13.5,7.7-13.6c3.8,1.6,3.5,2.8,2.3,6.3c2.9-0.6,5.2-1.7,8.2-0.4
			c0.8,0.3,1.4,1.8,2.5,2.1c2.7,0.7,8.9-3.8,13.6,0.1c2.9,2.4,0.2,7.3,0.8,8.3c0.4,0.6,2,1,2.7,1.8c7.8,9.3-16.5,13.7-18.7,12.3
			c-1.2-0.8-0.9-2.1-0.9-3.2c2.6,0.3,18-2.6,17.3-5.9c-0.1-0.6-2.8-2.7-3.6-2.9c-1.4-0.4-6.8,3.5-8.1-0.9c-1.4-4.6,7.7-1.7,7.2-6.8
			c-0.7-0.6-7.5,1-8.5,1.7c-1.3,1-1.3,7-3.8,7.2c-0.9,0.1-3.7-2.1-4-3.2c-0.8-2.9,3.7-6.9,0.3-6.7c-6.6,0.4-5.2,7.1-7,10.4
			c-0.6,1.1-2.1,1.3-2.4,1.7c-0.9,1.4,0.9,3.9-1.6,3.4c-2.8-2.1-0.7-4.7-0.5-7.3c-1.8,1.1-2.6,2.2-4.9,1.9c-6.9-0.9-0.7-11.6-1-15.5
			c-5,2.8-18.6,8.3-23.6,5.3c-1.2-0.7-1.4-2.5-2.1-2.6c-1.2-0.1-5.5,1.8-8.1,1.9c-2.8,0.1-5.1-0.7-7.8-1l0,8.2
			c6.9-1.5,14.3-3.6,21.5-2.8c3.5,0.4,5.4,2.5,8.4,3.5c3.6,1.1,10.1-0.5,10.3,5.7c-1.6-1-10.5-1.4-8.2,1.8c1.1,1.5,9.4,0.2,11,1.3
			c1,0.7,1.3,3.6,0.8,4.1c-0.2,0.3-5.7,1.1-6.8,1c-3.4-0.1-8.7-2.4-10.1-5.6c-0.7-1.6,0.7-3-0.4-4c-3.7-3.5-10.8-3.5-15.6-3.2
			c0,1.6,2.2,1,3.4,2.1c2,1.9,8.3,10.4,3.4,11.6c-1.8,0.4-3.2-4.1-4.5-5.5c-0.9-1-5.8-4.6-5-1.4c0.6,2.4,3.8,6.2-1.6,6.7
			c-3.4,0.3-7.7-8.5-12.2-7.6c4,1.5,2.4,6.9,3.1,7.8c1.3,1.7,14.3,0.7,17.4,0.8c14.7,0.6,29.8,0.7,44.7,0.1
			c9.2-0.4,18.5-2.1,27.8-1.9c0.7-11.7,4.1-2.7,6.4-1.4c2.5,1.6,6.6-0.4,9.5-0.5c10.5-0.3,20.2,0.1,30.6-2.7c-1.1-2.9-7.6-1-8.9-2.9
			c-0.3-0.4-1.2-5.1-1-5.6c1-3.6,5.5,0,7,0.2c1.4,0.2,2.7-0.9,4.1-0.6c0.9,0.2,1.7,1.5,3,1.6c2.8,0.2,10.6-7.5,12.8-1.8l-4.1,2.7
			c2.6-0.3,5.2,2,7.6,1.7c5.2-0.8,3.5-5.1,4.5-6.9c0.4-0.8,7.2-3.7,8-5.2c0.4-0.9-2.9,0.2-1.4-1.4c2.9-3.1,12.5-2.8-0.4-6.5
			c-0.4-6.8-2.1-9,2.7-14.9c0.4-0.5,6.8-5,3.2-4.1c-3.2,0.8-6.6,3.6-10.5,2.7c-0.4,1.4,1.4,0.7,1.9,1.5c3.9,7-2.2,13.2-6.8,17.7
			c-7,6.7-12.8,9.6-22.8,10c-2.3,0.1-14.1-1.6-15-2.8c-0.5-0.7-0.1-2.8,0.4-3.6c1.3-2.2,14.2-0.1,18.8-1.3
			c4.7-1.2,22.6-11.9,23.7-16.5c0.3-1.4,0.5-2.5-1.4-2.3c-3.5,0.5-7.1,4.4-10.2,5.3c-5.6,1.6-15.2-0.9-20.6,2
			c-1.3,0.7-0.6,9.7-6.1,8.3c1.2-6.4-1.2-11.6,1.4-18.2c1-2.6,5.7-7.2,3.7-10.1c-1.7-2.5-5.9,0.2-7.3,1.9
			c-2.2,2.7-11.2,20.8-11.4,24.1c-0.4,4.1,0.8,5.4,1.4,8.6c0.7,3.8-3.4,2.9-4.2,1.2c-1.5-3.3-2.2-10.4-0.9-13.9
			c-3.8,3.8-11.5,8.3-16.7,5.3c-1.2-0.7-1.4-2.4-2.2-2.6c-3.8-1-9.9,1.4-13.9-1.4c-6.1-4.2,3.4-11.6,8.2-12.3c-1-1.9-4.1-2-4.2-5
			c-0.2-6.3,8.2-10.4,13.7-9.6c1.6,0.2,3.4,1.9,4.5,1.7c0.6-0.1,8.5-5.9,9.5-6.9c1.4-8.1-1.7-15.5-3.5-23.1c-1.7-0.2-0.9,3.1-0.8,4
			c0.4,2.5,5.6,15.8,2.2,16c-2.8,0.2-7.2-13.4-7.5-16.2c-0.5-4,1.3-14.7,6.6-10.2c3.1,2.6,6.4,14.6,6.8,18.7
			c0.4,4.1-0.9,9.8-0.6,12.8C418.7,159.5,419.5,159.7,420.1,160c1-13.4,2-25.1,13.8-34.1c3.6-2.8,11.5-6.3,11.9,0.8
			c0.4,7.4-15,18.7-20.1,23.8c-0.8,4.7,2,0,4,0.4c5.1,1-2.2,5.6-2.8,6.3C424.7,159.9,426.3,162.9,420.1,160z M476.6,124.4
			c-12.7,3.6-27.5,12.1-31,25.5C459.3,146.2,467.7,134.5,476.6,124.4z M428.3,142.6c0.8,1,14.3-13.8,12.8-15.5
			C434.5,129.5,430.3,136.2,428.3,142.6z M297.9,135.3c1.5-1.4-9.4-8.8-11.9-7.3C286.5,130.1,297.1,136,297.9,135.3z M194.8,157.2
			c-0.1-3.7-6.2-19.9-9.6-20c-2.5-0.1-0.8,14.2,0,15.5C185.6,153.4,194.3,157.7,194.8,157.2z M486.7,152.7
			c2.3,1.9,15.1-12.9,13.7-14.6C494.5,141.2,489.4,146.6,486.7,152.7z M317.9,160l7.3-17.3c-3.7,3.4-6.7,9.7-7.8,14.6
			C317.2,158.1,316.2,160.2,317.9,160z M184.7,163.6c-3.8-5.2-1.7-9.1-7.4-13.2c-4.3-3-8.4-3.8-13.6-3.2c1.5,3.1,8.3,7,8.2,10.5
			c-0.1,3-6.7,5.8-7.2,7.4c-1.2,3.5,5.8,7,2.9,13.8c-0.7,1.5-2.4,2.4-3,3.9c0.8,0.6,4.4-1.8,5.4-2.3c2.7-1.6,16.7-10.6,17.9-12.2
			c0.5-0.7,0.6-1,0.4-1.8l-11.8,0.9C176.8,163.3,181.8,163.5,184.7,163.6z M308.8,166.3c-3.3-5.4-7.7-12.1-14.6-12.8
			C294.9,156.4,307.5,167.5,308.8,166.3z M247.7,188.2c0.9,0.8,5.5-2.6,6-3.6c0.4-1-2.1-2.3-1.3-4.8c0.6-2.2,5.3-3.2,6.1-5.8
			c0.8-2.8,0.8-12.2-1.2-14.9l-1.7,7.2c1,19.4-2.5,5.1-7.8,1.4c-8.2-5.7-2.1,4.5-1.9,7.8c-2.4,1-1.6-1.8-2.3-1.9
			c-2.1-0.2-4.2,2.7-6.8,1.9l4.6,1.8l-1.8,1.4c3.1,5,6.2,1.9,10.9,2.3c0.4,2.4-2,2.8-3.6,2.7C249.3,185.2,247.5,188.1,247.7,188.2z
			 M400,177.3c0.4,0.3,1.8-1.7,3.2-1.9c2.7-0.2,3.2,3.2,6.4,1c4.7-3.1,7.8-8.9,6.8-14.7c-4.3-0.3-11.1,10.4-12.4,10.9
			c-5.4,1.7-0.5-5.9-2.2-7.2c-2.8-0.4-10,1.9-10,5c0,3.4,5.6,3.8,7.6,5C400.3,175.9,400,177.2,400,177.3z M348.4,175.8
			c3-1.6,6.1-2,7.4-5.9c1.4-4.2,1-6.4-3.6-6.4c-8,0-3.2,5.6-8.2,6.5c-3.9,0.7-1.9-3.5-3.3-4.4c-2.2-1.4-8.8,1.6-10.8,3.1
			c-6.2,4.8-1.9,8.1-3.2,10.5c-0.5,0.9-2.5,0.1-3.8,0.6c-3.7,1.5-12.7,7.7-11.2,12.4c0.9,2.8,13,1.6,15.7,0.4c1.6-0.7,4-3.8,5.7-3.4
			c2.7,0.5,1,5.3-0.4,6.4c2.3,1.6,16-3.4,18.3-5.9c5-5.6,0.2-4.5-1.8-5.5c-1.7-0.9-1.7-3.1-1.9-3.2c-0.6-0.5-11.1,7.1-13.9-0.3
			c-1.8-4.8,5.8-6.9,6.6-6.1c2.2,2-2.6,3.5-2.7,3.7c-1.9,3.2,9.3-0.6,10.2-1C348,176.9,348.1,176,348.4,175.8z M282.4,164.5
			c-3.2-1.3-19,2.9-20,5.2c-2.6,5.7,0.6,5.2,1.9,7.2c0.7,1.1,0.4,3,1.1,3.7c0.4,0.4,1.8,0.1,2.2,0.5c1.5,1.6,2.4,3.8,4.4,5.2
			c5,3.4,7.5,1.5,3.5-3.4c-3.2-3.9-10.4-3.4-8.4-8.8C268,171.6,280.9,169.7,282.4,164.5z M485.8,167.3c-6.1-0.1-13.3,1.1-19,3.4
			c-1.4,0.6-2.5-0.5-2,2.1l11.9-1.3L485.8,167.3z M522.3,168.2c-12,2.4-24.3,5.5-34.6,12.4l-4.6,4c8.4-0.4,16.8-1.6,24.6-5
			L522.3,168.2z M447.4,171.9c-0.3-0.2-1.2,0-1.8-0.1c-1.1,3.8-4.6,6.8-4.6,10.9c5.1-3.1,11-0.8,16.4-2.7c0.7-1-5.6-6.2-6.7-6.6
			c-1.4-0.6-3,0.2-3.2,0C447.3,173.2,447.6,172,447.4,171.9z M231.3,180.9c-3.2-3.4-8-7.8-12.8-8.2
			C221.6,176.4,226.7,179.7,231.3,180.9z M399.1,178.2c-1.9-2-25.7,8.7-4.1,7.3c3.2-0.2,6.4-2.1,9.6-0.9c1.2,1.7-2.5,4.8,0.5,4.6
			c5-0.4,11-4.4,9.6-10.1c-3.2-0.3-5,2.8-8,3.4C396.9,184.6,400.2,179.3,399.1,178.2z M264.1,182.8c-0.3-0.4-5.1,1.7-5.3,2
			c-0.6,1-2.4,11.4-2.9,13.5C263,197.6,264.7,188.8,264.1,182.8z M238.6,183.7c-1.6,3.1,0.7,6.2,4.1,5.5
			C246.5,188.4,239,183.2,238.6,183.7z M484.9,201.9c-0.2-0.3-6,2.7-6.2,2.9c-0.5,0.7-0.4,3.2-1.6,5.2c-1.4,2.2-4,3.4-5.9,5.1
			c3.1,1.2,6.7,8.3,8.9,4.4C481,217.9,485.5,202.6,484.9,201.9z M229.1,213.2c-0.3-0.5-1.8-0.8-2.3-1.8c-1.8-3-1.8-6.8-5.7-8.1
			c-2.6-0.9-7.5-0.9-10-0.1c-1.8,0.6-15.4,13.9-16.8,16c-3.7,5.9-2.2,10.9,5,11.8c-7.7-10.1,1.6-14.1,10.3-16.6
			c2.3-0.7,11.2-2.9,12.9-2.4c1.8,0.5,2.2,2.9,0.6,4c-2.8,1.9-21,2.5-21,9.1c0,4.5,17.6,6.8,21.3,6
			C226.9,223.5,234.9,222.9,229.1,213.2z M252.2,207.4c-6.6-0.5-13-2.2-19.2-4.6C237.8,209,245.7,214.5,252.2,207.4z M281.4,213.8
			c-1.6-3.3-5-4.3-8.2-5.5C270.8,213.1,278.3,212.6,281.4,213.8z M268.7,213.8c-2.6-1.1-5.8,0.2-7.3,2.7
			C265.7,216.5,268.2,219.7,268.7,213.8z M284.2,220.2c-1.2-2.3-9.1-4.5-11.3-4.6c-0.9,0-0.5,1.8-1.4,2.3
			C271.1,218.8,282.7,220.6,284.2,220.2z M247.7,218.4c-1.7-2.3-9.2,1.5-9.9,2.9c-0.3,0.5,0.6,6.1,3.1,4.4
			C241.9,224.9,248.5,219.5,247.7,218.4z M303.3,222c-4-5.2-11.5-5.9-16.4-1.4L303.3,222z M471.7,221.5c-3-2.6-5.4-5.2-9.6-3.2
			l9.8,5.3l1.6-0.7C472.5,222.8,472.2,222,471.7,221.5z M474.8,230.2c-6.4-0.2-17.1-9.5-22.4-10c-4.4-0.4-15.2,3.2-20.9,3.6
			c-5.8,0.4-11.9-0.3-17.8,0c7.6,5.9,12.8,14.8,12.8,24.6c2.2,0.5,1.5-0.4,2-1.2c2.1-3.1,3.6-6.4,6.2-9.3
			c13.7-16.1,30.1-13.3,23.8,10.1c-2.1,7.8-15.2,28.1-21.4,33.3c-0.7,0.6-2.9,1.6-3.7,1.5c-1.8-0.2-1.5-3.4-3.2-3.4l-3.7,7.3
			c16-3,25-17.7,33.2-30.2L474.8,230.2z M400.9,224.8c-32.5,2.8-65.3,5.9-98,4.5c-7.1-0.3-15.6-1.1-22.6-2c-4.8-0.6-24.6-6.3-26.4-6
			c-1.7,0.3-12.5,9.3-12.3,11c0.1,1.5,5,12.5,6.1,14.9c6.8,15.3,16.7,29.3,30.7,38.6c1.1-5.4,2.8-3,6.8-3.2
			c-7.7-8.6-20.6-28.3-19.8-39.9c0.6-9.8,11.8-9.6,18-4.8c6,4.8,12,24.9,16.3,33c3.3,6.2,7.3,12.1,11.6,17.6c1.3-0.6,0-2.5-0.3-3.4
			c-3.7-12-13.3-38.3-4.7-49.1c5.7-7.3,11.6,7.4,13,11.6c4.9,13.9,6.5,29.1,11.2,43.2c-0.9,2.5-3.3,2.6-4.5,0.2
			c-6-14.1-6.5-31.7-11.8-45.6c-0.5-1.4-3.9-9.6-6.1-8c-4.1,8.2-2.9,16.1-1.5,24.8c0.8,4.8,5.3,24.5,7.9,27.5
			c2.3,2.7,10.6-0.1,9.7,6.1c6-1.9,11.7-0.9,17.8-0.9c0.6-17.5-11.8-41.5,0.9-57c4.8-5.9,9-7,14.1-0.4c4.5,5.9,5.3,17.7,6,25
			c0.8,8.8,0.7,18.5,0.9,27.4c-0.2,2.6-3.3,3.5-4.4,0.7c-2.7-14-1.2-29.4-4.1-43.3c-3.7-17.7-12.3-6.2-13.4,5.2
			c-1.4,14.5,3.7,27.1,1.9,41.1c-0.2,1.5-0.2,1.4,1.3,1.3c10.8-0.8,21.5-3.4,32.4-3.7c-0.4-1.1-0.8-2-0.9-3.2
			c-0.6-7.6,8.6-41.6,12.8-48.4c2.1-3.4,4.9-5.3,9-5.4c3.7-0.1,5.2,2.4,8.3,3.1L400.9,224.8z M229.4,232c0.1,0.1,3,1.7,3.2,1.7
			c2.8,0,2.2-5.8,0-7.1C232.2,227.8,228.7,231,229.4,232z M420.1,247.5c-0.1-5.9-2.3-14.2-7.2-17.8c-6-4.4-2.8,1.6-1.1,4.8
			L420.1,247.5z M447.4,256.6c13.2-20.2,5.1-35.2-12.8-11.4c-6.5,8.6-18.8,29-23.3,38.7c-0.7,1.5-1.6,2.8-1.3,4.6l14.6-0.9
			c-1.4-6.2,7-12.7,9.1-17.8c0.2-0.4,0.2-1.5-0.4-1.3c-2.6,2.9-7.6,8.3-7.3,0.9c3.7-3,14.5-20.7,20-16.5
			C447.5,254,445.5,256.7,447.4,256.6z M304.2,287.7c-4.4-6.3-8.6-12.7-11.7-19.7c-3.1-6.9-7.8-27.6-15.4-29.3
			c-14.2-3.3-6.6,12.4-3.5,19C279.7,270.2,289.5,285.2,304.2,287.7z M396.4,289.5c-0.9-9.5,4.1-19.4,6.3-28.8
			c1.5-6.2,6-19.2-2.6-21.9c-7-2.2-7.6,3.4-9.6,8.7c-2.6,7-11.2,34.2-11.5,40.5c-0.1,1.1,0.1,2.2,0,3.2
			C384.5,290,390.7,290,396.4,289.5z M407.3,289.5c0.3-0.3,1.1-5.5,2-7.6c3.4-7.8,9.1-15.1,12.7-23l-12.3-16.9
			c0,3.7,1.5,6.2,1.3,10.4c-0.7,11.1-7.4,25.5-9.9,36.6C401.8,289.8,407.1,289.7,407.3,289.5z M315.2,294.1l-25.5-5.5l13.5,5.2
			c2.7,0.2,5.3,1,7.9,1.2C312,295.1,315.4,295.6,315.2,294.1z M331.6,300.4c-1.3,4.3,2.7,11.4,6.8,11.9c17.6-2.3,38.1,0.7,53.4-9.6
			c-2.2-1.8-3.6-5-6.8-5.1C367.2,298.5,349.4,300.4,331.6,300.4z M385.4,313.2c-13.2,2.4-26.7,1.8-40.1,1.8
			c1.4,7.5,2.2,15.1,1.8,22.8l5.9-14.6c7.5-13.2,11.2-6.4,10.5,5.5l5.4-8.7c10.3-7.5,5.7,5.1,10.1,9.6
			C381.1,324.2,385.6,319.4,385.4,313.2z M340.7,327.4c-0.5,5,0.4,10.8,0,16H338v-16.9c0-2.6,2.1-9,3.6-11.4
			c-16.3-1.5-6.2,8.4-4.8,15.2c2,9.5-2.2,12.8-8.9,18c0,1.5,12.9,3,15,3.2c9.8,1.1,23.2,2.5,32.8,2.7c4.1,0.1,7.4-0.6,11.4-0.9
			l-6.9-7.3c-1.8-4.6-2.8-1.6-6.7-1.9l-1.9-16.3c-1.4,0.7-2.6,4-3.2,5.5c-1.5,3.7-4.5,20.6-10,13.6c-2.5-3.2,1.1-20.5,0.4-25.5
			c-2.9,2.2-4.5,6.7-5.9,10.1c-1.3,3.1-4,14.6-4.6,15.5c-0.7,1-2.5,1.3-3.2,0.9c-1.2-0.7-1.9-24-1.8-27.4
			C341.8,321.1,340.9,325.9,340.7,327.4z"/>
		<path class="st0" d="M387.5,90.8c-0.6,0.4-2.5,5.6-2,6.2c2.7-1.2,9.2-7.8,11.9-6c0.7,0.5,1.3,1.7,0.9,2.3
			c-0.3,0.5-9.2,5.6-10.6,6.3c-2.1,1.1-5.6,0.5-3.8,3.6c0.3,0.6,2.9,0.7,3.2,3.5c0.4,3.9-7.5,29.6-10.2,30.5
			c-0.5,0.2-2.2,0.3-2.3-0.5c-0.6-5.6,8.4-18.3,7.3-25.5c-0.6-1.3-1.8,1.2-2,1.6c-2.6,3.7-4.9,8.8-5.9,13.2c-0.7,3-1.3,17-2.1,17.5
			c-2.1,1.5-2.8-4.1-4-4.3c-1.5-0.3-11.7,3.1-8.3-2.1c1.3-1.9,4.2,1.1,6-0.4c-4-2.5-11.4-4.2-16-3.7c-2.3,0.3-3.8,2.8-8.1,2.3
			c-5-0.6-4.5-4.9-5.1-5.4c-1-0.7-8.4,5-11.7-0.6c-3.4-5.8,3.9-9.2,3.4-11.6c-0.3-1.7-7.5-5.5-4.5-10c2.9-4.4,11.5-1.1,11.9-1.5
			c0.3-0.3,0.1-5.4,2.8-7.7c7.5-6.5,12.5,1.7,15,1.9c2.2,0.2,4.3-3,8.6-0.1c7.1,4.7-1.8,10.1-1.8,10.9c0,2.1,12.4,7.1,1.8,11.9
			l8.2,12.3c0.5-5.6,1.1-11.3,3-16.7c1.2-3.3,8-13.1,8-13.9c0-1.9-7.9-8.2-1.4-10.5l3.2,3.6c-0.8-3.1,2.2-5.6,2.6-8
			c0.4-2.2-0.9-4,0.2-7c3.5-9.7,8.1,0.4,6,6.4C390.8,91.3,388.6,90.1,387.5,90.8z M348,102.5c-5-4.2-9,4.3-7.3,6.4
			c0.1,0.1,1.8-1.1,3.7-0.6c4.6,1.4,2.8,6.8,10,1.9c0.8-0.6,5.5-5,5.5-5.4c0-1.1-2.7-1.7-4-1.3c-1.9,0.6-4.2,10.2-10.6,3.9
			L348,102.5z M336.2,114.3c1.7-1.4-6.5-6.4-8.2-3.2C330.2,113.2,333.1,114.6,336.2,114.3z M348,117.1c0.4-1.8-1.2-4.3-2.8-5
			C337.9,108.8,336.7,121.7,348,117.1z M338.9,121.6c-0.8-7.3-12.5,3-10,5.5C333.3,127.5,335.4,123.1,338.9,121.6z M348,120.7
			c-1.1,0.6-5.3,0.7-5.5,0.9c-0.1,0.1,0.8,1.3,0.6,2.1c-0.5,2-5.2,7.9,0.7,6.9C346.2,130.2,348.8,123.2,348,120.7z M364.4,131.7
			c-1.5-5.4-5.9-10.5-11.8-10.9c1.8,3.1-0.6,5.9-0.9,9.1C356.1,129.8,360.5,129.4,364.4,131.7z"/>
		<path class="st0" d="M450.2,77c0.7,5.6-4.2,7.5-7.3,10.9l13.7-0.9c0.1,1,0.2,1.8-0.4,2.8c-1.3,2-16,6.7-18.7,6.9
			c-4.9,0.4-3.8-1.6-10.3,2.3c-10.5,6.3-24.6,18.6-24.3,31.8c-3.2,0.7-1.7-3.3-3.6-3.6c-1.4,9.7-6.5,19.5-12.8,26.9
			c-3.5,4-7.5,6.6-11.1,10.3c-7.4,3.2-5.7-9.6-4.4-13.9c2.8-9.3,18.2-27.4,27.4-30.1c1.7-0.5,2.6,1.7,3.7,1c1-0.8,2.2-4.4,3.2-5.9
			c1.9-2.6,5.1-6.9,7.3-9.1c2.8-2.7,11.6-7.7,12.9-9.4c1.3-1.8-5.7-16,3.5-17.8c4.1,2.6,4.2,5.4,3.6,9.8
			C436.9,83.5,442.3,75.9,450.2,77z M432.8,89.7c-1.4-1.2-4,4.2-5.5,5.5c3.9-1.8,6.8-1.5,10.9-1.8c-0.1-1.9-3-0.3-4.6-1.3
			C432.9,91.5,433,89.9,432.8,89.7z M393.6,129c-1.7-0.4-2.2,1-3.2,1.8c-8,6.6-17.2,17.3-16.9,28.3C382.6,151,390.5,140.8,393.6,129
			z"/>
		<path class="st0" d="M524.1,95.2l-2.7,5.5c0.5,0.4,12.1-7.2,10.9-1.4c-0.4,2.2-9.4,4.4-10,7.8c0.8-0.9,16.2-2.9,12.8,1.8
			c-0.4,0.5-9.6,1.5-11.4,1.6c-1.1,0.1-2.6-0.8-4.3-0.6c-3.9,0.5-13.1,5.2-16.2,8c2.8-0.8,13.7-1.9,15.1,0c0.4,0.6,0.7,2.5,0.4,2.8
			c-0.4,0.5-10.7,2.4-12.4,2.6c-2.4,0.3-10.9,0.1-12.2,0.6c-1.9,0.7-5.6,6.8-8.2,7.7c0.4-3,3.1-5.1,4.8-7.3c0.3-0.4-0.1-1.6,0.2-1.9
			c1-1,2.9-0.5,3.2-1.4c0.6-1.9-0.3-6.4,0.3-9.5c1.5-7.2,10-16.3,8.7-3.1c-0.3,2.7-2.3,5.2-1.4,7.7c2.9-1.9,5.9-4.5,9.6-4.6
			c-2.3-1.1-4.2-8.2-1.4-8.2c1.5,0,1.3,8.4,4.1,6.4C516.2,108.1,517.5,93.1,524.1,95.2z"/>
		<path class="st0" d="M247.5,100.9c3.4,2.6,4.1,10.8,7.5,14.4c2.5-0.7-0.5-5.4,0.8-6.9c0.8-1,2-1.5,3.3-1.4
			c5.6,0.4-1.2,13.6-1.2,15.9c0.1,2.9,3.5,8.7,2.5,12.5l2.3-14.6c1.1-1.8,3.1,0.9,3.2,2.3c0.1,3.3-4,12.9-4.5,16.9
			c-1.7,0.3-0.4-1.7-1.1-2.6c-0.3-0.4-1.7-0.1-2.2-0.5c-2.1-1.9-10.9-10-11.3-12c0-0.2,3.3-3.1,3.9-2.1l7,6.7
			c-0.5-2.4-2.3-10.8-3.8-12.1c-0.2-0.1-1.5,0.4-2.3,0c-2.2-1.2-7.6-4.9-8.3-7.2C242.4,107.2,244.5,98.6,247.5,100.9z"/>
		<path class="st0" d="M411,209.2c2.1-0.1,5-4.3,6-4.5c5.6-1,1.6,9.8-5.6,10c-2.6,0.1-4-1.5-5.5-1.5c-2.5-0.1-4.3,2.7-7.8-0.8
			C390.5,204.7,412.1,193,411,209.2z M408.2,206.5c-2.1-3.9-7.2-1.4-8,2.3C404.4,214.1,405.2,207.3,408.2,206.5z"/>
		<path class="st0" d="M214.8,126.2c0.2,0.2,0.3,2.9,1.1,3.5c0.8,0.6,3-0.2,4,1.1c0.9,1.1-1.6,3.3,0.8,4.6c0.8-0.1,1-2.7,2-2.8
			c6.6-1,2.9,6.1,3.3,8.6c0.4,2.2,4.4,4.4,4.3,7c-1,1-6.5-5-7.3-5.9c-1.4-1.5-5.5-7.7-6.4-8.2c-1.5-0.8-4.2-0.1-5.1-1.3
			C209.8,130.1,212.1,124.3,214.8,126.2z"/>
		<path class="st0" d="M376,170.1c4.6-1.3,1.6,2.8,1.5,3c-0.1,1,1.4,1.9,1.1,4.1c-0.6,4.2-6.3,11.1-8.4,4.6
			C369.5,179.2,373.7,170.8,376,170.1z"/>
		<path class="st0" d="M405.2,157.9c-6.7,5.3-12.8-5.6-2.5-8.4C409.4,147.6,409.4,154.5,405.2,157.9z"/>
		<path class="st0" d="M220.2,141.8c0.5,0.7,0.8,2.8-1.1,2.5c-2-0.4-11.3-2.8-10.6-5.8C209.2,135.3,219.8,141.3,220.2,141.8z"/>
		<path class="st0" d="M400,75.1c1.4,2.7,0.2,5.7-2.2,7.3C391.7,86.6,393,73.8,400,75.1z"/>
		<path class="st0" d="M438.3,112.5l-8.7,11.8c-1.7-1.3-1.5-1.6-0.7-3.4C429.7,119.6,436.8,111.2,438.3,112.5z"/>
		<path class="st0" d="M445.6,108.9c0.2,1.7-1.2,2.6-2,3.9c-0.6,1-2.7,4.7-3.9,4.3c-2.2-0.7-0.7-1.9-0.1-2.8
			C440.1,113.3,444.4,107.6,445.6,108.9z"/>
	</g>
</g>
<g id="TEXTS">
</g>
</svg>
