<?xml version="1.0" encoding="utf-8"?>
<!-- Generator: Adobe Illustrator 27.9.5, SVG Export Plug-In . SVG Version: 9.03 Build 54986)  -->
<svg version="1.1" xmlns="http://www.w3.org/2000/svg" xmlns:xlink="http://www.w3.org/1999/xlink" x="0px" y="0px"
	 viewBox="0 0 700 450" style="enable-background:new 0 0 700 450;" xml:space="preserve">
<style type="text/css">
	.st0{fill:#7E92A3;}
	.st1{fill:#7E92A3;stroke:#7E92A3;stroke-miterlimit:10;}
</style>
<g id="BACKGROUND">
</g>
<g id="OBJECT">
	<g>
		<path class="st1" d="M365.1,256c-0.5-0.2-1.7-0.2-1.5-0.9c1-1.7,6.8-8.6,6.9-9.2c0.2-0.7-1.2-1.9-1.2-3.1c0-6.2,5.5-12.3,7.8-17.5
			c1.4-3.3,1.9-6.9,3.2-10.2c2.8-6.7,4.9-7,5.1,0.6c0.1,3.7-0.5,7.7-1.8,11.2c1.2,0.2,2.7-2.2,3.3-3.1c3.7-4.9,5.7-10.7,7.1-16.7
			c0.8-3.3,0.9-12.9,2-15c1.7-3.2,2.4,2.4,2.1,4.2c-1.1,7.5-3.6,14.8-5.8,22l15.8-12.3c-0.5-7.5,5.2-10.6,4.1-18.5
			c11.5-15.9,16.2,15.4,22,22c0-1.5,0.5-5.3,0.2-6.3c-0.3-1.1-1.8-1.2-2.3-2.2c-2-4.2-3.6-15-2.4-19.5c0.7-2.5,2.4-2.8,3.1-4.3
			c2.1-4.6,3.2-9.1,6.8-13.3c4.9-1.2,5.8-6.6,11.6-3.7c12,6,2.6,24.3-1.9,33c-0.8,1.5-5,9.7-6.4,9.3c-2.3-0.6,3.3-8,3.9-9
			c2.4-5,10.5-22.1,7.2-26.8c-0.6-0.9-5-1.5-6.2-1.4c-3.4,0.2-7.6,3.9-9,6.9c-1.4,3.1-1.2,7.3-1.9,8.8c-0.4,0.8-2.9,0.1-4,1.7
			c-0.8,1.2-1,7.8-0.9,9.5c0.1,1.2,1.7,8.9,2,9.3c0.2,0.3,2.1-0.5,2.5,0c0.3,0.4-1.1,1.7,0.4,1.8c1.3-4.1,5.2,3,5,5.7
			c-0.9,12-6.8,2.1-7.5,2.3c-0.7,0.2-5.6,5.4-6.2,6.6c-4.2,8.3-2.9,19.4,6.8,22.3l-0.1-5.2c2.6,0.5,2.9,2.8,4.9,4.4
			c4.6,3.6,8.2,4.8,11.4-1c-2.2-1.8-15.3-18.3-11.9-20.3c2.3,1.6,3.2,3.2,6,4.5c3.8,1.7,9.4,3.1,13.6,3.1c4,0,17.4-3.5,18.7-7.5
			c1.2-3.6-6.7-2.7-7.9-5.8c-1.8-4.6,9.5-12-3.9-12.6c-7.4-0.3-13.4,4.9-19.3,7.6c-3,1.4-5.9,0.5-3.5-2.9c2.2-3.1,9.5-7.1,11.4-10.1
			c0.3-0.5-3.6-7.6-0.1-6.4c0.3,0.1,0.7,2,1.4,2.6c2.2,2,4.3,0.2,1.8,4.7c-0.6,1-1.6,1.6-2.3,2.5c5.3-0.6,10.9-3.2,16.3-1
			c8.2,3.3,1.8,12.7,2.4,13.7c0.3,0.5,6.6,1.2,7.1,5.9c0.3,3-0.9,4.5-2.3,6.9c8.8,1.7,26,12.6,25.7,22.7c-0.1,1.7-0.8,4.6-2.8,3.5
			c-0.4-0.2-3.4-6.1-5.3-7.9c-6-5.7-17.6-8.4-18.9-17c-0.9-1.1-5.4,2-6.9,2.6c-6.9,2.5-16.1,4.4-22.4-0.3c-1.7,1.1,6.4,8.1,6.5,11.5
			c0.1,8.2-8,8.5-13.9,6c-7.3-3.1-15.4-3.8-23.9-3.2c-2,0.1-11.6,2.5-11.9,1.9c-0.7-1.3,2-1.7,2.6-2c5.6-2.7,11.5-2.3,17.4-2.3
			c0.6,0,1.7,0.8,1.5-0.8c-0.1-1.1-2.2-4.2-2.7-6.6c-1.1-6.4,0.8-13.9,5.9-18.1c-4.8-0.8-10.7-0.8-15.3-2.6
			c-1.7-0.7-4.2-3.2-4.7-3.2c-4.6,0.5-21.6,19-25.9,23l-2-0.2l1.1-10.6l-0.1-6.9c-1.9,5.6-3.3,11.5-5.3,17c-1,2.7-3.4,5.6-4.3,8.3
			c-0.3,0.8-1,4.4,0.2,4.8c9.1-11.2,24.4-24.4,39.4-25.4c0.8,0,6.9-0.4,6.2,1.6c-0.2,0.5-8.2,0.9-10,1.3
			C390.2,224.3,376.3,241.7,365.1,256c5.3,1.6,5.9-1.2,9.7-2.5c16.6-5.5,23.3,2.1,37.9,3.9c2.8,0.3,14.5-4.6,5.6,1.9
			c-8.1,5.9-18,9.8-28.1,7.1c-6.4-1.7-11.7-6-18.2-7.4c0.9,3.7-7,10.1-10.3,8.1c-1.3,2.1,1.3,1.6,1.1,3.8c-0.1,0.8-1,2.9-1.5,3
			c-1.3,0.5-6.4-4.6-6.4-1.5c0,2.5,2.5,6,4.1,7.8l1.8-2.9c0.7,4.9-0.4,6.1,5.6,6.7c1.2,0.1,8.7-4,8.9-4.4c0.1-0.2-1.8-3-1.7-4.4
			c0.2-6.4,4.4,3.6,5,3.8c0.4,0.1,5.5-0.6,7.7-0.3c2.3,0.3,4.6,2,5.5,2c0.6,0.1,2.2-1.9,3.5-2.5c6.8-3,16.7-4.6,23.9-2
			c2.7,1,9.6,6.4,5,8.1c-0.9,0.3-13.9-0.8-17.2-0.6c-1.4,0.1-8.7,0.8-9,1.8c3.6,2.9,4.8,12.4,7.4,14.7c2.1,1.9,10.3,5.7,13.3,6.9
			c2,0.8,14.1,3.5,13.5,5.5c-0.3,0.8-12.6,2.2-14.6,2.5c-3.3-0.4-6.9-1.2-9.4-3.4c-1.1,0.7,3.2,8.5,4.1,9.5c2.6,3.2,6.1,3.3,8.5,6.1
			c-10.8,4-19,1.1-20.9-10.9c-0.4-2.9-1.3-15.2,0-17.2c0.5-0.7,1.9,0.3,1.9-0.4c-0.2-2.1-5.2-10.7-7.4-9.7l-3.4,33.4
			c-1.9,6-3.8,4.1-5.4-0.5c-1.7-5-0.4-13.2,0.8-18.4c1-4.1,5.1-13.6,5.2-16.6c0-0.8-1.5-0.9-2.1-1.7c-0.5-0.7-0.3-1.8-0.5-2
			c-2.8-3.2-15.1-2.1-18,1.2c-2.1,2.5-0.7,5-6.5,4c-9.3-1.5-16-5.9-22.7-12.2l-2.6,11.4c3.2,1.9,2.6-1.1,4.6-3.2
			c3.5-3.5,2.4-0.1,3.6,1.8c1.2,1.9,4.2,1.7,3.1,4c-2.6-0.2-5.5-4.3-6.8-0.4c5.9,2.6,14.9-1.3,7.3,7.5c7.9,4,6.3-1.4,10-4.3
			c1.3-1,2.6-0.4,2.4,0.8c-0.1,0.5-1.4,1.4-1.4,2.2c-0.4,4.5-1.3,9.4-1.6,14c-0.2,2.7,1.1,10.9,3.5,12.1c0.9,0.4,9-4.1,11,2.1
			c2.1,6.3-6.1,7.3-5.6,11.6c0.1,0.8,3.3,8.4,3.9,9.3c3,4.6,8.6,7.9,11.4,13.9c5.6,12-1.7,25.2-15.1,24.9c4-5.7,7.6-7.5,9-15.1
			c0.7-3.8-5.6-18.2-8.2-21.5c-5.8-7.5-14.1-10.5-9.8-22.7l-3.1-14c-9.6,23.5-13.2,48.8-12.4,74c0.3,9.6,2,19.1,2.5,28.6
			c-1.1,2.9-3.4-7.9-3.6-8.8c-3.1-18.1-2.6-46.1,1.6-64c1.9-7.9,5.2-15.9,7.3-23.8c0.3-1,1.5-2.8,0.1-3c-2.4,7.3-5.4,14.2-7.6,21.6
			c-1.2,4.1-1.1,8.8-3,13c-0.7,1.5-1.8,0.3-2.4,1.8c-0.9,2.1-2.4,10.2-3,13c-4.4,20.5-6.6,44-4.3,64.8c-2.9,0.2-2.6-6.7-2.8-9.2
			c-1.7-30.1,5.3-63.9,14.9-92.3l9.2-23.9c0.1-1.2-3.6-3.3-5-2.2c-0.5,0.4-5.4,10.1-5.5,10.9c-0.2,0.9,2.6,0.9,2.6,2.7
			c0,0.8-5.8,11-6.7,13.4c-10.2,26.6-15.1,62.6-15,91.1c0,8.9,1.4,17,1.8,25.6c0.1,2.8-2.5,2.5-3.5-0.2c-2-5.4-2.6-17.7-2.7-23.8
			c-1.2-40.7,9-84.4,27.2-120.8c0.7-2.3-3.5-4.1-5.5-4.6c-1.7,0.7-11.7,30.5-13,34.7c-6,19.5-10.8,39.7-14.3,59.8
			c-0.8,4.8-0.7,13.1-1.9,17c-0.7,2.5-3.7,3.7-4.5,1.3c-0.6-1.7,1.4-17.6,1.9-20.6l4.5-23.3c-5.2,10.7-10.4,21.6-16.8,31.7
			c-2.6,4.2-5.6,9.6-9.8,12.3c18.1-26.4,29.6-56.6,39.8-86.8l-13.1,22.4c-2.3,3.8-20.6,30.3-22.5,30.9c-0.7,0.3-2-1.3-2-2
			c0.1-1,10.8-13.8,12.6-16.3c13.7-19.5,25.1-40.5,33.5-62.9c-15.5,3.4-21.8,22.2-34.9,28.8c-5.4,2.7-10.5,1.2-14.7,2.4
			c-1,0.3-11.7,10.3-16.5,12.7c-10.4,5.1-24.3,4.7-30.8,14.6c-0.4,0.7-5.9,12.3-5.6,6.6c0.1-3.6,3.1-6.3,4.5-9.4
			c-4.5,1.6-8,6-10.8,9.7c-1.3-0.4-0.7-3.1-0.5-4c5.4-22.7,34.6-16.3,48.9-29.4c6.5-5.9,0-4.2,0.3-9.9c0.6-9.3,12.4-9,13.8-2
			c0.4,2.1-1.4,5.8,0.5,5.7c2-0.1,10.3-4.5,12.2-5.9c7.3-5.4,11.4-14.9,19.6-19.6c2.1-1.2,11.4-3.7,11.7-4.2c0.6-1-1.3-3.1-1.4-4.5
			c-0.9-8.4,6.7-11.7,7.1-14.3c0.3-1.9-2.6-7.7-1.7-8.1c2.4-1.1,3.2,4.8,4.3,5.7c0.5-1.8-0.3-8.4,3-6.9c-3.3,7.8-1.2,10.5,4.8,15.4
			c0.9-1.9,1-5,2.2-6.6c0.8-1.2,2.6-0.3,2.8-1c0.3-1.1-0.7-2.1-0.6-3c0.2-4.9,3.9-4.4,6.1-0.9C358.8,259.2,363,258.7,365.1,256z
			 M430.6,209.4c0.6,0.6-0.5,3.9,2.2,1.8c-1.1-1.7-1.4-3.7-2.2-5.5c-1.3-3.1-8.2-16.9-9.8-18.7c-2.2-2.4-4.3-1.1-5.3,1.5
			c-0.7,2,0.2,4.5-0.4,6.8c-0.7,2.8-3.5,5.6-2.6,8C414.7,209,428.8,207.5,430.6,209.4z M439,211c-0.4-2.3-0.3-5.1-2.3-6.8
			C435.4,205.6,437.3,211.8,439,211z M411.7,260c-10.5-0.9-23.5-7.6-34-4.6c-0.9,0.3-1.4-0.5-1.6,1.5
			C388.1,261.5,399.4,267.2,411.7,260z M421.9,280.5c-7.5-2.9-14.1-4.3-22-1.9c-1.6,0.5-5.7,1.9-6.4,3.6c5.7-1.8,12-2,17.9-1.9
			C414.8,280.4,419.3,282.2,421.9,280.5z M337.4,286.6l0.7-12C333.9,275.2,334.8,288.1,337.4,286.6z M402.8,302.6
			c-1.4-1.6-2.6-1-2.6,1c0,1,3,13.5,3.5,14.8c1.9,4.2,5.5,7.5,10.1,8.3c-2.6-3.5-5-5.8-6.9-9.9C405.6,314.1,403.3,303.1,402.8,302.6
			z M421,311.5c-5.3-0.8-8.9-4.5-13.8-6c0.9,2.7,4.1,5,6.7,5.9C415.5,312,419.9,313,421,311.5z M329.4,292.8
			c-1.4-0.8-2.1,0.2-3.3,0.7c-12.1,5.1-15.8,16.7-26,23.5c-3.9,2.6-8.9,3.1-12.9,5.4C306.8,322.5,314.5,301.9,329.4,292.8z
			 M354.3,313.5c0.4-3.8,3.9-5.5,3.7-9.3l-3.7,6.3L354.3,313.5z M368.7,323.2c-1-0.6-2.2-0.2-2.9,0.8l2.4,0.7L368.7,323.2z
			 M365.8,326.8c0-0.1-1.6-1-2-1.6c-0.9,1.8-0.7,3.5,1.4,3.9C365.3,328.3,366,327.3,365.8,326.8z M371.5,328.4l-1.6-0.5l-0.7,2.4
			C370.4,330.4,371.4,329.6,371.5,328.4z M365.4,339.6c-0.4-3.9-0.4-8-3.6-10.7C360.7,332.8,362.3,337.1,365.4,339.6z M283.2,318.6
			c6.8,2.8,3.6-9.1,0.6-7.6C283.3,311.2,284.8,317.3,283.2,318.6z M281.5,312.8c-1.7-2.6-5.7,4.7-0.9,5.8
			C281.1,317.7,281.8,313.3,281.5,312.8z M272,332.5c0.5,1,12.9-8.1,12.1-11.1l-2.8,1.5L272,332.5z M376.6,379.5
			c8.2-3.7,8-16.6,2.6-22.7c-0.3,2.7,1.7,5.1,2.1,7.9C382.1,370.9,379.8,374.6,376.6,379.5z M256.6,337.3
			c-11,0.2-25.5,5.6-28.8,17.2l11.4-10.4C244.5,340.6,250.9,339.9,256.6,337.3z"/>
		<path class="st1" d="M369.5,146.1l8.1-6.7c11.7-4.5,11.7,5.9,15.2,12.6c1.3,2.5,4.1,4.6,5,6.7c4.4,10-12.1,18.1-19.5,21
			c2.4,0.3,8.7,7.6,9.3,7.6c0.5,0,8.4-5.5,8.8-6c0.7-1,0.9-3.5,2.5-5.5c5.6-7.1,24.2-9.6,32.1-14.7c1-0.8,2.2,1.1,2.1,1.5
			c-0.3,1.1-15.6,11.5-17.3,13.8c-5.9,3.9-23,10.6-26.7,14.8c-2.5,2.9-3.5,11.1-9.2,12.7c-2.3,0.6-6-0.8-5.5-2.9
			c0.4-1.7,3.2,0.8,4.2,0.5c2.6-0.7,6.2-8.7,5.3-11.4c-0.3-0.8-13.1-8.2-15-9.4c-0.8-6.2,5.5-2.6,8.3-3.2c2.3-0.6,13.5-7.7,14.8-9.7
			c5.2-7.8-1.6-8.3-4.7-14.2c-1.3-2.5-1.6-7.3-3.1-9c-7-8.3-19.9,10.7-20.4,17.1c-0.6-0.3-2.3-0.5-2.4-0.7c-0.3-0.6,4-7.8,4.6-9.4
			c1.6-4.1,2.4-8.2,1.1-12.5c-2.8-9.2-5.7-1.2-10.6-3c-3.9-1.5-4-6.9-10.6-7.4c-2.9-0.2-11.8,6.1-13.3,8.7
			c-3.6,5.9-1.1,14.6,3.4,19.5c2.9,3.2,6.7,4.2,9.4,6.4c0.9,0.8,0.6,2,1.3,2.8c0.2,0.3,6.3,4,1.4,3.1c-8.4-1.6-19-6-25.3,2.5
			c-7.5,10.1-0.4,12.8,3,20.6c1.4,3.3,1.3,12.2,7.9,9.9c1.1-0.4,11-8.5,11.6-9.5c0.7-1.1,0.2-2.2,0.5-3.3c-6.4,5.5-16.3,11-20.3-0.2
			c-0.8-2.2-3.1-16.6,0.6-16.3c1.5,0.1,1.4,2.1,1.6,3.1c1.2,6.6-0.4,19.3,9.8,16.1c6.1-2,8.6-12.3,11.2-2.6l4.2-3.9
			c-0.8,2.4-1.6,4.3-1.1,6.9c0.1,0.5,3,8.5,3.3,8.9c4.2,6.9,13.1,6.3,18.9,2c4,2.1-1.6,4.5-3.9,5.3c-3.7,1.2-7.5,1.3-11.1-0.3
			c0.1,15.1-2.2,30.5-6.1,45.1c-2-0.5-1.4-0.2-1.2-1.7c1.5-9.5,8.2-37.2,4.1-44.7c-0.7-1.2-2.2-2.1-2.7-3.1
			c-0.8-1.6-2.8-8.3-4.6-8.4c-3.5,2.4-6.7,6.2-10.1,8.5c-1.8,1.2-5.6,1.5-6.2,3.4c1.7,9.2,5,16.9,3.9,26.5c-0.2,1.7-0.8,7.1-1.1,8.3
			c-0.3,1.3-2.5,2.4-2.6,4.2c0,0.9,5.7,11.3,5,11.7l-3.4-4.5c-2,0.5-2.4,2.9-3.6,3.8c-0.6,0.5-2.5,0.6-3.6,1.3
			c-4.7,2.9-15.4,8.5-20.8,8.5c-5.2,0-11-3.8-17.3-3.8c-2.2,0-7.3,2-7.7,1.7c-4-2.2,6.6-8.7,8.2-9.7c5.2-3.2,13-6.5,19.1-6.5
			c4.1,0,10.5,2.4,13.1,2.1c2-0.2,6.3-4,9.1-4.1c0.7-2.2-19.2-16.9-22.2-18.8c-7-4.6-13.8-8-22.4-7.7c-9.1,0.4-18,6.3-27,4.9
			l1.9-2.6c9-1.8,17.2-6.4,26.4-7.3c-4.4-4.5-7.3-12.1-13.2-14.3c-2.9-2-0.8-4.9-1-6.2c-0.7-4-5.1-12.8-2.9-17
			c2.3-4.3,1.6,3.8,1.7,4.4c0.7,9.8,8,21.6,14.2,29.1c1,1.2,3.1,4.2,4.7,4.1c-6.8-9.8-13.6-20.8-16.2-32.7c-0.5-2.4-1.7-6.5-0.3-8.5
			c2.4,5.3,3.5,11.2,6.1,16.4c3.7,7.4,11.6,15.5,14.5,22.6c1.1,2.7-1.6,3.5,4.7,4.5c-3.8-7.7-7.5-15.5-9.3-24
			c-0.7-3.3-2.3-12.7-2-15.5c0.4-4.3,4.6,3.6,4.9,4c4.1,5.3,9.2,10.1,11.3,16.6c1.8,5.6,2.5,22,4.7,25.4
			c2.6,3.9,12.5,10.2,16.5,13.9c1.6,1.4,2.7,3.3,4.3,4.7c-0.1-5.8-2-10.2-2.1-16.5c0-3.6,2.1-19,1.8-19.9c-0.1-0.4-3.5-3.4-4.5-5.9
			c-1-2.3-0.8-5.3-1.8-7c-1.2-2-4.6-4.1-6.1-6.7c-8.3-14.2,5-26.3,19.2-24.1c-14.9-13.1-11.5-31.8,7.8-38c9.8-3.1,11.3,9.5,15.9,8.8
			c0.8-0.1,1.7-1.2,2.8-1.2C368.2,132,370.3,141.9,369.5,146.1z M414.2,172.9c-3.1,0.3-8.7,1.6-11.3,3.1c-1.2,0.7-2.5,1.5-2.7,3
			L414.2,172.9z M297.1,193.6c-0.3-0.7-5.1-8.6-5.1-4.9c-0.1,5.6,5.2,18.8,8.3,23.9C299.6,206.5,299.7,199.1,297.1,193.6z
			 M331.2,233.4c0.8-2.4,0.7-4.9,0.8-7.4c0-1.7,0.4-5.3-0.8-6.5l-0.5,6.6L331.2,233.4z M318.5,252.1c-9-1.8-19.2-0.2-26.1,5.8
			C302.7,260.3,310.1,258.3,318.5,252.1z"/>
		<path class="st1" d="M391.2,95.4c1.8,2.6,1.4-1.7,1.6-2.5c0.9-3.2,2.2-6.3,3-9.5c1.5-6.8,0.6-16.1,6.9-20.9c1.6,2.1,1,5.2,0.6,7.7
			c-2.3,11.6-7.9,23.2-6.4,35.3c-2.5,0.9-1.5-2-1.5-3.2c-0.1-2.3-0.5-2.1-1-0.2c-1.3,5.7,0.6,15.1-1.4,21.4c0.2,1.6-1.7,1.1-1.9,0.6
			c-0.4-0.7,1.5-5.9,0.5-7.2c-2.4-3.2-6.2-2.8-8.6-4c-3.3-1.6-24.6-13.4-18.3-18.5c3.1-2.5,14.7,5.7,17.4,8.3
			c3.4,3.3,5.3,8.5,7.8,11.1c0.5,0.5,1.8,1.6,2.4,0.7c0.1-12.2-3.6-24.7-13.5-32.4c2.3-1.6-0.1-1.6-0.5-2.7c-0.9-2.7,2.5-3.3,3-5.5
			c0.7-2.8-4.5-22.7-6.6-24.5c-3.9-3.3-5.5,1-9.8-0.1c-4.1-1.1-11.7-11.1-11.6,0.8c0,6.2,9.1,15.6,13.7,19.4
			c1.5,1.2,11.8,6.9,9.5,8.6c-8.6-0.2-13.3-8.8-19.2-13.7c3.5,8.7,11,14.8,20.6,15c-8.3,4-17.2-2.4-21.9-9.4
			c-5.9-8.7-6.5-17.1-3.4-27.1c-7.2-0.4-6.5,7.3-8.9,11.4c-1.8,3.1-4.8,2.7-4.7,8.8c0,6.4,14.6,15.9,19.9,18.7
			c6.1,3.2,11,5.7,17.7,3.3c2.4-0.9,1.6,0.4,0.6,1.1c-8.9,5.6-35.6-7.2-40.3-15.9c-1.5-2.7-2.2-9.2-1.1-12.1
			c1.1-2.8,5.1-3.6,6.7-6.4c0.8-1.4,0.4-2.9,1.1-4.1c4.1-8.1,6-5.2,13.5-7.1c2.9,0.3,5.3,3,7.9,3.7c2.6,0.6,3.6-1.3,5.5-1
			c3.5,0.5,7.3,4.8,8.8,7.9L385,70c2.9-3.9,4.1-10.6,3.2-15.3c-0.2-0.9-7.3-15-7.9-15.7c-2.1-2.7-5.2-4-8.5-2.2
			c-2.4,1.3-1.9,4.4-5.8,2.2c3.3-12,16.4-8.3,20.4,1.5c2.8,7,6.1,17.2,3.8,24.6c-1.6,5.1-6.8,8.1-6.9,14.2c0,1.6,6.2,10.7,7.5,13.3
			C391.3,93.7,391.1,95.3,391.2,95.4z M400.3,71.3l1.2-4l-0.8-0.2l-1.2,4L400.3,71.3z M384.9,110c-3.5-6.7-10.3-11.5-17.7-13.2
			C370.8,103.6,379,105.8,384.9,110z"/>
		<path class="st1" d="M425.2,100.6c6.5-3.3,16.2-8.3,21.2,0.4c1.9,3.2,0.4,7.7,0.6,8c0.1,0.1,2.3,0.8,2.4,0.7
			c0.2-0.1,0.9-2.7,2.7-4.2c1.4-1.2,3.9-1.2,5.4-2.5c-2.9-0.6,1.3-4.8,2.8-6c1.3-1.1,3.8-1.2,3.9-1.6c0.8-1.7-1.8-5.1,0.8-7.1
			c3.3-2.6,2.9,4.2,4.7,3.2c0.3-0.2-2-5.8,1.6-6.5c3,1.4,0.3,3.1-0.3,5.1c8.3-4.9,8.2,0,1.3,4.3c-0.5,0.3-4.9,2.7-5.2,2.7
			c-2.7,0.7-2.6-1.4-5.9,2.5c6.1,6.2-1.5,9.1-7.3,9.5c-0.4,1.4,1.9,1.7,2.6,2.9c3.1,5.7-12.3,19.1-18.7,18.2l6.8,3.4
			c5.8,4.3,2.4,6.2,1,10.7c-1.2,3.8,0.4,5-4.1,8.5c-4.8,3.7-8.9,1.3-11.1,2.2c-0.7,0.3-3.5,4.8-5.7,6.2c-7.7,4.8-14.2-2.7-12.8-10.3
			c-2.8,0.5-8.2,10.2-9.2,10.2c-1.8,0-2.3-1.3-2.2-2.8c0.4-3.3,6.5-18.1,6-19.4c-9.7,0.5-6.5-6.8-2.4-12
			c-9.5-1.4-11.7-11.8-4.5-17.9c0.9-0.7,9.8-6.6,10.3-6.8c5.8-1.8,8.3,3.2,9.7,3.4c0.5,0,4.4-3.3,4.7-3.8c1.4-2.1,1.4-8.9,2.3-11.9
			c1.1-3.6,3.7-6.8,4.3-10.9c0.5-3.1-1-6.8,1.4-10.4l0.4,4.5c0.7,1.8,5.9-8.6,6.3-9.8c0.3-1,1.1-5.5,1.1-6.4c0-1.5-1.8-2.8-1.2-4
			c0.5-0.9,3-0.9,3.5-0.2c0.8,0.9-1.7,5.9-0.4,6.8c2-4.6,9.7-10.1,11.7-13.8c1.9-3.4,0.5-7.4,6.2-10.5c1.3-0.7,2.8-0.3,3.7-0.8
			c3.3-1.9,6.3-6.7,10.2-4c3.5,2.4-1.9,6.5-4.3,7.7c-1.5,0.7-2.9,0.3-4.7,1.3c-2.2,1.1-10.6,8.2-11.9,10.1c-0.3,0.4-0.6,1.2,0,1.3
			c1.3,0,6.4-2.3,6.8-2.2c0.5,0.1,1.1,2.3,0.5,2.7c-0.1,0.1-1.9-0.3-2.9,0.1c-6.3,2.1-8.3,7.8-12.8,12.2c-2.4,2.3-6.2,2.7-6.6,6.9
			l6.4-2.4c-0.8,3.7-6.3,4.7-9.1,7.9c-1.3,1.5-4.5,6.6-5,8.2L425.2,100.6z M456.5,44.2c0.4-2.6,10.1-5.5,6.5-8.4
			c-2,1.9-4.5,3.6-6.2,5.9C456.3,42.4,454.9,43.9,456.5,44.2z M442.4,112.8c-0.7-0.8,1.3-6.9,0.5-9.2c-2.6-8.1-20.1,2.1-21.8,7.5
			c-0.4,1.3-0.9,6.4-0.6,7.7c0.7,3.1,3.3,2.9,4.9,4.7c4.2,4.8-5.9,10.7-7.9,2.1c-0.8-3.4,1.5-3.1,1.9-4.5c0.2-0.6-0.7-2.7-0.7-4.1
			c0.2-3.9,2-8.6-2.8-11.2c-5.3-2.9-6.4,2.5-9.7,4.4c-2.6,1.4-5.1,0.3-7.1,4.8c-3.8,8.7,6.6,9,7.3,11.1c0.6,1.8-3.3,6.2-3.2,8.6
			c0.6,1.5,10.9-4.1,13.4-2.9c0.6,0.3-1,2.5,2.6,1.7c-1.1,2.5-2.5,4.5-3.2,7.3c-0.5,1.9-1.3,6.9-1.6,8.8c-0.4,2.7-0.4,7.9,2.6,9.4
			c7.3,3.4,7.8-8.6,13.7-9.3c5.9-0.7,6.2,3,10.5-3.9c7.2-11.6,0.1-9.3-9-11.8c-8.2-2.3,9.8-6.1,11.6-7.1c2.5-1.4,12.4-10.7,8.8-13.3
			C450.4,111.9,444.4,115.2,442.4,112.8z M422.8,125.2c-0.1-0.2-2.3-1-2.8-1.8C418.6,127.5,424.2,128.6,422.8,125.2z M406.1,151.3
			c7.7-2.9,7.4-9.6,10.1-16c-1.7,0.2-5.3,1.2-6.4,2.4c-0.9,1-0.1,1.8-0.2,2.1L406.1,151.3z"/>
		<path class="st1" d="M473,151.5c0,0.1-2.9,1.7-0.5,1.6c6.9-5.6,17.5-12.1,21.1-20.5c1-2.4-1.4-0.2-2.9-1.7
			c-3.4-3.4,2.1-7.9,1.8-8.6c-0.1-0.2-2.1-0.9-2.7-1.9c-2-3.5,4.7-4.6,5.7-0.7c0.3,1.2-2.2,6.1-0.1,8.7c1.9-0.2,5.5-10.8,6.1-12.9
			c-1.5-0.7-0.7,1.5-2,2.1c-0.6,0.2-2.3,0.2-2.8-0.4c0-3.3-2.8-10.7-2.7-13.3c0.1-2.6,1.5-4,2.1-6.1c0.2-0.6-0.7-1.6-0.3-2.5
			c1.4-3.6,5.5-2.3,5.9,1.3c0.4,3.2-2.6,7.4-1.7,11.6c0.8,3.8,3.8,0,5.1,1.6c1.3,1.7-3.4,8.7-3.4,11.1c3.4-0.9,2.2,1.3,3,2.4
			c0.5,0.7,3.3,1.5,1.9,3.8c-0.2,0.3-4.5,2-4.8,2c-1.2,0-3.3-1.9-3.9-1.6c-0.2,0.1-2.1,3.5-2,3.7c0.4,0.6,6.3,1.5,3,5
			c-2.9,3.1-5.4-1.1-6.1-0.8c-0.2,0.1-1.4,2.9-2.3,3.9c-5.6,6.8-13,13.2-20.8,17.3l9.5,0.3c2-1.9,3.5-4.6,6.8-3.6
			c1.5,0.4,0.6,1.8,1.2,2.1c0.7,0.4,3.1-0.2,3.6,2c0.4,1.9-1.5,4.8-3,5.1c-0.7,0.1-1.8-2.8-3.3-3.2c-1.3-0.3-9.6-0.2-11.3,0
			c-3.2,0.4-7.1,4.1-5-2c-3.3,1.8-7.3,3.5-11.1,3.5c1.3-2,5.3-1.9,6.5-3.2c0.4-0.4,0.3-1.7,0.9-2.3c4-4,7.9-6.8,8.7-13
			c-0.1-0.3-4.5,1.1-4.5-2c0-0.3,2-6.3,2.3-6.5c2-1.5,6.4,3.3,6.3,3.7C475.8,142.2,474.6,146.9,473,151.5z"/>
		<path class="st1" d="M319,53.1l-0.8-0.2l5.3-17.1c0.1-0.2-0.9-1.9-1.2-1.7c-3.1,7-6.3,13.9-8.3,21.3c-0.5,1.9,0.7,5.9-2.4,2.5
			c-0.1-0.2,0.3-0.8,0.2-1c-0.5-0.7-2.1-0.7-1.9,0.7c0.1,1.1,2.9,6.5,3.9,7.3c1.6,1.2,4-0.1,4.8,3.4c0.8,3.2-4.6,13.1-7.9,13.5
			c-1.3-0.2-1.4-0.4-0.8-1.6c0.9-1.9,10.3-11.3,5.3-12.8c-1.2-0.3-2.3,1-3.7,0.7c-0.6-0.2,0.9-2.4-1.5-2.2c-0.5,1.7-1.6,4.3-1.1,6
			c0.4,1.6,3,1.6,2.6,3.1c-11.5-2.6-22.5,1.8-31.9,8.2c-1,0.7-1.6,1.9-3.1,1c3.4-5.7,12.5-9.1,18.8-10.3c2-0.4,12.4-0.7,12.6-1.3
			c0-0.1-1-1.5-0.8-2.9c0.9-5.5,4.5-6.6-2.7-9.9c-9.1-4.1-14.7-3.7-23.1,1.3c-0.7,0.4-1.2,2.2-2,0.1c7.3-6.6,17.6-7.4,25.8-2
			c-1.5-3.9-5.2-6.9-5.7-11.3l2-22c5.1,3.5,12.7,10.6,11.8,17.3c-0.4,2.9-3,7-1,9.5c3.7-7.3,5.3-19.3,12-24.4c1.3-1,2.7-0.8,2.3,0.6
			L319,53.1z M306.5,57.1c5.7-1.9,2.6-5.5,2.8-8.4c0.2-3,2-5.2,1.5-8.7c-0.3-2-6.3-11.6-7.8-10.8c-0.4,2.5,0.6,4.8,0.6,7.3
			c0,3.7-1.1,8.1-0.5,11.6C303.6,51.3,306.8,53.7,306.5,57.1z"/>
		<path class="st1" d="M296.8,139.3c2.1,1.2,4.1-0.8,6-0.6c4.8,0.4,3,5.9,1.8,9.1c-3.1-0.3-0.4-4.5-1.5-6.2
			c-1.5-2.2-14.2,2.8-12.9,7.8c4.7-0.8,5.9,6.2,6.4,6.4c1.8,0.7,7-2.1,9.3-0.7l-2.7,6.1c3.2,0.6,6.2-0.5,4.8,4.1
			c3.8-0.2,0.7-3.1,1.3-4.3c0.6-1.3,7.3,2.6,6.6-4.5c-0.7-1-3.5,4.3-7,2.1c-0.8-0.5-2.4-3.4-1.9-4.4c0.9-1.6,6.3,1.4,6.5-1.5
			c0.3-3.9-6.3,0.2-6.7-0.8c0.4-3.1,2.6-4.4,5.6-4c3.3,0.4,2.4,3.7,3.1,5.8c0.7,2,2.9,2.7,1.7,6.1c-0.3,0.7-7.5,8.4-8,8.6
			c-4,1.4-2.9-3.5-3.5-4.3c-0.6-0.9-6.6,0.1-3.2-6.6c-2.4-0.8-5.1,1.3-7.5,0.3c-2-0.8-1.1-3.2-2.3-4.1c-2.6-1.8-6.4-0.2-5.1-5.6
			c1.1-4.2,6.8-9.1,7-10c0.4-3.3-2.6,0.4-4.4,0.4c-5.7,0.2-4-2.6-4.5-5.5c-0.1-0.8-1.1-1.1-1.1-1.7c0.2-3,2.2-6.5,5.4-7.1
			C298.3,122.7,297.8,133.6,296.8,139.3z M294.3,135.8c2.2-2.1-2.9-13.9-6.4-6.5c-1.9,4,1.9,2.2,3.9,3.6c-1.2,3.2-4-0.3-4.3,0
			c-0.4,0.2-0.2,3.2-0.1,3.4C288.3,137.5,293.7,136.3,294.3,135.8z"/>
		<path class="st1" d="M329.5,123.3c0.4-0.3,5.9,0.5,6.6-4.4c0.1-0.9-3.3-2-3.2-3.8c0.1-1.9,7.1-4.7,3.1-8.3c-1.4-1.3-6-2.2-7.6-1.2
			c-3.1,2-2.1,6.1-3.1,8c-1.1,2-6.9,4.1-5,8.3l4.5,0.9c-1.4,5.7-7.5-0.9-8-0.7c-0.5,0.2-3.9,5.6-7.6,6.4c-0.6,0.1-7.5,0.2-8,0.1
			c-3.1-0.7-4.4-6.6-4.4-9.6c0.4-1.7,7,2.1,7.8,2.8l-5-0.7c-1.2,11.7,19.7,2.8,14.4-6c-2.2,1.9-11.1,0.4-8.9-3.1
			c2.2-3.6,13.2,0.3,14.1,4.6c4.7-4.3,3.6-14.8,11.1-14.8c4.5,0,10.6,1.5,10.1,7.2c-0.3,3.2-2,4.6-2.7,6.8c-0.6,2.1,0.8,4-0.7,6.3
			c-0.8,1.2-6.3,4.2-7.3,3.8C329.5,125.9,328.9,123.8,329.5,123.3z"/>
		<path class="st1" d="M465.1,191.2c6.3-3,10.5-8.1,17.2-10.8c4.7-1.9,10.6-1.8,14.6-3.7c2.6-1.2,3.5-3.1,5.7-4.4
			c3.5-2.1,3.3,0.8,1.8,3.4C498.6,186.3,476.6,199.6,465.1,191.2z M492.2,182.2c-7.2-0.3-13.8,3.1-19.5,7
			C479.8,189.4,486.4,186.1,492.2,182.2z"/>
		<path class="st1" d="M456.1,268.4c-0.3,0.2-5,0.3-6.6,0.8c-5.6,1.5-12.4,5.2-18.3,4.4c-4.8-0.6-13.5-2.9-15.2-7.9
			c9.1-1.1,17.6,6.7,26.6,1.2c-8.8-2.5-17.8-2.9-26.9-3.1c12.5-4.7,26.3,1.1,39.1,1.7C456.1,265.7,456.9,267.8,456.1,268.4z"/>
		<path class="st1" d="M296.7,161.9c-1.1,1.5-6.1,0-7,0.6c-0.5,0.4-0.6,1.5-0.8,2.2c-1.8-3.2-9.5-1.8-12.9-1.2
			c-8.2,1.4-15.1,5.5-22.8,8.5c2.2-7.5,8.9-13.8,16.6-15c1.3-0.2,9.1-0.5,9.8-0.3L296.7,161.9z M278.5,158.9
			c-6.7-1.2-15.6,1.2-19.5,7l7.2-3.3L278.5,158.9z"/>
		<path class="st1" d="M273.2,111.2c-0.7,0.5,5.5,15.1,8.2,15.6l-1.9,0.7c0.2,2.3,4.6,5.4,4.3,5.7c-2.3,2.7-6.5-4.6-7.9-5.8
			c-3.6-3.2-9-6.5-13.9-5.2l-11.3,5.6c4.8-11,16-11.9,24.9-4.5c-1-3.4-3.8-7.2-4.5-10.7c-0.6-3.3,1.1-11.3,5-6.6
			C280,110.6,274,110.7,273.2,111.2z"/>
		<path class="st1" d="M303.7,88.4l-6.7-0.7c-1.7,0.6-2.7,2.5-3.1,4.2c6.1,3.1,2.3,3.1,0.7,6.4c-0.6,1.3-1.9,4.9-1.5,6.1
			c0.1,0.3,3.8,3.7,4.1,3.8c2,0.6,2.7-6,3.4-7.1c0.5-0.7,3.1,1.4,4.1-2.3c0.9-3.2-3.6-5.3-1-7.6c2.3-2.1,8.8,5.8,2.7,12.1
			c-1.5,1.6-3,1.4-3.4,1.7c-1.3,1.3-2.7,7.4-6.2,6.6c-3.1-3-8.1-5.1-6.6-10.3c0.5-1.9,3.2-4.6,3.4-5.9c0.2-0.9-5-2.5,0-7.7
			C297,84.3,300.4,86.1,303.7,88.4z"/>
		<path class="st1" d="M318.6,153c-2.7-2.1,2.3-4.1,2.8-6.5c0.5-1.9,0.5-3.6,1.2-6.6c1.7-6.6-0.5-4-3.3-5c-1.3-0.5-1.7-2.2-1.9-2.2
			c-0.9-0.3-3.9,4.6-4.4,5.6c-0.8,1.5-2,8.9-4.6,3.8c-2.3-4.5,4.8-12.8,9.6-13.5c3.2,3.1,7.7,2.7,7.7,7.7
			C325.8,142.3,322.4,148.6,318.6,153z"/>
		<path class="st1" d="M324,90.3c-2.2-1-2.9-4-6.8-3.4c-4.7,0.8-1.2,5.8-1.7,7.3c-0.4,1.2-2.6,2.2-3,5.1c-0.8,5.8,3.9,2.2,5.2,2.2
			c1.6,0,3.6,2.2,4,2c0.2-0.1,0.8-2.6,1.8-3.6c1.1-1.2,2.9-0.8,3.3-1.5c3.4-5.6-3.5-4.5-3.7-4.9C322.9,93.2,324,91.2,324,90.3
			c1.2,0.5,2.8,0,4.1,0.8c3.5,2.1,3.2,6.2,0.7,9.1c-1.2,1.4-2.5,1-3.2,1.7c-1.5,1.3-3.7,5.3-6.1,4.4c-1-0.4-1.4-1.9-2-2.1
			c-1.1-0.4-5.4,2.2-6.6-2.7c-1-4,2-5.4,2.5-7.9c0.4-2.1-1.7-3,0.6-6.4C317.2,82.7,324.1,86.9,324,90.3z"/>
		<path class="st1" d="M477.8,128c0.1,0.3,1.1,0.8,1.4,1.6c0.3,0.7-0.2,1.9,0,2.3c0.6,1.1,3.5-0.1,0.5,3.4c-0.4,0.1-7-4.2-7.1-4.6
			c-0.1-0.3,0.1-5.2,0.1-5.4c0.4-1.7,2.8-2.7,3-3.4c0.2-0.5-1.4-4.3-1.7-5.5c-0.2-1.3,0.5-3.1,0.1-4.1c-0.6-1.6-3.9-0.8-1.6-4.8
			c1.8-1,4.3,6.1,5,7.6c0.6,1.2,2.3,2.5,2.5,3.3C480.8,121.5,477.6,127.1,477.8,128z"/>
		<path class="st1" d="M527.8,195.9c1.6,1.8-4.8,9.3-6.3,9.7c-2.2,0.6-6.1-2.9-6.4-4.3C514.5,198.5,524,191.5,527.8,195.9z"/>
		<path class="st1" d="M458.9,81.5c-0.3-0.6-1-2.6-1.1-2.7c-0.5-0.5-3.1,0.3-3.6-3.1c-0.6-4.1,2.3-2.7,2.3-3.2
			c-0.2-1.6-1.7-3.2,0-5.7c3.2,0.2,5.5,3.7,2.9,6.2c-0.6,0.5-2.3-0.9-3.1,0.2c0.8,1,1.3,3.4,2.2,4.1c0.9,0.7,3.7,0,4.1,2.6
			C462.8,82.9,459.6,81.5,458.9,81.5c1.9,4,2.8,5.4,1.2,10.3c-0.8,2.4-9.5,14.8-11,14.5c-1.5-0.4-0.2-2.4,0.3-3.2
			c2.3-3.8,6.1-5.4,7.1-10.6C457.4,87.5,451.6,81.6,458.9,81.5z"/>
		<path class="st1" d="M279.3,133.9l-8.4,2.3c-1.3,1.2-2.5,2.4-3.2,4.1c-1.3,3.3,0.9,7.1-3,10.3c-1.8,1.5-7-2.2-2.9-5.1
			c1-0.7,2.3,0.4,2.6,0.3c0.6-0.2-2.4-7.8,4.5-11.8C271.8,132.3,276.2,132.9,279.3,133.9z"/>
		<path class="st1" d="M514.2,93.1c-1.5,0.6-4.5-1.2-3.8,3.4c0.1,0.4,3.9,8.2-0.9,5.6c-1.1-0.6-3.2-7-2.9-8.2c0.4-1.7,2.5-2.1,3-3.2
			c0.8-1.8-0.1-7.4,3.7-6.1C515.7,85.4,516.8,92,514.2,93.1z"/>
		<path class="st1" d="M356.7,255.2c4.5-14,3.3-29.2,4.8-43.7c4.1,2.3,1.8,8.3,1.5,11.4c-0.8,9.8-1.7,21.1-4.5,30.4
			C358.1,254.3,358.6,255.3,356.7,255.2z"/>
		<path class="st1" d="M350.9,256.9c-6.9-12.3,1.9-26.7-2.6-39.5c-1.4-4-5.9-8-4.9-12.4c1.5,4.3,5.2,7.9,6.7,12.1
			c3,8.5-0.6,17.5-0.7,26.3C349.4,248.3,350.5,252.1,350.9,256.9z"/>
		<path class="st1" d="M297.6,232.6c-10.4-3.2-17.6,6.6-24.5,12.2c-1,0.8-1.6,1.9-3.1,1c2-7.2,17.7-17.3,24.5-15.9
			C296,230.2,297.6,230.8,297.6,232.6z"/>
		<path class="st1" d="M424.4,85.1c1.9,3.7,0.2,7.2-1.2,10.6c-4.2-0.2-1.2-4.6-2.9-7.4c-1.1-1.8-6.6-3.4-2.5-6.1
			C420.2,80.6,423.3,82.8,424.4,85.1z"/>
		<path class="st1" d="M521.5,154c1,2.2-0.8,5.1-3.2,5.3c-1.5,0.2-2.5-1-3.9-1.3c-1.3-0.3-5.7,1.1-5.2-2.5c0.5-4.1,5.8,0,6.1-0.2
			C515.6,155.2,519.2,148.6,521.5,154z"/>
		<path class="st1" d="M512.9,202.5c-7.9,4.2-18.5-3.2-27,0.3c-1-2,6.1-2.6,6.9-2.7C499.1,199.7,506.6,201.1,512.9,202.5z"/>
		<path class="st1" d="M377.7,82.6c-7.1,4.1-15,0.2-20.6-4.7c-0.5-0.4-5.1-4.4-3.3-5.2c0.9-0.4,6.5,5.2,7.9,6.1
			C367.3,82.5,371,83.5,377.7,82.6z"/>
		<path class="st1" d="M413.2,235.2c0.8,1.5-0.5,1.4-1.7,1.2c-3.1-0.5-6.1-2.2-9.4-2.7c-4.1-0.6-7.4,0.8-11.3,0.6
			C394.3,230.6,411.4,231.5,413.2,235.2z"/>
		<path class="st1" d="M405.9,236.4c-0.3,2.5-1,1.1-2.4,1.1c-4.3,0.1-8.6,0.1-12.9,0.7c-2.6,0.4-4.9,1.9-7.5,1.6
			C381.8,237.6,403.8,234.2,405.9,236.4z"/>
		<path class="st1" d="M505.6,149.8c1.5,2.9-3.9,2.1-4.1,2.2c-0.7,0.5,0,3.9-0.7,5C490.2,153,504.3,147.2,505.6,149.8z"/>
		<path class="st1" d="M463.1,174.2c3,0.6,2.6,7.7-2.6,5.2C456.3,177.3,460.2,173.6,463.1,174.2z"/>
		<path class="st1" d="M447.2,97c-0.7-2.1,2.2-2.1,2.3-2.3c0.3-0.9,0.5-5.4,3.5-3.8c2.1,1.2-1.8,7.8-3.3,7.6
			C449.4,98.5,447.2,97.1,447.2,97z"/>
		<path class="st1" d="M480.7,81.2c-7.4-0.5-4.8-9.2-0.2-4.9C481.8,77.7,481.4,79.7,480.7,81.2z"/>
		<path class="st1" d="M497.1,156.8c5.3,0.2-1.7,6.8-3.6,5.7C491.3,160.5,495.1,156.8,497.1,156.8z"/>
		<path class="st1" d="M506.3,101.3c1.7,0.2,4.1,5.8,0.6,6.3C503.6,107,503.4,101,506.3,101.3z"/>
		<path class="st1" d="M322.6,72.5l-2.6,7C316,77.6,321.4,70,322.6,72.5z"/>
		<path class="st1" d="M302.1,144.4c0.2,3.4-5.9,4.2-5.6,1.3C296.7,143.7,300.7,143.4,302.1,144.4z"/>
		<path class="st1" d="M474.8,86.4c-0.6,0.3-2.9-1.9-3.1-2.7C470.3,77.9,477.6,81.2,474.8,86.4z"/>
		<path class="st1" d="M448.7,49.7c-2.9,2.1-0.1-8.6,3.2-7.7L448.7,49.7z"/>
		<path class="st1" d="M314.4,138.7c0.9-0.4,4.4,1.5,3.3,3.2C315.4,145.7,311.1,139.9,314.4,138.7z"/>
		<path class="st1" d="M510.5,113c1.8,0.1,3,4.5,0.3,4.4C507.5,117.4,508.3,112.9,510.5,113z"/>
		<path class="st1" d="M248.6,123.6c1.3,2.4-4.8,4-4.6,0.7C244.2,122.3,248.2,122.9,248.6,123.6z"/>
		<path class="st1" d="M505.5,115c1.2,0.1,1.6,2,2.1,2.8c-2.1,3.3-3.3,0.8-3.7-2C504.5,115.6,505.2,115,505.5,115z"/>
		<path class="st1" d="M324.7,155.8c0.9,1.7-3.3,3.9-4.1,2.2C319.4,155.8,323.6,153.6,324.7,155.8z"/>
		<path class="st1" d="M437,79.1c0.7-2.8,1.8-4.8,4.9-4.6C442.2,75.2,438.4,79.3,437,79.1z"/>
		<path class="st1" d="M509.6,151c-0.5,2.1-0.7,4.2-2.9,2.6C504.3,151.8,509.1,150,509.6,151z"/>
		<path class="st1" d="M388.1,124.9c-0.7,0.5-3.9-0.2-2.8-2.1C386.6,120.4,389.7,123.8,388.1,124.9z"/>
		<path class="st1" d="M505.7,129.8c1.5,2.6-2.7,8-1.7-0.1C504.1,129,505.7,129.7,505.7,129.8z"/>
		<path class="st1" d="M492,151.7c0.4,0.8-0.6,3.3-2.7,1.8C486.9,151.6,491.3,150.3,492,151.7z"/>
		<path class="st1" d="M301.6,98.2c-0.7-0.4-3-0.7-3.2-1C297.4,95.5,303.1,94.4,301.6,98.2z"/>
		<path class="st1" d="M264.7,218.1c0.3-1.7,2.7-2.6,4.4-3C268.7,216.8,266.4,217.7,264.7,218.1z"/>
		<path class="st1" d="M343.5,255.5c0.6,1-2.6,3.2-2.7,0.4C340.7,254,343.3,255.1,343.5,255.5z"/>
		<path class="st1" d="M370.1,254.1c-0.1,0.1-0.5-0.2-0.8-0.2c0.5-1.6,1.7-2.9,2.3-4.5l0.8,0.2C372.4,250.2,370.5,253.8,370.1,254.1
			z"/>
		<path class="st1" d="M333.2,111.4c-0.4,0.2-3.1-0.4-2-1.9C332.8,107.3,334.2,110.9,333.2,111.4z"/>
		<path class="st1" d="M413.8,220.6c1.2,0.4,0.5,2.7-0.7,2.3C411.9,222.6,412.6,220.3,413.8,220.6z"/>
		<path class="st1" d="M382.1,240.4L379,242C379.2,240.5,380.7,239.7,382.1,240.4z"/>
		<path class="st1" d="M361.4,173.7c-0.4,0.3-1.4-0.1-1.5,0.4c-0.8,2.6,4.9,10.9,3.8,13.3c-0.6,1.2-1.3,0.8-2.1-0.2
			c-2.2-2.6-2.1-7.3-4.3-10l-0.2,14.7c-2.1-5.2-2-13-1.2-18.6l1.1,2.1c0.1-0.7,0.8-2.1,0.7-2.4c-0.5-1-23,2.8-21.5-3.6
			c0.4-1.7,4,0.8,5.1,1c1.7,0.2,8.9,0.6,10.2,0.3c1.9-0.6-0.5-2.9-0.8-4.2c-0.8-3.3,1.1-5.1,4.5-5.1c5.1-0.1,5.1,3.6,7.8,5.8
			c0.5,0.4,1.7,0.3,2.6,0.8c0.8,0.4,0.9,1.5,1.9,1.7c0.7,0.1,5.6-0.9,6.7-1.2c2.3-0.6,10.8-5.4,8.3,0.5c-1.2,2.8-12.6,5.4-15.3,5.1
			C363.9,173.6,365.4,171.1,361.4,173.7z M357.3,168.4c0.3-1-2.3-3.5-2.4-3.4C353.4,166,355.9,168.1,357.3,168.4z"/>
		<path class="st1" d="M359.5,201.2c-0.1-0.3,0.5-2.2,0.7-2.3c0.7-0.6,8.5,4.2,10.4-5.8c0.6-3-2.1-8,1.8-8.7
			c-0.9,6.7,3.8,13-3.6,17.6C366.3,203.5,360.2,203.9,359.5,201.2z"/>
		<path class="st1" d="M352.7,146.3c0.2,0.2,0.2,1.7,0.8,2.5c1.5,1.9,3.4,3.4,4.7,5.5l-1.8,1.6c-2.2-0.5-8.2-9.3-5.9-10.5
			C350.7,145.4,352.2,145.9,352.7,146.3z"/>
		<path class="st1" d="M322.2,93.3c1,3-3.7,2.6-3.5,0.2C318.9,91.2,322,92.6,322.2,93.3z"/>
	</g>
</g>
<g id="TEXTS">
</g>
</svg>
