<?xml version="1.0" encoding="utf-8"?>
<!-- Generator: Adobe Illustrator 27.9.5, SVG Export Plug-In . SVG Version: 9.03 Build 54986)  -->
<svg version="1.1" xmlns="http://www.w3.org/2000/svg" xmlns:xlink="http://www.w3.org/1999/xlink" x="0px" y="0px"
	 viewBox="0 0 700 450" style="enable-background:new 0 0 700 450;" xml:space="preserve">
<style type="text/css">
	.st0{fill:#7E92A3;}
	.st1{fill:#7E92A3;stroke:#7E92A3;stroke-miterlimit:10;}
</style>
<g id="BACKGROUND">
</g>
<g id="OBJECT">
	<g>
		<path class="st0" d="M312.1,212.5c-1-0.4-2.2,0.2-2.9-0.9c-0.5-0.2-1-0.4-1.6-0.6c-1.4,0.4-2.8,0.2-4.1-0.1
			c-2.5,0-4.9,0.2-7.4-0.6c-1.3,0.2-2.6,0.2-3.9,0c-0.3,0.4-0.6,0.4-1,0c-0.2,0.2-0.4,0.1-0.6-0.1c-2.8,0-5.7,0-8.5-0.1
			c-2.6-0.2-5.2,0-7.8,0.4c0,0,0,0,0,0c-0.9,0.8-2,0.2-3,0.5c-0.2,0.1-0.4,0.1-0.7,0.2c-0.4,0.5-0.9,0.7-1.5,0.6l-0.2,0.2l-0.3-0.1
			c-0.2,0.4-0.6,0.6-1,0.5c0,0-0.1,0.1-0.1,0.1c-0.5,0.8-1.3,0.6-2,0.7c-0.1,0.2-0.3,0.3-0.5,0.2c-0.2,0.4-0.5,0.6-0.9,0.5
			c-0.2,0.2-0.4,0.3-0.6,0.2c-0.4,0.6-0.9,0.6-1.5,0.6c-0.1,0.2-0.3,0.3-0.5,0.2c-0.4,0.4-1,0.6-1.6,0.6c-0.1,0.2-0.3,0.3-0.5,0.1
			c-0.4,0.6-1,0.7-1.7,0.6c-0.1,0.2-0.2,0.3-0.4,0.1c-0.2,0.4-0.5,0.6-1,0.5c-0.2,0-0.5,0.1-0.7,0.1c-0.6,0.5-1.3,0.8-2.1,0.7
			c0,0-0.1,0-0.1,0c-0.4,0.4-0.8,0.7-1.4,0.6c0,0-0.1,0.1-0.1,0.1c-0.5,0.7-1.3,0.7-2,0.7c0,0,0,0,0,0c-0.5,0.7-1.3,0.8-2.1,0.8
			c-0.1,0.4-0.3,0.5-0.7,0.5c-0.2,0.1-0.4,0.2-0.7,0.3c-0.3,0.6-0.8,0.8-1.5,0.7c0,0,0,0,0,0c-0.4,0.4-0.7,0.8-1.3,0.8
			c-0.4,0.6-0.9,0.6-1.5,0.5c-0.2,0.2-0.4,0.2-0.6,0.2c-0.3,0.7-0.9,0.7-1.5,0.7c-0.3,0.6-0.7,0.8-1.3,0.8c-0.2,0.4-0.5,0.5-0.9,0.4
			c0,0-0.2,0.2-0.2,0.2l-0.3,0c-0.2,0.4-0.4,0.8-1,0.6c-0.1,0.2-0.3,0.2-0.5,0.1c-0.4,0.6-0.9,0.7-1.6,0.7c-0.3,0.6-0.8,0.8-1.4,0.7
			c0,0,0,0,0,0c-0.3,0.6-0.9,0.6-1.5,0.6c0,0,0,0,0,0c-0.3,0.6-0.8,0.7-1.4,0.8c-0.2,0.7-0.8,0.7-1.4,0.8c-0.1,0.4-0.4,0.6-0.8,0.6
			c0,0,0,0,0,0c-0.2,0.6-0.7,0.8-1.3,0.8c-0.3,0.6-0.8,0.7-1.3,0.8c-0.1,0.4-0.4,0.6-0.8,0.6c-0.1,0.4-0.4,0.6-0.8,0.6
			c0,0-0.1,0-0.1,0c-0.2,0.6-0.7,0.8-1.2,0.9c-0.1,0.4-0.4,0.6-0.8,0.6c0,0,0,0,0,0c-0.1,0.4-0.3,0.6-0.7,0.6c0,0-0.1,0.1-0.1,0.1
			c-0.2,0.5-0.6,0.8-1.2,0.8c-0.1,0.4-0.4,0.6-0.8,0.6c0,0-0.1,0.1-0.1,0.1c-0.3,0.5-0.6,0.9-1.2,0.9c0,0,0,0,0,0
			c-0.3,0.5-0.9,0.7-1.4,0.7c-0.1,0.4-0.4,0.5-0.8,0.5c-0.1,0.2-0.3,0.3-0.5,0.2c-0.2,0.4-0.5,0.6-0.9,0.5l-0.2,0.2l-0.3,0
			c-0.2,0.4-0.5,0.6-1,0.6c0,0-0.1,0-0.1,0c-0.3,0.6-0.7,0.8-1.3,0.7c0,0-0.1,0-0.1,0c-0.3,0.6-0.8,0.7-1.4,0.6c0,0-0.1,0.2-0.1,0.2
			l-0.2,0c-0.2,0.4-0.6,0.6-1,0.5c-0.1,0.2-0.3,0.3-0.5,0.2c-0.3,0.7-0.9,0.8-1.5,0.7l0,0c-0.3,0.6-0.9,0.7-1.4,0.7l0,0
			c-0.3,0.6-0.8,0.8-1.4,0.7l0,0c-1.4,1.2-2.8,1.5-4.2-0.1c0,0-0.1-0.1-0.1-0.1c-0.4,0-0.7-0.2-0.7-0.6c-0.4,0-0.7-0.2-0.8-0.6
			c-0.5-0.1-0.9-0.4-1.2-0.9c0,0-0.1-0.1-0.1-0.1c-0.6,0-1.1-0.1-1.4-0.6c-0.2-0.1-0.5-0.1-0.7-0.2c-0.9,0-1.9,0-2.8,0.1
			c-0.4,0.1-0.8,0.1-1.2,0.2c-0.4,0.6-1,0.7-1.6,0.6c0,0-0.1,0-0.1,0c-0.6,0.7-1.3,0.7-2.1,0.7l-0.1,0.2l-0.2-0.1
			c-0.7,0.8-1.6,0.6-2.5,0.6c-0.2,0.2-0.4,0.2-0.6,0.1c-0.4,0.5-0.9,0.6-1.5,0.5c-0.2,0.1-0.4,0.1-0.6,0.2c-0.6,0.7-1.4,0.6-2.2,0.7
			c0,0,0,0,0,0c-0.6,0.8-1.3,0.8-2.1,0.7c-0.1,0.2-0.3,0.2-0.5,0.1c-0.4,0.5-1,0.7-1.6,0.6c-0.1,0.2-0.3,0.3-0.5,0.1
			c-0.4,0.6-1,0.7-1.6,0.6l-0.1,0.2l-0.2-0.1c-0.2,0.4-0.6,0.6-1,0.5l-0.1,0.2l-0.3,0c-0.4,0.6-1.1,0.7-1.7,0.7l0,0
			c-0.3,0.6-0.8,0.7-1.4,0.7c0,0,0,0,0,0c-0.4,0.7-1.1,0.7-1.8,0.8c-1.4,0.1-2.3-0.2-1.9-1.9c0.1-0.5,0-1.1,0-1.7
			c-0.6-0.1-1.1-0.2-1.4-0.7c-0.2,0.1-0.5,0-0.7-0.1c-0.2,0-0.5,0-0.7,0c-0.8,0.4-1.5,0.1-2.2-0.2c-1-0.1-2,0.1-3-0.4
			c-1.3,0-2.5,0-3.8,0c-1.7,0.6-3.5,0.4-5.3,0.6c-0.2,0-0.5,0.1-0.7,0.1c-0.9,0.6-1.8,0.9-2.9,0.7c-0.4,0.2-0.8,0.3-1.2,0.1
			c-0.7,0.5-1.4,0.9-2.3,0.7c0,0,0,0,0,0c-0.6,0.8-1.4,0.7-2.2,0.6c0,0-0.2,0.2-0.2,0.2l-0.2-0.1c-0.5,0.5-1.1,0.7-1.8,0.6
			c-0.2,0-0.4,0.1-0.7,0.1c-0.6,0.6-1.4,0.7-2.2,0.7c0,0-0.1,0-0.1,0c-0.6,0.6-1.3,0.7-2,0.7c0,0,0,0,0,0c-0.5,0.8-1.3,0.8-2.1,0.7
			c0,0,0,0,0,0c-0.5,0.8-1.3,0.7-2.1,0.8c-0.1,0.4-0.4,0.6-0.8,0.5c-0.2,0.1-0.5,0.1-0.7,0.2c-0.7,0.9-1.8,0.6-2.7,0.9
			c-0.4,0.7-1,0.5-1.5,0.5c0,0-0.1,0-0.1,0c-0.5,0.6-1.3,0.8-2,0.7c-0.2,0.2-0.4,0.2-0.6,0.1c-0.4,0.6-0.9,0.7-1.5,0.6
			c0,0-0.1,0-0.1,0c-0.5,0.7-1.3,0.7-2,0.7c0,0-0.1,0-0.1,0c-0.5,0.8-1.3,0.9-2.1,0.7l-0.2,0.2l-0.2-0.1c0,0,0,0-0.1,0
			c-0.4,1.8-0.8,3.5-1.2,5.3c1.1-0.3,2.3-0.8,3.6-1.4c-3.5,6-4.7,12.3-6.5,18.4c-0.3,2.4-0.5,4.8-0.7,7.3c-0.4,4.5-0.6,9.1-0.6,13.6
			c0.5,3.1,1,6.2,1.7,9.3c1.3,6,2.8,12.1,4.6,18c1,3.2,2,6.4,3.2,9.6c0.5,1.3,1,2.6,1.4,3.9c0.2,0.6,1.7,4.1,1.5,3.6
			c0.3,0.8,0.7,1.5,0.8,1.7c0.7,1.4,1.3,2.9,2,4.3c1.2,2.5,2.5,5,3.9,7.4c1,1.7,2,3.4,3,5.1c1.4,1.8,2.8,3.6,4.2,5.3
			c2,2.5,4,5,6.1,7.5c0.3-0.4,0.7-0.5,1.2-0.6c0,0,0,0,0,0c0.2-0.6,0.8-0.8,1.3-0.8c0,0,0,0,0,0c0.5-0.8,1.2-1.3,2.2-1.3l0,0
			c0.2-0.6,0.6-0.9,1.3-0.9c0,0,0,0,0,0c0.1-0.4,0.4-0.6,0.8-0.5c0,0,0,0,0,0c0.2-0.6,0.7-0.8,1.3-0.8l0,0c0.5-0.8,1.3-1.2,2.2-1.4
			l0,0c0.2-0.7,0.8-0.8,1.4-0.8l0,0c0.6-0.7,1.2-1.4,2.1-1.4l0,0c0.6-0.7,1.2-1.2,2.2-1.4c0,0,0,0,0,0c0.3-0.6,0.8-0.7,1.4-0.7l0,0
			c0.3-0.6,0.7-0.8,1.3-0.8l0,0c0.2-0.6,0.8-0.8,1.4-0.8l0.1,0.2l-0.1-0.2c0.1-0.4,0.4-0.5,0.8-0.5l0.1,0c0.3-0.6,0.8-0.7,1.3-0.8
			l0,0c0.2-0.6,0.7-0.8,1.3-0.8c0.1-0.4,0.4-0.6,0.8-0.6l0,0c0.4-0.9,1.2-0.8,2-0.8l0,0c0.3-0.6,0.8-0.7,1.4-0.7l0.1,0.2l-0.1-0.2
			c1.1-0.9,2.2-1.8,3.6-2.1l0,0c0.3-0.5,0.9-0.7,1.5-0.7c0.3-0.5,0.8-0.7,1.3-0.8l0,0c0.6-0.7,1.4-1.1,2.2-1.2c0,0,0,0,0,0
			c0.2-0.6,0.7-0.8,1.3-0.8c0.1-0.4,0.4-0.6,0.8-0.6l0.1,0c0.3-0.6,0.8-0.7,1.3-0.7l0,0c0.2-0.7,0.8-0.8,1.3-0.8c0,0,0,0,0,0
			c0.1-0.4,0.4-0.6,0.8-0.6l0.1,0c0.2-0.6,0.7-0.8,1.3-0.8l0,0c0.2-0.6,0.8-0.7,1.3-0.8l0.1,0.2l-0.1-0.2c0.1-0.4,0.4-0.6,0.8-0.6
			c0.1-0.4,0.3-0.7,0.7-0.7c0.1-0.4,0.3-0.7,0.7-0.7c0.3-0.9,0.8-1.6,1.4-2.2c-0.1-0.2,0-0.5,0.2-0.6c-0.2-0.8-0.1-1.6,0.6-2.2
			c0,0,0,0,0,0c0.1-0.7-0.3-1.7,0.7-2.1c0.4-0.4,0.8-0.3,1.2-0.1c1.4-0.8,2.9-0.7,4.4-0.8l0,0c1.1-0.8,2.3-0.8,3.6-0.7l0,0
			c0.6-0.6,1.3-0.7,2.1-0.7c0,0,0,0,0,0c1.4-1.2,3.2-1.1,4.9-1.5c0.2-1.1,0.4-2.2,1.6-2.7l0,0c0.2-0.8,0.5-0.6,0.8,0
			c0.6-0.3,1.2-0.6,1.9-0.8c0.1-0.5,0.3-1.1,0.9-1.2l0.1-0.1c0-0.4,0.2-0.7,0.6-0.7l0,0c0-0.4,0.1-0.7,0.5-0.9
			c0-0.4,0.1-0.8,0.1-1.2c-0.5-0.6-0.6-1.4-0.7-2.2c-0.5-0.4-0.5-1-0.6-1.5l0-0.1c-0.8-0.8-0.6-1.8-0.7-2.8l0,0
			c-0.7-0.6-0.9-1.3-0.8-2.1c-0.6-0.6-0.7-1.3-0.9-2l0,0c-1.1-1-1.3-2.3-1.3-3.8c-1.2-2.6-1.2-2.6,1.3-3c0,0,0.1,0,0.1,0
			c0.6-0.7,1.4-0.7,2.2-0.7l0,0c0.6-0.6,1.3-0.8,2.2-0.7l0,0c1-0.8,2.2-0.8,3.5-0.8l0,0c0.9-0.8,1.9-0.6,2.9-0.6l0.2-0.2l0.2,0.1
			c0.7-0.9,1.6-0.7,2.5-0.7l0.2-0.1l0.2,0.1c0.9-0.8,2.1-0.6,3.2-0.7l0.2-0.2l0.3,0.1c1.6-0.9,3.4-0.6,5.1-0.7c0,0,0,0,0,0
			c1.1-0.8,2.3-0.6,3.5-0.8c1.4-0.6,2.8-0.7,4.3-0.7l0,0c1.3-0.8,2.8-0.6,4.3-0.7l0.1,0c0.2-0.2,0.4-0.5,0.7-0.7
			c0.1-0.8,0.4-1.4,1.3-1.1c1,0.4,2.1,0.2,3.1,0.4c1.1,0,2.3-0.1,3.4-0.1l0,0c1-1,2.3-0.8,3.6-0.7l0,0c0.7-0.7,1.5-0.6,2.3-0.6
			c5.4-0.1,10.8-0.1,16.2-0.1l0,0c1.8-0.8,3.7-0.6,5.6-0.8c0,0,0,0,0,0c1.1-0.9,2.3-0.7,3.6-0.7l0,0c1.3-1,3-0.8,4.3-1.5
			c0.5-2.3-0.1-3.3-2.3-3.5c-2.1-0.2-4.2-0.1-6.3-0.1c-7.3,0-14.7-0.6-21.9,0.9c-6.5,1.3-12.9,2.9-19.3,4.5
			c-9.7,2.5-19.5,4.7-29.1,7.9c-0.6,0.2-1.1,0.3-1.7,0.4c-1.2,0.3-1.9,0.1-2.3-1.4c-1.3-5.2-2.8-10.3-4.2-15.5
			c-1.7-6.1-3-12.3-5.9-18.1c-0.9-1.7-0.7-3.4-0.3-5.3c0.7-2.7,1.4-5.3,1.4-8.1c-0.4-0.9-1.3-2,0.6-2.3c0.5-4.2,2.7-6.7,6.9-7.8
			c2.5-0.7,4.9-1.6,7.4-2.5c7.3-2.6,13.6-6.9,20-11.2c6.9-4.6,13.6-9.5,21.2-12.9c6.3-2.8,12.7-5.2,19.3-6.9
			c4.1-1.1,8.2-0.5,12.3-0.3c5.7,0.3,11.3,0.4,17,0.2c0.1-0.5,0.2-0.8,0.8-0.9c2.5-0.4,5.1,0.6,7.5-0.7c0.5-0.3,0.9,0.2,1.2,0.5
			c0.9,0.8,2,0.4,3.1,0.5c0.7,0,1.5-0.1,1.5-1.1C313.3,213.3,312.8,212.8,312.1,212.5z M128.3,296.8c-0.1,0-0.2,0-0.3-0.1
			c0,0,0-0.1-0.1-0.2c0.1,0,0.2-0.1,0.3-0.1C128.5,296.5,128.5,296.6,128.3,296.8z M128.1,266.4c-0.1,0-0.2-0.1-0.2-0.2
			c0.2-0.1,0.4-0.2,0.6-0.3c0.1,0.1,0.2,0.2,0.2,0.2C128.4,266.3,128.3,266.4,128.1,266.4z M131.9,304.2c-0.1,0.2-0.2,0.4-0.2,0.6
			c0.4,1.7,0.7,3.5-1.8,4.4c-0.1-1.8,0.5-3.1,1.1-4.5c0-0.3,0-0.7,0.2-1c0.1-0.3,0.5-0.7,0.6-0.7
			C132.4,303.4,132.1,303.9,131.9,304.2z M131.8,286.5c-0.4,0-0.6-0.2-0.5-0.6c0-0.1,0.4-0.3,0.5-0.2c0.1,0,0.2,0.3,0.3,0.4
			C132,286.2,131.9,286.5,131.8,286.5z M135.3,358.9c-0.1,0-0.2,0-0.3-0.1c-0.1-0.2,0-0.3,0.3-0.3c0.1,0,0.1,0.1,0.2,0.2
			C135.5,358.8,135.4,358.9,135.3,358.9z M136.7,364.7c-0.3,0-0.4-0.2-0.2-0.3c0.1-0.1,0.2-0.1,0.3,0c0.1,0,0.1,0.1,0.1,0.2
			C136.8,364.6,136.8,364.7,136.7,364.7z M136.4,363.4c-0.2,0-0.4-0.2-0.6-0.3c0.2-0.1,0.4-0.3,0.6-0.3c0.2,0,0.4,0.2,0.6,0.3
			C136.8,363.2,136.6,363.4,136.4,363.4z M145.9,351.9c-0.1,0.7-0.6,0.7-1.1,0.8c-0.5,0.6-1.1,0.7-1.8,0.6c-0.5,0.9-1.4,0.7-2.1,0.8
			c-1.1,1-2.5,1.7-3.1,3.2c-0.8-0.8-1.2-1.5-0.2-2.2c1.2-0.7,2.5-1.3,3.4-2.5c0.2-0.1,0.5-0.1,0.7,0c0.2,0,0.5,0,0.7,0.1
			c0.3,0,0.5-0.1,0.8-0.1c0.1-0.3,0.3-0.6,0.7-0.6c0.5-0.3,1-0.6,1.5-0.9c0.1-0.3,0.3-0.7,0.7-0.3
			C146.3,351.2,146.5,351.6,145.9,351.9z M148.5,253.7c-2.4-0.5-4.9-0.8-7-2.2c-0.4,0-0.8,0-1.2,0c-0.7,0.6-1.4,1.2-2.3,1.3
			c-3.1,2.7-4.6,6.4-5.8,10.3c-0.8,0.4-1.1-0.7-1.8-0.6c0.1,0.6,0.3,1.2-0.3,1.6c-0.1,0.1-0.5,0-0.6-0.2c-0.7-0.6,0.1-1,0.2-1.5
			c-2.5-0.6-4.8-1.9-7.6-0.7c-1.3,0.5-3.3-1.1-5.6-0.6c1.6-1.7,16.4-7.7,21.1-8.9c0.7-1.1,2-0.8,2.9-1.3c0.5,0,1-0.1,1.5-0.1
			c4.2-1.5,8.6-2.3,13.1-2.7c3.1-0.3,3.3,0,3.2,3.3c-0.1,2.4-0.4,4.7-1.3,7.2C155.5,253.8,151.7,254.4,148.5,253.7z M156.3,262.8
			c0.1,0.2,0.2,0.4,0.3,0.6c-0.1,0.2-0.2,0.4-0.3,0.6c-0.1-0.2-0.3-0.4-0.3-0.6C156,263.2,156.2,263,156.3,262.8z M156.1,272.7
			c0-0.1,0.1-0.1,0.2-0.2c0.1,0.1,0.1,0.2,0.2,0.2c-0.1,0.1-0.2,0.1-0.2,0.2C156.2,272.9,156.1,272.8,156.1,272.7z M157.7,284.4
			c-1.6-0.4-0.8-1.7-1-2.6c0-1.5-0.4-3,0.3-4.5c0.8,1.2,0.2,2.5,0.6,3.7C158.3,282,158.2,283.1,157.7,284.4z M162.3,250.7
			c0.4-0.3,0.9-0.3,1.1,0.2c0.1,0.1-0.2,0.4-0.3,0.5c-0.2,0.6-0.8,1.2-1.2,0.8C161.3,251.8,161.5,251,162.3,250.7z M182.8,340.5
			c-0.4-0.1-0.4-0.5-0.4-0.8c0-0.4,0.1-0.7,0.6-0.6c0.4,0.1,0.5,0.4,0.5,0.7C183.4,340.2,183.2,340.5,182.8,340.5z M184.4,343
			c-0.3-0.1-0.3-0.2-0.1-0.4c0.1,0,0.2,0,0.3,0.1c0,0,0,0.1,0.1,0.2C184.6,343,184.5,343,184.4,343z M200.1,306.6
			c0.2-0.4,0.9-0.3,1.3-0.1c0.5,0.2,0.8,0.5,0.6,1.1c-0.3,0.4-0.7,0.7-1.1,0.4C200.3,307.7,199.7,307.3,200.1,306.6z M196.3,306.9
			c0.1,0.1,0.1,0.2,0,0.3c0,0.1-0.1,0.1-0.2,0.1c0-0.1-0.1-0.2-0.1-0.2C196,306.8,196.2,306.8,196.3,306.9z M196.1,314.4
			c0.2,0.2,0.6,0.4,0.7,0.6c0.2,0.5-0.2,0.6-0.5,0.4c-0.3-0.1-0.5-0.5-0.7-0.7C195.7,314.7,195.9,314.6,196.1,314.4z M193.7,292
			c0.3,0.1,0.4,0.3,0.1,0.4c-0.1,0-0.2,0-0.3-0.1c-0.1,0,0-0.2-0.1-0.3C193.5,292.1,193.6,292,193.7,292z M194.3,316.1
			c1.8,4.5,4.2,8.6,6.4,12.9c-0.8,0.7-1.6,0.8-2.5,1c-4.2,0.7-8.4,1.5-12.6,2.3c-2.5,0.5-4.2-0.1-5.6-2.5c-2-3.5-4.6-6.7-6.9-10
			c-5.9-8.3-9.5-17.7-10.6-27.9c-1-8.7-1.7-17.4-2.5-26.2c-0.3-3-0.3-6,0.6-9.2c3.2,1.8,6.2,0.5,9.1-0.8c6.7-3,13.6-5.4,20.5-7.8
			c0.2-0.2,0.5-0.5,0.7-0.7c0.2-0.2,0.5-0.1,0.6,0.1c0.1,0.4-0.1,0.5-0.5,0.5c-1.9,7.3-1.9,14.7-1.5,22.2c0,0.6,0.3,1.2-0.2,1.6
			c-2.2,1.8-1.8,4.3-1.6,6.7c0.7,7,1.6,14.1,3,21C191.7,304.9,192.1,310.7,194.3,316.1z M269.8,213.9c-0.1,0.3-0.3,0.3-0.4,0
			c0-0.1,0.1-0.2,0.1-0.3c0.1,0,0.2,0,0.2,0C269.8,213.7,269.8,213.8,269.8,213.9z M288.7,214.1c-0.3-0.1-0.6-0.4-0.4-0.7
			c0.1-0.1,0.4-0.2,0.6-0.2c0.3,0,0.7,0,0.6,0.5C289.3,214,289,214.2,288.7,214.1z"/>
		<polygon class="st0" points="197.5,318.3 197.7,318.4 197.7,318.2 		"/>
		<polygon class="st0" points="189.9,243.1 189.8,243 189.7,243.2 		"/>
		<polygon class="st0" points="191.3,259.6 191.1,259.8 191.3,259.8 		"/>
		<polygon class="st0" points="129.9,266.3 130,266.2 129.9,266.2 		"/>
		<path class="st0" d="M286.3,297.5c0.5-2.3-0.1-3.3-2.3-3.5c-2.1-0.2-4.2-0.1-6.3-0.1c3-1.1,6.3-0.7,9.4-1.5
			c6.8-1.6,13.5-3.3,20.3-4.6c3.9-0.7,7.9-1.2,11.7-2.5c0.9-0.3,1.9-0.3,2.8-0.1c-0.4,1.1-0.6,2.1,0.8,2.6c1.1,0.4,2.1,0.6,3-0.3
			c0.4-0.3,0.5-0.8,0.4-1.3c-0.1-0.5-0.5-0.8-1-0.9c-1.1-0.1-2.1-0.1-3.2-0.2c1.4-1.1,3.1-0.9,4.7-1.3c3.7-0.8,7.4-1.6,11-2.5
			c0.9-0.2,2.3-0.5,2.2-1.9c-0.1-1.1-1.2-0.9-1.9-1.3c-3.5-1.8-7.3-2.4-11-3.6c2.9,0.1,5.5-1.1,8.5-2c-3.7-2.4-7.1-1-10.5-0.7
			c-0.6,0.1-1.1,0.8-0.8,1.6c0.8,0.7,2.2-0.2,2.8,1.1c-4.7-0.5-9.4-1-14.1-1.3c-2.1-0.2-4.2-0.4-6.3-0.9c-1-0.2-1.4-0.6-1.5-1.6
			c-0.1-1,0.4-1.5,1.1-2c1-0.7,2.1-0.4,3.1-0.4c8,0.5,16,0.4,24,0.2c2.6,0,5.2-0.4,7.7-0.7c1.1-0.1,1.7-0.7,0.9-1.9
			c0.8-0.5,1.5-1.1,1.5-2.2c0-0.5,0-0.9-0.5-1.2c-0.5-0.3-0.9,0.1-1.2,0.4c-1.6,1.1,0.1,2,0.2,3c-2.3-1.2-4.6-2.5-7-3.7
			c0.4-0.1,0.9-0.1,1.1-0.6c0-0.1-0.2-0.4-0.3-0.4c-0.5,0.1-0.7,0.5-0.9,0.9c-2.9-0.6-5.8-0.9-8.6-2.1c2.6-1,5.3-1,8.1-0.6
			c1.1,0.2,1.9,0,2.6-0.7c0.6-0.5,0.8-1.3-0.2-1.6c-2.1-0.6-3.9-2.2-6.4-0.5c-1.7,1.2-6,0-6.7-1.7c-0.7-1.7-1.9-1.5-3.1-1.6
			c0.8-0.7,1.8-0.5,2.7-0.4c3.7,0.4,7.5,0.8,11.2,1.5c3,0.6,6,1.4,9.1,1.1c0.9-0.1,1.7-0.2,1.3-1.4c0.9-1.1,2.2-2.3,1.5-3.7
			c-0.6-1.4-1.9-2.6-4.3-2.2c1.1,1.6,1.6,3,1.3,4.6c-2.4-1.4-4.8-2.8-7-4.5c1.1-0.6,2-1.6,3.4-1.5c1.6,0.1,2.2-0.9,2.4-2.4
			c2.6,2.3,5.2,4.5,8,7.1c0.9-4.1-0.4-7.6-0.3-11.1c0.8,1,1.7,1.4,2.5,0.2c0.6-0.8,0.1-1.7-0.7-2.1c-1.2-0.6-1.7,0.1-1.9,1.3
			c-0.2-0.3-0.4-0.6-0.5-0.9c-1.4-5.2-4-9.5-8.8-12.1c-0.8-0.5-1.5-1.1-2.3-1.7c-3-2.4-6.2-4.4-9.9-5.6c-3.4-1.1-6.7-2.3-10-3.4
			c0.1-0.7,0-1.3-0.6-1.6c0-0.2,0-0.5,0-0.7c1.9,0.3,3.9,0.2,5.8-0.1c0.7,0,1.4,0.1,2,0.1c0,0,0,0,0,0c0.5,0.5,0.9,0.7,1.4,0
			c0,0,0,0,0,0c1-0.5,0.5-1,0.1-1.5l0,0.1c0-1.2-0.1-2.4-0.1-3.6c0.2-0.2,0.2-0.4,0.1-0.7c0.7-1.1,0.7-2.4,0.7-3.7l0,0
			c0.7-0.5,0.5-1.4,0.8-2.1c0.5-0.5,1-1.1-0.2-1.4c-0.7-0.1-1.3-0.1-2-0.2c-0.2-0.1-0.4-0.2-0.6-0.2l-0.2,0.1c0,0,0.2-0.1,0.2-0.1
			c-0.1-0.4-0.4-0.6-0.8-0.6c0,0,0,0,0,0c-0.1-0.4-0.4-0.6-0.8-0.6c0,0-0.1,0-0.1,0c-0.4-0.8-1-1.4-1.9-1.6
			c-0.1-0.4-0.3-0.6-0.7-0.7l-0.2,0.2c0,0,0.2-0.2,0.2-0.2c-0.2-0.8-0.7-1.2-1.5-1.4l0,0c0-0.4-0.3-0.7-0.7-0.8l-0.1,0.2
			c0,0,0.1-0.1,0.1-0.1c-0.3-1.3-1.5-1.9-2.3-2.8l0,0c0-0.6-0.2-1.1-0.8-1.4c0,0,0,0,0,0c0-0.5-0.2-0.8-0.6-1l0.1-0.3l-0.2-0.2
			c-0.3-1.5-0.6-3.1-1.4-4.4c0-0.5-0.1-0.9-0.1-1.4c0-1.2,0-2.4,0-3.6c0.1-0.2,0.1-0.3,0.2-0.5c0-0.1-0.1-0.2-0.1-0.3
			c0-0.7,0-1.4,0-2.2c0.3-0.4,0.3-0.8,0.1-1.2c0.5-1,1.3-1.9,0.7-3.2c0.1-0.2,0.1-0.4-0.1-0.6c1.2-1.3,0.4-2.9,0.6-4.4
			c0.4-0.3,0.4-0.7,0.1-1.2c0.7-0.9,0.7-2,0.7-3.1l0,0.1c0.6-0.4,0.6-0.9,0.6-1.5l0,0c0.5-0.3,0.5-0.6,0.1-0.9l0-0.2
			c0.7-0.7,0.6-1.6,0.6-2.4l0.2-0.1c0,0-0.1-0.2-0.1-0.2c0.7-0.7,0.7-1.6,0.7-2.5l0,0c0.8-1.1,1.4-2.3,1.4-3.7c0,0,0,0,0,0
			c0.2-0.1,0.4-0.2,0.6-0.2c0.1,0.9,0.1,1.9,0.4,2.8c0.4,1.1,2.2,1.4,2.6,0.4c0.6-1.3-0.2-2.5-0.8-3.6c-0.6-1.1-1.4-0.4-2.1-0.1
			c-0.3-1.3,0.9-2.3,0.8-3.6l0,0.1c0.6-0.4,0.6-0.9,0.6-1.5c0.2-0.1,0.3-0.3,0.2-0.5c0.4-0.2,0.6-0.5,0.5-0.9
			c0.3-0.3,0.4-0.7,0.2-1.1c0.7-0.4,0.7-1.1,0.6-1.8c0,0,0,0,0,0c0.6-0.6,0.8-1.3,0.7-2.1c0,0,0,0,0,0c0.8-0.5,0.8-1.3,0.7-2.2
			c0,0,0,0,0,0c0.6-0.6,0.8-1.3,0.8-2.2c0,0,0,0.1,0,0.1c0.5-0.4,0.8-0.9,0.6-1.6l0.2-0.2c0,0-0.1-0.2-0.1-0.2
			c0.7-0.4,0.7-1.1,0.5-1.7c0.2-0.2,0.2-0.4,0.1-0.6c0.6-0.4,0.7-0.9,0.6-1.6c0.2-0.2,0.2-0.3,0.1-0.6c0.6-0.4,0.6-1,0.6-1.6
			l0.2-0.1c0,0,0-0.3,0-0.3c0.6-0.4,0.7-1.1,0.7-1.7l0,0c0.8-0.5,0.7-1.4,0.8-2.2l0,0.1c0.7-0.6,0.5-1.5,0.6-2.3l0,0
			c0.5-0.4,0.7-0.9,0.6-1.5c0.2-0.1,0.3-0.3,0.1-0.5c0.6-0.4,0.8-1,0.7-1.6l0.2-0.2c0,0-0.1-0.2-0.1-0.2c0.6-0.5,0.6-1.1,0.5-1.8
			c0.2-0.1,0.3-0.3,0.2-0.6c0.4-0.2,0.6-0.4,0.5-0.9c0.3-0.3,0.3-0.7,0.2-1.1c0.5-0.5,0.8-1.1,0.6-1.8l0.2-0.2l-0.1-0.2
			c0.6-0.4,0.7-1,0.6-1.7c0.2-0.2,0.2-0.3,0.1-0.6c0.5-0.4,0.8-0.9,0.7-1.6l0,0.1c0.5-0.4,0.7-0.9,0.7-1.5l0,0
			c0.4-0.1,0.6-0.4,0.5-0.8c0.2-0.1,0.3-0.2,0.2-0.5c0.4-0.2,0.6-0.5,0.6-1c0,0,0,0,0,0c0.7-0.5,1.5-0.9,2.2-1.4
			c0.7,0.2,1.3,0.3,2,0c0.6,0.6,1.4,0.6,2.2,0.5c0.1,0.2,0.3,0.3,0.6,0.2c1.8,1,3.5,2.2,5.7,2.3c0,0,0,0,0,0
			c0.3,0.6,0.9,0.6,1.5,0.7c0,0,0,0,0,0c0.1,0.4,0.3,0.7,0.8,0.6c0,0,0.1,0,0.1,0c0.3,0.5,0.7,0.8,1.3,0.8c0,0,0,0,0,0
			c0.3,0.6,0.9,0.7,1.4,0.8c0,0,0,0,0,0c0.3,0.7,0.9,0.7,1.5,0.7c0,0,0,0,0,0c0.3,0.6,0.9,0.7,1.5,0.7c0,0,0,0,0,0
			c0.3,0.6,0.9,0.6,1.5,0.6c0,0,0.1,0,0.1,0c0.3,0.5,0.8,0.7,1.3,0.6c0.2,0.1,0.5,0.1,0.7,0.2c0.4,0.5,0.8,0.7,1.5,0.6
			c0.4,0.1,0.9,0.1,1.3,0.2c0.1,0.2,0.2,0.4,0.2,0.5c-0.8,0-1.7,0.3-2.4,0c-1.9-0.8-2.8,0.6-3.8,1.6c-0.4,0.4-0.9,0.9-0.6,1.5
			c0.3,0.7,1,0.9,1.7,1c0.7,0.1,1.3-0.3,2-0.3c1.8,0,2.5,0.9,2.3,2.6c-3.3-0.6-6.3-1.8-8.9-4.1c-3.2-2.7-6.6-5.1-10.4-6.7
			c-1.3-0.5-2.5-1.4-4.1-0.6c0.1,1.4,1.1,2.3,1.9,3.3c1.6,2.1,4.1,2.8,5.9,4.4c-1.1,1.2-0.9,2.5,0.3,3.3c1.1,0.7,1.7,1.5,2.1,2.7
			c0.2,0.5,0.8,0.8,1.7,0.5c-0.4-1.1-0.3-2.4-1.5-2.9c-1.7-0.7-2-2.2-2.6-3.6c0.7,0.2,1.4,0.4,2,0.7c6,4,12.6,6.3,19.9,6.5
			c0.7,0,1.4,0.1,2.1,0.2c3.3,0.7,6.6,0.2,9.9-0.3c1.5-0.2,2.8-0.9,4-2.2c-1-0.2-1.6-0.4-2.3-0.6c0.3-2,0.3-3.8-2-4.5
			c0.9,0,1.8,0,2.8,0.1c0.2,0.2,0.4,0.2,0.6,0.1c0.4,0.6,0.9,0.6,1.5,0.6c0.2,0.1,0.4,0.1,0.7,0.2c0.5,0.3,0.9,0.5,1.4,0.8
			c0,0,0,0,0,0c0.6,1.3,1,0.4,1.4-0.1c0,0,0.1,0,0.1,0c0.4,0,0.8-0.1,0.9-0.6c0.2,0.1,0.4,0.1,0.5-0.2c1.7,0.1,3.3-0.3,5-0.7
			c0.2,0,0.5,0,0.7,0c2,0,4,0.2,5.9-0.5c0.2,0.2,0.4,0.1,0.5-0.1c0.8,0,1.7,0,2.3-0.6c0.6-0.1,1.3-0.1,1.9-0.2
			c1.3,0,2.6,0.1,3.8-0.6c0.9,0,1.7-0.1,2.6-0.1c2.4,0,4.7,0,7.1,0c-0.1,0.9-1.7,0.3-1.6,1.5c0.5,0.8,1.4,0.2,2,0.6
			c0.7,0.5,1.5,0.8,1.6,1.7c0.1,1.1-0.8,1.4-1.5,1.8c-1,0.6-2.1,1.1-3.1,1.8c-2.6,1.7-5.3,2.4-8.2,1.3c-2-0.8-4.4-0.5-5.3,0.6
			c-2.2,2.4-4.8,2-7.4,2.3c-1,0.1-1.9,0.1-2.6,0.9c-0.4,0.5-0.9,1-0.2,1.5c0.8,0.7,2.1,1.7,2.8,1c2.2-2.2,4.7-2.7,7.6-2.3
			c0.1,0,0.2-0.1,0.3-0.2c1.6-1.3,3.3-1.2,5-0.6c1.1,0.4,2.1,0.5,3.1,0.1c1.4-0.6,2.8-0.4,4.2-0.5c1.5,0,3.1,0.3,3.5-2
			c0.2-1.2,1.5-0.9,2.4-0.9c1.6-0.1,2.3-1,2.3-2.5c0.1-1.4-0.3-2.5-1.3-3.6c-0.8-0.8-2.2-1.1-2.2-2.6c1.9,0,3.8,0,5.7,0
			c0.1,0.2,0.3,0.3,0.5,0.1c0.4,0.7,1,0.6,1.6,0.6c0.1,0.2,0.3,0.3,0.5,0.1c0.4,0.5,1,0.7,1.6,0.8c0,0,0,0,0,0
			c0.1,0.4,0.4,0.6,0.8,0.6c0,0,0,0,0,0c0.1,0.4,0.3,0.7,0.7,0.8c0,0,0,0,0,0c0,0.7,0,1.4,0,2.1c-1.2,2.5-3.2,3.9-5.7,4.9
			c-5.6,2.3-11.6,3.3-17.5,4.4c-2,0.4-4,0.6-6,0.9c-5.7,1.1-11.3,1.3-16.1-3.7c0,6,1.4,11.3,2,16.7c0.4,3.6,0.9,7.1,1.4,10.7
			c0.5,3.4,0.9,3.9,4,2.9c2.5-0.8,5.5,0.1,7.5-2.3c0.3-0.3,1.1-0.1,1.7-0.1c6.9-0.2,13.7-0.2,20.6-0.5c2.7-0.1,5.4-0.7,8.1-1.2
			c1.4-0.2,2.8-0.3,4.2,0c0.4,0.1,0.8,0.4,0.9,1c0.1,0.6-0.2,1-0.6,1.2c-1.7,0.8-3.4,1.6-5.2,2.3c-2.4,0.9-4.7,1.7-6.6,3.8
			c-1.8,2-4.8,2.6-7.4,3.1c-3.5,0.6-7,1-10.6,0.5c-4.6-0.6-9.2-0.4-13.7-2c-0.7-0.7-1.4-1.1-1.5,0.4c-0.1,0.6-0.1,1.4,0.6,1.9
			c1.5,6.1,2.4,12.5,5.2,18.3c2.5,5.1,4.6,10.6,8.8,14.7c1.5,1.4,3.2,2.5,4.8,3.6c3.5,2.3,6.2,5.2,7.1,9.5c0.3,1.4,0.9,1.8,2.2,1.7
			c0.5,0,0.9,0,1.4,0c2.7,0.1,3.2,0.4,3,3.1c0,0.9,0,1.2,0.7,1.6c1.6,0.9,3.2,2,4.8,3c0.1,0.8,0.7,0.9,1.4,0.9c0,0,0,0,0,0
			c2,2.8,4.9,3.6,8,4.3c0.4,0,0.8,0.1,1.2,0.1l0,0c0.3,0.7,0.8,0.7,1.4,0.6l0.2,0.2l0.3,0c0.2,0.4,0.5,0.6,1,0.6l0.1,0
			c0.3,0.5,0.8,0.7,1.3,0.8l0,0c0.1,0.4,0.3,0.7,0.8,0.6c0.2,0,0.5,0.1,0.7,0.1c0.4,0.5,0.8,0.8,1.4,0.7l0.1,0
			c0.3,0.4,0.7,0.8,1.3,0.8l0,0c0.3,0.6,0.9,0.6,1.5,0.6l0.1,0c0.3,0.5,0.8,0.7,1.3,0.7l0.1,0c0.3,0.6,0.8,0.7,1.4,0.8l0,0
			c0.1,0.4,0.4,0.6,0.8,0.6l0.1,0.1c0.3,0.6,0.7,0.8,1.3,0.7c0,0,0.1,0,0.1,0c0.3,0.5,0.7,0.8,1.3,0.8c0,0,0,0,0,0
			c0.1,0.4,0.4,0.6,0.8,0.6l0,0c0.2,0.7,0.8,0.7,1.4,0.7l0.1,0c0.3,0.5,0.7,0.8,1.3,0.9l0,0c0.1,0.4,0.4,0.6,0.8,0.6l0,0
			c0.1,0.4,0.3,0.6,0.7,0.5c0.1,0.2,0.2,0.3,0.5,0.3c0.2,0.4,0.5,0.6,1,0.7c0,0,0,0,0,0c0.1,0.4,0.3,0.6,0.7,0.6
			c0,0,0.1,0.1,0.1,0.1c0.2,0.5,0.7,0.8,1.2,0.9c0,0,0,0,0,0c0.1,0.5,0.4,0.6,0.8,0.6l0,0c0.1,0.4,0.3,0.6,0.7,0.6l0.1,0.1
			c0.2,0.6,0.7,0.8,1.2,0.8l0,0c0.1,0.4,0.4,0.6,0.8,0.6l0,0c0.1,0.4,0.3,0.6,0.7,0.6l0.1,0.1c0.2,0.5,0.6,0.8,1.2,0.9l0,0
			c0.1,0.4,0.4,0.6,0.8,0.7l0,0c0.1,0.4,0.3,0.6,0.8,0.7l0,0c0.1,0.4,0.3,0.6,0.7,0.6l0.1,0.1c0.2,0.5,0.6,0.9,1.1,1
			c0.1,0.4,0.3,0.6,0.7,0.7l0.1-0.2c0,0-0.1,0.2-0.1,0.2c0.1,0.4,0.4,0.6,0.8,0.6c0,0,0,0,0,0c0.1,0.4,0.4,0.6,0.8,0.6c0,0,0,0,0,0
			c0.1,0.4,0.2,0.7,0.7,0.7c0,0,0,0,0,0c0,0.4,0.2,0.7,0.7,0.7c0,0,0,0,0,0c0.1,0.4,0.4,0.6,0.7,0.6l0.1,0.1c0,0.4,0.2,0.6,0.6,0.6
			l0.1,0.1c0,0.4,0.2,0.6,0.6,0.6l0.1,0.1c0,0.4,0.2,0.6,0.6,0.7c0,0,0.1,0.1,0.1,0.1c0,0.4,0.2,0.7,0.6,0.8l0,0
			c0,0.4,0.2,0.7,0.6,0.8l0,0c0.1,0.4,0.4,0.6,0.8,0.7c0,0,0,0,0,0c0.2,0.9,0.7,1.6,1.6,1.9l0.1,0.1c0.3,0.6,0.6,1.2,1.3,1.4
			c0,0,0.1,0.1,0.1,0.1c0.2,0.6,0.6,0.8,1.2,0.9l0,0c0.1,0.4,0.4,0.6,0.8,0.5l0.2,0.2l0.3,0c0.8,0.9,1.7,1.5,3,1.4c0,0,0,0,0,0
			c0.1,0.4,0.4,0.6,0.8,0.6c0,0,0.1,0,0.1,0c0.3,0.6,0.8,0.7,1.3,0.7l0,0c0.2,0.7,0.8,0.7,1.4,0.8l0,0c0.3,0.6,0.8,0.8,1.4,0.8l0,0
			c0.1,0.4,0.4,0.6,0.8,0.6l0.1,0c0.2,0.6,0.7,0.8,1.3,0.9l0,0c0.1,0.4,0.4,0.6,0.8,0.6c0,0,0,0,0,0c0.1,0.4,0.3,0.6,0.7,0.6
			c0.1,0.2,0.2,0.3,0.4,0.2c0.2,0.4,0.5,0.7,0.9,0.7c0,0,0,0,0,0c0.1,0.4,0.4,0.6,0.8,0.6l0,0c0.1,0.4,0.3,0.6,0.7,0.6l0.1,0.1
			c0.2,0.5,0.6,0.8,1.1,1l0,0c0.1,0.4,0.4,0.7,0.8,0.7l0,0c0.1,0.4,0.4,0.5,0.8,0.5l0.1,0.1c0.4,0.8,1.1,1.4,2,1.5l0,0
			c0.1,0.4,0.3,0.7,0.8,0.7l0,0c0.5,0.8,1.2,1.2,2,1.6l0,0c0.1,0.4,0.4,0.6,0.8,0.6l0,0c0.1,0.4,0.3,0.6,0.8,0.7c0,0,0,0,0,0
			c0.2,0.7,0.7,0.8,1.3,0.9l0,0c0.1,0.4,0.4,0.7,0.8,0.7l0,0c0.1,0.4,0.3,0.6,0.8,0.5c0.1,0.2,0.3,0.3,0.5,0.2
			c0.2,0.4,0.4,0.7,0.9,0.7l0,0c0.1,0.4,0.3,0.6,0.8,0.6c0,0,0.1,0.1,0.1,0.1c0.2,0.5,0.7,0.8,1.2,0.9c0,0,0,0,0,0
			c0.1,0.5,0.4,0.6,0.8,0.6c0,0,0.1,0,0.1,0c0.3,0.5,0.8,0.6,1.4,0.6c0,0,0.1,0.1,0.1,0.1c0.3,0.5,0.7,0.8,1.3,0.7c0,0,0,0,0,0
			c0.1,0.4,0.3,0.6,0.7,0.6c0,0,0.1,0.1,0.1,0.1c0.5,0.9,1.2,1.6,2,2.2c0,0,0,0,0,0c0,0.4,0.2,0.7,0.6,0.8c0,0,0,0,0,0
			c0.1,0.7,0.6,0.8,1.2,1c0-0.4,0.1-0.8,0.1-1.2c0-0.3-0.3-0.6-0.4-0.9c0.2-0.5,0.2-1,0-1.5c0.4-0.4,0.4-0.9,0-1.3
			c0-0.4,0-0.7,0-1.1c0.4-0.3,0.4-0.6,0-0.9c0-0.4,0-0.7,0-1.1c0.5-1,0.7-2.1,0.6-3.2c0.2-0.1,0.3-0.3,0.2-0.5c0,0,0,0,0,0
			c0.4-0.2,0.6-0.5,0.5-0.9l0,0c0.4-0.4,0.7-0.9,1.1-1.3l0.3,0l0.1-0.3c0.4,0,0.6-0.2,0.7-0.5l0.1,0c0.6,0,1.2,0,1.5-0.6l0,0
			c0.6,0,1-0.4,1.4-0.8c0.2,0,0.5-0.1,0.7-0.1c0.5,0,0.9,0,1.4,0.1l0.2,0.2l0.3-0.1c1,0.5,2,1,2.9,1.5l0,0c0.1,0.5,0.4,0.7,0.8,0.9
			l0,0.3l0.2,0.1c-0.1,0.4,0.1,0.7,0.5,0.9c0,0,0,0,0,0c0.1,0.6,0.1,1.2,0.7,1.5l0,0c0.1,0.6,0.2,1.2,0.8,1.6
			c-0.1,0.2-0.1,0.4,0.2,0.5c-0.1,0.6,0,1.3,0.6,1.7c-0.1,0.2-0.1,0.4,0.1,0.5c-0.2,0.9,0,1.6,0.7,2.2l0,0c0,0.6,0,1.2,0.6,1.6
			l0.2-0.1c0,0-0.2,0.1-0.2,0.1c-0.2,0.2-0.1,0.4,0.1,0.6c-0.2,0.7,0.1,1.2,0.8,1.5l0,0c0,0.6,0.2,1.1,0.8,1.3l0,0.1
			c0,0.5,0.2,0.7,0.6,0.8l0,0c0,0.5,0.3,0.7,0.7,0.8l0,0c0.1,0.4,0.3,0.7,0.7,0.8l0,0c0.1,0.5,0.4,0.6,0.8,0.6l0.1,0
			c0.5,0.7,1.1,1.4,2,1.4l0.1,0c0.2,0.6,0.8,0.7,1.3,0.8c0,0,0,0,0,0c0.1,0.4,0.3,0.6,0.8,0.6l0.1,0.2c0,0,0.3,0,0.3,0
			c0.6,0.9,1.6,0.5,2.4,0.6l0,0c0.9,0.7,1.4,1.6,1.4,2.8c0,0,0,0,0,0c-0.1,0.1-0.2,0.1-0.2,0.2c-0.1,0.3,0,0.4,0.3,0.3
			c0.2,0.1,0.5,0.2,0.7,0.3c1,0.9,2.2,1.2,3.5,1.4l0.1,0c0.3,0.5,0.7,0.7,1.3,0.6l0.2,0.2l0.3,0c0.2,0.4,0.5,0.6,0.9,0.5l0.2,0.2
			l0.3,0c0.2,0.4,0.5,0.6,0.9,0.6l0.1,0c0.3,0.5,0.8,0.7,1.3,0.7l0.1,0.1c0.3,0.5,0.7,0.7,1.3,0.7l0.1,0c0.3,0.5,0.8,0.7,1.3,0.7
			l0.1,0.2l0.2,0c0.2,0.5,0.5,0.6,1,0.6l0.1,0c0.3,0.5,0.7,0.8,1.3,0.8l0,0c0.3,0.7,0.8,0.7,1.4,0.7l0,0c0.3,0.6,0.8,0.7,1.4,0.7
			l0,0c0.3,0.6,0.8,0.8,1.4,0.8l0,0c0.1,0.4,0.4,0.6,0.8,0.5c0.2,0.1,0.4,0.2,0.6,0.2c0.3,0.6,0.8,0.7,1.4,0.8l0,0
			c0.1,0.4,0.4,0.6,0.8,0.5l0.1,0.2l0.3,0c0.2,0.5,0.5,0.7,1,0.6l0.1,0c0.3,0.5,0.7,0.8,1.3,0.9c0.6,0.7,1.2,1.3,2.2,1.3l0,0
			c0.3,0.6,0.8,0.8,1.4,0.8c0,0,0,0,0,0c0.1,0.4,0.4,0.6,0.8,0.6c0,0,0,0,0,0c0.2,0.6,0.7,0.8,1.2,0.9l0.2-0.1c0,0-0.2,0.1-0.2,0.1
			c0.1,0.4,0.4,0.6,0.9,0.5l0,0c0.3,0.6,0.8,0.7,1.3,0.8l0,0c0.1,0.4,0.3,0.7,0.8,0.7l0,0c0.1,0.6,0.1,1.2,0.6,1.6l0-0.1
			c0,1.1,0,2.3,0,3.4l0.1-0.1c-0.9,0-1.8-0.3-2.7,0c0,0,0,0,0,0c-0.4-0.5-0.9-0.6-1.5-0.6l-0.1,0c-0.5-0.7-1.2-0.8-1.9-0.9l0,0
			c-0.6-0.7-1.3-1.2-2.2-1.3c0,0,0,0,0,0c-0.3-0.6-0.8-0.7-1.4-0.8c0,0,0,0,0,0c-0.7-1-1.7-1.3-2.8-1.4c0,0,0,0,0,0
			c-0.3-0.6-0.8-0.7-1.4-0.7l0,0c-0.3-0.6-0.8-0.7-1.4-0.7l0,0c-0.3-0.6-0.8-0.7-1.4-0.8c-0.3-0.6-0.8-0.7-1.4-0.7l0,0
			c-0.3-0.6-0.8-0.7-1.4-0.7c0,0,0,0,0,0c-1-1-2.3-1.5-3.6-2.1l0,0c-0.3-0.7-0.9-0.7-1.5-0.7c0,0,0,0,0,0c-1.4-0.7-2.4-2.2-4.2-2.3
			c-0.1-0.4-0.4-0.6-0.8-0.6l0,0c-0.6-1-1.6-1.5-2.7-1.7c-0.4,0.9-0.1,1.5,0.4,2c-0.1,0.2-0.1,0.4,0.1,0.5c0,1.3-0.2,2.6,0.6,3.7
			l0-0.1c-0.5,1.7-0.2,3.3,0,5l0-0.1c-0.7,2.2-1.3,4.4-2,6.6l-0.2,0.1l0.1,0.3c-0.4,0.2-0.6,0.5-0.7,1c0,0,0,0,0,0
			c-0.4,0.1-0.7,0.3-0.6,0.8c0,0,0,0.1,0,0.1c-0.6,0.6-1.3,1.1-1.6,1.9c-0.8,0.2-1.3,0.7-1.4,1.6l0,0c-1,0.7-1.4,1.7-1.5,2.9l0-0.1
			c-1.1,1-1.3,2.3-1.4,3.7c0,0,0-0.1,0-0.1c-0.6,0.3-0.7,0.9-0.7,1.5c0,0,0,0,0,0c-0.6,0.3-0.7,0.9-0.7,1.4c0,0,0,0,0,0
			c-0.4,0.1-0.6,0.4-0.6,0.8l0,0.1c-0.5,0.3-0.8,0.7-0.9,1.2l0,0c-0.4,0.1-0.6,0.4-0.7,0.8l0,0c-0.4,0.1-0.6,0.3-0.7,0.8l0,0
			c-0.4,0.1-0.6,0.3-0.7,0.7l0,0c-0.4,0-0.7,0.2-0.7,0.7l0,0c-0.4,0.1-0.6,0.3-0.7,0.7l0,0c-1.1,0.6-1.9,1.5-2.2,2.8l0,0
			c-0.6,0.3-0.7,0.9-0.7,1.5l0,0c-0.6,0.4-0.6,0.9-0.6,1.6l0,0c-0.6,0.6-0.9,1.3-0.7,2.2c-0.2,0.2-0.2,0.4-0.1,0.6
			c-1.3,1.8-0.2,3.1,0.7,4.6l0,0c0,0.6,0.2,1.1,0.8,1.4l0,0c0,0.4,0.1,0.7,0.6,0.9l0-0.1c0.2,1,0.8,1.5,1.6,2l0,0.1
			c0,0.4,0.2,0.7,0.6,0.8l0,0c0,0.4,0.2,0.7,0.7,0.8l0,0c0.1,0.6,0.4,1,0.9,1.2l0.1,0.1c0,0.5,0.2,0.6,0.6,0.6l0.1,0.1
			c0,0.4,0.2,0.7,0.6,0.7l0,0c0,0.4,0.3,0.6,0.7,0.7l0,0c0,0.4,0.2,0.7,0.7,0.8l0,0c0,0.4,0.2,0.7,0.7,0.8l0,0
			c0.1,0.4,0.3,0.7,0.7,0.8l0.1-0.2l-0.2,0.2c0.3,0.9,0.9,1.5,1.6,2c0,0,0,0,0,0c0,0.5,0.2,0.7,0.7,0.8c0,0,0,0,0,0
			c0.1,0.4,0.3,0.7,0.7,0.7c0,0,0,0,0,0c0,0.4,0.2,0.7,0.7,0.8c0,0,0,0,0,0c0,0.4,0.3,0.7,0.7,0.8l0.1-0.2c0,0-0.2,0.2-0.2,0.2
			c0.4,0.8,0.6,1.7,1.6,2l0,0c0.1,0.4,0.3,0.6,0.7,0.7c0,0,0,0,0,0c0,0.7,0.1,1.3,0.6,1.8l-0.1,0.2l0.2,0.2c0,0.4-0.1,0.9-0.1,1.3
			l0.1-0.1c-0.4,0.1-0.6,0.5-0.6,0.9l0,0c-0.4,0-0.7,0.2-0.8,0.6l0,0c-1,0.4-1.8,0.3-2.5-0.6c-0.7-0.8-1.5-1.5-2.2-2.2l0,0
			c0-0.4-0.2-0.7-0.7-0.8l0,0c-0.3-0.9-0.7-1.7-1.5-2.1l0,0c0-0.4-0.2-0.7-0.7-0.8l0,0c-0.1-0.6-0.2-1.1-0.8-1.4v0
			c0-0.5-0.2-0.7-0.7-0.8l0,0c-0.2-0.9-0.7-1.7-1.5-2.2l0,0c0-0.4-0.2-0.7-0.7-0.8l0,0c-0.3-0.9-0.8-1.6-1.5-2.1c0,0,0,0,0,0
			c-0.3-1.2-1.1-2.2-2.1-3l0,0c-0.2-0.9-0.6-1.7-1.4-2.3c-0.1-0.6-0.2-1.1-0.8-1.4c0,0,0,0,0,0c0-0.6-0.1-1.2-0.7-1.5
			c-0.5-1.2-1.5-0.5-2.2-0.6c0,0,0,0,0,0c-0.2-0.2-0.5-0.5-0.7-0.7c0.3-0.7,1.5-0.5,1.3-1.5c0-2,0-4.1,0.1-6.1
			c0.1-3.7,0.8-7.3,2.9-10.5c0.2-0.2,0.5-0.4,0.7-0.6c0.5-0.1,0.8-0.5,0.6-1c-0.2-0.5-0.5-0.2-0.6,0.2c-0.4,0-0.7,0.1-0.8,0.5
			c-3.8,1.9-5.7,5.1-6,9.4c-0.1,1.1-0.3,2.1-0.4,3.2c-0.9-0.5-0.8-1.9-1.9-2.2c-0.7,2.2,0.7,3.3,2,4.4c0.5,0.4,0.2,0.8,0.1,1.3
			c-0.1,0.6-0.1,1.2-0.2,1.8c-0.9-0.1-1.8-0.1-2.7-0.2l-0.1,0c-0.3-0.5-0.8-0.7-1.3-0.8c0,0,0,0,0,0c-0.1-0.4-0.3-0.7-0.7-0.7l0,0
			c-1.1-1.4-2.5-2.5-4.2-2.9l0,0c-0.3-0.6-0.8-0.7-1.4-0.8l0,0c-0.5-0.8-1.1-1-1.7-0.1l0,0c-0.9,0-1.7,0.1-2.6,0.1l0,0
			c-0.8-0.7-1.8-0.8-2.8-0.8l0,0c-0.6-0.7-1.4-0.7-2.2-0.6l-0.2-0.2l-0.3,0.1c-0.9-1-2-0.7-3.1-0.7c0,0,0,0,0,0
			c-0.8-0.8-1.9-0.6-2.8-0.7l0,0c-1.6-0.9-3.3-0.9-5-0.7l-0.2-0.1c0,0-0.2,0.1-0.2,0.1c-0.6-0.7-1.5-0.7-2.4-0.8l-0.1,0.1
			c0,0,0.1-0.1,0.1-0.1c-0.7-0.5-1.4-1-2.1-1.5l0,0c-0.2-0.7-0.3-1.5-0.9-2l0,0c0.1-0.6,0-1.2-0.6-1.6l0,0c0.1-0.2,0.1-0.4-0.1-0.5
			c0-1.2,0-2.4,0-3.6l0.2-0.1l-0.1-0.2c0.4-0.2,0.6-0.6,0.7-1l0,0c0.4,0,0.7-0.2,0.8-0.6l-0.2-0.2l0.2,0.2c1.3-0.9,0.5-1.7-0.1-2.5
			l0,0.1c-0.1-0.8-0.1-1.7-0.8-2.2c0.1-0.2,0.1-0.4-0.1-0.5c0-0.2,0-0.5,0-0.7c0.1-0.4,0.1-0.9,0.2-1.3l0,0c0.4-0.1,0.6-0.3,0.7-0.8
			c0,0,0,0,0,0c0.6,0,1.1-0.1,1.3-0.8l0.1-0.1c0.4,0,0.6-0.2,0.8-0.6c0.4,0,0.9,0,1.3,0c1.2,0.8,2.6,0.7,4.3,1.3
			c-0.4-1.6-0.5-2.7-1.2-3.6l0,0c0-0.6-0.1-1.2-0.8-1.4l0,0c0-0.5-0.4-0.6-0.8-0.6l-0.1-0.1c-0.2-0.6-0.7-0.8-1.3-0.8c0,0,0,0,0,0
			c-0.5-0.8-1.2-1.2-2.1-1.5c-0.1-0.4-0.4-0.6-0.8-0.6l0,0c-0.1-0.4-0.3-0.6-0.7-0.6l-0.1-0.1c-0.2-0.5-0.7-0.7-1.2-0.8l0,0
			c-0.4-0.9-1.2-1.3-2.1-1.5l-0.1,0.1l0.1-0.1c-0.1-0.4-0.4-0.6-0.8-0.6c0,0,0,0,0,0c-0.2-0.6-0.7-0.8-1.2-0.9l-0.1,0.2l0.1-0.2
			c-0.1-0.4-0.4-0.6-0.8-0.6l0,0c-0.5-0.8-1.2-1.3-2.1-1.4c0,0-0.1,0-0.1,0c-0.5-0.7-1.1-1.3-2-1.6l0,0c-0.6-0.7-1.3-1.1-2.1-1.4
			l0,0c-0.6-0.7-1.3-1.2-2.2-1.3l0,0c-1.1-1.1-2.1-0.5-3.2,0l0,0c-2.1-0.7-4.2-0.7-6.3,0l-0.2,0c-1.2-0.7-2.5-0.5-3.8-0.5
			c-4-0.1-8-0.1-11.9-0.2c-0.7-0.6-1.6-1-2.1-0.3c-0.6,0.7-0.2,1.7,0.5,2.5c0.1,0.4,0.2,0.8,0.6,1l0-0.1c0,0.6,0.4,1.1,0.8,1.6
			c-0.1,0.2-0.1,0.4,0.1,0.5c-0.1,0.5,0.2,0.7,0.6,0.7l0,0c0.2,0.8,0.8,0.9,1.4,0.6c0.9,0,1.9,0.1,2.8,0.1c1.6,0.9,3.3,0.5,5,0.7
			c0.4,0,0.8,0.1,1.2,0.1c1.2,0.6,2.6,0.4,3.8,0.7l0.3,0.2l0.3-0.1c0,0,0,0,0,0c0.6,0.7,1.4,0.6,2.2,0.6c0,0,0,0,0,0
			c0.4,0.5,0.8,1,1.4,1.2c0,0.3,0.2,0.4,0.4,0.3c0.3,0.5,0.6,1,0.9,1.5c0,0.4,0,0.7,0,1.1c-0.6,0.4-0.6,1-0.6,1.7c0,0,0,0,0,0
			c-0.5,0.3-0.7,0.8-0.8,1.4l0,0c-0.4,0.1-0.7,0.2-0.7,0.7c0,0,0,0,0,0c-0.8,0.3-1.6,0.7-2.1,1.4l0,0c-0.5,0-1.1,0.1-1.4,0.7
			c0,0,0,0,0,0c-0.8,0.1-1.6-0.1-2.1,0.7c0,0-0.1,0-0.1,0c-1.7,0.1-3.4,0.5-4.8,1.5l0,0c-0.8,0-1.6,0-2.2,0.7c0,0,0,0,0,0
			c-0.8,0-1.5,0.2-2,0.8l-0.1,0c-0.6-0.1-1.1,0-1.5,0.6l0,0c-1,0.1-2-0.1-2.7,0.9l-0.1,0c-0.8,0-1.6-0.2-2.2,0.6c0,0,0,0,0,0
			c-1.8,0.3-3.6,0.6-5.4,0.9c-0.8-0.1-1.8-0.3-2.2,0.8l0,0c-0.7-0.3-0.8-1.6-1.8-1.2c-0.7,0.3-0.4,1.2-0.3,1.9c0,0,0,0,0,0
			c-1.5-0.3-2.9-0.4-3.7,1.3c-0.3,0.2-0.5,0.5-0.8,0.7l0,0c-0.8-0.1-1.6-0.1-2.2,0.7l0,0c-1,0.1-2,0-2.8,0.8c0,0,0,0,0,0
			c-3.8,0.2-7.5,0.2-11.3,0c-1-1-2.3-0.6-3.5-0.8l0,0c-0.3-0.6-0.8-0.7-1.4-0.7l0,0c-1-0.9-2-1.8-2.9-2.7l0-0.1
			c0-0.4-0.2-0.7-0.6-0.8l0,0c0-0.5-0.2-0.7-0.7-0.8l0,0c-0.1-0.4-0.3-0.7-0.7-0.8c0,0,0,0,0,0c-0.1-0.7-0.1-1.3-0.2-2c0,0,0,0,0,0
			c0.7-0.5,0.8-1.3,0.9-2.1l-0.2-0.1l0.2,0.1c0.6-0.4,0.6-1,0.6-1.6l0,0c0.4-0.3,0.8-0.7,0.9-1.3c1.2-0.4,1.9-1.4,2.7-2.3
			c0,0,0,0,0,0c0.4,0,0.7-0.3,0.8-0.7l0,0c0.4,0,0.7-0.2,0.8-0.7l0,0c0.4,0,0.7-0.3,0.8-0.7l-0.1-0.1l0.1,0.1c0.6-0.1,1-0.4,1.2-0.9
			l0.1,0c0.5,0,0.7-0.2,0.7-0.7l0,0c0.4-0.1,0.7-0.3,0.7-0.7l0,0c0.4,0,0.7-0.2,0.8-0.6l0,0c0.6-0.1,1-0.4,1.2-0.9l0.1-0.1
			c0.4,0,0.6-0.2,0.7-0.6l0,0c0.4,0,0.7-0.1,0.8-0.6l-0.2-0.1l0.2,0.2c0.6,0,1.1-0.2,1.3-0.9l0,0c0.6-0.1,1.1-0.2,1.4-0.7l0,0
			c0.7,0.1,1.3-0.1,1.7-0.7l0.3,0.1l0.1-0.2c0.7,0,1.3,0,1.8-0.6l0,0c0.4,0.4,0.7,0.4,1-0.1c0.5,0,0.9-0.1,0.6-0.8
			c0-0.7,0-1.4,0-2.2c0.7-0.4,1.4-0.5,2.1,0c0.6,1.7,1.2,3.4,1.8,5.1c0.5,1.5-0.3,2.7-1.3,3.4c-0.8,0.6-2,0.7-3,0.9
			c-4.7,1.1-7.8,4.4-11.3,8.1c3,1,5.6,0.6,8.1,0.2c9.7-1.7,19.3-3.3,29-5.2c3-0.6,6.1-0.6,9-2.1c-2.8-0.3-5.6-0.8-8.5-0.6
			c-3.4,0.3-5.7-1.3-7-4.4c-0.9-2.1-1.6-4.2-2.5-6.3c-0.3-0.8-0.6-1.6-1.8-2c-5.4-1.5-10-4.7-15-7.2c-0.1-0.4-0.5-0.6-0.8-0.7
			c-0.3-0.2-0.5-0.5-0.8-0.7c-0.1-0.3-0.3-0.6-0.4-0.9c-0.2,0.3-0.3,0.6-0.5,0.9c-0.4,0-0.8,0.1-1.2,0.1c0-0.2-0.1-0.5-0.1-0.7
			c0.6-2.2,0.6-2.2-2.1-2.2c-0.2,0-0.5,0-0.7,0c0,0-0.1,0-0.1,0c-1.3-1.4-3.1-1.3-4.8-1.5l0,0c-0.6-0.8-1.4-0.6-2.2-0.6
			c-0.1-0.3-0.3-0.3-0.6-0.2c0,0-0.1,0-0.1,0c-0.3-0.5-0.9-0.6-1.4-0.6l0,0c-0.2-0.8-0.9-0.7-1.5-0.7l0,0c-0.2-0.7-0.8-0.8-1.4-0.7
			l0,0c-0.2-0.6-0.7-0.7-1.3-0.8l-0.1,0.1c0,0,0.1-0.2,0.1-0.2c-0.1-0.4-0.4-0.6-0.8-0.6c0,0,0,0,0,0c-0.4-0.9-1.2-1.3-2.1-1.4l0,0
			c-1.2-1-2-2.4-3.6-2.9l0,0c-0.1-0.4-0.3-0.6-0.7-0.7l0,0c0-0.4-0.2-0.7-0.7-0.7l0,0c0-0.4-0.3-0.7-0.7-0.7l0,0
			c0-0.4-0.2-0.7-0.6-0.8l0,0c-0.1-0.6-0.3-1-0.9-1.3c0,0,0,0,0,0c0-0.5-0.2-0.8-0.6-1l0-0.3l-0.2-0.2c0.1-0.4-0.1-0.7-0.5-0.8
			c0,0,0,0,0,0c-0.1-0.6-0.3-1.1-0.8-1.4l0,0c0-0.6-0.2-1.1-0.7-1.4l0,0c0-0.4-0.1-0.8-0.5-0.9l0,0c-0.1-0.6-0.2-1.1-0.8-1.4l0,0
			c0-0.6-0.1-1.2-0.8-1.5l0,0c-0.1-0.6-0.1-1.2-0.7-1.5l-0.2,0.1l0.2-0.1c-0.1-0.6-0.2-1.3-0.8-1.7l0.1-0.2l-0.2-0.1
			c0.1-0.7-0.1-1.2-0.6-1.6c0.1-0.2,0.1-0.4-0.1-0.5c0-1.7,0.1-3.3,0.1-5l0,0.1c0.4-0.1,0.5-0.4,0.6-0.8l0.1-0.1
			c0.5-0.2,0.7-0.4,0.1-0.8l0,0.1c0.1-0.5-0.2-0.7-0.7-0.8c-0.3-0.9-0.9-1.4-1.6-2c0,0,0,0,0,0c0-0.5-0.2-0.8-0.7-0.9
			c0.1-0.2,0-0.4-0.2-0.5c0.1-0.6-0.1-1.1-0.6-1.4l0,0c-0.3-1.9-0.8-3.8-0.7-5.8l0.2-0.2l-0.1-0.2c0.5-0.5,0.6-1.1,0.5-1.8
			c0.2-0.1,0.3-0.3,0.2-0.5c0.4-0.2,0.6-0.5,0.6-1l0,0c0.4-0.1,0.6-0.3,0.6-0.7l0.1-0.1c0.1,0,0.2-0.1,0.3-0.1
			c0.1-0.2,0-0.4-0.2-0.4l0,0c0.1-0.6-0.2-1.1-0.7-1.5l0,0c0.1-0.6-0.1-1.1-0.7-1.4l0,0c0-0.6-0.1-1.3-0.7-1.7l0.1-0.2l-0.2-0.2
			c0.1-0.6,0-1.2-0.6-1.5l0,0c0-1.1-0.1-2.3-0.8-3.2l0.1-0.1l-0.1-0.2c0-0.1,0.1-0.2,0.1-0.3c0-0.2-0.1-0.3-0.2-0.5
			c0-0.4,0-0.8,0-1.2c0.5-0.4,0.7-1,0.8-1.6l0,0c0.4-0.1,0.7-0.4,0.7-0.8l0,0c0.5-0.3,1-0.5,1.6-0.8c1.4,0.1,2.7,0.3,4-0.1
			c0.7,0,1.3,0.5,2.1-0.1c-0.9-1.2-1.7-2.4-2.6-3.6l-0.1,0.1c0,0,0.2-0.1,0.2-0.1c-0.1-0.8-0.2-1.6-0.9-2.2c0.1-0.2,0.1-0.4-0.1-0.6
			c0.1-0.7,0-1.3-0.5-1.8l0-0.1c0.4-0.4,0.3-0.8-0.1-1.1c0.1-0.2,0.1-0.4-0.1-0.6c0-1,0.1-1.9,0.1-2.9l0,0c0.5-0.3,0.7-0.9,0.7-1.5
			l0,0c0.4-0.1,0.6-0.4,0.6-0.8l0.1-0.1c0.4,0,0.7-0.2,0.8-0.6l0,0c0.6,0,1.1-0.3,1.6-0.7l0.3,0.1l0.2-0.2c3.1,0,6.2,0,9.2,0
			c0.5,0,0.9,0.1,1.4,0.1c0.4,0.5,0.9,0.4,1-0.1c0.2-0.7-0.1-1.3-0.8-1.6l-0.2,0.2l0.2-0.2c-0.7-1.3-1.5-2.4-3-2.7l0,0
			c-0.4-0.4-0.8-0.8-1.4-0.7c0,0,0,0,0,0c-1-0.8-2.1-1.4-3.4-1.6l0,0c-0.9-1.2-2.3-1.5-3.5-2.2l-0.1,0.1l0.1-0.1
			c-0.1-0.4-0.4-0.6-0.8-0.7l0,0c-0.1-0.4-0.4-0.6-0.8-0.7l0,0c0-0.4-0.2-0.7-0.7-0.8l0,0c0-0.4-0.2-0.7-0.7-0.8l0,0
			c-0.1-0.6-0.3-1.1-0.9-1.3l0,0c0-0.6-0.3-1-0.8-1.3c-0.1-1-0.7-1.8-1.3-2.6l0-0.3l-0.2-0.1c0-0.4-0.1-0.7-0.5-0.8l0,0
			c0-0.6-0.1-1.1-0.7-1.5c0,0,0,0,0,0c0-0.6-0.2-1.1-0.7-1.5l-0.1,0.1l0.2-0.1c0-0.6-0.3-1.1-0.9-1.3l0,0c0-0.6-0.2-1.1-0.7-1.4l0,0
			c0-0.6-0.1-1.2-0.7-1.5l0,0c0-0.7-0.1-1.3-0.7-1.7l0.1-0.2l-0.2-0.2c0.1-0.7-0.1-1.4-0.6-1.8l0.1-0.2l-0.1-0.2
			c0-1.1-0.1-2.1-0.7-2.9l0,0c0-1.3,0.1-2.7-0.7-3.9c0-0.4-0.1-0.8-0.1-1.2c0.2-1.1,0.1-2.1-0.6-3c0.1-0.2,0.1-0.4-0.1-0.6
			c0-1.3,0.2-2.7-0.6-3.9l0.1-0.2l-0.2-0.2c-0.2-2,0.4-4-0.7-5.9l0,0.1c-0.1-3.9,0.2-7.9-0.7-11.8c0.4-0.9,0.3-1.8-0.1-2.7
			c0.4-3.1,0-6.1-0.6-9.1c0.2-0.6,0.1-1.2-0.1-1.8c0.1-1.5,0.4-3.1-0.6-4.5c0.1-0.2,0.1-0.4-0.1-0.6c0-0.2-0.1-0.6-0.1-0.6
			c-0.5-0.1-0.4,0.3-0.5,0.6l0,0.1c-0.8,0.8-1.5,1.6-1.4,2.8c-0.2,0.2-0.2,0.4-0.1,0.6c-0.7,0.6-0.8,1.4-0.7,2.2l0,0
			c-0.6,0.6-0.8,1.4-0.7,2.2l0,0c-0.7,0.6-0.7,1.4-0.7,2.2l0,0c-0.7,0.6-0.7,1.4-0.7,2.2l0,0c-0.7,0.6-0.8,1.4-0.7,2.2l-0.1,0.1
			l0.1,0.2c-0.6,0.5-0.6,1.1-0.6,1.8l-0.2,0.2c0,0,0.1,0.3,0.1,0.3c-0.7,0.7-0.7,1.6-0.7,2.4l0,0c-0.7,0.6-0.7,1.4-0.7,2.2l0,0
			c-0.2,0.1-0.4,0.2-0.6,0.3c-0.1-0.9-0.4-1.6-1.4-1.7c0.8-4.3,2.6-8.2,3.8-12.3c0.9-3,1.8-6.1,2.9-9.5c-5.3,1.9-10.2,1.8-15.1,0.7
			c-1.3-0.3-2.6-0.4-3.9-0.5c-2.5-0.2-4.9-0.8-7.2-1.9c-3.8-1.7-7.5-3.5-11.2-5.4c-2-1-3.9-2.3-5.2-4.3c0.8-0.1,1.8-0.3,2-1.2
			c0.2-1.1-0.9-1.3-1.6-1.6c-1-0.4-1.5,0.1-1.7,1.2c-1.3-0.6-0.9-2.7-2.5-3c-1.6,6.3-3.1,12.4-4.6,18.5c-2.8,11.3-5.7,22.6-9.2,33.8
			c0-0.2,0-0.5,0-0.7c-0.1-0.3-0.2-0.6-0.3-0.9c-0.6,0.3-0.4,0.7-0.2,1.1c0.1,0.2,0.3,0.3,0.5,0.5c-1.1,5.6-2.2,11.2-3.3,16.7
			c-1.4,6.9,0.3,12.8,5.7,17.4c0.6,0.5,1.3,1,1.8,1.7c0.9,1.2,1.6,1.6,2.6,0.1c0.6-1,1.7-1.6,3.2-0.8c-0.7,1.4-1.4,2.7-2.1,4.1
			c-0.2-0.5-0.4-1.1-1.1-1.1c-0.1,0-0.3,0.3-0.3,0.5c-0.1,0.7,0.4,1,1,1.1c0.1,0,0.2,0,0.3,0c-0.8,3.9-0.3,8-1.4,11.9
			c-0.2,0.6,0.4,0.7,0.7,1.1c-0.5,0.4-0.7,0.9-0.7,1.5c0,0.6,0.2,1.2,0.9,1.3c0.7,0.1,1-0.4,1.3-0.9c0.4-0.8-0.1-1-0.7-1.2
			c-0.3-0.1-0.5-0.4-0.7-0.7c0.9,0,1.7,0.1,2.6,0.1c1,0.7,2.1,1.3,3.1,2c-0.4,0.2-0.6,0.5-0.1,0.8c0.1,1-0.3,2.1,0.3,3.1
			c1.6-1.4,1.6-1.4-0.3-3.1c0-0.3,0.1-0.5,0.1-0.8c0.8-0.1,1.2,0.7,2,0.9l0,0c0.1,0.4,0.3,0.7,0.8,0.6l0.1,0
			c0.3,0.5,0.7,0.8,1.3,0.9l0,0c0.1,0.4,0.3,0.7,0.8,0.7l0,0c0.1,0.4,0.3,0.7,0.8,0.7l0,0c0.1,0.4,0.4,0.6,0.8,0.7l0,0
			c0,0.5,0.3,0.7,0.7,0.7l0,0c0.1,0.4,0.3,0.6,0.7,0.7l0,0c0,0.5,0.2,0.7,0.7,0.7l0,0c0.1,0.4,0.2,0.7,0.7,0.8l0,0
			c0.1,0.4,0.4,0.6,0.8,0.7l0,0c0,0.5,0.3,0.7,0.7,0.7l0,0c0.1,0.4,0.2,0.7,0.6,0.9l0-0.1c0.1,0.6,0.3,1.1,0.9,1.3l0,0
			c0,0.6,0.2,1.1,0.7,1.4c0,0,0,0,0,0c0,0.6,0.1,1.1,0.7,1.4l0,0c0,0.4,0.2,0.7,0.6,0.9l0-0.1c0.1,0.6,0.2,1.2,0.8,1.6l0,0.3
			l0.2,0.2c0,0.4,0.1,0.7,0.5,0.9l0-0.1c0,0.7,0.1,1.2,0.8,1.5c0,0,0,0,0,0c0,0.7,0.1,1.3,0.7,1.7l-0.1,0.2l0.2,0.1
			c-0.1,0.7,0,1.3,0.6,1.7c-0.1,0.2-0.1,0.4,0.1,0.5c0.1,1.3-0.2,2.6,0.6,3.7c-0.2,0.4-0.3,0.9,0,1.3c-0.1,0.7-0.2,1.5,0.1,2.2
			c0,0.5,0,1,0,1.4c-0.2,0.6-0.3,1.3-0.1,1.9c-0.6,0.4-0.6,1-0.7,1.6l0,0c-0.4,0.1-0.6,0.4-0.7,0.8c0,0,0,0,0,0
			c-0.4,0-0.7,0.1-0.8,0.6l0.1,0.2c0,0-0.1-0.2-0.1-0.2c-0.5,0.1-1.1,0.2-1.3,0.8c0,0,0,0,0,0c-1.9-0.4-1.8,1.1-2.1,2.3c0,0,0,0,0,0
			c-0.4,0.1-0.6,0.4-0.7,0.8c0,0,0,0,0,0c-0.4,0-0.7,0.2-0.8,0.6l0,0c-0.5,0.1-1,0.3-1.2,0.9c0,0,0,0,0,0c-1,0.2-1.9,0.5-2.7,1.3
			c-0.1,0.1-0.2,0.2-0.3,0.4c0.1-0.1,0.2-0.2,0.4-0.3c0.8,0,1.1,0.8,1.8,1c0,0,0,0,0,0c0.1,0.6,0.2,1.1,0.8,1.4c0,0,0,0,0,0
			c0,1.7,0.1,3.4,0.1,5c-0.7,0.9-1.5,1.9-2.2,2.8c0,0,0,0,0,0c-0.6,0.1-1.1,0.1-1.4,0.8l0,0c-0.5,0.1-1.2-0.1-1.5,0.6l0,0
			c-0.5,0-0.8,0.1-1.1,0.5c0.4,0.1,0.8,0.2,1.2,0.3l0.2,0.2l0.3,0c0.2,0.4,0.5,0.6,0.9,0.6l0.1,0c0.2,0.7,0.8,1,1.4,1.3l0.1,0.1
			c0,0.6,0.1,1.1,0.6,1.5c0,0.7,0,1.4,0,2.1c0,0.2,0,0.5,0,0.7c0,0.4-0.1,0.8-0.1,1.2c-0.6,0.3-0.7,0.9-0.8,1.5l0.2,0.1l-0.1-0.1
			c-0.4,0.1-0.6,0.5-0.6,0.9c0,0,0,0,0,0c-0.4,0.1-0.7,0.3-0.7,0.7l0,0c-0.4,0-0.7,0.2-0.8,0.7l0,0c-0.4,0-0.7,0.2-0.8,0.6
			c0,0,0,0,0,0c-0.5,0.1-1,0.2-1.3,0.8l0,0c-0.6,0-1.1,0.1-1.4,0.7l0,0c-0.6,0-1.1,0.1-1.4,0.8c0,0,0,0,0,0
			c-0.7,0.1-1.6,0.1-2.1,0.8l0,0c-1.1-0.2-2-0.1-2.8,0.7l0,0c-0.9,0-1.7,0.1-2.6,0.1c-2.1-1.2-3.6,0.1-5.1,1.3
			c-0.1,0.2-0.2,0.3-0.2,0.5c0,0,0,0,0,0c0,0-0.2-0.1-0.2-0.1l-0.2,0.2c-1.1-0.2-1.8,0.2-1.7,1.5l0,0c-1.1,0.8-0.6,2-0.7,3l0,0
			c-0.8,0.6-0.8,1.4-0.7,2.2c0,0,0,0,0,0c-0.6,0.6-0.7,1.4-0.7,2.2l-0.2,0.1l0.1,0.2c-0.7,0.7-0.6,1.6-0.7,2.5l0-0.1
			c-0.6,0.6-0.7,1.4-0.6,2.3c-0.2,0.2-0.3,0.4-0.2,0.6c0,0,0,0,0,0c-0.8,0.6-0.6,1.5-0.6,2.3l-0.2,0.2l0.1,0.2c-1,1.5-1,3,0.1,4.5
			l0.1,0.3l0.3,0c0.5,0.5,1,0.6,1.7,0.6l0.2,0.2l0.3,0c0.2,0.4,0.5,0.6,1,0.5c0.2,0.1,0.5,0.1,0.7,0.2c0.3,0.5,0.9,0.7,1.4,0.7
			l0.1,0.1c0.1,0.3,0.2,0.5,0.6,0.5c0.3,0.1,0.5,0.2,0.8,0.3c0.3,0.5,0.8,0.7,1.4,0.6l0.2,0.2l0.3,0c0.2,0.5,0.5,0.6,1,0.6l0.1,0
			c0.3,0.5,0.7,0.8,1.3,0.8l0,0c0.1,0.4,0.4,0.6,0.8,0.6l0.1,0.1c0.1,0.4,0.3,0.6,0.7,0.6l0.2,0.1c0,0.3,0.2,0.5,0.5,0.5
			c0.1,0.3,0.3,0.4,0.5,0.4c0.1,0.4,0.4,0.7,0.9,0.7l0,0c0.1,0.4,0.3,0.6,0.7,0.7l0,0c0.1,0.4,0.2,0.7,0.7,0.8c0,0,0,0,0,0
			c0.1,0.8,0.5,1.3,1.4,1.5l0.2-0.1l-0.2,0.1c0.1,0.6,0.3,1,0.9,1.3l0,0.1c0.1,1,0.2,2.1-0.7,2.9l-0.1,0c-0.6,0-1.1,0.1-1.4,0.7
			c0,0,0,0,0,0c-0.7,0-1.4-0.1-2.1-0.1c0-1.2-0.1-2.3-1.2-3.1c-1.2,0.7-0.8,2.2-1.6,3c-1,0-1.9,0-2.9,0.1c0,0-0.3-0.2-0.3-0.2
			s-0.3,0.1-0.3,0.1c-1.6-0.9-3.4-0.8-5.2-0.7l-0.2-0.2l-0.2,0.1c-0.1-0.2-0.2-0.4-0.3-0.6c0.4-0.1,1,0,0.9-0.7
			c0-0.2-0.4-0.6-0.7-0.6c-0.7,0-0.8,0.6-0.9,1.1c-0.7,0-1.4,0-2,0l0,0c-0.8-0.8-1.8-0.8-2.8-0.7c0,0,0,0,0,0
			c-0.6-0.6-1.4-0.7-2.2-0.6l-0.3-0.2c0,0-0.3,0.1-0.3,0.1c-1.1-0.7-2.4-0.7-3.6-0.8c0,0,0,0,0,0c0-0.2-0.1-0.4-0.1-0.5
			c0-1.9,2.3-2.6,2.3-4.5c2.5,0.4,4.9,1.2,7.2,2.2c-1.9,0.4-0.8,1.5-0.6,2.4c0.1,0.4,0.5,0.5,0.9,0.3c1.2-0.7,0.3-1.3,0-2
			c-0.1-0.2-0.1-0.4-0.2-0.7c1.5-0.1,2.7,0.6,4.1,1c3,0.7,6,1.5,9.6,1.2c-1.6-1.7-2.9-2.8-4.4-3.7c-2.8-1.6-5.7-2.8-8.6-4.1
			c-4.7-2-6.2-4.3-5.8-9.5c0.4-4.3,1.1-8.5,2.8-12.4c0.2,0.9-0.2,2.1,1.3,2.1c0.8,0,1.5-0.6,1.5-1.3c-0.2-2.4,1.6-3.8,2.7-5.4
			c-0.3-0.8-0.8-1.1-1.4-1.3c-2.6-1.1-3.4-0.6-3.1,2.4c0.1,1.4,0.2,2.6-0.9,3.5c0.1-1.1,0.6-2.5-1.5-2.1c-1,0.2-2.1,0.3-3.2,0.4
			c-1.2,5.2-1.2,10.6-1.6,15.9c-0.2,3.6-2.5,4.8-6,3.3c0.9-0.5,2-1,1.1-2.4c-0.4-0.5-0.8-1.3-1.7-0.8c-1,0.5-1.2,1.4-0.7,2.4
			c-5.1-2-12.3-2.2-15.2-0.3c1.1,0.9,2.5,1.3,3.7,1.9c2.7,1.2,5.6,1.8,8.1,3.3c-4.3,0.3-4.5,0.4-5.2,3.9c-0.6-0.1-1.3-0.2-1.9-0.3
			c0,0,0,0,0,0c-0.5-0.7-1.3-0.6-2.1-0.7l-0.1,0c-0.3-0.6-0.9-0.6-1.4-0.7l0,0c-0.3-0.6-0.9-0.6-1.5-0.6l-0.1,0
			c-0.8-0.7-1.7-1.3-2.8-1.4c0,0-0.1,0-0.1,0c-0.2-0.6-0.7-0.7-1.3-0.8c0,0,0,0,0,0c0-0.2,0-0.4-0.1-0.6c2.1-0.5,2.2-2.2,2.1-3.9
			c0-1.1,0.6-2.5-0.9-3.1c-1.4-0.6-2.7,0.1-3.9,0.9c-0.9,0.6-0.9,1.6-0.9,2.6c-0.2-0.1-0.4-0.1-0.6-0.2l0,0.1
			c-0.2-1.2-0.6-2.5,0.6-3.5l0.1,0c0.6,0,1.1-0.1,1.5-0.7l0.3,0l0.3-0.2c1,0,2.1,0.2,3.1-0.5l0.3,0.1l0.2-0.2c0.5,0,1-0.1,1.4-0.1
			c2,0.2,3.9,0.1,5.8-0.6c0.7,0.2,1.4,0.3,2.1-0.1c1.9,0,3.8,0,5.7-0.1c0.2,0,0.5,0,0.7,0c0.2,0.2,0.4,0.2,0.7,0.1
			c0.4,0.4,0.9,0.6,1.5,0.5c0.2,0,0.5,0,0.7,0.1c0.9,0,0.7-0.8,0.7-1.3l0,0c0.2-0.1,0.3-0.2,0.5-0.2c0.1,0.7,0.4,1.3,1.1,1.7
			c0.8,0.4,1.6,0.6,2.2-0.2c0.5-0.7,0.4-1.4-0.1-2c-0.6-0.7-1.3-1-2.2-0.3c-0.4,0.3-0.7,0.6-1.1,0.9c0.1-0.9,0.1-1.9,0.2-2.8
			c0.2-0.1,0.2-0.3,0.1-0.5c0.8-0.6,0.8-1.5,0.6-2.4c0.2-0.2,0.2-0.4,0.1-0.6c0.5-0.7,0.7-1.4,0.7-2.2l0,0c0.7-0.6,0.8-1.3,0.5-2.3
			c-1.6,0.2-3.4-0.5-4.9,0.7l0,0c-1.3-0.2-2.5-0.1-3.5,0.7l0,0c-1-0.1-2.1-0.2-2.9,0.6l0,0c-1.2,0.1-2.4,0.1-3.4,0.8c0,0,0,0,0,0
			C289.1,296.6,287.8,297.8,286.3,297.5z M418.2,155.8c0.5,0,0.9,0.1,1.4,0.1c0.9,0.1,1.8,0.2,2.5-0.6c0.6,0,1.1-0.1,1.7-0.1
			c0.6,0.1,1.1,0.1,1.3-0.6c0-0.2-0.1-0.5-0.2-0.6c-0.5-0.2-0.8,0-1.1,0.5c-2,0.2-4-0.3-5.9,0.7c-0.4,0-0.8,0.1-1.2,0.1
			c-0.4,0-0.7,0-1.1,0c-0.2,0-0.6,0.1-0.6,0.3c-0.1,0.5,0.4,0.4,0.6,0.4c0.3,0,0.7,0,1.1,0C417.3,155.9,417.7,155.9,418.2,155.8z
			 M396.8,120.6c-0.9,0-1.9-0.4-2.6,0.7c0.8,1.2,1.7,1.1,2.6,0.1c0.9-0.1,1.8-0.1,2.7-0.2c0.8,0.1,1.7,0.3,2.3-0.6
			c0.7-0.1,1.6,0.4,2.4-1.1c-2,0.8-3.8-0.5-5.3,0.9C398.2,120.5,397.5,120.5,396.8,120.6z M392.6,119.1c0,0.1,0.1,0.2,0.1,0.3
			c0,0,0.1,0,0.2,0.1C392.8,119.3,392.6,119.2,392.6,119.1c-0.1-0.2-0.2-0.4-0.4-0.6c-0.6-0.8-1.3-1-2-0.1c-0.2,0.2-0.3,0.8-0.1,0.9
			c0.6,0.7,1.2,0.4,1.9,0.1C392.1,119.3,392.3,119.2,392.6,119.1z M512.4,324.3c-0.4-0.6-0.9-0.8-1.3-0.3c-0.3,0.3,0.1,0.8,0.4,1.1
			c0.1,1.5,0.7,3.1-0.6,4.4c-1.5,1.6-3.3,2.5-5.9,1.8c1.3,3.4,1.1,6-2,8.5c10.7,2.3,20.6,5.1,29.9,10.3c0-0.7,0-1.2,0-1.6
			c0.2-4.5,1.3-8.7,4.6-12c1.3-1.2,2.6-2.5,4.1-3.4c2.4-1.5,3.4-3.5,2.8-6.3c-0.2-0.8-0.1-1.7-0.2-2.5c-0.4-5,0.7-9.5,4.4-13.1
			c1.3-1.3,2.2-3.1,2.4-5.1c0.3-2.7,0.8-5.4,1.5-7.9c-5.2-1.5-8.9-4.5-10.6-9.5c-0.7-1.9-1.2-3.9-1.7-5.8c-0.5-1.9-1-3.7-2-5.4
			c-0.6-0.9-1.4-1.9-2.5-1.7c-1.3,0.3-1.3,1.6-1.2,2.7c0.1,3-0.1,6,0.5,9c0.5,2.5,0.1,4.9-2.6,6.1c-1.7,0.8-2,1.9-1.7,3.7
			c0.4,2.2-0.5,3.8-2.3,5.2c-1.9,1.5-3.8,1.1-5.9,0.5c-0.3,1.9,0.1,3.3,0.3,4.7c0.7,5.2-0.9,7.3-6.3,7.8c0.1,0.9,0.2,1.8,0.3,2.8
			C517.3,321.8,516.3,323.4,512.4,324.3z M518.4,308.4c0.3-1.3,0-2.5-0.1-3.7c-0.5-5.2,1.7-7.4,6.7-7.1c0.5,0,0.9,0,1.3-0.4
			c0.3-1.6-0.3-3-0.5-4.6c-0.2-1.9,0.8-3,2.1-4c-1.5-1.7-3.1-2.5-5.1-2.9c-1.7-0.3-3.4-0.9-5.1-1.6c-4.9-2-8.8-5.3-12.1-9.1
			c-7.2-8.2-15.9-14.7-23.7-22.3c-9.1-9-20-15.8-31-22.1c-8.9-5.1-18.4-8.9-27.6-13.2c-4.1-1.9-8.5-2.9-13.1-3
			c-1.6,0-3.5-0.5-4.5,1.4c-1,1.9-0.4,3.7,0.9,5.3c1.5,1.9,3.3,3.4,5.3,4.7c6.3,4.1,13.1,7.2,20,10c4.2,1.7,8.2,3.7,12.1,6
			c1.7,1,3,2.2,2.7,4.5c-1.6,0.5-3.1,0.1-4.5-0.7c-4.9-2.7-10.1-4.8-15.3-6.7c-6.2-2.3-12.5-4.3-18.9-6.1c-1.6-0.4-3.4-0.8-4.7,0.6
			c-0.9,1-0.1,4.2,1.3,5.7c0.5,0.5,1.1,0.9,1.7,1.3c3.8,2.6,8.1,4.5,12.1,6.8c4,2.2,8.1,4.5,12.1,6.8c1.4,0.8,2.8,1.8,3.2,3.7
			c0.3,1.2,0,1.8-1.4,1.8c-1.5-0.1-2.7-0.6-4-1.4c-7.3-4.2-15.1-7.4-22.6-11.2c-1.6-0.8-2.1-0.1-2.5,1.2c-0.8,2.7-0.3,4.1,2.2,6.2
			c6.2,5.1,13.2,8.9,19.7,13.5c2.1,1.5,3.8,3.1,4.1,5.9c-2.4,0.9-4.4-0.1-6.4-1.3c-3.1-1.8-6-3.9-9.1-5.6c-2.4-1.4-4.4-3.6-7.4-4.3
			c-0.3,1.5-0.4,2.7,0.3,4c2.2,4.5,4.4,9,8.5,12.3c5.2,4.2,10.4,8.2,16.8,10.6c5,1.8,9.7,4.4,14.5,6.6c4.5,2.1,9.2,3.9,14.2,4.4
			c6.9,0.7,13.8,2.2,20.8,2.1c2.8,0,5.7,0.2,8.1,2.1c5,3.8,10.2,7.5,15.1,11.4c2.4,1.9,4.8,3.3,8.1,2.6c-0.3-1.6-0.6-3.2-0.9-4.9
			c-0.4-2.5,0.6-4.3,2.9-5.1C515.9,307.9,517,308.9,518.4,308.4z M548.9,329.1c1.5-3.2,2.5-6.1,4.6-8.4c4.3-4.6,4.9-10.4,4.8-16.4
			c0-1.3-0.6-2.4-1.8-3.7c-0.3,2.7-0.8,4.9-0.9,7.1c0,3.5-1.4,6.2-4,8.4C547.7,319.6,547,323.8,548.9,329.1z M404.7,117.6
			c1.4-1.3,2.6-0.4,4,0.5c0.6,0.4,1.4,0,2-0.3c0.6-0.3,1.6-0.2,1.4-1.2c-0.1-0.8-0.9-1.1-1.6-1.1c-2-0.2-4,0.1-6-0.6
			c-0.9-0.4-2.1-0.4-3,0.3c-0.2,0.2-0.3,0.8-0.2,1C402.1,117.2,403.3,117.3,404.7,117.6z M312.7,308.5c0,0.5,0,0.8,0,1.2
			c0,0.6,0,1.3,0.8,1.4c0.8,0,1.6-0.3,1.9-1.2c0.1-0.4,0-0.9-0.2-1.3c-0.4-0.9-0.3-2.6-1.6-2.5C312.1,306.1,313,307.7,312.7,308.5z
			 M324.4,145c4.1,0.5,2.9-3.1,4.6-4.8c-1.1-0.1-1.6-0.1-2.2-0.1c-0.5,0-0.9,0.1-1.4,0.2C326,142.9,326,142.9,324.4,145z
			 M375.7,124.6c-0.1-0.6-0.5-0.9-1-0.9c-1.2-0.1-2.3,1.2-2.1,2.3c0.1,0.7,0.5,1.1,1.2,1C375.2,126.7,375.5,125.6,375.7,124.6z
			 M358.8,123.7c0.9-0.4,1.5-1,1.5-2.1c0-0.7-0.6-1-1.2-1c-1.3,0-1.5,0.8-1.4,1.9C357.8,123.1,358.1,123.6,358.8,123.7z
			 M316.4,301.8c0.6-0.3,1.5-0.2,1.5-1.2c0-0.5-0.3-1-0.8-1c-0.7,0.1-1.4,0.4-1.5,1.2C315.6,301.3,315.9,301.7,316.4,301.8z
			 M288.1,316.3c0.5-0.1,0.9-0.2,1-0.8c0-0.5-0.1-0.9-0.7-1c-0.7-0.1-1.1,0.2-1.1,0.9C287.2,315.9,287.5,316.2,288.1,316.3z
			 M343.8,278.4c0-0.4-0.2-0.7-0.5-0.8c-0.7-0.2-1.1,0.2-1.2,0.8c-0.1,0.5,0.3,0.9,0.8,0.9C343.3,279.2,343.6,278.8,343.8,278.4z
			 M344.8,114.3c-0.2,0.1-0.4,0.2-0.4,0.3c0,0.2,0.1,0.5,0.2,0.5c0.4,0.1,0.6-0.1,0.6-0.5C345.2,114.6,344.9,114.5,344.8,114.3z
			 M289.5,294.4c-0.3-0.2-0.6-0.4-0.9-0.5c-0.2-0.1-0.5-0.1-0.5,0.2c-0.1,0.6,0.4,0.7,0.9,0.7C289.1,294.7,289.3,294.5,289.5,294.4z
			 M338,273.5c-0.1,0.2-0.2,0.4-0.1,0.6c0.1,0.1,0.3,0.3,0.5,0.3c0.3,0,0.4-0.3,0.2-0.5C338.4,273.7,338.2,273.6,338,273.5z
			 M503.4,326.9c0.2,0.1,0.4,0.3,0.6,0.3c0.2,0,0.4-0.2,0.6-0.3c-0.2-0.1-0.4-0.3-0.6-0.3C503.8,326.6,503.6,326.8,503.4,326.9z
			 M427.7,153.5c-0.2-0.1-0.4-0.2-0.5-0.2c-0.1,0.1-0.3,0.4-0.3,0.5c0,0.3,0.3,0.4,0.5,0.2C427.6,153.9,427.6,153.7,427.7,153.5z
			 M403.6,154.8c-0.3-0.4-0.6-0.4-1-0.3c-0.2,0.1-0.4,0.2-0.6,0.4c0.3,0.4,0.8,0.5,1.2,0.3C403.4,155.1,403.5,154.9,403.6,154.8z
			 M396.8,157.6c-0.1,0.1-0.2,0.1-0.2,0.2c0,0.1,0.1,0.1,0.1,0.2c0.1-0.1,0.2-0.2,0.3-0.3C396.9,157.7,396.9,157.6,396.8,157.6z
			 M548.9,289.4c-0.1,0.1-0.2,0.1-0.2,0.2c0,0.2,0.1,0.4,0.2,0.5c0.1-0.1,0.2-0.1,0.2-0.2C549.1,289.7,549,289.5,548.9,289.4z
			 M483.5,303.7c0,0.1,0,0.2,0.1,0.2c0.1,0,0.2,0.1,0.3,0.1c0.2-0.1,0.2-0.3-0.1-0.4C483.7,303.6,483.6,303.7,483.5,303.7z
			 M571.2,305.2c0,0.1,0,0.2,0.1,0.2c0.1,0.1,0.2,0.1,0.3,0.1c0.2-0.1,0.2-0.3-0.1-0.4C571.4,305.1,571.3,305.1,571.2,305.2z
			 M461.9,321.6c-0.2,0.1-0.4,0.2-0.6,0.3c0.1,0.1,0.2,0.2,0.2,0.2c0.2,0,0.4-0.2,0.6-0.2C462,321.8,461.9,321.7,461.9,321.6z
			 M557.1,322.4c-0.1,0.1-0.2,0.1-0.2,0.2c0,0,0.1,0.1,0.1,0.2c0.1-0.1,0.2-0.2,0.3-0.3C557.3,322.5,557.2,322.5,557.1,322.4z
			 M515.5,344.1l-0.1,0.2l0.2,0L515.5,344.1z"/>
		<path class="st0" d="M441.9,222.3c-3-0.7-6-1.5-8-4.3c1-0.4,0.7-1.1,0.4-1.8c-1.8-4.3-1.1-8.7-1-13.1c0-1.8,1.1-3.4,2.2-4.8
			c6.9-8,8.2-17.5,7.3-27.6c-0.6-7-1.1-14.1-1.8-21.1c-1-9.6-1.1-19.4-2.7-28.9c-0.3-1.6-0.7-3-1.5-4.3c0.6-0.5,1.1-1.1,1.9-0.8l0,0
			c0.1,0.4,0.3,0.7,0.7,0.8l0,0c0.1,0.6,0.3,1.1,0.8,1.4l0,0c0,0.6,0.1,1.2,0.7,1.6c-0.1,0.2-0.1,0.4,0.2,0.5
			c-0.1,0.6,0,1.3,0.6,1.7l-0.1,0.3l0.2,0.2c-0.2,1.3-0.2,2.6,0.7,3.7c-0.1,0.2-0.1,0.4,0.1,0.6c-0.1,1.1-0.2,2.2,0.6,3.1
			c0,0.4,0.1,0.8,0.1,1.3c0,1.3-0.2,2.6,0.6,3.8c-0.2,0.2-0.2,0.4,0,0.5c0,0.2,0,0.5,0,0.7c0,1.6-0.2,3.2,0.6,4.7
			c-0.3,0.6-0.2,1.2,0.1,1.8c-0.1,1.3-0.2,2.6,0.6,3.8c-0.2,0.7-0.1,1.3,0.1,2c0,1.6-0.3,3.2,0.6,4.7c-0.1,1.3-0.1,2.7,0.1,4
			c0.2,2.9-0.5,6,0.6,8.8c0,0.4,0,0.9,0.1,1.3c0,0.2,0,0.5,0,0.7c0.1,3-0.2,6.1,0.6,9.1c0,2.7,0,5.4,0,8c-0.8,1.9-0.7,4-0.6,6
			c-0.2,0.2-0.2,0.4-0.1,0.6c-0.7,0.9-0.7,2-0.7,3l-0.2,0.2c0,0,0.1,0.3,0.1,0.3c-0.6,0.4-0.7,1.1-0.6,1.7l-0.2,0.1l0.1,0.2
			c-1,0.8-1.4,1.9-1.5,3.1l0.1-0.1c-0.4,0.1-0.7,0.4-0.6,0.8l0,0c-0.9,0.5-1.5,1.3-2,2.2l-0.1,0.1c-0.6,0.3-1.2,0.6-1.5,1.2l0,0
			c-0.5,0-0.7,0.3-0.7,0.7l0,0c-0.6,0.3-0.8,0.8-0.7,1.5l0,0c-0.8,2.2-0.8,4.4,0,6.6l0,0c0,0.2,0,0.5,0.1,0.7
			c0.3,2.1-0.4,4.4,0.7,6.4l0.2,0.2l0.3,0c0.2,0.5,0.5,0.6,1,0.6l0.1,0.2l0.2,0c0.2,0.5,0.5,0.6,1,0.6l0.1,0
			C441.8,221.9,441.9,222.1,441.9,222.3z"/>
		<path class="st0" d="M377,148c1,0.1,1.3,0.8,1.4,1.7c-0.1,0.6-0.1,1.3-0.2,1.9l0,0c-0.7,0.5-0.7,1.3-0.8,2.1c0,0,0,0,0,0
			c-0.7,0.6-0.6,1.5-0.7,2.2l0,0c-0.8,0.5-0.7,1.4-0.8,2.2l0-0.1c-0.7,0.6-0.6,1.5-0.6,2.3l0,0c-0.7,0.6-0.7,1.4-0.8,2.2
			c0,0,0,0,0,0c-0.8,0.6-0.6,1.4-0.7,2.2l0,0c-0.6,0.3-0.6,0.9-0.6,1.5l0,0.1c-0.8,0.5-0.7,1.3-0.7,2.1l-0.2,0.1l0.1,0.2
			c-0.6,0.4-0.7,1.1-0.7,1.7l0,0c-0.6,0.3-0.7,0.9-0.6,1.5L371,172c0,0,0.1,0.2,0.1,0.2c-0.8,0.9-1.4,1.9-1.3,3.2
			c-0.2,0.1-0.2,0.3-0.1,0.5c-0.6,0.4-0.7,1-0.6,1.6l-0.2,0.1c0,0,0.1,0.2,0.1,0.2c-0.6,0.4-0.7,1.1-0.7,1.8l0,0
			c-0.8,0.5-0.7,1.4-0.8,2.2l0,0c-0.6,0.4-0.7,0.9-0.6,1.6l0,0c-0.4,0.4-0.7,0.9-0.6,1.5c0,0.2-0.1,0.5-0.1,0.7l0,0
			c-0.4,0.4-0.7,0.9-0.6,1.5c-0.2,0.1-0.3,0.3-0.1,0.5c-0.6,0.7-1.4,1.3-1.3,2.4c-0.3,0.1-0.3,0.3-0.2,0.6l0,0
			c-0.4,0.2-0.5,0.5-0.5,0.9l0,0c-0.5,0.3-0.8,0.8-0.8,1.3l0,0c-0.8,0.5-1.3,1.3-1.5,2.2c0,0,0,0,0,0c-0.4,0.1-0.6,0.4-0.6,0.8l0,0
			c-0.8,0.5-1.3,1.1-1.5,2c0,0,0,0,0,0c-0.4,0.1-0.6,0.4-0.6,0.8c0,0,0,0,0,0c-0.4,0.1-0.6,0.4-0.6,0.8l-0.1,0.1
			c-0.5,0.2-0.8,0.7-0.8,1.2l0,0c-0.4,0.1-0.7,0.2-0.8,0.7l0,0c-1.5,1.4-3.6,1.9-4.8,3.7l0,0c-0.8,0-1.5,0.1-2.1,0.8l0,0
			c-2.3,0.1-4.6,0.2-7-0.2l0,0c-0.1-0.4-0.4-0.6-0.8-0.6c0,0,0,0,0,0c-0.1-0.5-0.4-0.6-0.8-0.7c0.1-0.5,0.2-0.9,0.3-1.4
			c1.2-0.3,1.8-1.3,2.5-2.2c0.2-0.2,0.3-0.4,0.5-0.5c9.9-2.7,15.9-9.8,19.9-18.6C368.8,170.8,373,159.4,377,148z"/>
		<path class="st0" d="M364,117.6c0.2-1.8-0.5-2.6-2.3-2.6c-0.7,0-1.3,0.4-2,0.3c-0.7-0.1-1.4-0.4-1.7-1c-0.3-0.6,0.2-1.1,0.6-1.5
			c1-1.1,1.9-2.4,3.8-1.6c0.7,0.3,1.6,0,2.4,0c0.4,0,0.9,0,1.3,0c0.4,0.1,0.9,0.1,1.3,0.2c0.6,0.8,1.4,0.6,2.2,0.5
			c0.6,0.2,1.2,0.4,1.8,0.2c1,0.7,2,0.9,3.2,0.7l0.2,0.1c0,0,0.2-0.1,0.2-0.1c1.5,0.8,3,0.7,4.6,0.6c0.7,0.1,1.3,0.1,2,0.2
			c0.1,0.2,0.2,0.4,0.2,0.5c2.3,0.8,2.3,2.6,2,4.5c-4.7,0.5-9.4,0.6-14.1,0.4C367.9,118.8,365.8,118.6,364,117.6z"/>
		<path class="st0" d="M377.5,78.6c0.3-0.4,0.3-0.7,0.1-1.1c0.9-1.2,0.5-2.6,0.6-3.9c0.2-0.2,0.2-0.4,0.1-0.6
			c0.7-0.6,0.8-1.4,0.8-2.2c0,0-0.1,0.1-0.1,0.1c0.4-0.1,0.6-0.5,0.6-0.9c0,0,0,0,0,0c0.3,0,0.7-0.1,1-0.1c2.6,0,2.6,0,2.5,2.7
			c0,1.8,0,3.5,0,5.3c0,0.4-0.1,0.9-0.1,1.3c-0.8,2.7-0.8,5.4-0.6,8.1l-0.2,0.2l0.1,0.3c-0.8,1.7-0.6,3.5-0.8,5.3l0-0.1
			c-0.9,1-1.9,1.9-3.2,1.3c-1.3-0.5-1.1-1.9-1.1-3.1c0-0.7,0.1-1.4-0.4-2c0,0,0-0.2,0-0.2c1.2-2.9,0.4-5.9,0.6-8.9
			c0-0.2,0-0.5,0-0.7C377.5,79.1,377.5,78.8,377.5,78.6z"/>
		<path class="st0" d="M366.7,88.8c-0.1,0.2-0.1,0.4,0.1,0.6c-0.5,2.4,0.8,4.8-0.1,7.1c0,0,0.1-0.1,0.1-0.1
			c-1.1,0.7-2.3,0.3-3.4,0.2c0,0,0,0,0,0c-0.1-0.4-0.2-0.7-0.6-0.9c0,0,0.1,0.1,0.1,0.1c-0.2-1.7,0-3.5-0.8-5l0,0
			c0.1-1.3,0-2.6-0.7-3.7c0.1-0.2,0.1-0.4,0-0.6c0-2.9-0.2-5.8-0.8-8.7c0.2-0.5,0.3-1,0-1.5c0-1.2-0.2-2.4,0.1-3.6l0,0.1
			c0.4-0.1,0.6-0.4,0.6-0.8c0,0,0,0,0,0c0.4-0.2,0.9-0.4,1.3-0.5c0,0,0,0,0,0c0.3,0.2,0.5,0.4,0.8,0.6c0.2,1.9-0.3,4.1,2.1,5.1
			c0.4,0.8,0.1,1.7,0.7,2.4c0,0,0,0.2,0,0.2c-0.4,0.6-0.6,1.2,0,1.7l0,0C366.1,83.9,365.8,86.4,366.7,88.8z"/>
		<path class="st0" d="M401.8,82.9c-0.2,0.2-0.2,0.4-0.1,0.6c-0.6,0.4-0.7,0.9-0.7,1.6c0,0,0,0,0,0c-0.6,0.3-0.7,0.8-0.7,1.4
			c0,0,0,0,0,0c-0.6,0.3-0.7,0.8-0.8,1.4c0,0,0,0,0,0c-0.4,0.1-0.6,0.4-0.5,0.9l-0.2,0.2l0,0.3c-0.7,0.7-1.2,1.4-1.3,2.5
			c0,0,0,0,0,0c-0.5,0.3-0.8,0.8-0.8,1.3c0,0,0,0,0,0c-0.8,0.3-0.7,0.9-0.6,1.5c0,0,0,0,0,0c-0.6,0.6-0.8,1.3-0.7,2.2l-0.2,0.2
			l0.1,0.2c-0.4,0.2-0.7,0.5-0.7,1l0,0c-0.4,0.1-0.6,0.4-0.6,0.8c0,0,0,0,0,0c-0.4,0.1-0.6,0.3-0.7,0.7l0,0c-0.7,0-1.3,0-2,0
			c0,0,0,0,0,0c-0.7-0.7-1.9-0.8-2.1-2c0,0,0,0.1,0,0.1c0.5-0.7,0.7-1.4,0.7-2.2l0,0c0.5-0.3,0.8-0.8,0.8-1.4c0,0,0,0,0,0
			c0.6-0.3,0.7-0.8,0.8-1.4c0,0,0,0,0,0c0.5-0.3,0.7-0.9,0.8-1.5l0,0.1c0.4-0.1,0.6-0.4,0.6-0.9c0,0,0-0.1,0-0.1
			c0.5-0.3,0.7-0.8,0.8-1.4c0,0,0,0,0,0c0.4-0.1,0.6-0.3,0.5-0.8c0.2-0.1,0.3-0.3,0.2-0.5c0.4-0.2,0.5-0.5,0.6-0.9
			c0,0,0.1-0.1,0.1-0.1c0.6-0.2,0.7-0.8,0.8-1.3c0,0,0,0,0,0c0.6-0.2,0.7-0.8,0.8-1.4c0,0,0,0.1,0,0.1c0.4-0.1,0.6-0.4,0.6-0.8
			c0,0,0,0,0,0c0.4-0.1,0.6-0.3,0.6-0.7c0,0,0.1-0.1,0.1-0.1c0.4,0,0.6-0.2,0.7-0.6c0,0,0,0,0,0c0.7,0,1.4,0,2.1,0c0,0,0.1,0,0.1,0
			c0.4,0.3,0.9,0.6,1.3,0.8l0-0.1C401.6,82.5,401.7,82.7,401.8,82.9z"/>
		<path class="st0" d="M413.8,82.9c0.2-0.1,0.3-0.3,0.2-0.5c0.4-0.2,0.7-0.4,0.7-0.9c0,0,0,0,0,0c0.4-0.1,0.5-0.5,0.5-0.9
			c0,0,0.1-0.1,0.1-0.1c0.5-0.2,0.8-0.7,0.8-1.3l0,0c0.4-0.1,0.6-0.4,0.6-0.8c0,0,0-0.1,0-0.1c0.8-0.5,1.4-1.1,1.6-2l0,0
			c0.4-0.1,0.6-0.4,0.7-0.8l0,0c0.4-0.1,0.7-0.3,0.8-0.7c0,0-0.1,0-0.1,0c1-0.3,2-0.5,2.7,0.6c0,0,0,0,0,0c-0.1,0.2-0.1,0.5,0,0.7
			l0,0c-0.5,0.9-1,1.9-1.6,2.8c0,0,0,0,0,0c-0.8,0.5-1.2,1.3-1.4,2.2c0,0,0,0,0,0c-0.4,0.1-0.6,0.4-0.6,0.8c0,0,0,0.1,0,0.1
			c-0.5,0.3-0.8,0.7-0.8,1.3c0,0,0,0,0,0c-0.4,0.1-0.6,0.4-0.7,0.8c0,0,0,0,0,0c-0.7,0.2-0.8,0.8-0.8,1.4c0,0,0,0,0,0
			c-0.7,0.6-1.3,1.3-1.4,2.2l0,0c-0.4,0.1-0.6,0.4-0.5,0.9c0,0,0,0.1,0,0.1c-0.6,0.3-0.7,0.8-0.8,1.3c0,0,0,0,0,0
			c-1,0.4-1.3,1.2-1.5,2.1c0,0,0,0,0,0c-0.4,0.1-0.6,0.4-0.6,0.9c0,0,0,0,0,0c-0.7,0.5-1.3,1.1-1.6,2c0,0,0-0.1,0-0.1
			c-1,0.5-1.8,0-2.6-0.6l0,0c0.2-0.5,0.4-0.9,0.7-1.4c0,0,0,0,0,0c0.7-0.2,0.8-0.8,0.8-1.4c0,0,0,0.1,0,0.1c0.4-0.1,0.5-0.5,0.5-0.9
			c0,0,0-0.1,0-0.1c0.3-0.1,0.5-0.3,0.5-0.6c0.3-0.1,0.4-0.3,0.3-0.5c1-0.5,1.2-1.4,1.3-2.4l0,0c0.5-0.3,0.7-0.8,0.7-1.4
			c0,0,0-0.1,0-0.1c0.5-0.3,0.8-0.7,0.7-1.4c0.2-0.1,0.3-0.3,0.2-0.5C413.7,83.7,413.9,83.4,413.8,82.9z"/>
		<path class="st0" d="M406.1,186.3c-2.8-2.8-3.1-6.6-4.1-10.1c-0.1-0.3-0.1-0.8,0.1-1.1c0.3-0.6,0.4-1.5,1.2-1.6
			c0.9-0.1,1.1,0.7,1.4,1.4c0.8,2.2,1.6,4.5,2.5,6.7c0.5,1.1,1.2,2,1.8,3c-0.1,0.4-0.1,0.7-0.2,1.1c-0.2-0.1-0.3-0.1-0.5-0.1
			C407.6,185.9,406.9,186.1,406.1,186.3z"/>
		<path class="st0" d="M323.5,213.7c-1.9,0.3-3.8,0.4-5.8,0.1c-0.9,0.4-1.6,1.2-2.1,2c-5.5,0-10.9,0-16.4,0c0.1-0.5,0.2-0.8,0.8-0.9
			c2.5-0.4,5.1,0.6,7.5-0.7c0.5-0.3,0.9,0.2,1.2,0.5c0.9,0.8,2,0.4,3.1,0.5c0.7,0,1.5-0.1,1.5-1.1c0-0.8-0.5-1.3-1.2-1.6
			c-1-0.4-2.2,0.2-2.9-0.9c1.9,0,3.8,0,5.7,0c0.2,0,0.5,0.1,0.7,0.1c1.1,0.7,2.3,0.8,3.6,0.6c0.2,0,0.5,0.1,0.7,0.1
			c0.8,0.9,1.9,0.6,2.9,0.6l0.2,0.2c0,0,0.2-0.1,0.2-0.1C323.2,213.4,323.3,213.5,323.5,213.7z"/>
		<path class="st0" d="M410.1,173.3c0.5-0.1,1.2,0.1,1.5,0.6c1.2,1.7,2.4,3.5,3.5,5.3c0.4,0.6-0.1,0.9-0.4,1.2
			c-0.5,0.4-1,0.8-1.6,0.4c-1.9-1.4-3.8-2.9-4.7-5.2C407.9,174.4,408.7,173.4,410.1,173.3z"/>
		<path class="st0" d="M437.5,307.5l0.1-0.3l-0.2-0.2c0-0.8,0.1-1.6-0.6-2.2l0,0c-0.1-0.8,0.1-1.7-0.7-2.2l0,0
			c-0.1-0.6-0.2-1.2-0.7-1.7c0.1-0.2,0-0.4-0.2-0.5c0-0.6,0-1.1-0.6-1.5l0,0c0-0.6-0.2-1.2-0.7-1.5c0.1-0.2,0.1-0.5-0.1-0.6
			c0.1-0.2,0.1-0.5,0.2-0.7c0.4,0,0.8-0.1,1.2-0.1l0.2,0.2c0,0.4,0.2,0.6,0.6,0.7c0,0.4,0.1,0.7,0.6,0.7c1.1,3.4,3.2,6.5,3.7,10.1
			c-0.7-0.5-1.4-0.4-2.1,0C437.9,307.7,437.7,307.6,437.5,307.5z"/>
		<path class="st0" d="M428.8,82.4c0,0.3,0,0.6,0,0.9c-0.4,0.2-0.5,0.6-0.5,1c-0.2,0.1-0.3,0.3-0.2,0.5c-0.4,0.2-0.6,0.5-0.6,1
			c0,0,0,0,0,0c-2.1,1.3-2.5,1.2-2.9-0.7c0,0,0,0,0,0c0.5-0.3,0.7-0.8,0.8-1.4l0,0c0.4-0.1,0.6-0.4,0.6-0.8c0,0,0,0,0,0
			c0.2-0.2,0.5-0.4,0.7-0.7c0,0,0.1,0,0.1,0C427.4,82.3,428.1,82.4,428.8,82.4z"/>
		<path class="st0" d="M408.9,185.7c0.1-0.4,0.1-0.7,0.2-1.1c0.7,0.8,2.7,0.4,2,2.3c-0.6,1.5-2,0.9-3.1,0.9c-0.9,0-1.5-0.6-1.8-1.5
			c0.7-0.2,1.5-0.4,2.2-0.6C408.5,186.2,408.7,186,408.9,185.7z"/>
		<path class="st0" d="M328.5,202.3c-0.3-0.8-0.9-0.6-1.5-0.6c-0.1-0.2-0.3-0.2-0.5-0.2c-0.1-0.2-0.1-0.4-0.2-0.7c0.7,0,1.4,0,2,0.2
			C329.5,201.2,329,201.7,328.5,202.3z"/>
		<path class="st0" d="M394.5,161.8c-0.7-0.5-0.6-1.2-0.6-1.9c0.1-1.5,0.8-1,1.5-0.4C394.3,159.9,394.9,161.1,394.5,161.8z"/>
		<path class="st0" d="M433.9,218.1c-0.7,0-1.2-0.1-1.4-0.9C433.1,217.3,433.6,217.5,433.9,218.1z"/>
		<path class="st0" d="M131.7,304.9c0.4,1.7,0.7,3.5-1.8,4.4c-0.1-1.8,0.5-3.1,1.1-4.5C131.2,304.9,131.4,304.9,131.7,304.9z"/>
		<path class="st0" d="M141,354.1c-1.1,1-2.5,1.7-3.1,3.2c-0.8-0.8-1.2-1.5-0.2-2.2c1.2-0.7,2.5-1.3,3.4-2.5
			C141,353.1,141,353.6,141,354.1z"/>
		<path class="st0" d="M157.5,281c0.9,1,0.7,2.1,0.2,3.4c-1.6-0.4-0.8-1.7-1-2.6C157.2,281.8,157.4,281.4,157.5,281z"/>
		<path class="st0" d="M247.2,302c-0.1,0.2-0.2,0.3-0.2,0.5c0,0-0.3,0-0.3,0l-0.2,0.2c-1.2-0.3-2.4,0.5-3.6-0.1
			c0.1-0.8,0.4-1.4,1.3-1.1C245.2,302,246.2,301.8,247.2,302z"/>
		<path class="st0" d="M201.9,307.5c-0.3,0.4-0.7,0.7-1.1,0.4c-0.5-0.3-1.1-0.7-0.7-1.4c0.2-0.4,0.9-0.3,1.3-0.1
			C201.9,306.6,202.2,306.9,201.9,307.5z"/>
		<path class="st0" d="M157.5,281c-0.1,0.4-0.3,0.8-0.8,0.8c0-1.5-0.4-3,0.3-4.5C157.7,278.4,157.1,279.8,157.5,281z"/>
		<path class="st0" d="M138,252.7c-0.2-0.2-0.4-0.4-0.6-0.6c0.7-1.1,2-0.8,2.9-1.3c0,0.2,0,0.4,0,0.6
			C139.6,252,138.9,252.6,138,252.7z"/>
		<path class="st0" d="M141,354.1c0-0.5,0-1,0-1.5c0.2-0.1,0.5-0.1,0.7,0c0.2,0.4,0.4,0.5,0.7,0.1c0.3,0,0.5-0.1,0.8-0.1
			c0,0.2,0,0.5,0,0.7C142.6,354.2,141.7,354,141,354.1z"/>
		<path class="st0" d="M195.1,257.2c0.2,0.9,0,1.6-0.6,2.3C194.1,258.5,193.2,257.4,195.1,257.2z"/>
		<path class="st0" d="M182.8,340.5c-0.4-0.1-0.4-0.5-0.4-0.8c0-0.4,0.1-0.7,0.6-0.6c0.4,0.1,0.5,0.4,0.5,0.7
			C183.4,340.2,183.2,340.5,182.8,340.5z"/>
		<path class="st0" d="M163.1,251.4c-0.2,0.6-0.8,1.2-1.2,0.8c-0.6-0.5-0.4-1.2,0.4-1.6C162.4,251.1,162.7,251.3,163.1,251.4z"/>
		<path class="st0" d="M129.6,262.3c0.2,0,0.5,0,0.7,0.1c0.1,0.6,0.3,1.2-0.3,1.6c-0.1,0.1-0.5,0-0.6-0.2
			C128.6,263.2,129.5,262.8,129.6,262.3z"/>
		<path class="st0" d="M289.4,213.6c-0.2,0.3-0.4,0.5-0.8,0.4c-0.3-0.1-0.6-0.4-0.4-0.7c0.1-0.1,0.4-0.2,0.6-0.2
			C289.1,213.1,289.5,213.2,289.4,213.6z"/>
		<path class="st0" d="M132.1,286.1c-0.1,0.1-0.2,0.4-0.4,0.4c-0.4,0-0.6-0.2-0.5-0.6c0-0.1,0.4-0.3,0.5-0.2
			C131.9,285.7,132,285.9,132.1,286.1z"/>
		<path class="st0" d="M196.1,314.4c0.2,0.2,0.6,0.4,0.7,0.6c0.2,0.5-0.2,0.6-0.5,0.4c-0.3-0.1-0.5-0.5-0.7-0.7
			C195.7,314.7,195.9,314.6,196.1,314.4z"/>
		<path class="st0" d="M131.7,304.9c-0.2,0-0.5,0-0.7,0c0-0.3,0-0.7,0.2-1c0.1-0.3,0.5-0.7,0.6-0.7c0.6,0.2,0.3,0.7,0.2,1.1
			C131.8,304.5,131.7,304.7,131.7,304.9z"/>
		<path class="st0" d="M156.6,263.3c-0.1,0.2-0.2,0.4-0.3,0.6c-0.1-0.2-0.3-0.4-0.3-0.6c0-0.2,0.2-0.4,0.3-0.6
			C156.4,263,156.5,263.2,156.6,263.3z"/>
		<path class="st0" d="M137,363.1c-0.2,0.1-0.4,0.3-0.6,0.3c-0.2,0-0.4-0.2-0.6-0.3c0.2-0.1,0.4-0.3,0.6-0.3
			C136.6,362.8,136.8,363,137,363.1z"/>
		<path class="st0" d="M143.8,352c0.4,0.2,0.7,0.4,1.1,0.7c-0.4,0.6-1.1,0.7-1.8,0.6c0-0.2,0-0.5,0-0.7
			C143.3,352.3,143.4,352,143.8,352z"/>
		<path class="st0" d="M269.5,213.6c0.1,0,0.2,0,0.2,0c0.1,0.1,0.1,0.2,0.1,0.3c-0.1,0.3-0.3,0.3-0.4,0
			C269.4,213.8,269.5,213.7,269.5,213.6z"/>
		<path class="st0" d="M191,247.8c-0.3,0-0.6,0-0.8,0c0.2-0.2,0.5-0.5,0.7-0.7c0.2-0.2,0.5-0.1,0.6,0.1
			C191.6,247.6,191.3,247.8,191,247.8z"/>
		<path class="st0" d="M140.3,251.4c0-0.2,0-0.4,0-0.6c0.5,0,1-0.1,1.5-0.1c-0.1,0.3-0.2,0.5-0.3,0.8
			C141.1,251.4,140.7,251.4,140.3,251.4z"/>
		<path class="st0" d="M128.4,266c0.1,0.1,0.2,0.2,0.2,0.2c-0.2,0.1-0.4,0.2-0.6,0.2c-0.1,0-0.2-0.1-0.2-0.2
			C128,266.1,128.2,266.1,128.4,266z"/>
		<path class="st0" d="M193.4,292.1c0.1,0,0.2-0.1,0.3-0.1c0.3,0.1,0.4,0.3,0.1,0.4c-0.1,0-0.2,0-0.3-0.1
			C193.4,292.4,193.4,292.2,193.4,292.1z"/>
		<path class="st0" d="M127.9,296.5c0.1,0,0.2-0.1,0.3-0.1c0.3,0.1,0.3,0.2,0.1,0.4c-0.1,0-0.2,0-0.3-0.1
			C127.9,296.7,127.9,296.6,127.9,296.5z"/>
		<path class="st0" d="M196.2,307.3c0-0.1-0.1-0.2-0.1-0.2c0-0.3,0.2-0.3,0.3-0.2c0.1,0.1,0.1,0.2,0,0.3
			C196.4,307.3,196.2,307.3,196.2,307.3z"/>
		<path class="st0" d="M184.7,342.9c-0.1,0-0.2,0.1-0.3,0.1c-0.3-0.1-0.3-0.2-0.1-0.4c0.1,0,0.2,0,0.3,0.1
			C184.7,342.7,184.6,342.9,184.7,342.9z"/>
		<path class="st0" d="M135.3,358.9c-0.1,0-0.2,0-0.3-0.1c-0.1-0.2,0-0.3,0.3-0.3c0.1,0,0.1,0.1,0.2,0.2
			C135.5,358.8,135.4,358.9,135.3,358.9z"/>
		<path class="st0" d="M136.9,364.6c-0.1,0.1-0.2,0.2-0.2,0.2c-0.3,0-0.4-0.2-0.2-0.3c0.1-0.1,0.2-0.1,0.3,0
			C136.8,364.4,136.9,364.5,136.9,364.6z"/>
		<path class="st0" d="M156.5,272.7c-0.1,0.1-0.2,0.1-0.2,0.2c-0.1-0.1-0.2-0.2-0.2-0.2c0-0.1,0.1-0.1,0.2-0.2
			C156.4,272.6,156.5,272.7,156.5,272.7z"/>
		<polygon class="st0" points="197.5,318.3 197.7,318.2 197.7,318.4 		"/>
		<polygon class="st0" points="189.9,243.1 189.7,243.2 189.8,243 		"/>
		<polygon class="st0" points="191.3,259.6 191.3,259.8 191.1,259.8 		"/>
		<polygon class="st0" points="129.9,266.3 129.9,266.2 130,266.2 		"/>
		<path class="st0" d="M336.3,248.5c-0.4-0.2-1-0.3-1.2-0.6c-5-6.1-12.4-8.1-19.3-10.7c-2.4-0.9-4.9-1.7-7.4-2.5
			c-0.6-0.2-1.1-0.5-1.1-1.2c0-0.8,0.7-0.9,1.2-1.1c0.3-0.2,0.7-0.3,1-0.3c8.8-0.8,17.6-1.2,26,2.7c4.2,2,7,4.9,6.7,9.9
			c-0.2,1.4-0.8,2.5-2.4,2.4C338.2,246.9,337.3,247.9,336.3,248.5z M320.6,234.8c-0.6,0-1.1-0.1-1.6,0.3c0.4,0.5,1,0.4,1.6,0.4
			c0.5,0,1,0,1.4-0.1c0.7,1.3,1.9,0.6,2.9,0.8c0.7,1.3,1.8,0.7,2.8,0.7c0,0.4,0.2,0.6,0.6,0.6c0.1,0,0.2-0.2,0.3-0.4
			c-0.3-0.1-0.6-0.1-0.9-0.2c-0.7-1-1.8-0.9-2.8-0.7c-0.6-1.3-2-0.6-2.8-1.2C321.5,234.9,321,234.8,320.6,234.8z"/>
		<path class="st0" d="M326.2,260.1c-6.5-0.2-12.9-1.5-19.3-2.3c-1-0.1-1.5-0.7-1.7-1.5c-0.2-1,0.5-1.5,1.3-2
			c0.4-0.2,0.9-0.4,1.3-0.4c4.2-0.2,8.5-0.7,12.7-0.4c1.2,0.2,2.4-0.1,3.1,1.6c0.7,1.7,5,2.8,6.7,1.7c2.5-1.7,4.3-0.2,6.4,0.5
			c1,0.3,0.8,1.1,0.2,1.6c-0.7,0.6-1.6,0.8-2.6,0.7C331.5,259.1,328.8,259.1,326.2,260.1z"/>
		<path class="st0" d="M421.7,111.8c0.5-0.2,1-0.3,1.4,0c0,1.5,1.4,1.8,2.2,2.6c1,1,1.4,2.1,1.3,3.6c-0.1,1.6-0.7,2.5-2.3,2.5
			c-0.9,0-2.2-0.3-2.4,0.9c-0.4,2.3-2,2-3.5,2c-1.4,0-2.8-0.1-4.2,0.5c-1,0.4-2.1,0.3-3.1-0.1c-1.8-0.6-3.5-0.7-5,0.6
			c-0.1,0.1-0.2,0.2-0.3,0.2c-2.9-0.5-5.4,0.1-7.6,2.3c-0.7,0.7-2-0.3-2.8-1c-0.6-0.5-0.2-1.1,0.2-1.5c0.7-0.8,1.7-0.7,2.6-0.9
			c2.6-0.4,5.2,0.1,7.4-2.3c1-1,3.4-1.4,5.3-0.6c2.9,1.1,5.7,0.4,8.2-1.3c1-0.7,2.1-1.2,3.1-1.8c0.7-0.4,1.6-0.6,1.5-1.8
			c-0.1-1-0.9-1.3-1.6-1.7c-0.6-0.4-1.5,0.2-2-0.6C420.1,112.1,421.6,112.8,421.7,111.8z"/>
		<path class="st0" d="M297.9,316.3c4,1.3,8.2,1.7,12,3.6c0.1,1.9-2.3,2.6-2.3,4.5c-2.7,0.1-5-1.7-7.7-1.6c-0.8-0.7-1.8-0.7-2.8-0.8
			c-0.6-0.6-1.3-0.7-2.1-0.7c0,0-0.1,0-0.1,0c-0.6-0.7-1.3-0.7-2.1-0.7c0,0-0.1,0-0.1,0c0-0.2-0.1-0.3-0.1-0.5
			C293.4,316.8,293.6,316.6,297.9,316.3z"/>
		<path class="st0" d="M277.8,311.4c0-1,0-2,0.9-2.6c1.2-0.8,2.5-1.5,3.9-0.9c1.5,0.6,0.8,2,0.9,3.1c0.1,1.7,0,3.4-2.1,3.9
			c-1,0-1.3-1.2-2.1-1.4c0,0-0.1-0.1-0.1-0.1c0-0.4-0.2-0.6-0.6-0.7c0,0,0-0.1,0-0.1c0-0.4-0.2-0.6-0.7-0.7c0,0,0,0,0,0
			C277.7,311.9,277.7,311.7,277.8,311.4z"/>
		<path class="st0" d="M326.8,274.6c-0.6-1.3-2-0.4-2.8-1.1c-0.3-0.8,0.2-1.6,0.8-1.6c3.4-0.3,6.8-1.7,10.5,0.7
			C332.3,273.5,329.8,274.7,326.8,274.6C326.8,274.6,326.8,274.6,326.8,274.6z"/>
		<path class="st0" d="M314.8,294.7c1.1-1,1.1-2.2,0.9-3.5c-0.3-3,0.5-3.5,3.1-2.4c0.5,0.2,1.1,0.5,1.4,1.3c-1.1,1.6-2.9,3-2.7,5.4
			c0.1,0.7-0.7,1.3-1.5,1.3C314.6,296.8,314.9,295.6,314.8,294.7L314.8,294.7z"/>
		<path class="st0" d="M404.7,117.6c-1.4-0.4-2.6-0.4-3.4-1.5c-0.1-0.2,0-0.8,0.2-1c0.9-0.7,2.1-0.7,3-0.3c2,0.7,4,0.4,6,0.6
			c0.7,0.1,1.5,0.3,1.6,1.1c0.2,1-0.8,0.9-1.4,1.2c-0.6,0.3-1.4,0.7-2,0.3C407.3,117.2,406.1,116.3,404.7,117.6z"/>
		<path class="st0" d="M344.8,254.3c-0.6-0.3-1.2-0.6-1.5-1.3c0.4-1.6-0.2-3-1.3-4.6c2.4-0.4,3.6,0.8,4.3,2.2
			C346.9,252,345.7,253.2,344.8,254.3z"/>
		<path class="st0" d="M320.5,151.4c-0.1-0.2-0.1-0.4,0.1-0.5c0.7-0.3,1.5-1,2.1,0.1c0.6,1.1,1.4,2.3,0.8,3.6
			c-0.4,0.9-2.1,0.7-2.6-0.4C320.6,153.3,320.6,152.3,320.5,151.4z"/>
		<path class="st0" d="M312.7,308.5c0.2-0.8-0.6-2.4,0.9-2.5c1.3-0.1,1.2,1.5,1.6,2.5c0.2,0.4,0.3,0.9,0.2,1.3
			c-0.2,0.9-1,1.3-1.9,1.2c-0.7,0-0.7-0.8-0.8-1.4C312.7,309.3,312.7,309,312.7,308.5z"/>
		<path class="st0" d="M324.4,145c1.6-2,1.6-2,1-4.8c0.5-0.1,0.9-0.2,1.4-0.2c0.6,0,1.1,0.1,2.2,0.1
			C327.2,141.9,328.5,145.4,324.4,145z"/>
		<path class="st0" d="M321.9,285.3c1.1,0,2.1,0.1,3.2,0.2c0.5,0,0.9,0.3,1,0.9c0.1,0.5,0,1-0.4,1.3c-0.9,0.9-1.9,0.7-3,0.3
			C321.3,287.4,321.4,286.4,321.9,285.3C321.9,285.3,321.9,285.3,321.9,285.3z"/>
		<path class="st0" d="M348.4,114c0.6,1.4,0.9,2.9,2.6,3.6c1.2,0.5,1.1,1.9,1.5,2.9c-0.9,0.3-1.5,0-1.7-0.5c-0.4-1.2-1.1-2-2.1-2.7
			C347.4,116.5,347.2,115.2,348.4,114C348.3,114,348.4,114,348.4,114z"/>
		<path class="st0" d="M303.3,304.8c0.4-0.3,0.7-0.6,1.1-0.9c0.8-0.7,1.6-0.4,2.2,0.3c0.5,0.6,0.5,1.3,0.1,2
			c-0.6,0.9-1.4,0.7-2.2,0.2C303.7,306.1,303.5,305.5,303.3,304.8L303.3,304.8z"/>
		<path class="st0" d="M375.7,124.6c-0.3,1-0.6,2.1-1.9,2.3c-0.7,0.1-1.1-0.3-1.2-1c-0.2-1.1,0.9-2.4,2.1-2.3
			C375.3,123.7,375.6,124,375.7,124.6z"/>
		<path class="st0" d="M341.1,114.8c-0.6-0.3-1.1-0.8-1.3-1.6c0.1-1,0.7-1.5,1.7-1.2c0.7,0.3,1.8,0.5,1.6,1.6
			C342.8,114.6,341.9,114.7,341.1,114.8z"/>
		<path class="st0" d="M302.5,312.2c-0.5-0.1-1-0.3-1.2-0.8c-0.5-1-0.3-1.8,0.7-2.4c0.9-0.5,1.3,0.3,1.7,0.8
			C304.5,311.2,303.4,311.7,302.5,312.2z"/>
		<path class="st0" d="M358.8,123.7c-0.8-0.1-1-0.6-1.1-1.2c-0.1-1.1,0.1-1.9,1.4-1.9c0.7,0,1.2,0.3,1.2,1
			C360.4,122.6,359.7,123.3,358.8,123.7z"/>
		<path class="st0" d="M349.8,240.5c-0.2-0.2-0.2-0.4-0.1-0.6c0.2-1.1,0.7-1.9,1.9-1.3c0.8,0.4,1.3,1.2,0.7,2.1
			C351.5,242,350.6,241.5,349.8,240.5z"/>
		<path class="st0" d="M341.8,265.9c-0.1-1-1.8-1.9-0.2-3c0.4-0.3,0.7-0.6,1.2-0.4c0.5,0.3,0.5,0.7,0.5,1.2
			C343.3,264.9,342.7,265.5,341.8,265.9C341.8,266,341.8,265.9,341.8,265.9z"/>
		<path class="st0" d="M332,328.7c-0.9,0.2-1.9,0.2-2.8,0c0.8-0.9,0.4-2.3,1.6-3C331.8,326.4,332,327.5,332,328.7z"/>
		<path class="st0" d="M536.4,350.4c0.3,0.7,0.2,1.4,0.1,2.2c-1.3-1.1-2.7-2.2-2-4.4C535.6,348.5,535.5,349.9,536.4,350.4z"/>
		<path class="st0" d="M330.6,215.2c0.2,0.2,0.5,0.6,0.7,0.7c0.6,0.2,1.1,0.4,0.7,1.2c-0.3,0.6-0.6,1-1.3,0.9
			c-0.7-0.1-0.9-0.7-0.9-1.3C329.8,216.1,330.1,215.6,330.6,215.2C330.5,215.2,330.6,215.2,330.6,215.2z"/>
		<path class="st0" d="M326.9,290.3c-0.9,0-1.8,0.1-2.7,0.1c1.5-1.2,3-2.5,5.1-1.3C328.7,290,327.5,289.4,326.9,290.3z"/>
		<path class="st0" d="M316.4,301.8c-0.6-0.1-0.8-0.4-0.8-1c0.1-0.9,0.8-1.2,1.5-1.2c0.5,0,0.8,0.5,0.8,1
			C317.9,301.5,317,301.5,316.4,301.8z"/>
		<path class="st0" d="M317.1,322.1c0.1,0.2,0.1,0.5,0.2,0.7c0.4,0.7,1.3,1.3,0,2c-0.3,0.2-0.8,0.1-0.9-0.3
			C316.3,323.7,315.2,322.5,317.1,322.1C317.1,322.1,317.1,322.1,317.1,322.1z"/>
		<path class="st0" d="M288.1,316.3c-0.5-0.1-0.9-0.4-0.9-0.9c0-0.7,0.4-1.1,1.1-0.9c0.6,0.1,0.7,0.5,0.7,1
			C289,316.1,288.6,316.3,288.1,316.3z"/>
		<path class="st0" d="M336.2,218.1c1.9,1.7,1.9,1.7,0.3,3.1C336,220.2,336.3,219.1,336.2,218.1L336.2,218.1z"/>
		<path class="st0" d="M536.6,353.9c0.7,1.5,1.7,2.3,3.4,1.5c0.1,1-1.1,0.9-1.3,1.5c-0.4,0-0.9-0.1-1.3-0.1
			c-0.3-0.4-0.6-0.8-0.9-1.2C536.5,355.1,536.5,354.5,536.6,353.9z"/>
		<path class="st0" d="M392.6,119.1c-0.2,0.1-0.4,0.2-0.6,0.3c-0.6,0.3-1.3,0.6-1.9-0.1c-0.1-0.2,0-0.7,0.1-0.9
			c0.7-0.9,1.4-0.6,2,0.1C392.3,118.7,392.4,118.9,392.6,119.1L392.6,119.1z"/>
		<path class="st0" d="M343.8,278.4c-0.2,0.5-0.5,0.9-0.9,0.9c-0.5,0.1-0.9-0.3-0.8-0.9c0.1-0.7,0.5-1,1.2-0.8
			C343.6,277.7,343.8,278,343.8,278.4z"/>
		<path class="st0" d="M398.9,120.4c1.6-1.4,3.4-0.1,5.3-0.9c-0.8,1.5-1.7,1-2.4,1.1c-0.7,0-1.5,0-2.2,0.1
			C399.3,120.5,399.1,120.5,398.9,120.4z"/>
		<path class="st0" d="M448.9,332.5c-0.5,0.8-1.3,0.7-2.1,0.7c-0.1-0.7-0.3-1.5,0.3-1.9C448.1,330.9,448.2,332.2,448.9,332.5z"/>
		<path class="st0" d="M431.9,293.9c0-0.2-0.1-0.4-0.1-0.6c2.7,0,2.7,0,2.1,2.2c-0.2-0.1-0.4-0.3-0.6-0.4l0-0.2l-0.2-0.1
			C433,294,432.4,294,431.9,293.9z"/>
		<path class="st0" d="M459.7,306.3c-0.3,0.1-0.6,0.2-0.9,0.3c-0.8,0.2-0.5,0.8-0.4,1.4c-0.1,0.2-0.1,0.4-0.3,0.5
			c-0.7-0.7-1.1-1.7-0.5-2.5C458.1,305.2,459.1,305.7,459.7,306.3z"/>
		<path class="st0" d="M446.7,333.8c-0.8,0-1.6,0-2.2,0.7c-0.5,0-0.9,0-1.4,0c0.8-1.7,2.2-1.5,3.7-1.3
			C446.8,333.4,446.8,333.6,446.7,333.8z"/>
		<path class="st0" d="M317,215.9c-0.5,0-0.9-0.1-1.4-0.1c0.5-0.9,1.2-1.6,2.1-2c0,0.2,0,0.5,0,0.7C317.5,215,317.2,215.5,317,215.9
			z"/>
		<path class="st0" d="M331.3,201.7c0.1,0.2,0.1,0.4-0.1,0.6c-0.1,0-0.2,0-0.3,0c-0.6-0.1-1-0.4-1-1.1c0-0.2,0.2-0.5,0.3-0.5
			C330.9,200.6,331.1,201.2,331.3,201.7z"/>
		<path class="st0" d="M319.8,327.3c-0.2,0-0.5-0.1-0.7-0.1c0.1-0.6,0.2-1.2,0.9-1.1c0.3,0,0.7,0.4,0.7,0.6
			C320.8,327.3,320.2,327.2,319.8,327.3z"/>
		<path class="st0" d="M344.8,114.3c0.1,0.1,0.4,0.3,0.4,0.4c0,0.4-0.2,0.6-0.6,0.5c-0.1,0-0.3-0.4-0.2-0.5
			C344.4,114.5,344.6,114.4,344.8,114.3z"/>
		<path class="st0" d="M423.8,155.2c0-0.2,0-0.5,0.1-0.7c0.2-0.5,0.6-0.6,1.1-0.5c0.1,0,0.2,0.4,0.2,0.6
			C424.9,155.2,424.4,155.3,423.8,155.2z"/>
		<path class="st0" d="M396.8,121.4c-0.9,0.9-1.8,1.1-2.6-0.1c0.9,0,1.7-0.1,2.6-0.1L396.8,121.4z"/>
		<path class="st0" d="M396.8,120.6c0,0.2,0,0.4,0.1,0.5c-0.9,0-1.7,0.1-2.6,0.1C394.9,120.2,395.9,120.6,396.8,120.6z"/>
		<path class="st0" d="M289.5,294.4c-0.2,0.1-0.4,0.3-0.6,0.3c-0.4,0-0.9-0.1-0.9-0.7c0-0.3,0.3-0.3,0.5-0.2
			C288.9,294,289.2,294.2,289.5,294.4z"/>
		<path class="st0" d="M338,273.5c0.2,0.1,0.4,0.2,0.5,0.3c0.2,0.2,0.1,0.5-0.2,0.5c-0.2,0-0.4-0.1-0.5-0.3
			C337.8,273.9,338,273.7,338,273.5z"/>
		<path class="st0" d="M451.1,331.7c-0.5,0.8-1.3,0.9-2.2,0.8C449.4,331.4,450.3,331.7,451.1,331.7z"/>
		<path class="st0" d="M334.8,262.2c0.2-0.4,0.4-0.8,0.9-0.9c0.1,0,0.3,0.3,0.3,0.4C335.8,262.2,335.3,262.2,334.8,262.2
			C334.9,262.2,334.8,262.2,334.8,262.2z"/>
		<path class="st0" d="M503.4,326.9c0.2-0.1,0.4-0.3,0.6-0.3c0.2,0,0.4,0.2,0.6,0.3c-0.2,0.1-0.4,0.3-0.6,0.3
			C503.8,327.2,503.6,327,503.4,326.9z"/>
		<path class="st0" d="M512.4,324.3c-0.3,0.3-0.6,0.5-0.9,0.8c-0.3-0.3-0.7-0.8-0.4-1.1C511.5,323.5,512,323.7,512.4,324.3z"/>
		<path class="st0" d="M317,215.9c0.2-0.5,0.5-1,0.7-1.4c0.6,0.4,0.7,1,0.6,1.6C317.9,216.1,317.4,216,317,215.9z"/>
		<path class="st0" d="M427.7,153.5c-0.1,0.2-0.2,0.4-0.3,0.5c-0.2,0.2-0.5,0.1-0.5-0.2c0-0.2,0.1-0.4,0.3-0.5
			C427.3,153.3,427.6,153.4,427.7,153.5z"/>
		<path class="st0" d="M403.6,154.8c-0.1,0.1-0.2,0.4-0.4,0.4c-0.5,0.2-0.9,0.1-1.2-0.3c0.2-0.1,0.4-0.3,0.6-0.4
			C402.9,154.4,403.3,154.4,403.6,154.8z"/>
		<path class="st0" d="M416.8,155.9c-0.4,0-0.7,0.1-1.1,0c-0.3,0-0.7,0-0.6-0.4c0-0.1,0.4-0.2,0.6-0.3c0.3,0,0.7,0,1.1,0
			C416.7,155.4,416.7,155.7,416.8,155.9z"/>
		<path class="st0" d="M399.5,121.2c0-0.2,0.1-0.4,0.1-0.6c0.7,0,1.5,0,2.2-0.1C401.3,121.5,400.4,121.3,399.5,121.2z"/>
		<path class="st0" d="M323.4,162.5c-0.2-0.2-0.4-0.3-0.5-0.5c-0.2-0.4-0.4-0.8,0.2-1.1c0.1,0.3,0.2,0.6,0.3,0.9
			C323.4,162.1,323.4,162.3,323.4,162.5L323.4,162.5z"/>
		<path class="st0" d="M396.8,157.6c0.1,0,0.2,0.1,0.2,0.1c-0.1,0.1-0.2,0.2-0.3,0.3c0-0.1-0.1-0.2-0.1-0.2
			C396.6,157.7,396.7,157.6,396.8,157.6z"/>
		<path class="st0" d="M549,289.4c0.1,0.2,0.1,0.3,0.2,0.5c0,0.1-0.1,0.1-0.2,0.2c-0.1-0.2-0.1-0.3-0.2-0.5
			C548.7,289.5,548.9,289.4,549,289.4z"/>
		<path class="st0" d="M435.2,296.1c0.2-0.3,0.3-0.6,0.5-0.9c0.1,0.3,0.3,0.6,0.4,0.9c-0.2,0.1-0.4,0.1-0.7,0.2L435.2,296.1z"/>
		<path class="st0" d="M435.4,296.3c0.2,0,0.4-0.1,0.7-0.2c0.3,0.2,0.5,0.5,0.8,0.7c-0.3,0-0.6,0-0.8,0.1
			C435.5,296.9,435.3,296.7,435.4,296.3z"/>
		<path class="st0" d="M483.5,303.7c0.1,0,0.2-0.1,0.3-0.1c0.3,0.1,0.3,0.2,0.1,0.4c-0.1,0-0.2,0-0.3-0.1
			C483.5,303.9,483.5,303.8,483.5,303.7z"/>
		<path class="st0" d="M571.2,305.2c0.1,0,0.2-0.1,0.3-0.1c0.3,0.1,0.3,0.2,0.1,0.4c-0.1,0-0.2,0-0.3-0.1
			C571.2,305.4,571.2,305.2,571.2,305.2z"/>
		<path class="st0" d="M461.9,321.6c0.1,0.1,0.1,0.2,0.2,0.2c-0.2,0.1-0.4,0.2-0.6,0.2c-0.1,0-0.1-0.1-0.2-0.2
			C461.5,321.8,461.7,321.7,461.9,321.6z"/>
		<path class="st0" d="M557.1,322.4c0.1,0,0.2,0.1,0.2,0.1c-0.1,0.1-0.2,0.2-0.3,0.3c0-0.1-0.1-0.2-0.1-0.2
			C556.9,322.5,557,322.5,557.1,322.4z"/>
		<path class="st0" d="M543.6,337.4c0.1-0.4,0.4-0.6,0.6-0.2c0.2,0.5,0,0.9-0.6,1C543.6,337.9,543.6,337.6,543.6,337.4z"/>
		<path class="st0" d="M336.2,218.1c-0.5-0.3-0.4-0.6,0.1-0.8c0,0,0,0,0,0C336.3,217.6,336.3,217.9,336.2,218.1L336.2,218.1z"/>
		<polygon class="st0" points="515.5,344.1 515.5,344.3 515.4,344.3 		"/>
		<path class="st0" d="M392.5,119.1c0.1,0.1,0.2,0.2,0.3,0.3c-0.1,0-0.2,0-0.2-0.1C392.6,119.3,392.6,119.2,392.5,119.1
			C392.6,119.1,392.5,119.1,392.5,119.1z"/>
		<path class="st0" d="M343.5,260.6c-0.1,0.1-0.2,0.2-0.4,0.3C343.3,260.9,343.4,260.7,343.5,260.6l-0.1,0.1L343.5,260.6z"/>
		<path class="st0" d="M338.9,215.9c-1,0.3-2,0.4-2-1c-0.1-1.3,0-2.6,0-4c0.3-2.3,0.5-4.7,0.8-7c0.2-1.6,0.4-3.1,2.7-2.1
			c1,0.4,1.6-1.5,2.9-1.1c-0.7,0.9-1.4,1.8-2.5,2.2c-1.3,0.4-1,1.4-0.8,2.3c0,1.2-0.1,2.3-0.1,3.5c-0.4,1.1-0.4,2.2-0.1,3.3
			C339,213.2,339.3,214.6,338.9,215.9L338.9,215.9z"/>
		<path class="st0" d="M339.9,205.3c-0.2-1-0.4-1.9,0.8-2.3c-0.1,0.5-0.2,0.9-0.3,1.4c0,0.3,0,0.5,0,0.8c0,0,0,0,0,0
			C340.3,205.1,340.1,205.2,339.9,205.3z"/>
		<path class="st0" d="M363.3,72.1c0.5-0.3,1-0.2,1.5,0c0.3,1-0.3,2.1,0.6,2.9c0,0.7,0,1.4,0,2.1C363,76.2,363.5,74,363.3,72.1z"/>
		<path class="st0" d="M408.9,185.7c-0.2,0.3-0.4,0.5-0.5-0.1C408.5,185.7,408.7,185.7,408.9,185.7z"/>
		<path class="st0" d="M335.4,158.9c-1.9-0.5-3.9-1.1-5.8-1.6c-1.3-0.4-2.4-1.1-2.1-2.9c1.7-0.4,3.3,0,4.9,0.4
			c4.2,1,8.4,1.2,12.7,0.3c4.2-0.9,8.3-1.2,12.6-0.1c3.3,0.8,6.8,0.2,10.2-0.3c0.7-0.1,1.4-0.2,2.1-0.2c1.5-0.2,1.9,0.8,2.2,2.1
			c0.5,1.6-0.7,1.5-1.5,1.8c-3,1.4-6.3,2.1-9.6,2.5c-5.7,0.7-11.4,2.1-17.2,2.4c-5.2,0.3-10.4-0.6-15.5-1c-1.2-0.1-2.2-0.8-2.5-2.6
			c2.6-0.2,4.9-0.2,7.3,0.2c1.9,0.3,3.7,0.7,5.6,0.3c0.7,0,1.4,0,2.2,0c1,0,1.9,0,2.9-0.1c0.2,0,0.4,0.1,0.7,0.1
			c0.5,0,1.3,0.4,1.2-0.7c0.8,0,1.6,0,2.4,0c0.8,0.1,1.7,0.5,2.2-0.6c0.4,0,0.9-0.1,1.3-0.1c0.4,0.1,1.1,0.1,1.2-0.3
			c0-0.4-0.6-0.6-1-0.4c-0.5,0.1-1,0.1-1.4,0.2c-0.7,0.2-1.4,0.4-2.1,0.6c-1-0.1-2-0.1-2.8,0.6c-0.3,0-0.6,0-0.8,0.1
			c-0.2,0-0.5,0.1-0.7,0.1c-1,0-1.9,0-2.9,0c-0.7,0-1.4,0-2.2,0l-0.3-0.1c0,0-0.3,0-0.3,0C337.5,158.9,336.5,159,335.4,158.9z
			 M345.5,158c0.1-0.1,0.2-0.1,0.2-0.2c-0.1-0.1-0.1-0.2-0.2-0.2c-0.3,0-0.4,0.1-0.3,0.3C345.3,157.9,345.5,157.9,345.5,158z"/>
		<path class="st0" d="M324.8,236.2c-1-0.1-2.2,0.5-2.9-0.8c0-0.1,0-0.3,0-0.4C322.8,235.6,324.2,235,324.8,236.2
			C324.8,236.2,324.8,236.2,324.8,236.2z"/>
		<path class="st0" d="M327.7,236.9c-1,0-2.1,0.6-2.8-0.7c0,0,0,0,0,0C325.9,236,326.9,235.9,327.7,236.9L327.7,236.9z"/>
		<path class="st0" d="M320.5,235.5c-0.5,0-1.1,0.1-1.6-0.4c0.5-0.5,1-0.4,1.6-0.3C320.6,235,320.6,235.2,320.5,235.5z"/>
		<path class="st0" d="M320.5,235.5c0-0.2,0-0.5,0-0.7c0.5,0.1,0.9,0.2,1.4,0.2c0,0.1,0,0.3,0,0.4
			C321.5,235.4,321,235.5,320.5,235.5z"/>
		<path class="st0" d="M327.6,236.9c0.3,0.1,0.6,0.1,0.9,0.2c-0.1,0.1-0.2,0.4-0.3,0.4C327.9,237.5,327.7,237.3,327.6,236.9
			L327.6,236.9z"/>
		<path class="st0" d="M348.4,158.9c0.7-0.2,1.4-0.4,2.1-0.6c0.1,0.2,0.1,0.4,0,0.6c-0.5,1.1-1.4,0.6-2.2,0.6
			C348.3,159.3,348.3,159.1,348.4,158.9z"/>
		<path class="st0" d="M348.4,158.9c0,0.2-0.1,0.4-0.1,0.6c-0.8,0-1.6,0-2.4,0c0,0-0.3,0.1-0.3,0.1
			C346.4,158.8,347.4,158.9,348.4,158.9z"/>
		<path class="st0" d="M341.2,160.2c0-0.2,0-0.3,0-0.5c1,0,1.9,0,2.9,0c0,0.1,0,0.3,0,0.4C343.1,160.2,342.2,160.2,341.2,160.2z"/>
		<path class="st0" d="M345.5,158c-0.1,0-0.2,0-0.2-0.1c-0.1-0.2,0-0.3,0.3-0.3c0.1,0,0.1,0.1,0.2,0.2
			C345.7,157.8,345.6,157.9,345.5,158z"/>
		<path class="st0" d="M351.8,158.8c0-0.2,0.1-0.5,0.1-0.7c0.5-0.1,1.1,0,1,0.4C353,158.9,352.3,158.9,351.8,158.8z"/>
		<path class="st0" d="M345.6,159.6c0,0,0.3-0.1,0.3-0.1c0.1,1.1-0.6,0.7-1.2,0.7c0.1-0.2,0.1-0.4,0-0.6
			C345,159.6,345.3,159.6,345.6,159.6z"/>
	</g>
</g>
<g id="TEXTS">
</g>
</svg>
