<?xml version="1.0" encoding="utf-8"?>
<!-- Generator: Adobe Illustrator 27.9.5, SVG Export Plug-In . SVG Version: 9.03 Build 54986)  -->
<svg version="1.1" xmlns="http://www.w3.org/2000/svg" xmlns:xlink="http://www.w3.org/1999/xlink" x="0px" y="0px"
	 viewBox="0 0 700 450" style="enable-background:new 0 0 700 450;" xml:space="preserve">
<style type="text/css">
	.st0{fill:#7E92A3;}
	.st1{fill:#7E92A3;stroke:#7E92A3;stroke-miterlimit:10;}
</style>
<g id="BACKGROUND">
</g>
<g id="OBJECT">
	<g>
		<path class="st0" d="M273.3,317c3.2-0.6,6.2-2.1,9.6-2.5c2.7-0.3,5.5-0.8,8.2-0.4c1.6,0.2,2.7-0.2,3.2-1.6c0.7-1.8,2.8-2.5,3-4.6
			c0,0,0,0,0,0c2.6-3.2,5.7-6,8.6-8.8c0,0-0.1,0-0.1,0c3.1-1.4,5.5-3.9,8.4-5.6c0,0-0.1,0-0.1,0c0.4,0.1,0.7-0.2,0.9-0.6l-0.1,0.1
			c1.7-0.6,3.4-1.4,4.9-2.4c0,0-0.1,0-0.1,0c0.6,0,1.1-0.2,1.4-0.7c0,0-0.1,0-0.1,0c0.6,0,1.1,0,1.5-0.5c0,0-0.1,0-0.1,0
			c1-0.1,2-0.4,2.8-1.2c0,0-0.1,0-0.1,0c1.3-0.1,2.5-0.5,3.6-1.1c2.3-0.4,4.6-0.8,6.8-1.1c1.3-0.2,2.7-0.2,4,0.2
			c0.8,0.2,1.6,0.5,1.4,1.5c-0.2,0.9-0.9,1.2-1.7,1.2c-0.1,0-0.2,0-0.3,0c-5.7-0.8-10.7,1.4-15.5,3.8c-8.8,4.2-16.4,10-22.4,17.7
			c-0.5,0.6-1.1,1.2-1.3,1.9c-0.4,1.3-2.1,1.9-1.9,3.3c0.2,1.4,1.9,1.3,2.7,2.2c2.4,2.7,4.5,5.5,6.3,8.5c1.3,2.1,2.5,4.1,3.7,6.2
			c0,0.8,0.5,1.4,0.9,2.1c1.3,2.8,2.5,5.6,3.1,8.6c0.4,1.8,0.5,3.6-1.4,5c-1.9,1.4-1.8,1.5-0.6,3.8c0,0,0-0.1,0-0.1
			c0,1.9,0.1,3.8,0,5.6c-0.3,3.4-2.4,5.6-5.8,6.2c-1.7,0.3-3.3,0.3-4.9-0.3c-0.6-0.2-1.3-0.4-1.8,0.2c-2.7,3.4-6.5,3.3-10.2,3.1l0,0
			c-0.5-0.6-1-1.1-1.4-1.7c0-0.3,0.1-0.6,0.1-0.8c0.2-0.2,0.4-0.4,0.6-0.6c-0.1-0.1-0.2-0.1-0.3-0.2c-0.1,0.3-0.1,0.6-0.2,0.9
			c-0.5-0.2-1-0.5-1.5-0.7c-3.5-3.3-3.7-7.8-4.4-12.2c-0.2-1.5,1.1-1.7,2-2.2c1-0.7,1.9-0.5,2.6,0.4c0.7,0.8,1.4,1.7,1.6,2.8
			c0.4,2.2,1.6,4.2,1.4,6.5c-0.1,0.9,0.5,1.4,1,2c0.7,0.9,1.3,1.3,2.3,0c3.1-3.9,4.5-4.3,9-2.5c1.9,0.8,2.1,0.7,3-1.2
			c1.2-2.7,1.9-5.5-0.5-8c-0.7-0.8-0.1-1.8-0.7-2.4c-0.6-0.5-1.1-1-1.8-1.6c-1,0.8-0.9,2-1.5,2.9c-3.1,5.4-7.2,4.9-11,0.4
			c-1.5-1.7-1.5-4.1-2.8-6.3c-2.2,1.3-4.5,1.5-6.6-0.2c-1-0.8-1.8-0.1-2.7,0.6c-1.9,1.4-3.8,3-6.4,3.3c-2.4,0.3-4.8-0.1-7.2-0.5
			c-2.7-0.5-3.3-1.3-3.5-4c-0.5-5.7,0-11.3,2.4-16.5c0,0,0,0,0,0c0.7-0.5,1.2-1.2,1.5-1.9c0,0-0.1,0.1-0.1,0.1
			C267.3,320.7,270.1,318.6,273.3,317L273.3,317z M304.5,337c-0.1,0.5,0.2,0.7,0.6,0.7l0,0c0,0.4,0.2,0.6,0.5,0.8
			c0.2,0.4,0.5,0.9,0.7,1.3c0.3,0.8,0.5,1.6,2.1,1.7c-0.7-1.2-0.3-2.6-1.4-3.5c-0.1-0.1-0.3-0.2-0.5-0.2c-0.1-0.5-0.2-1-0.7-1.2l0,0
			c0.1-0.4-0.1-0.7-0.5-0.9c0-0.2,0-0.4-0.2-0.5c0.1-0.4-0.1-0.7-0.4-0.8c-1.7-4.6-4.5-8.6-7.2-12.6c-1.2-1.8-2-1.7-3,0.3
			c-1.2,2.5-2.4,5-3.5,7.5c-0.3,0.7-0.3,1.4,0.5,1.6c2.2,0.8,3.4,2.5,4.1,4.6c2.7-1.9,2.7-2,5.6-0.9c0.7,0.3,1.4,0.6,2.1,0.9
			c0.1,0.4,0.3,0.6,0.7,0.6l0,0C303.9,336.7,304.1,336.9,304.5,337L304.5,337z M282.2,321.6c-1.5-0.1-2.8,0.3-3.5,1.8
			c-0.7,0.5-1.4,1.1-2.1,1.6c-4.3,2.9-6.9,7-8.4,11.9c-0.3,1.1-1.1,2.6,0.1,3.4c1.2,0.8,2.6-0.1,3.7-0.7c0.8-0.4,1.3-1.2,1.7-2
			c0.6-1.3,1.1-2.7,1.2-4.1c0.2-2.3,2.1-3.2,3.6-4.5c1.2-1.1,2.2,0.2,3.4,0.5c1.2,0.3,2.3,0.6,3.5,0.9c1.9-3.4,2.9-7.1,5-10.5
			C287.1,319.6,284.8,321.2,282.2,321.6z M298.2,360.5c0.1,0,0.2-0.1,0.2-0.1c-0.1-0.1-0.1-0.2-0.2-0.2c-0.3-0.1-0.4,0-0.3,0.2
			C298,360.5,298.1,360.5,298.2,360.5z"/>
		<path class="st0" d="M382.7,351.6c-3.3,0.5-6.7,1.5-10-0.3c-0.5-0.3-1,0.1-1.5,0.4c-1.3,0.8-2.7,1.5-4,2.2c0,0,0,0,0,0
			c-1.1,0.2-2.2,0.3-3.2,0.6c-5.2,1.1-9.5-0.6-13-4.4c-3.7-4-4-8.9-2.9-13.9c0.4-1.9,0.7-3.6,0.2-5.4c-0.9-3.1-1.3-6.2-1.4-9.4
			c0.1-0.4,0.1-0.8,0.2-1.3c0.6-0.8,0.6-1.8,0.9-2.6c0.9-0.4,1.5-1.3,2.6-1.2l0,0c-0.6,3.4-0.6,3.5,2.6,4.1c0.2,0,0.4,0,0.6,0
			c1.1-0.1,1.6,1.2,2.7,1c0-2,0-3.9,0-5.9c0.1-3,0.9-5.7,3.7-7.3c1.3,0.4,2.3-1,3.6-0.7c0.1,0.9,0.3,1.7,0.3,2.5
			c0,0.9-0.6,1-1.3,1.1c-0.1-0.5,0-1.1-0.7-1.1c-0.1,0-0.2,0.1-0.2,0.2c-0.1,0.7,0.5,0.8,0.9,0.9c0,0.3,0,0.5,0,0.8
			c-1.9,2-1.7,4.7-1.9,7.2c-0.1,1.5,0.2,3.2-1.9,4.1c3.5,2.3,6.7,4,10.7,3.8c3.9-0.2,6.3-4.1,4.9-7.8c-0.5-1.2-0.2-1.9,0.6-2.6
			c0.9-0.7,1.6-0.6,2.2,0.4c0.5,0.9,0.8,1.8,0.8,2.8c0.3,5.9-2.5,10.2-7.5,13c-2.9,1.6-6,1-9-0.3c-2.7-1.2-5.3-2.6-7.9-4.1
			c-0.1-0.4-0.3-0.7-0.7-0.7l0,0c-0.2-0.7-0.7-1.3-1.3-1.1c-0.6,0.2-0.3,0.8,0.2,1.2c0.1,0.4,0.2,0.9,0.2,1.3
			c-0.2,0.8-0.1,1.5,0.4,2.2c-0.1,1.7-0.2,3.3-0.4,5c-0.6,5.9,4.3,12.2,12.1,12.8c2.1,0.2,3.6-1.1,4.4-3.3c1-2.7,4.8-4.2,7.2-2.6
			c1.4,0.9,2.8,1.7,4.4,2.2c2,0.6,3.3,0,3.7-2c0.4-2.1,0.8-3.9,3.3-4.7c1.4-0.5,1.4-2.4,1.5-3.8c0.3-3.5-0.1-7,0.5-10.5
			c0.9-0.4,1.1-1.7,2.2-1.9c0.1,0.3,0.2,0.4,0.2,0.2c0,0-0.2-0.1-0.3-0.2c0-0.5,0-1,0.1-1.4c0.9-0.2,2.1-1.1,2.1,0.8
			c-0.1,2.9,0.9,5.6,0.8,8.5c-0.1,4.5-0.6,8.8-3.1,12.6c-0.6,0.2-0.7,0.8-0.8,1.3C389.6,348.3,386.6,350.5,382.7,351.6L382.7,351.6z
			 M371.2,346.5c0.2,0.2,0.4,0.1,0.5-0.1c0-0.2-0.1-0.4-0.2-0.5c-0.1-0.1-0.3,0-0.5,0.1C371.1,346.2,371.1,346.3,371.2,346.5z"/>
		<path class="st0" d="M334.5,320.5c2.4-3.1,5.1-5.8,8.4-7.9c1.5-1,1.8-2.3,1.5-4.2c-2.3,1.3-4.4,2.5-6.8,3.1
			c-2.4,0.6-4.8,1.5-6.7-1c-1.7-2.3-1.8-6.4-0.1-8.8c2.3-3.2,5.5-5.4,9.1-7c3.3-1.4,6.8-1.9,10.4-1.3c1.5,0.3,2.8,1.7,4.2,1.7
			c1.3,0,2.1-1.8,3.5-2.3c6.2-2.4,12.1-1.1,17.4,2.4c2.8,1.8,5.4,3.7,8.5,5c3.5,1.4,6.5,3.8,8.7,7c2.2,3.2,1.7,6.4-1.2,8.8
			c-1,0.8-1.9,1.1-3,0.5c-0.1-0.2-0.2-0.5-0.1-0.6c2.1-3.2,2.1-4.2-0.4-7c-2.5-2.8-5.8-4.4-9.4-5.4c-3.2-0.9-6.3-2-9.2-3.7
			c-5.2-3.1-9.9-1.2-11.7,4.6c-0.9,2.9-1.4,5.8-3.5,8.1c-0.4,0.1-0.6,0.3-0.6,0.7c0,0,0,0,0,0c-1.3,0.5-0.9,1.6-0.9,2.6l0,0
			c-0.6-0.1-1.1,0.1-1.5,0.5c-0.2,0-0.4,0-0.6,0l0,0c0.1-0.8-0.6-1.7,0.2-2.4c0.3-0.3,0.6-0.7,0.3-1.1c-0.5-0.8-1.3-0.5-2.1-0.6
			c-1.1-0.2-1.7,0.2-1.5,1.4c-0.1,0.8-0.2,1.6-0.4,2.4c-0.6,0.8-0.8,1.7-0.8,2.7c-0.3,0.9-0.5,1.7-0.8,2.6c-0.4,0.9-0.8,1.8-1.2,2.7
			c-1,1.9-1.8,3.9-3.7,5.3c-2,1.5-4.1,1.2-5.9,0.4c-1.8-0.8-1.8-2.8-1.4-4.7C333.7,323.4,334.1,322,334.5,320.5z M351.4,298.6
			c-5.2-0.9-9.9,0.2-14,3.4c-1,0.8-2.7,1.7-1.8,3.1c0.7,1.1,2.4,0.4,3.7,0C343.7,303.7,347.3,300.8,351.4,298.6z M342,318.6
			c-3.6,2.3-4.5,4.2-3,6.5C340.7,323.3,341.8,321.2,342,318.6z"/>
		<path class="st0" d="M372.6,277.6c-1.2-2.3-1-4.8-0.8-7.1c0.2-2,1.3-3.8,2.8-5.1c0.9-0.8,3.3-0.6,3.6,0.2c0.5,1.1-0.2,1.9-1.2,2.4
			c-1,0.5-1,1.3-1.1,2.2c-0.3,3.1,0.7,5.9,2.1,8.6c1.8,3.5,4.5,6.2,8,8.1c1,0.5,1.5,1.3,2.2,2.2c1.5,2.4,2.7,5.1,4.8,7.1
			c3,3.1,5.7,2.7,8.9-0.4c1.6-1.6,2.7-3.8,5.5-3.4c0.4,0.1,0.1-0.7,0.2-1.1c1.8,1.6,4.1,2.2,6.2,3.2c1,0.4,1.5-1.2,1.9-0.2
			c0.8,1.9,2.4,1.5,3.8,1.9c-1.8,1-3.6,0-5.3,0.1c-0.3-0.6-0.9-0.6-1.5-0.6l0,0c-0.2-0.5-0.7-0.7-1.2-0.7c-0.5,0-0.7,0.3-0.1,0.6
			c0.1,0.2,0.1,0.4,0.2,0.6c-0.1,0.4,0.1,0.6,0.5,0.7l0,0c0,0.4,0.2,0.7,0.6,0.7c3.5,3.5,5.1,3.7,9.4,1.4c0.6-0.3,1.2-0.6,1.8-0.8
			c-0.6,2-2.5,2.2-4.1,2.9c-0.8,0.4-2.1,0.2-2.2,1.6c-0.2,0-0.5-0.1-0.7-0.1c0-0.3,0-0.9-0.1-0.9c-0.6,0-0.4,0.5-0.5,0.8
			c0.4,0.7,0.8,0.8,1.3,0.1c2.4,0.4,4.7-0.4,7-0.7c-2.7,2.1-5.6,2.7-8.9,2c-0.6-0.1-1.4,0.1-2-0.1c-1.7-0.6-2.2,0.3-2.4,1.7
			c-0.7,5.1-2.5,9.8-5,14.2c-0.4,0.8-0.6,2-2.1,1.6c-1.5-0.4-1.4-1.6-1.3-2.6c0.1-0.9,0.2-1.8,0.9-2.4c0.3,1.2-0.6,2.6,0.9,4.1
			c1.1-2.2,2.3-4.3,3.3-6.4c0.3-0.6,0.3-1.4-0.4-1.7c-1-0.5-1.5,0.3-1.7,1c-0.2,1.4-0.9,2.4-2.1,3.1c1-2.9,1.7-5.9,3.2-8.5
			c0.3,0.8-0.5,2.1,0.7,2.6c0.6,0.2,1.5-0.1,1.7-1.1c-0.8-0.5-1.6-1-2.4-1.5c0.1-0.8,0.1-1.5,0.3-2.3c1-4.3,1-4.3-2.2-7.9
			c-1.5,1.3-3,2.5-4.4,3.8c-8.8,2.5-13.6-1.6-16-7.5c-0.9-2.2-2.3-3.8-4.2-5.3c-2.9-2.2-5.3-4.9-6.8-8.3
			C374.9,278.8,373.7,278.2,372.6,277.6z M410.5,298.9c0.3-0.1,0.8,0.2,0.8-0.4c0-0.1-0.5-0.2-0.7-0.3c0.1-0.9-2.4-0.4-1-2.1
			c0.6-0.7-0.2-1.2-0.7-1.6c-2-1.6-3.6-1.1-5.6,1.6c0.7,0.4,1.5,0.4,2.3,0.2c0.8-0.2,1.5-0.1,1.7,0.6c0.6,1.9,2.1,1.1,3.3,1.2
			C410.5,298.5,410.5,298.7,410.5,298.9c-0.3,0-0.6,0.1-0.9,0.1c0.1,0.1,0.1,0.4,0.2,0.4C410.1,299.4,410.3,299.2,410.5,298.9z
			 M415,302.7c0.3-1.1-0.9-0.8-1.1-1.4c-0.3-0.7-0.3-1.6-1.4-1.5c-0.9,0.1-1.8,0.2-2.6,0.5c-1.4,0.6-1,2-0.9,3.2
			c0.1,1,0.9,1.4,1.5,0.4c1-1.5,2.1-1.8,3.6-1C414.4,303.1,414.8,302.8,415,302.7z M409.6,307c0.3,0,0.3-0.1,0.2-0.3
			c0,0-0.2,0-0.2,0C409.5,306.8,409.5,306.9,409.6,307z"/>
		<path class="st0" d="M363,311.8c0-0.3,0-0.5,0-0.8l0,0c0.7,0,1.3-0.2,1.3-1.1c0-0.8-0.2-1.6-0.3-2.5c-1.3-0.3-2.3,1.1-3.6,0.7
			c3.9-3.6,8.5-4,12.5-0.9c3.1,2.4,3.1,5.9,0.1,8.8c-0.6-0.2-0.8-0.7-1-1.2c-1.2-3-2.9-4-6-3.6C364.9,311.4,363.9,311.6,363,311.8z"
			/>
		<path class="st0" d="M350.6,316.2c0.2,0,0.4,0,0.6,0c0.3,0,0.5,0.1,0.8,0.1c-0.7,1-1.6,1.9,0.3,2.6c0.7,0.2,1.3,0.8,1.6,1.5
			c-0.2,0-0.4,0-0.6,0C350,319.7,349.9,319.6,350.6,316.2z"/>
		<path class="st0" d="M391.6,322.3c-1.1,0.2-1.2,1.5-2.2,1.9c0.2-1.5-0.2-3.3,2.2-3.3C391.6,321.4,391.6,321.8,391.6,322.3
			L391.6,322.3z"/>
		<path class="st0" d="M372.6,277.6c1.2,0.6,2.3,1.1,1.2,2.7c-0.2,0-0.4,0-0.6,0C373.1,279.4,372.3,278.6,372.6,277.6z"/>
		<path class="st0" d="M352.7,315.7c0-1-0.4-2.1,0.9-2.6C353.2,313.9,353.6,315,352.7,315.7z"/>
		<path class="st0" d="M351.9,316.3c-0.3,0-0.5-0.1-0.8-0.1c0.4-0.4,0.9-0.6,1.5-0.5C352.7,316.2,352.4,316.3,351.9,316.3z"/>
		<path class="st0" d="M353.5,313.1c0-0.4,0.2-0.6,0.6-0.7C354.2,312.9,354,313.1,353.5,313.1z"/>
		<path class="st0" d="M419.6,296.3c-1.4-0.3-3.1,0-3.8-1.9c-0.4-1-1,0.6-1.9,0.2c-2.1-0.9-4.4-1.6-6.2-3.2c-1.4-1.3-1.5-3.8-3-4.6
			c-1.6-0.8-3.5,1-5.3,1.1c-6.7,0.6-12.1-1.9-15.7-7.3c-3.1-4.7-3.6-9.9-0.6-15.1c0.4-0.8,0.9-1.5,1.3-2.3c0.2-0.5,0.8-1,0.3-1.4
			c-1-0.7-1.5-1.9-2.7-2.2c-1.5-1.4-2.2-3.3-3.4-5.1c-1.8,0.6-3.2,1.9-4.7,2.8c-1.4,0.8-1.1,2.4-1.1,3.6c-0.1,3.8-1.3,7.1-3.5,10.2
			c-2.9,4.2-6.8,6.5-12,6.2c-3.2-0.2-6.4-0.4-9.6-0.2c-4,0.2-7.6-0.8-11.2-2.3c-1-1-2-2-2.9-3.1c-1.4-1.7-2.9-3.4-3.3-5.7
			c0-0.4,0.1-0.9,0.1-1.3c0-0.6-0.4-1.3,0.3-1.7c1-0.5,1.5,0.6,1.7,1c0.5,1,0.9,1.6,2.1,1.4c0.7,0.9,1.4,1.7,2.1,2.6
			c3,3.5,6.6,5.4,11.4,5c3.3-0.3,6.6-0.3,9.9-0.3c4.4,0.1,7.5-2.6,8.6-6.9c0.3-1.3,0.7-2.6,0.8-3.9c0.2-4.2,1.9-7.2,6-8.7
			c0.8-0.3,1.5-0.9,2.2-1.4c0.7-0.5,1.4-1.4,1.3-2.2c-0.5-3.8-0.3-7.5,0.7-11.2c0.1-0.2,0-0.4-0.1-0.7c-0.7-2.7-1-5.4-1.8-8.1
			c-2.3-7.5-6.9-13.6-12.3-19.1c-3.1-3.2-6.5-5.6-11.7-4.9c-4.3,0.5-8.9,0.2-12.9-2c-0.8-2.1-2.3-3.5-4.3-4.3
			c-4-2.9-4.9-2.9-9.1-0.1c-0.5,0.4-1.2,0.7-1.6,1.2c-3.6,3.7-7.6,6.7-11.9,9.5c-1.8,0.3-1.7,1.8-1.8,3c-0.3,3.6,0.8,7.2-0.7,10.7
			c-0.7-0.1-1.5,0-1.7-0.7c-0.8-2.7-2.1-5.5-0.2-8.3c0.4-0.7,0.8-1.3,0.5-2.2c-0.6-2,0.4-3.6,1.3-5.2c0.3-0.6,0.6-1.1,0.6-1.8
			c1.8-1.7,3.6-3.4,5.6-4.8c2.9-1.1,4.9-3.3,6.7-5.6c0.1-0.2,0.2-0.4,0.3-0.6c0.4-1.6-0.2-2.4-1.9-2.5c-1.2,0-2.1-0.6-3.1-0.9
			c-1.6-0.4-2.8-1.8-4.6-1.8c-1.5-0.5-2.6-1.6-3.8-2.6c-1.3-1.1-2.2-2.5-1.6-4.4c0.4-1.3,0.3-2.6-0.3-3.9c-1.1-2.3-0.7-2.7,1.5-4.2
			c7.9-5.2,16.3-5.8,25.1-3c0.5,0.6,1.2,0.7,1.9,0.9c0.5,0.4,1.1,0.9,1.6,0.4c0.4-0.4-0.2-0.9-0.7-1.1c-0.1-0.3-0.3-0.6-0.7-0.7
			c-4.5-6.9-7.9-14.3-11.7-21.5c0.3-1.3,0.5-2.6,0.8-3.9c0.4-0.1,0.7-0.3,0.7-0.7c2.5,0.2,5.1,0.2,7.1,2.1c1.6,1.5,3.2,3,4.8,4.5
			c1,0.9,2.1,1.7,3.4,2.3c0-0.6,0.2-1,0.1-1.3c-1.7-6.6-3.5-13.1-5.2-19.6c0,0,0,0.1,0,0.1c-0.2-1.2-0.9-2.1-1.8-2.9
			c0,0,0,0.1,0,0.1c-0.4-1.1-1.1-2-1.9-2.8l0,0.1c-0.5-1.4-1.1-2.8-1.6-4.3c-0.4-1.3,0-2.1,1.5-2.3c2.4-0.2,4.5,0.3,6.3,2
			c0.8,0.7,1.1,2,2.4,2c0,0-0.1,0-0.1,0c1.3,0.8,2.6,1.6,3.9,2.4c0,0-0.1,0-0.1,0c1.5,1.5,3,3,4.5,4.4c3.8,6.8,4.7,14.3,5.6,21.9
			c0.8,7-0.7,13.6-2.7,20.2c-0.7,2.1-1.9,3.7-4.7,3.8c5.7,8.5,13.4,12.7,23.4,13.9c0.1-7,3.9-11,9.9-13.3c2.4-0.2,4.6-1.4,7-1.4
			c0.3-0.1,0.4-0.2,0.2-0.3c0,0-0.1,0.2-0.2,0.3c-2.5-1.7-5-3.4-7.6-5.2c-1-0.7-2.2-1-3.4-0.9c-2.7-1.8-4.8-4.2-6.2-7.1
			c-1-2-1-4-0.4-6.1c0.8-2.6,2.4-4.1,4.9-4.9c3.9-1.3,7.8-1.3,11.8-0.2c1,0.3,2,0.8,3.6,0.6c-3.7-5.2-5.6-10.6-3.1-16.7
			c0.5-0.7,1.1-1.3,1.6-2c0,0-0.1,0.1-0.1,0.1c4.9-2.5,9.7-2.2,14.5,0.3c0,0-0.1,0-0.1,0c1.2,1.1,2.3,2.3,3.8,3c0,0-0.1-0.1-0.1-0.1
			c0.1,0.4,0.3,0.6,0.7,0.7c0,0-0.1-0.1-0.1-0.1c0,0.4,0.2,0.7,0.6,0.8c0,0-0.1-0.1-0.1-0.1c1.3,2,2.3,4.2,4.1,6.2
			c0.3-1.3,0.5-2.3,0.7-3.2c0,0,0,0,0,0c0.9-1.2,1.1-2.6,1.6-4c0,0,0,0.1,0,0.1c0.7-0.5,0.7-1.3,0.9-2c0,0,0,0.1,0,0.1
			c0.6-0.3,0.7-0.8,0.8-1.4c0,0,0,0.1,0,0.1c0.7-0.5,1.2-1.2,1.5-1.9c0,0-0.1,0.1-0.1,0.1c1.6-1.4,3.5-2.4,5.6-3c0,0-0.1,0-0.1,0
			c1.7,0.2,3.5-0.3,5.2,0.4c0,0-0.1-0.1-0.1-0.1c5.8,6.3,4.3,13.8,3.6,21.4c3.2-2.6,6.8-4.1,10.4-5.7c0,0-0.1,0-0.1,0
			c0.9-0.2,2,0.2,2.8-0.6c0,0-0.1,0-0.1,0c1.2-0.1,2.4,0.6,3.5-0.4c0,0,0,0,0,0c0.9-0.3,1-1.2,1.4-1.9c1.1-1.1,1.3-2.5,1.6-3.9
			c1.3-2.8,1.1-5.8,1.2-8.7c0.3-1.1,0.2-2.2,0.1-3.7c-1,1.4-1.1,2.5-0.7,3.6c-0.3,1.8-1.1,3.4-1,5.3c-1.1,1.8-1.2,3.9-1.7,5.9
			c-1.4,0.8-2.6-0.2-3.8-0.5l0,0c-0.5-3.7,0.4-7.2,1.1-10.7c1-5.1,1.1-10.2-0.7-15.2c-0.2-1.6-0.4-3.3-0.6-4.9
			c-0.1-1.6-0.5-3.3,1.1-4.5c1-0.7,4.1,0.3,5.4,1.6c1.2,1.3,2.2,2.7,2.6,4.5c0.1,0.5,0.5,0.9,0.8,1.4c0.3,1.6,0.6,3.2,0.9,4.9
			c1.3,7.1,1.7,14.3-0.3,21.3c-1,3.5-2.7,6.5-5.4,8.9c-0.3,3.5-1.7,6.6-3.7,9.5c-1.9,2.7-4,5.3-6.3,7.7c-0.5,0.1-0.8,0.4-0.6,0.9
			c0.1,0.2,0.5,0.4,0.8,0.4c0.7,0,1.3-0.1,1.8-0.5c1.8-0.1,3.5-0.2,5.3-0.4c2.6,0.7,5.4-0.1,7.9,1.3c2.1,1.6,1.1,3.6,0.7,5.4
			c-0.8,3.5-3.9,5.1-6.5,7.1c-1.1,0.9-3.3,0.8-3.4,2.3c-0.1,1.5,1.6,2.5,2.5,3.7c0.2,0.3,0.5,0.4,0.7,0.7c0,0,0-0.1,0-0.1
			c0.9,2.1,2.3,3.8,3.7,5.6c0,0,0-0.1,0-0.1c1.6,3.9,2.6,7.8,1.1,12c0,0,0-0.1,0-0.1c-1,1.5-2,2.9-3.6,3.8l0,0
			c-4.1,0.6-8.1,0.9-12.4-0.7c-0.1,2.2-0.4,4.1-0.4,6c0,2-0.9,3.6-1.6,5.3c-0.6,1.7-2.2,2.3-3.7,3.1c-1.8,0.1-3.6,0.2-5.4,0.2
			c-1.6-1.1-3.9-1.3-5.1-3c-0.8-1-1.6-1.9-2.4-2.9c0.7-1.1,1.2-2.2-0.9-2.3c-0.4,0-0.8-0.2-1.2-0.3c-1.3-0.3-1.2-2.1-2.6-2.4
			c-0.4,1-1.4,1.6-1.4,2.8c1.6,0.8,3.2,1.6,4.8,2.3c0.7,1.4,1.8,2.5,3.1,3.3c0.5,0.9,1.1,1.9,1.6,2.8c0.5,0.9,1.2,1.2,2.2,0.8
			c0.7,0.1,1.5,0.2,2.1-0.4l0,0c1.3,0,2.6,0.7,3.9,0.2c2.8,1.4,5.5,2.7,7,5.7c0.6,1.2,1.2,2.4,1,3.8c-0.4,2.1,0.6,3.3,2.4,4.1
			c2.7,3.2,4.1,6.6,2,10.6c-1.2,0.4-1.5,1.4-1.5,2.6l0,0c-1.6-0.9-1.3,0.4-1.4,1.2l0,0c-1-0.2-1.3-0.6-0.8-1.6
			c0.2-0.4,0.2-0.8,0.2-1.3c1.3-3.9,0-6.8-3.9-8.9c-3.1-1.7-6.4-2.2-9.9-2.5c-2.8,0.1-5.2-1.6-8-1.9l0,0c0.5-0.4,0.9-0.8,1.4-1.3
			c0.3-0.1,0.4-0.2,0.2-0.2c0,0-0.1,0.2-0.2,0.3c-0.8-0.2-0.8-0.2-1.7-2c-0.1-0.3-0.4-0.5-0.8-0.5c-1,0.1-1.9,0.1-2.9,0.2
			c-0.9-0.2-1.2-1.3-2.4-1.5c-0.7,2.1-2.2,3.2-4.6,3c-1.9-0.2-2.2-0.5-1.7-2.5c0.3-1.2,0.9-2.2,1.5-3.4c-1.5-0.9-2.7-0.4-3.9,0.7
			c-2.5,2.4-3.7,5.4-4.5,8.7c-0.9,4-3.2,5.6-7.3,5.3c-1.8-0.1-3.5-0.2-5.3-0.5c-1.6-0.2-2.2,0.6-2.5,2c-0.4,2.4,0,4.7,0.9,6.8
			c1,2.2,1.9,4.5,3.2,6.5c2.5,3.9,2.8,7.8-0.5,11.6c-2,2.3-1.3,5.1-0.4,7.6c2,5.6,8.4,9.3,14.3,8.8c1.7-0.2,3.2-0.9,4.6-1.7
			c0.4-0.2,0.6-0.6,1-0.9c2.9-1.9,3.7-1.7,5.2,1.4c0.9,1.8,1.9,3.5,3.4,4.8c5.3,4.5,9.9,4.2,14.6-1.1c3.7-4.2,5.4-9.3,6.4-14.7
			c0.4-2.2,0.7-4.4,1.3-6.5c0.4-1.6,2.5-2.8,4.1-2.5c0.5,0.1,0.7,0.5,0.8,0.9c0.1,0.8,0.1,1.5,0.1,2.3c-0.5,8.2-2.2,16-7,22.9
			c-0.2,0.3-0.4,0.7-0.7,1.1c4.9,1.8,12.1-1.4,11.6-9.1c-0.1-2.2-0.6-4.4-1.9-6.3c-0.8-1.1-1-2.1-0.1-3.3c0.9-1.2,1.8-1.9,3.3-1.3
			c1.1,0.4,2.2,0.6,2.8-0.8c0.6-1.5,1.9-2.9,0.5-4.6c-1-1.2-1.9-2.4-2.8-3.7c-0.5-0.6-0.9-1.3-1.2-2c-0.3-0.6,0-1.1,0.5-1.4
			c0.5-0.3,0.9,0,1.2,0.3c0.7,0.7,1.3,1.5,2,2.2c0.1,0.6,0.4,1,1,1c0.6,0,0.4-0.6,0.4-1c0-0.7,0.1-1.5-0.5-2
			c-0.2-0.9-0.4-1.7-0.6-2.6c-0.5-1.5-0.8-2.9-2.8-3.1c-1.3-0.2-2.4-1.2-1.8-2.9c0.7-1.9-1.3-3.7-0.4-5.7c1.4-1.8,3-1.1,4.5-0.4
			c0.3,1,0.8,1.6,1.9,1.8c0.1-1.3-0.6-1.9-1.1-2.5c0.1-1.1-0.8-2.3,0.6-3.3c3.6-2.7,6.8-5.9,10.3-8.7c1.9-1.6,4.4-2.6,5.8-4.8
			c0,0-0.1,0.1-0.1,0.1c2.2-1.1,3.8-3,6.1-3.8c0.1,0.1,0.1,0.2,0.2,0.2c1,0.4-0.4,2.9,1.5,2.1c1.4-0.6-0.1-1.8-0.2-2.8
			c0-0.1-0.1-0.2-0.1-0.3c0.6-0.5,1.1-1,1.7-1.6l0,0c2.7-0.8,5.2-2.4,8.2-2.3c4.8,0.1,7.2,3.6,5.2,8c-2.1,4.7-5.7,8.3-9.6,11.6
			c-1.4,0.5-2.5,1.4-3.5,2.4c-3.7,1.8-7.3,3.5-11,5.3c-0.7,0-1.5-0.1-2,0.6c-1.9,0.5-3.8,1.1-5.7,1.6c-0.9,0.3-1,0.7-0.4,1.4
			c0.6,0.7,1.3,1.5,0,2.2c-0.5,0.3-1,0.7-1.6,1c0-0.5,0-1.1-0.7-1.1c-0.1,0-0.2,0.1-0.2,0.2c-0.1,0.7,0.5,0.8,1,0.9
			c0,0.2,0,0.5,0,0.7c0,0.2,0,0.4-0.1,0.6c0.2,1.2,1.1,0.8,1.9,0.9c4.2,3.2,8.4,6.4,12.7,9.6c4.9,3.6,10.1,6.3,16.1,7.4
			c0.7,0.1,1.4,0.5,2.4-0.1c-1.6-2.4-3.5-4.2-5.5-5.9c-7.1-5.9-15.5-9.3-24.2-11.7c-0.3-0.5-0.9-0.5-1.3-0.7
			c0.2-1.5,1.4-2.3,2.3-3.2c4,0.7,7.7,2.2,11.4,3.8c0.7,0.3,1.4,0.7,2.1,0.7c1.4,0.9,2.8,2,4.5,2.3c2.5,2.3,5.6,3.8,8.2,6
			c1.9,2.3,4,4.3,5.7,6.7c1.7,2.5,1.9,4.8,0.7,7.4c-4.7,0.7-9-1.2-13.3-2.5c-0.5-0.2-1-0.3-1.5-0.5c-3.8-2.3-7.7-4.6-11.5-6.8
			c-2.6-2.3-5.2-4.6-7.8-6.8c-0.2-0.8-0.5-1.4-1.5-1.5c-0.7,0-1.1,0.4-1,1c0.2,3.6-2,7.2-0.1,10.8h0c-3.1,0-3.2,0-4.1,2.6
			c-0.1,0.3-0.2,0.6-0.4,0.9c0,0,0,0,0,0c-0.6,0.3-0.7,0.8-0.6,1.3c1.2,4.4,0.8,8.6-1.1,12.6c0,0,0.1-0.1,0.1-0.1
			c-1.2,1.2-2.1,2.4-3,3.8c0,0,0.1-0.1,0.1-0.1c-0.4,0.1-0.6,0.3-0.7,0.7c0,0,0.1-0.1,0.1-0.1c-0.4,0-0.7,0.2-0.8,0.6l0,0
			c-3.8,2.5-7.8,3.8-12.4,2.8c-2.4-0.5-2.5,1.6-3.3,2.9c-1.9,1.3-2.9,3.7-5.3,4.6c-2.3,0.3-4.6,1.1-7,0.7l0,0
			c0.1-1.4,1.4-1.2,2.2-1.6c1.5-0.7,3.4-0.9,4.1-2.9c0.3-1,1.6-1.5,1.4-2.8C423.3,295.2,421.6,296.7,419.6,296.3z M482.5,223.8
			l0,0.1c-0.4-0.1-0.6,0.1-0.7,0.5l-0.1,0c-0.4-0.1-0.7,0.1-0.8,0.4c-0.8,0.4-1.6,0.9-2.5,1.3c-1.4-0.3-2.1,0.3-2.4,1.7l0,0
			c-1.1,0-1.7,0.4-1.9,1.5c-0.7,0.6-1.3,1.1-2,1.7c-3.3,2.8-7,4.9-10.2,7.8c-1,0-1.4,0.8-2.1,1.2c-0.4,0.2-0.9,0.4-1.3,0.6
			c-0.7,0.2-1.7,0.6-1.1,1.4c0.6,0.9,1.2-0.2,1.7-0.6c0.5,0,1.1-0.1,1.4-0.6c0.9-0.4,2-0.3,2.7-1.2c7-2.6,13.2-6.5,18.1-12.2
			c1.4,0.1,1.4-0.9,1.5-1.8l0,0c0.6-0.2,0.6-0.7,0.8-1.2c0.4-0.3,1.1-0.4,1-1c-0.1-0.4-0.6-0.4-1-0.3c-0.2-0.1-0.3-0.1-0.5,0
			C482.8,223.2,482.6,223.4,482.5,223.8z M395.2,230.4c0.3-0.2,1,0.4,0.7-0.4C395.9,229.8,395.4,230.2,395.2,230.4
			c-0.4,0-0.9,0-1.3-0.1c-0.1-1.4,1.2-2.6,0.8-4.1c1.1-2.2,3-3.6,5.1-4.8c1.4,0.5,2.4-0.7,3.6-1c0.7,0.1,1.3-0.2,1.9-0.6
			c0.9,0,1.8,0.1,2.7,0.1c1.9,0.5,3.6,1.5,5.2,2.7c1.9,1.4,3,3.5,4.9,4.9c1.7,3,4.2,4.6,7.8,4.5c3.3-0.1,6.5-0.1,9.8,0.9
			c0.1-1.4-0.5-2.3-1.2-3.2c-3.1-3.7-7-4.5-11.4-3.2c-1.4,0.4-2.8,0.7-4.2,0.2c-1.5-3.1-3.6-5.7-6.8-7.1c-2.4-1-4.9-1.6-7.5-0.6
			c-0.9-0.2-1.8,0.1-2.6,0.6c-1.1,0.4-2.3,0.4-3.4,0.4c-1.7-0.6-3.1-1.6-4.9-2c-2.4-0.5-3-0.3-4.5,1.7c-3,4.2-2.5,9.1-3.7,14
			c2.1-0.3,3.6-0.7,5.1-0.1c0.9,0.3,1.1-0.4,1.6-0.8c1.8-0.3,1-1.6,1-2.6l0,0c0.2,0,0.4,0,0.7,0.1
			C394.3,231.1,394.7,231.1,395.2,230.4z M325.5,175.6c-0.3-0.1-0.6-0.2-1-0.2c-0.4,0-1,0.1-1.1,0.3c-0.2,0.5,0.4,0.6,0.7,0.9
			c0.2,0.1,0.4,0.2,0.6,0.2c1.1,0.1,2.2,0.1,3.3,0.2c0.7,0.1,1.5,0.3,2.2,0.4c0.4,0,0.9,0,0.9-0.6c0-0.6-0.4-0.7-0.8-0.8
			c-0.9-0.1-1.9-0.1-2.9-0.2C326.9,175.7,326.2,175.7,325.5,175.6z M329.4,185.8c-1.2,0-2.5-0.1-3.7-0.1c-1.3,0-2.7-0.9-4,1
			c3.3,0.2,6.3,0.5,9.3,0.6c1.3,0.1,2.6,0.5,3.9-0.3c0.9-0.2,1.8-0.4,2.7-0.6c0.9,0.2,1.6,0.2,2-1.1c-1.3-0.1-2.3-0.4-3.3,0.3
			C333.9,185.7,331.6,185.2,329.4,185.8z M387.5,177.9c-2.1,0.2-4.3,0-5.5,2.3c-1.9,1.4-3.8,2.7-5.6,4.1c-3,2.4-2.9,5,0.4,6.8
			c6.2,3.3,12.5,2.9,18.8,0.3c1.1-0.5,1-1.3,1-2.2c0.3-3.3,1.1-6.5,2.4-9.6c0.5-1.1,0.5-1.8-0.7-2.3c-3.8-1.6-4.6-5.1-4.6-8.5
			c0-4.6,2.8-5.5,5.8-4.3c2.2,0.8,1.6,2.5,2.1,4c-2.7-0.2-3.2,0-3.4,1.2c-0.2,1.3,0.8,3,2.1,3.4c0.5,0.2,1.1,0.1,1.6,0.1
			c0.9-0.1,1.7-0.1,2.6,0.2c1.1,0.4,1.9,0.9,2,2.3c0.1,1.2,0,2.2-1.4,2.6c-0.4,0.1-0.9,0.2-1,0.7c-0.8,3.3-1.7,6.6-0.8,10
			c4-1.6,5.9-1,8.3,2.3c0.5,0.7,1.1,1.4,1.7,2c0.7,0.8,1.4,1.6,2.5,0.7c0.9-0.7,0.6-1.5-0.2-2.3c-0.6-0.6-0.6-1.3,0.1-1.6
			c1.3-0.5,2.6,0.1,3.8,0.7c1.1,0.6,1.1,1.8,0.8,3c-1.8,6.2-6.9,6.7-12,4.4c-2.2-3-5.3-3.2-8.7-3.3c-1.5-0.1-2.2,0.3-3,1.3
			c-2.2,3-3.1,6.3-3,10c-0.5,0-1.2-0.1-1.3,0.5c-0.1,0.8,0.8,0.3,1.1,0.6c0.1,0.1,0.4,0.2,0.5,0.3c0.6,1.5,1.1,3.2,2.4,4.3
			c1.8,1.6,3.6,3.4,6.4,2.5c4.2-1.2,7.3-3.6,8.5-8c0.2-0.6,0.4-1.3,0.6-1.9c0.7-1.8,1.9-2.7,3.8-2.6c1.7,0,1.7,1.6,2.1,2.6
			c2.1,4.9,5.1,9,9.9,11.6c2.3,1.3,3.7,0.6,3.9-2.1c0.2-2.4-0.3-4.6-1-6.9c-0.4-1.3-0.8-2.6-0.8-3.9c-0.1-3.9,3-6.3,6.9-4.2
			c2.4,1.3,5.1,2.2,7.7,3.1c1,0.3,2.3,0.8,3.2,0c1.1-0.9,0-2.1-0.3-3c-1.4-4.6-4.5-8.3-6.9-12.4c-1.4-2.4-2.8-3.6-5.8-2.5
			c-1.9,0.7-4.1,0.6-6.3,0.6c-2,0-4,0-6,0.1c-2.4,0.1-2.9-0.5-1.9-2.7c0.2-0.5,0.6-0.9,0.9-1.4c1.9-2.8,1.8-5.6,0.1-8.4
			c-0.6-1.1-1.5-1.9-2.4-2.7c-1.4-1.4-0.9-3.5,0.8-4.4c2.2-1.2,4-0.7,5.2,1.7c1.7,3.4,2.2,6.9,1.4,10.6c-0.2,1.1-0.8,2.2-0.7,3.4
			c8.8,0.2,18.7-3.6,22.3-8.5c-0.5-0.9-1.5-0.8-2.4-0.9c-2.8-0.3-5.5-0.2-8.3,0.1c-1.6,0.2-3.3,0.4-5,0.1c-1.2-0.2-1.8-0.7-1.6-2.3
			c0.3-2.2,1.6-3.6,3.1-4.9c2.4-2.2,4.9-4.2,6.4-7.1l-0.2-0.1l0.1,0.2c1.2-0.7,1.9-1.9,2.4-3.1c0.7-1.4,2.5-3.1,0.9-4.4
			c-1.1-1-2.9,0.3-4.3,1c-3.2,1.7-6.3,3.7-9.2,6c-1,0.7-1.9,1.5-3.2,1.6c-2.2,0.2-2.5,0-2-2.3c0.2-0.9,0.5-1.7,0.7-2.6
			c1.4-4.2,1.5-8.5,0.7-12.8c-0.3-1.9-1-3.6-2.2-5.1c-1.1-1.4-2-1.5-3.3-0.3c-0.7,0.6-1.4,1.4-2,2.2c-2.1,2.7-2.7,6-3.4,9.3
			c-0.7,2.8-0.6,5.7-1.5,8.5c-0.5,1.5-1.5,1.8-2.8,1.7c-1.3-0.1-1.1-1.3-1.1-2.1c-0.1-3.9-1.7-7.3-3.9-10.4c-2.7-3.9-6.2-6.9-11-8
			c-3.8-0.9-5.7,1-4.9,4.9c0.4,2,1.3,3.7,2.2,5.5c1.6,3.3,3.8,6.3,5.8,9.3c1.1,1.6,1,2.8-0.2,3.8c-1.1,0.8-2.2,0.8-3.4,0.2
			c-2.5-1.2-4.9-2.5-7.6-3.4c-3.5-1.2-7.1-1.6-10.8-1.2c-2.8,0.3-3.6,1.8-2.1,4.4c1,1.7,2.2,3.3,3.3,4.9c0.8,1.6,1.5,3.1,3.4,3.9
			c1.6,0.7,1.8,1.7,1.8,3.7c1.2,0.2,1.9-1.1,3-1l0,0c0.1,1,1,1.3,1.7,1.8c1.7,1.2,1.7,1.6,0.6,3.4
			C388,177.2,387.7,177.6,387.5,177.9L387.5,177.9z M382.2,226.9c0.3-1.1,0.5-2.1,0.8-3.2c1-4,2.4-7.8,6.5-9.9
			c0.9-0.5,1.2-1.2,0.7-2.2c-1-2.3-0.8-4.7-0.7-7.2c0.1-2.8,1.3-5.2,2.3-7.7c-1.2-0.6-2,0-2.8,0.1c-4.9,0.9-9.7,1.2-14.3-1
			c-2.8-1.3-5.6-1.9-8.6-2.2c-1.4-0.2-2.8-0.5-4.2-0.9c-4.8-1.3-9.2-3.6-13.5-6.3c-1.6,2.7-4.1,4.2-6.5,5.7
			c-0.9-0.2-1.8,0.1-1.9,0.9c-0.1,1,0.9,1,1.7,1c0.5,0.5,1,0.9,1.4,1.4c1.7,2.1,3.7,3.1,6.6,2.6c4.3-0.8,8.5-0.2,12.8,0.7
			c3.6,0.8,6.5,2.7,8.9,5.3c2.7,3.1,4.6,6.7,6.2,10.5c1.7,4,2.6,8.1,3.8,12.3c-0.7,1-0.2,1.9,0.3,3.2
			C382.2,228.7,382.3,227.8,382.2,226.9z M318.2,179.8c0.3,0,0.6-0.1,0.5-0.5c0-0.2-0.2-0.4-0.4-0.4c-0.3-0.1-0.6,0.1-0.7,0.4
			C317.6,179.6,317.9,179.7,318.2,179.8z M329.5,154.6c-0.1-0.2-0.1-0.3-0.2-0.5c-0.1,0.1-0.2,0.1-0.2,0.2c0,0.2,0.1,0.3,0.2,0.5
			C329.3,154.7,329.4,154.7,329.5,154.6z M409.9,290.3c0.1,0.1,0.1,0.2,0.2,0.2c0.1-0.1,0.2-0.1,0.2-0.2c0.1-0.3,0-0.4-0.2-0.3
			C410,290.1,410,290.2,409.9,290.3z M474,227.1c0-0.1-0.1-0.2-0.1-0.2c0,0-0.1,0.1-0.2,0.1c0.1,0.1,0.1,0.2,0.2,0.3
			C474,227.3,474,227.2,474,227.1z"/>
		<path class="st0" d="M411.1,261c1.2,0.8,2,2,2.8,3.1c0.7,0.9,1.1,2,0.4,3c-1.1,1.6,0,1.9,1.1,2.2c1.9,0.5,3.9,0.5,5.7-0.5
			c0.8,0,1-0.5,0.9-1.2l0,0c0.4,0.2,1.1,0.5,1.1,0.2c0.5-1.8,1.4-3.3,1.5-5.2c0.1-1.5-0.3-2.2-1.5-2.8c-0.7-1.1-1.2-2.3-2-3.3
			c-1-1.4-1.4-2.4,0.7-3.1c1.1-0.4,0.7-1.5,0.6-2.3c-0.4-2.5-1.6-4.6-2.9-6.8c0.1-0.7,0.1-1.4,0.2-2.1c0.3-0.1,1,0.4,0.7-0.4
			c-0.1-0.2-0.5,0.2-0.7,0.5c-0.6-0.3-0.6-0.9-0.6-1.4l0,0c1.6,0.2,3.6-0.1,4.1,2.2c0,0.1,0.8,0.1,1.3,0.1c1.8,2,3.2,4.2,4.6,6.5
			c1.2,2,1.7,4.1,0.7,6c-0.9,1.8-0.3,3.1,0.4,4.6c1.9,4-0.2,10.7-3.7,12.6c-5.2,2.9-12.5,4-17.8-1.3c-1.1-1.1-2.3-1.8-4-2
			c-6.3-0.8-10.3-4.8-13.5-9.9c-2.5-4-0.7-8.3,3.8-9.7c0.5-0.2,1.1-0.3,1.6-0.5c0.4-0.1,0.9,0,1.3-0.6c-0.2-1.5-1.1-3.1-1-4.9
			c0.4-4.1,3-6.4,7.1-5.8c3.1,0.5,5.2,2.3,6.9,4.8c0.8,1.2,0.3,2.1-1.2,2.1c-0.8,0-1.5-0.2-2-0.9c-0.3-0.4-0.6-1-1-1.3
			c-1.1-0.8-2.3-1.6-3.7-1c-1.3,0.5-1.4,1.9-1.5,3.1c-0.2,1.8,0.4,3.5,1.2,5.1c0.7,1.4,0.5,2.4-1.4,2.4c-0.3,0-0.6,0.2-1,0.3
			c-1.9,0.2-3.5,0.8-4.1,2.8c-0.6,2.3,0.3,4.2,1.8,5.8c1.4,1.5,3.2,2.3,5.4,3.1c0.6-2.5,2.8-2.9,4.9-3.6
			C409.3,260.8,410.2,260.9,411.1,261z"/>
		<path class="st0" d="M408.6,259.4c-0.5-1-0.8-2-1.5-3c-1.6-2.3-1.5-5-1.3-7.7c0.1-1.1,0.7-2,1.8-2.1c2.1-0.3,4.3-0.3,5.9,1.5
			c1.3,1.4,2.1,3.1,2.6,4.9c0.4,1.5,0,2-1.6,2.1c-0.4,0-0.9-0.1-1.3-0.1c-2.4-0.1-2.9,0.6-2.4,2.9c0.1,0.5,0.2,1.1,0.3,1.6
			C410.3,260,409.4,259.5,408.6,259.4z M411.2,252.6c0.1,0.1,0.1,0.1,0.2,0.2c0.1-0.1,0.1-0.1,0.2-0.2c-0.1-0.1-0.2-0.2-0.2-0.2
			C411.3,252.4,411.2,252.5,411.2,252.6z"/>
		<path class="st0" d="M438.7,247.2c-0.1,0.4-0.1,0.9-0.2,1.3c-0.5,1-0.2,1.4,0.8,1.6c-0.8,1.3-2.1,1.9-3.4,2.4
			c-0.6,0.2-1.3,0.6-1.8-0.1c-0.5-0.7,0.1-1.2,0.5-1.7C435.5,249.2,437.3,248.5,438.7,247.2z"/>
		<path class="st0" d="M423.1,259.8c1.1,0.6,1.6,1.3,1.5,2.8c-0.1,1.9-1.1,3.5-1.5,5.2c-0.1,0.3-0.8,0-1.1-0.2
			C423.2,265.1,424.1,262.6,423.1,259.8z"/>
		<path class="st0" d="M418.4,232.7c-0.5,0.4-0.9,0.8-1.4,1.3c-1.8-0.7-2.7-2.2-3.9-3.5c1-0.1,1.9-0.1,2.9-0.2
			c0.4,0,0.6,0.1,0.8,0.5C417.6,232.5,417.6,232.5,418.4,232.7L418.4,232.7z"/>
		<path class="st0" d="M417,233.9c2.7,0.4,5.1,2.1,8,1.9C421.9,236.9,419.3,235.9,417,233.9z"/>
		<path class="st0" d="M424.5,243.1c-0.4,0-1.2,0-1.3-0.1c-0.5-2.4-2.5-2-4.1-2.2C422.5,239.6,422.5,239.6,424.5,243.1z"/>
		<path class="st0" d="M419.7,242.1c-0.1,0.7-0.1,1.4-0.2,2.1c-0.4-0.7-0.8-1.4-1.1-2.2c-0.3-0.7-0.1-1.2,0.7-1.3
			C419.2,241.3,419.2,241.8,419.7,242.1L419.7,242.1z"/>
		<path class="st0" d="M450.8,257.6c0.6,0.6,0.5,1.3,0.5,2c0,0.4,0.1,0.9-0.4,1c-0.6,0-0.9-0.4-1-1
			C450.9,259.3,450.4,258.2,450.8,257.6z"/>
		<path class="st0" d="M440.6,248.9c0-1.2,0.3-2.1,1.5-2.6C441.9,247.4,441.7,248.3,440.6,248.9z"/>
		<path class="st0" d="M439.2,250.1c0.1-0.8-0.2-2.1,1.4-1.2C440.4,249.5,440,250,439.2,250.1z"/>
		<path class="st0" d="M422,267.6c0.1,0.7-0.1,1.2-0.9,1.2C421.2,268.3,421.4,267.8,422,267.6z"/>
		<path class="st0" d="M486.8,147.8c-0.6,0.2-0.7,0.7-0.8,1.3c-1.4,1.1-2.3,2.7-3.4,4c-1.7,0.9-2.6,2.8-4.4,3.6
			c-0.5-1.1-2.5-0.7-2.5-2.3c3.2-3.2,5.9-6.7,8-10.8c3.1-5.9,2.3-11.2-1.8-16.2c-1-1.2-1.9-2.4-2.9-3.6c-2.3-2.8-4.3-5.9-5.3-9.4
			c-0.9-3-2.9-4.8-5.4-6.4c-0.9-0.6-1.8-1.3-2.7-1.9c-0.6-1.3-1.6-1.7-3.1-1.9c0.4,1.2,1,1.9,2,2.2c0.6,0.5,1.2,1.2,0.4,1.9
			c-0.8,0.7-1.7,0.9-2.7,0.2c-1.3-0.9-2-2.6-3.6-3.1c-1.8-2.1-3.7-4-5.4-6.2c-1.3-1.6-1.2-1.7,0.7-3.3c0,0-0.1,0-0.1,0
			c2-0.3,3.4,1.1,5.1,1.7c0,0-0.1,0-0.1,0c1.3,1.4,2.8,2.3,4.5,3c0,0-0.1,0-0.1,0c0.4,0.8,1.1,1.3,2,1.5c0,0-0.1,0-0.1,0
			c0.5,0.8,1.1,1.3,2,1.5c0,0-0.1,0-0.1,0c0.5,0.7,1.1,1.2,2,1.5l0,0c0.5,0.9,1.3,1.4,2.4,2c-0.1-2.1,0-3.9-0.2-5.7
			c-0.4-5.2,1.5-9.9,3.2-14.6c0,0,0,0,0,0c1.4-1.2,2.1-2.9,3-4.5c0,0-0.1,0.1-0.1,0.1c0.4-0.1,0.7-0.3,0.7-0.7c0,0-0.1,0.1-0.1,0.1
			c2.3-1.1,3.3-3,3.5-5.5c0.2-2.9,0.4-5.7,0.9-8.6c0.9-4.9,1.5-9.8,4.4-14.1c0,0-0.1,0.1-0.1,0.1c0.7-0.4,1.6-0.5,2.1-1.3l0,0
			c3.4-1.4,3.6-1.3,5.4,3.9c1.7-1.2,3.4-2.4,5.2-3.4c1.9-1.1,3.1-0.5,3.7,1.6c0.7,2.4,0.7,4.8,0,7.2c-0.5,1.6-1,3.2-1.4,4.8l0,0
			c-0.8,0.4-0.5,1.6-1.3,2c-0.9,0.3-1.8,0.1-1.6-0.8c0.4-2.1-0.1-4.5,1.4-6.1c1.4-1.6,0.5-1.9-0.7-2.4c-0.4,0-0.9-0.1-1.2,0.3
			c-2,2.5-4.4,4.7-5.6,7.8c-0.6,1.6-1.5,3.2-2.7,4.5c-1.2,0.8-3,1-3.3,3.2c1-0.6,1.6-0.9,2.3-1.3c1.3-0.7,1.8,0.1,2.2,1.1
			c0,0.3-0.1,0.6-0.1,0.9c-1.6,1.1-2.8,2.6-4.6,3.4c-1.1,0.3-1.1,1.1-1,1.9l0,0.3l-0.1,0.3c-0.7,0.4-0.7,0.8-0.1,1.3
			c0.1,0.2,0.2,0.4,0.2,0.6c-1.4,0.2-2.2,1.6-3.6,1.8c-0.6-0.3-1.2-0.3-1.6,0.4c-1.1,1.7-2.6,3.2-3,5.2l0,0
			c-2.7,5-2.4,10.3-1.2,15.6c0.2,1.2,0.5,2.3,1.2,3.3c0.9,4,3.5,7.2,6.2,10.1c6.2,6.6,8.4,14.1,5.6,22.9c-0.1,0.3-0.1,0.7-0.1,1
			C488.1,144.7,487.3,146.1,486.8,147.8z M487.6,64.8c0.5,0.1,0.7-0.2,0.7-0.5c0-0.2-0.1-0.4-0.2-0.5c-0.3-0.2-0.6-0.2-0.7,0.2
			C487.3,64.3,487.3,64.6,487.6,64.8z M489.1,62.3c0.1-0.2,0.2-0.3,0.3-0.5c0,0-0.1-0.2-0.2-0.2c-0.1,0.2-0.2,0.3-0.3,0.5
			C488.9,62.1,489.1,62.2,489.1,62.3z"/>
		<path class="st0" d="M475.8,154.3c0,1.7,2,1.2,2.5,2.3c-0.2,0.2-0.4,0.4-0.6,0.7c-1.7,0.6-2.7,2.2-4.3,3c-1,0.6-1.9,1.1-2.9,1.7
			c0,0,0.1,0,0.1,0c-0.6,0-1.1,0.2-1.4,0.7l0,0c-3.9,0.8-7.8,1.8-11.9,1.4c-0.8-0.2-1.6-0.4-2.1,0.4l0,0c-0.5-0.1-1,0.1-1.4,0.4
			c-1,0.8-1.2,0.1-1.3-0.7l0.1,0.1l-0.1-0.1c0.7,0,0.9-0.5,1-1.1l0.1,0c0.7-0.3,2.5,1.1,2-1.2c3.6-1.5,7.6-1.5,11.3-2.6
			C470,158.2,473,156.6,475.8,154.3z M461.6,162.4c0.1,0,0.2-0.1,0.2-0.1c0-0.1,0-0.2,0-0.2c-0.1-0.2-0.3-0.1-0.3,0.1
			C461.4,162.3,461.5,162.3,461.6,162.4z"/>
		<path class="st0" d="M452.3,164.1c0.2,0.8,0.3,1.5,1.3,0.7c0.4-0.3,0.9-0.5,1.4-0.4c-0.1,0.2-0.1,0.3-0.1,0.5c0,0,0,0,0,0
			c-1.4,0.3-1.4,1.1-0.8,2.1c-2.5-1.4-5.3-0.6-7.9-1.3c1.1-0.6,2.4-0.3,3.5-0.2C451.1,165.7,451.6,164.9,452.3,164.1z"/>
		<path class="st0" d="M464.6,106.3c-1-0.3-1.6-1-2-2.2c1.5,0.2,2.5,0.6,3.1,1.9C465.3,106.1,464.8,105.7,464.6,106.3z"/>
		<path class="st0" d="M441,166.2c-0.5,0.5-1.2,0.6-1.8,0.5c-0.3,0-0.7-0.2-0.8-0.4c-0.2-0.5,0.2-0.8,0.6-0.9
			C439.4,166.2,440.4,165.8,441,166.2z"/>
		<path class="st0" d="M455.3,161.9c0.5,2.3-1.3,0.9-2,1.2C453.9,162.5,454.5,161.9,455.3,161.9z"/>
		<path class="st0" d="M453.3,163.1c-0.1,0.6-0.3,1-1,1.1C452.4,163.6,452.6,163.1,453.3,163.1z"/>
		<path class="st0" d="M312.3,189.5c1.8,0,2.9,1.4,4.6,1.8c1,0.3,2,0.8,3.1,0.9c1.7,0,2.3,0.9,1.9,2.5c-0.1,0.2-0.1,0.4-0.3,0.6
			c-1.8,2.3-3.9,4.5-6.7,5.6c0.4-1.2,1.8-1.6,2.2-2.9c-0.5-0.8-1.3-0.4-2-0.5c-3.2-0.3-6.4,0-9.6-0.7c-1-0.2-1.9-0.1-2.8,0.7
			c-1.8,1.5-4,2.3-6.3,2.8c-9.1,2-18.2,1.5-27.1-1.1c-0.7-0.2-2-0.1-1.8-1.4c0.2-1.5,1-2.1,2.5-1.9c1.7,0.2,3.5,0.4,5.3,0.6
			c0.4,0.5,0.9,0.6,1.5,0.6c7.6,0.9,15.2,1.4,22.6-1.1c0.5-0.1,0.8-0.3,0.6-0.8c-0.4-0.6-1.1-0.5-1.7-0.5l0,0
			c0.1-0.4,0.8-1.2-0.1-1.1c-1.1,0.1-2.1,0.1-3.2-0.1c-0.5-0.1-0.6,0.5-0.6,0.9l0,0c-0.4,0-0.6,0.1-0.8,0.5
			c-3.8,1.2-7.8,1.1-11.7,2.1c-0.8,0.2-1.1-0.3-1.2-1.1c0-0.8,0.2-1.5,0.5-2.2c2.6-0.7,5.2-1.4,8.4-2.3c-5.6-3.4-10.1-7.3-13.8-12.1
			c-0.1-0.7-0.6-0.9-1.2-0.9l0,0c0.1-0.6-0.1-1.1-0.3-1.6c-0.2-0.5-0.4-1.1-1.1-1c-0.6,0.1-1,0.5-1.1,1.1c-0.1,0.4,0,0.9-0.1,1.3
			c-1.3,4.2-2.3,4.8-9.1,4.8c-0.1,0.5-0.2,1-0.3,1.6c-1,4.2-3.7,6.1-8,5c-1.5-0.4-2.3-0.2-3.5,0.9c-3.2,3-7.2,4-11.4,2.6
			c-2.1-0.7-3-0.1-3.7,1.7c-3.5,2.5-7.2,2.5-11,0.8c-3.3-1.4-5.7-3.8-7.1-7.1c-0.5-1.3-1-2.3-2.7-2.4c-2-0.2-3.3-1.7-4.4-3.2
			c-0.5-0.7-1-1.4-1.7-1.9c0,0,0,0.1,0,0.1c0-0.6-0.1-1.1-0.6-1.4l0,0c-1-4.4-1.6-8.7-0.3-13.1c0.4-1.5-0.1-2.3-1.3-3
			c-1.9-1.9-2.6-4.1-1.8-6.6c0.6-1.7-0.2-2.5-1.6-3c-0.4-0.7-1.1-1.2-1.8-1.5c0-0.2,0-0.4-0.1-0.5c0-0.4-0.1-0.7-0.5-0.7l0,0
			c0.2-0.6,0.1-1.1-0.7-1.3c-1.5-2.6-0.2-4.9,0.5-7.3c1.7-0.4,2.5-1.6,2.8-3.2c2.6-2.2,5.9-2.3,9.1-2.9c-0.3-1.5-0.6-2.9-0.9-4.3
			c-0.4-1.6-0.6-3.3-0.4-5c0.2-2.7,1.1-4.9,3.7-6.2c2.4-0.6,4.8-0.5,7,1.1c0.6-0.9,1.1-1.6,1.5-2.4c3-6.4,7.8-8,13.9-4.4
			c0.4,0.2,0.8,0.4,1.1,0.6c1.5,2.4,3.9,4.3,4,7.5c0,1.3,0,2.7-0.2,4c-0.2,0.9-0.8,1.3-1.7,1.2c-0.9-0.1-0.9-0.8-0.9-1.5
			c-0.2-4.6-3.4-6.7-7-8.4c-2.2-1-3.8-0.5-5,1.7c-0.9,1.6-1.6,3.4-2.1,5.2c-0.6,2.3-2.6,2.8-4.4,1.2c-1-0.9-2.1-1.6-3.4-1.9
			c-1.6-0.3-2.1,0-2,1.6c0.1,2.5,0.3,5.1,1.6,7.4c0.3,2.3-0.1,4.6-0.9,6.8c-0.3,0.8-0.6,1.4-1.6,1.3c-2.5-0.1-4.5,1-6.4,2.3
			c-4.1,2.8-4,3.5,0.1,6.1c3.3,2.1,3.7,3.2,2,6.8c-1,2.2-0.7,2.8,1.5,3.4c0.6,0.2,1.3,0.1,2,0.2c2.8,0.8,4.2,3,2.8,5.2
			c-1.5,2.4-1.8,4.9-2,7.5c-0.1,0.6,0,1.3-0.7,1.8c-0.8,0.5-1.3-0.8-2.2-0.2c-0.2,2.6,1.1,4.6,2.7,6.4c0.4,0.5,1,0.9,1.7,0.2
			c0.3,0,0.7,0,1,0c3.5,0,3.6,0,4,3.6c0.3,2.4,1.4,4.2,3.2,5.6c2.7,2.2,5.9,1.7,8.4-1.2c-0.3-0.2-0.5-0.4-0.8-0.5
			c-3.1-0.9-6.2-1.7-7.5-5.2c-0.2-0.5-1-0.8-1.6-1.2c-2.2-1.3-3.4-3.2-3.5-5.8c1.1-0.8,2.1-0.1,3-0.2c1.5,0.9,3,1.9,4.6,2.4
			c0.9,0.3,1.5,0.8,1.8,1.8c0.3,1.1,0.7,2.3,2.2,2c1.2-0.2,2-1.1,2.1-2.3c0.1-1.8,1-1.8,2.4-1.6c1,0.2,1.8,0.5,2.6,1.2
			c2.6,2.2,5.2,1.8,7.6-1.1c-8.2-4.7-8.4-4.9-8.2-9.5c0.9-0.4,1.8,0,2.5,0.4c1.2,0.8,2.3,1.7,3.5,2.5c2.1,1.3,3.9,0.4,4.4-2
			c0.2-1,0-2,0-3c-0.1-2,0.4-2.4,2.3-2.1c1.1,0.2,2.2,0.5,3.3,0c1.4-0.6,1.7-1.7,1.4-3c-0.3-1.1-0.9-1.7-2.2-1.1
			c-1,0.4-1.4-0.2-1.7-1c0.1-0.7,0.3-1.5,0-2.2c-0.7,0.2-0.7,0.7-0.8,1.1c-0.2,0.4-0.3,0.8-0.4,1.2c-2,1.1-3.8,1.2-5.7-0.5
			c-1.6-1.5-2.8-0.9-3,1.3c-0.1,0.6,0,1.3,0.1,2c0.4,2.6,0,3.1-2.5,3.2c-0.5,0-1.1-0.1-1.6-0.1c-3.7-0.5-4.1-0.2-4.6,3.6
			c-0.1,0.9-0.1,1.7-1.3,1.9c-1.2,0.2-2.1,0.3-2.8-1c-1.4-2.4-1.6-4.7-0.2-7.2c1.2-0.8,2.5-1.3,4-1.6c2-0.5,2-0.5,1.3-2.9
			c-1.9,1.7-4.2,2.4-6.5,3.1c-0.3,0-0.7-0.1-1-0.1c-2.2,0.1-3.5-1.2-4.3-3c-0.8-1.9,0.2-3.4,1.5-4.7c0.4-0.4,1.2-0.7,1.1-1.6
			c-0.9-0.7-1.8-1.5-2.8-2.2c-1-0.7-1.8-1.7-2.5-2.6c-2.3-3-1.6-5,2-6.1c1.3-0.4,2.9,0,4.3-0.8c-0.5-1-1-1.8-1.3-2.8
			c-1.6-3.7,0.3-6.1,4.3-5.7c2.2,0.2,4.1,0.9,5.8,2.2c0.9,0.7,1.9,1.4,3.1,2.3c0.3-3.1,2.4-3.9,4.6-4.5c1.2-0.3,1.3-0.9,0.9-1.9
			c1.3-2.2,2.5-4.3,3.8-6.5c3-3.1,6.7-3.8,10.8-3.2c2.6,0.4,4.1,1.9,4.7,4.4c0.6,2.5,0.1,5-0.1,7.5c1.2,1.7,1.3,1.7,2.6,0.3
			c1.1,0.2,2.1,0.3,3.2,0.5c1.8,1.5,3.4,3.1,4.7,5.1c0.7,1.1,1.5,2.3,1.5,3.6c0,5.2,1.7,10.2,0.9,15.5c-0.4,2.7-1.3,5.1-2.9,7.3
			c-0.6,0.8-2.2,1.6-1.5,2.6c0.9,1.4,1.3,3.2,3.4,3.8c3,0.9,5.4,2.9,7.8,4.9c1.1,0.9,1.7,2.3,3.1,2.9c0,0.4,0.2,0.6,0.7,0.6l0,0
			c1,1.7,2.3,3,4.2,3.8c0.5,0.5,0.9,0.9,1.4,1.4c0.3,0.6,0.5,1.2,0.8,1.9c0.9-1,1.6-1.8,0-2.5c-0.4-0.4-0.9-0.9-1.3-1.3
			c-1.4-1.7-2.7-3.5-4.4-4.9c-1.6-2.1-3.4-4.1-4.8-6.3c-2-3-3.4-6.2-3.2-9.9c0.1-2,0.6-3.8,2.5-4.7c2.2-1,4.2-0.8,6,1.1
			c2.6,2.7,5,5.6,7,8.8c3.4,5.6,7,11,9.8,16.9c1.1,2.4,2.4,4.8,1.8,7.6c-0.2,1.1,0.5,1.5,1.2,1.6c4.4,0.7,8.8,2,13.4,1.1
			c0.5,0.2,1.3,0.3,1.4-0.2c0.1-0.5-0.7-0.7-1.2-0.6c-0.7-1-1.8-1-2.8-1.5C315.3,191.5,313.5,190.9,312.3,189.5z M283.5,162.9
			l0.2-0.1L283.5,162.9c-0.1-0.6-0.5-1-1.1-0.8c-0.4,0.1-0.3,0.4,0,0.6c0,0.2,0,0.3-0.1,0.5c-0.2,0.4-0.1,0.7,0.3,0.9
			c1.9,3.7,4.4,7,7.5,9.8c0.4,0.9,1.1,1.5,1.7,2.2c0.8,1.2,1.5,2.5,3.5,3.4c-0.9-2-1.8-3.1-2.7-4.1c-0.5-0.8-0.7-1.8-1.6-2.3
			c-1.9-3.3-4.3-6.3-6.8-9.1C284.3,163.3,284.1,162.9,283.5,162.9z M261.7,170c-0.9-1.9-0.4-3.4,1.1-4.7c0.5-0.2,1-0.6,1.5-0.6
			c1.8,0.2,2.8-1,3.9-2.1c1.8-1.8,1.9-4.2,1.9-6.5c0-1.9-1.2-2.9-3-3.4c-0.6-0.2-0.7-0.8-0.7-1.4c0-1.7-0.1-3.4,2-4.1
			c0.8-0.3,1-0.8,0.6-1.5c-1.7-3.7-4-6.6-8.1-7.7c-0.8-0.2-1.5-0.2-1.8,0.9c2.4,1.2,4.1,2.9,3.5,6c-0.2,1,0.7,1.8,1.2,2.7
			c2.5,4.7,1.3,9.3-3,12.4c-0.8,0.5-1,1-0.7,1.9c0.2,0.6,0.1,1.3,0.2,2c-0.3,0.7-0.3,1.5,0,2.2c0.6,1.4,0.2,2.7-0.4,4
			c-0.9,2.2-2.6,2.8-4.8,2.4c-1.1-0.2-1.5,0.2-1.8,1.3c-0.9,3.5-0.6,4,3.1,4c0.3,0,0.7,0.1,1,0c2-0.3,3.4-1.7,4.3-3.3
			C262.3,172.9,263.3,171.4,261.7,170z M245.7,132.7c3.8,4.9,3.7,10.5,2.8,16.3c2.5,0.2,4.7-1.4,7-0.3c0.2,0.1,0.6-0.2,0.8-0.4
			c1-0.8,1.8-1.6,1.8-3c0-1.5-1-2-2.2-2.6c-2.5-1.1-2.6-1.6-1-3.8c0.5-0.7,1.2-1.3,1.7-2.1c1.4-1.9,1.7-4,1.2-6.3
			c-0.7-3.6-3.1-4.5-6-2.5c-0.8,0.6-1.5,1.3-2.2,2C248.6,131.4,247.4,132.5,245.7,132.7c0-0.2-0.1-0.4-0.3-0.4
			c-0.1,0-0.2,0.2-0.2,0.3C245.4,132.7,245.5,132.7,245.7,132.7z M230.3,153c-0.2,1.2-1.1,1.8-2.1,2.4c-1.2,0.6-2,1.5-2.3,3.2
			c2.7-1.1,4.4-2.7,5.6-4.8c1.2-0.7,2.6-1.3,3.6,0c1,1.4,1.9,1,3.1,0.5c1-0.4,2.2-0.8,3.3-0.5c2.3,0.6,3.9-0.1,4.9-2.1
			c0.3-0.6,1.2-0.7,1.1-1.6c-1.4-0.7-1.9-1.9-1.8-3.5c0.1-1.3,0.1-2.7,0.1-4c0-1.7,0-3.3-0.7-4.9c-0.3-0.7-0.6-1.5-1.6-1.5
			c-0.8-0.1-1.1,0.6-1.5,1.2c-1,1.3-1.4,2.8-1.4,4.4c0,1.7-1.1,1.7-2.2,1.5c-1.1-0.2-1.6-1.1-2.3-1.8c-1.8-2-3.7-3.8-6.3-4.7
			c-1.3-0.4-2,0.1-1.7,1.4c0.1,0.7,0.4,1.5,0.8,2.2c1,1.6,2,3.1,3.1,4.7c-1.5,1.3-3.1,1-4.7,0.5c-1.3-0.4-2.6-0.7-3.9-0.1
			c-1.4,0.5-1.7,1.6-0.5,2.5c1.4,1.1,2.9,2,4.5,2.7C228.7,151,229.6,151.9,230.3,153z M248.9,183.9c-2.7,2.1-5.7,3.3-9.2,2.2
			c-0.9-0.3-1.4,0.2-1.8,1c-0.5,1,0.1,1.5,0.8,1.9c2.5,1.5,9-0.3,10.4-3C249.4,185.3,249.3,184.6,248.9,183.9z M251,181.4
			c0.9,1.1,2.5,1.4,2.7,3.2c0.1,0.8,0.8,0.9,1.5,1c2.6,0.2,4-1.4,3.8-4.5C256.4,181.5,253.8,182.3,251,181.4z M263.3,178.5
			c3.4,0.3,5-0.5,5.8-2.5c0.3-0.7,0.3-1.5-0.5-1.6c-1.1-0.1-2.5-0.9-3.3,0.8C264.8,176.3,264.1,177.3,263.3,178.5z M260.8,149.1
			c-3.6,2.1-3.6,2.1-3,5.3C261.2,152.8,261.6,152.1,260.8,149.1z M266.5,171.9c1.1,0.1,1.5-0.3,1.9-0.6c0.9-0.6,0.3-1.4,0.1-2
			c-0.1-0.5-0.5-0.8-1-0.7c-0.7,0.2-0.9,0.9-0.9,1.6C266.6,170.8,266.6,171.3,266.5,171.9z M248.2,153.4c0.6-0.1,0.9-0.3,0.9-0.6
			c0-0.4-0.3-0.4-0.6-0.4c-0.3,0-0.6,0.2-0.6,0.5C247.9,153.3,248.2,153.4,248.2,153.4z M301.7,191.1c-0.1-0.4-0.3-0.6-0.7-0.5
			c-0.1,0-0.3,0.3-0.3,0.4c0,0.4,0.3,0.6,0.7,0.6C301.5,191.7,301.6,191.3,301.7,191.1z M272.3,158.9c0.2-0.1,0.4-0.1,0.5-0.3
			c0.2-0.2,0.1-0.4-0.1-0.5c-0.2,0-0.4,0.1-0.5,0.2C272.1,158.5,272.2,158.7,272.3,158.9z M269.6,140.5c-0.1-0.2-0.1-0.4-0.2-0.5
			c-0.1-0.1-0.4,0-0.5,0.1c0.1,0.2,0.1,0.4,0.2,0.5C269.3,140.8,269.5,140.7,269.6,140.5z M212.5,172.1c-0.1,0-0.2-0.1-0.2-0.1
			c-0.3,0.1-0.3,0.2-0.1,0.3c0.1,0,0.2,0,0.2,0C212.5,172.3,212.4,172.2,212.5,172.1z M238.3,159.6c0-0.1-0.1-0.2-0.1-0.2
			c0,0-0.1,0.1-0.2,0.1c0.1,0.1,0.2,0.2,0.2,0.3C238.2,159.8,238.3,159.7,238.3,159.6z M294.5,186.8c0-0.1-0.1-0.2-0.1-0.2
			c0,0-0.1,0.1-0.2,0.1c0.1,0.1,0.2,0.2,0.2,0.3C294.5,187,294.5,186.9,294.5,186.8z M299.5,187.6c0-0.1,0-0.2,0-0.2
			c-0.1-0.1-0.2-0.1-0.3-0.1c-0.2,0.1-0.2,0.3,0,0.4C299.3,187.7,299.4,187.6,299.5,187.6z"/>
		<path class="st0" d="M279.6,127.6c-2.3-3.2-2-4.4,1.3-6.6c3.5-2.2,7.4-1.5,11.2-1.2c2.7,0.2,4.9,1.8,7.6,2c0,0,0,0,0,0
			c4.1,2.3,7.8,5.3,12.6,6.3c-1.4-2.1-1.3-4.7-2.9-6.6c0,0,0,0.1,0,0.1c-0.4-2.2-1.4-4.2-2.3-6.2c0,0,0,0.1,0,0.1
			c-0.3-2.2-1.3-4.6,1.1-6.4c0,0-0.1,0-0.1,0c1.5-0.3,2.7-2.3,4.2-1.5c1.9,1,4.3,1.7,5.3,4.1c1.1,2.9,2.4,5.7,2.8,8.8
			c0.6,4.1,2,7.9,3.2,11.8c1.2,3.8,1.3,3.8-2.3,6c-0.2,0.1-0.4,0.2-0.6,0.3c-0.7,0.1-1.4,0.3-2.1,0.4c-1.4-0.6-2.3,0.6-3.2,1.2
			c-5.4,3.4-11.5,5-17.7,5.9c-2.6,0.4-4.8-0.4-6.6-2.2c-1.2-1.2-1.3-1.9,0.1-3c2.3-1.8,4.9-3,7.7-3.6c1.1-0.2,2.2-0.1,3.2-0.8
			c1,0.1,1.9,0.2,2.8-0.5l0,0c1,0.3,1.9,0.1,3-0.3c-2.2-1.4-4.6-1.1-6.9-1.4c-3.1-0.7-6.3-1.4-9.4-2
			C287.2,131.6,283.4,129.7,279.6,127.6z M297.3,129c1,0.8,2.2,0.8,3.4,0.9c0.4,0.1,0.9,0,0.9-0.6c-0.1-0.4-0.5-0.7-1-0.7
			c-3.8-4.7-8.9-4.3-14-3.4C289.8,127.5,293.6,128,297.3,129z M303.9,130.3c-0.2,0.1-0.4,0.1-0.5,0.2c-0.1,0.1,0,0.4,0.1,0.5
			c0.3,0.2,0.6,0,0.6-0.3C304.2,130.6,304,130.5,303.9,130.3z M283.6,122.5c0.1,0,0.2,0.1,0.3,0.1c0.2-0.1,0.2-0.3,0-0.4
			c-0.1,0-0.2,0-0.2,0.1C283.5,122.3,283.6,122.4,283.6,122.5z"/>
		<path class="st0" d="M318.7,139c0.7-0.1,1.4-0.3,2.1-0.4c0.4,0.8,0.8,1.6,1.6,2.2c0,0,0-0.1,0-0.1c0.1,0.4,0.4,0.6,0.7,0.7
			c0,0-0.1-0.1-0.1-0.1c0.6,1.1,1.3,2.2,1.9,3.3c-0.1,0.4-0.3,0.6-0.7,0.7c-1.3-2.1-3.1-3.7-4.9-5.2
			C319.1,139.8,318.9,139.4,318.7,139z"/>
		<path class="st0" d="M308.9,223.8c1.5-3.4,0.4-7.1,0.7-10.6c0.1-1.3,0-2.8,1.8-3c-0.3,1.1-0.5,2.1-0.7,3.2
			c-0.5,3.8,0.4,7.5,0.3,11.3c0,2.9-1,4.1-3.7,4.2c-3.4,0.1-4.8,1.3-5.3,4.5c-0.2,1.8-0.3,3.5-0.4,5.3c0,0.6-0.2,1.6,0.6,1.7
			c2.5,0.5,2.7,2.7,3.5,4.4c2.3,5.3,4,11,9.5,14.3c0.3,0.2,0.5,0.5,0.7,0.7c2,2.4,4.3,4.5,6.3,6.8c1.5,1.8,3.6,3.1,4.7,5.3
			c0.3,1.8,1.3,3.3,2.5,4.6c1.8,2,3.8,2.4,6.2,1.4c0.8-0.3,1.6-0.8,2.5-0.2c1.2,0.8,1.1,1.7-0.5,3.4c-2.9,0.7-5.7,2.1-8.6,0.5
			c-3.6-2.1-6.5-4.9-8-8.9c-0.3-0.7-0.7-1.4-1-2.1c0.3-2.3-1.7-3-3.1-4.2c-1.1-1.3-2.3-2.6-3.8-3.6c-1.6-2.2-4.2-3.3-5.6-5.7
			c0.1-1.2-1-1.6-1.6-3.1c-2.2,4.4-4.6,8.2-7.3,11.7c0,0,0,0,0,0c-3.1,2.9-6.2,5.9-9.9,8.1c0,0,0.1,0,0.1,0
			c-2.1,0.8-4.3,1.4-6.6,0.9c0,0,0.1,0,0.1,0c-5.6-3.6-5.6-3.6-3.9-10c0,0-0.1,0.1-0.1,0.1c1.6-1.1,2.3-2.8,3.5-4.2
			c1.8-1.9,4.2-3.2,5.8-5.2c0,0-0.1,0-0.1,0c2-1,3.9-2.2,5.6-3.7l-0.2-0.2l0.2,0.2c0.9,0.1,1.5-0.8,2.3-0.8c1.2,0,1.8-0.9,2.3-1.8
			c0.3-0.1,1,0.4,0.7-0.4c-0.1-0.2-0.5,0.1-0.7,0.5c-0.9,0-2-0.4-2.7,0.5c-6,0-11.9-0.9-17.7-2.7l0,0c-0.5-0.7-1.3-0.7-2-0.8l0,0
			c-0.3-0.5-0.8-0.7-1.3-0.8l0.1,0.1c-0.5-0.7-1.2-1.2-2-1.4c-0.6-0.7-1.1-1.4-1.7-2c-2-2.2-1-4.7-0.3-6.9c0.7-2,2.9-1.8,4.5-2.2
			c0.5-0.1,1.1,0,1.7,0.1c4.9,0.3,9.2,2.1,13.5,4.2c2.2,1.1,4.4,2.3,7.1,3.8c-0.7-4.6,0.1-8.5,2.7-12c0.7-1,0.3-1.9-0.8-2.4
			c-0.8-0.3-1.7-0.6-2.5-0.8c-6.8-1.6-13.8-1.9-20.8-2.1c-1.4,0-3.4-0.9-4,1.6c-0.1,0.4-0.7,0.3-1.1,0.1c-1.1-0.6-1.9,0-2.6,0.8
			c-0.7,0.7-1.4,1.4-2.1,2.2c-0.4,0-0.7,0.2-0.6,0.7l0,0c-0.5,0.2-0.9,0.4-1.4,0.6c2.6-3.8,5.5-7.2,11.2-7c-2.1-1.6-4.5-1-6.1-2.4
			c-0.1,0-0.2,0-0.3,0.1c-2.1,1.7-4.6,1.1-7,1.4c-2.5,0.3-5,1-7.5,0.4c2.8-1.1,5.8-0.8,8.7-1.2c0.8-0.1,1.5,0,2.3-0.1
			c0.7-0.1,1.7-0.2,1.9-1c0.3-0.9-0.6-1.3-1-1.9c-0.7-1.1-1.3-0.3-1.9,0.1c-1.2,0.9-2.3,0.4-3.4-0.1c-4.1-1.7-8.2-3.1-12-5.4
			c-0.3-0.2-0.6-0.1-1-0.2c0,0,0,0,0,0c-0.3-0.4-0.7-0.8-1-1.2c0.9-0.1,1.7,0.4,2.5,0.8c3.5,1.7,7.1,3.4,10.8,4.7
			c1.1,0.4,1.3-0.3,2.4-0.2c0.3,0.1,0-0.1-0.2-0.2c-0.7-0.1-0.2,0.4-0.2,0.5c0,0.3,0.3,0.5,0.6,0.4c0.1,0,0.2-0.3-0.2-0.8
			c-0.5-0.5-0.5-0.7-0.4-1c0.4,0,1,0.2,1.1-0.3c0.1-0.6-0.4-0.9-0.9-1.1c-0.5-0.6-1-1.3-1.9-1.5l0,0c0-0.2,0-0.4,0-0.6
			c0.6,0,1.2-0.1,0.7-0.9c-0.4-0.7-1.1-1.1-2.2-1.2c0.3,0.2,0.4,0.1,0.2-0.2c-0.2-0.2-0.4-0.4-0.6-0.6c-0.1,0.1-0.3,0.3-0.3,0.4
			c0.2,0.2,0.4,0.4,0.7,0.5c0.4,0.6,0.6,1.1,0.7,1.7c-3.5-2-6.8-4.6-10.8-5.7c-0.1-0.2-0.1-0.4-0.2-0.6c2.4-0.2,4.1,1.8,6.3,2.1
			c0.1-0.8-0.2-1-0.6-1.3c-2.2-1.2-4.4-2.5-6.7-3.5c-2.5-1-5-1.2-7.1,1c1,2,2.5,3.5,3.2,5.5c-0.6-0.4-1.3-0.8-1.9-1.3
			c-3.5-2.9-3.3-4.5,0.6-6.7c0.1-0.1,0.2-0.2,0.2-0.2c6.4,0.3,11.5,3.7,16.4,7.3c4.2,3.1,8,6.7,10.8,11.1c0.7,1.1,1.7,1.4,2.8,1.4
			c4.8-0.2,9.6,0.1,14.6,0.6c-0.2-1.3-1.4-1.4-1.6-2.2c0.8-0.1,1.5,0.4,2.2,0.6c0.6,0.2,1.5,0.4,1.4,1.1c-0.1,1-1,1.5-1.9,1.5
			c-1.4,0.1-2.9,0.1-4.2-0.5c-1.7-0.7-3.5-0.5-5.2-0.7c-0.6-0.1-1.2,0-1.3,0.7c-0.1,0.5,0.3,0.9,0.7,1c3.6,0.7,7.2,0.6,10.8,0.8
			c0.5,0,1.1-0.6,1.7-1c2.2-1.3,2.4-2.7,0.5-4.3c-0.9-0.8-2.1-1.3-2.2-2.7c1.1,0.5,2,1.4,2.9,2.2c0.6,0.5,1.4,1.2,1.3,1.8
			c-0.8,3.3,1.8,2.8,3.5,3.2c2.4,0.6,5,0.7,6.9,2.8c1,1.1,2.1,0.4,3.1,0c0.9-0.4,0.4-1.4,0.3-2.1c-1-4.8-1.1-9.6,0.8-14.3
			c0.6-1.4,1.1-2.9,2.6-3.7c0,0.7-0.3,1.2-0.6,1.8c-0.9,1.6-1.9,3.2-1.3,5.2c0.3,0.8-0.1,1.5-0.5,2.2c-1.9,2.8-0.5,5.6,0.2,8.3
			C307.3,223.9,308.2,223.8,308.9,223.8c-1.1,1.2-2.5,2-3.4,3.5C309.6,228.1,310.1,227.6,308.9,223.8z M285.2,269.1
			c4.4-0.9,13.1-10.6,13.9-15.7C291.3,257.6,285.2,263.9,285.2,269.1z M294.3,244.4c-4.1-4.1-15.1-6.8-19.8-4.6
			C281,242.9,287.5,243.8,294.3,244.4z M297.2,264.4c-0.1-0.4-0.5-0.7-1-1c-0.2-0.1-0.5-0.1-0.5,0.1c-0.2,0.6,0.2,1,0.7,1.2
			C296.6,264.9,296.9,264.9,297.2,264.4z M298,225.1c0.2-0.1,0.5-0.2,0.8-0.3c-0.1-0.1-0.3-0.3-0.4-0.3c-0.3,0-0.8-0.3-1,0.3
			C297.4,224.9,297.8,225,298,225.1z M300.5,243.9c0.5-0.1,0.6-0.4,0.5-0.7c-0.1-0.3-0.4-0.5-0.7-0.4c-0.1,0-0.2,0.4-0.2,0.5
			C300.1,243.7,300.3,244,300.5,243.9z M292.2,254.1c0.1,0.2,0.1,0.4,0.2,0.5c0.1,0.1,0.3-0.1,0.5-0.1c-0.1-0.2-0.1-0.4-0.2-0.5
			C292.6,253.7,292.4,253.8,292.2,254.1z"/>
		<path class="st0" d="M288.1,215.5c0.2,1.4,1.3,1.9,2.2,2.7c1.9,1.6,1.7,3-0.5,4.3c-0.6,0.3-1.1,1-1.7,1c-3.6-0.1-7.2-0.1-10.8-0.8
			c-0.4-0.1-0.8-0.5-0.7-1c0.1-0.7,0.7-0.8,1.3-0.7c1.7,0.2,3.5,0,5.2,0.7c1.4,0.6,2.8,0.5,4.2,0.5c0.9,0,1.8-0.5,1.9-1.5
			c0-0.8-0.8-0.9-1.4-1.1c-0.7-0.3-1.4-0.7-2.2-0.6c-2.2-1.7-4.3-3.4-6.5-5c-1.1-0.8-1.4-1.7-0.7-2.8c0.8-1.2,2.1-1.3,3.2-0.5
			C283.7,212.4,286.3,213.4,288.1,215.5z"/>
		<path class="st0" d="M272,178c0-0.4,0-0.9,0.1-1.3c0.1-0.6,0.5-1,1.1-1.1c0.7-0.1,0.9,0.5,1.1,1c0.3,0.5,0.4,1,0.3,1.6
			C273.7,178.1,272.9,176.6,272,178z"/>
		<path class="st0" d="M274.5,178.2c0.6-0.1,1.1,0.2,1.2,0.9C275.2,179,274.7,178.8,274.5,178.2z"/>
		<path class="st0" d="M372.3,146.6c-0.2,3.5-1.8,5.5-4.4,6.4c-1,0.3-1.6,0.3-2.3-0.5c-0.9-1.1-1.8-2.1-2.5-3.5
			c-1.9-4.1-1.8-5.2,1.5-7.9c0.7-0.6,3.7-0.6,4.7,0C371.4,142.5,371.9,144.7,372.3,146.6z"/>
		<path class="st0" d="M360.5,180.2c0.1-1.8,0.3-3.5,0.4-5.3c0.1-1.1,0.6-1.8,1.6-2.3c1.9-0.8,2.5-0.5,2.6,1.7c0.1,3,0.1,6-0.7,8.9
			c-0.4,1.5-1.2,2.6-2.8,2.9c-1.1,0.2-1.7,0-1.6-1.3c0.2-1.5,0.2-3.1,0.3-4.6C360.4,180.2,360.4,180.2,360.5,180.2z"/>
		<path class="st0" d="M375.9,170.4c1.2,0,2.4,0.2,3.4,0.9c2.5,1.7,5,3.4,7.6,5.2l0,0c-2.4,0.1-4.6,1.2-7,1.4c0.8-1.1,2.4-1,3.3-2.2
			C380.8,173.9,377.9,172.8,375.9,170.4z"/>
		<path class="st0" d="M287.1,364c0.5,0.2,1,0.5,1.5,0.7l0,0c0,0.3-0.1,0.6-0.1,0.8C287.5,365.3,287.1,364.9,287.1,364z"/>
		<path class="st0" d="M178.6,266.8c0-0.4-0.2-0.6-0.6-0.7c-0.4-2.1-1.1-4.2-0.4-6.4c0.3-1-0.2-1.6-1-2.2c-0.7-0.5-1.3-1.1-2-1.6
			c0,0,0,0,0,0c-0.2-0.9-0.4-1.9-0.6-2.8c-0.3-1.5-1.2-1.3-2.1-0.7c0,0,0.1,0,0.1,0c-1.3-0.1-2.7,0-4-0.2c-3.1-0.4-4.4-2.6-3.3-5.5
			c0.6-1.5,1.4-2.9,2.3-4.5c-1-0.4-2-0.6-2.9-1c-0.9-0.3-1.9-0.7-2.7-1.1c-2.7-1.5-3.1-3.5-1.1-5.9c0.6-0.8,1.3-1.4,2-2.2l0,0
			c2.5-1.4,2.5-1.6,1-3.5c-0.6-0.8-1.4-1.4-1.9-2.2c-1.9-2.8-1.2-6.2,1.9-7.3c4.9-1.8,10-2.2,15,0.2c-1.1,2.3-1.1,2.3-3.3,1.7
			c-3-0.7-5.9-0.6-8.8,0.4c-1.8,0.6-1.9,0.9-0.8,2.6c0.5,0.7,1.1,1.4,1.6,2.1c2.1,2.5,1.9,5.1-0.4,7.3c-1,0.9-2.2,1.5-3,2.6
			c0.6,1.2,1.7,1.7,2.8,2.2c1.5,0.6,2.9,1.2,4.4-0.6c1.5-1.9,4-2.7,6.3-4c-2-1.2-3.7-2.7-4.8-4.5c-1.1-1.7-0.9-2.4,0.8-3.5
			c2.6-1.5,5.5-2.3,8.4-2.7c0.9,0.1,2.1,0.6,2.6-0.6c0.4-1-0.5-1.6-1-2.3c-1.6-2.2-1.7-2.3,0.2-4.3c0.8-0.8,0.3-1.4,0.1-2.1
			c4.5-2.2,8.6-0.5,12.6,1.6c0.5,2.2,2.1,2.4,3.9,2.2c0.4,0.1,0.8,0.2,1.2,0.3c0,0-0.1-0.1-0.1-0.1c0.2,0.8,1.2,0.6,1.4,1.2
			c0.2,1.1,1,1.5,2,1.4c1.5,0.7,3.1,1.2,4.4,2.3c0.1,1,1.4,1.2,1.6,2c0.6,2.3,1.5,0.5,2.3,0.3l0,0c0.3,0.7,0.8,0.8,1.4,0.7l0,0
			c-0.4,1.8-0.9,2.3-2.4,1.8c-1-0.3-2-0.8-3.1-0.6l0,0c-0.3-0.7-0.8-0.8-1.4-0.7c-5-2.5-10-5.1-15.1-7.6c-0.8-0.4-1.7-0.6-2.5-0.9
			c-0.5-0.2-1.1-0.4-1.6,0.1c-0.6,0.6-0.2,1.3,0.1,1.8c0.3,0.6,0.8,1.1,1.2,1.6c1.2,1.4,2.3,2.9,3.2,4.6c-1.5,1.3-3.1,1.8-4.9,1.8
			c-2.1,0-3.9,0.6-5.8,1.3c-1.3,0.5-1.1,1.2,0.2,1.6c0.3,0.4,0.4,0.8,0.8,1.1c2.8,2.1,2.3,3.6-0.9,4.9c-1.6,0.6-3.3,1.3-4.2,2.9
			c0.6,0.5,1.2,0.4,1.7,0.5c1.4,0.2,2.9,0.3,4.2,0.8c1.3,0.4,2.5,1.5,2.3,2.9c-0.2,1.2-1.7,1.3-2.8,1.3c-4.2,0.1-8.4,0.5-12.2-1.7
			c-0.6,0.9-1.2,1.5-1.7,2.3c-1,1.7-0.6,2.6,1.3,3.3c1.3,0.5,2.6,0.4,3.9,0.1c1.5-0.3,3-0.7,4.5-1.3c0.8-0.3,1.8-0.4,2.3,0.6
			c0.4,0.8-0.3,1.3-0.8,1.9c-0.7,0.8-1.6,1.1-2.4,1.7c-1.8,1.3-1.7,3,0,4.4c0.5,0.4,1.2,0.6,1.8,0.9c1.3,0.6,1.6,1.7,1.7,3
			c0,0.8-0.3,1.5-0.4,2.3c-0.3,1.7,0.2,2.2,1.9,2.3c1.2,0.1,2.4-0.2,3.6-0.4c2.6-0.4,4.2,0.9,4.3,3.2c0.1,1-0.8,2.4,0.6,3
			c1.1,0.4,2-0.7,2.9-1.4c0.6-0.4,1.2-1,1.7-1.5c0.7-0.7,0.7-1.3-0.1-2c-3-2.5-3.1-5.9-2.7-9.4c0.1-0.9,1-1.8,0.2-2.8
			c-0.4,0.1-0.7,0.2-1,0.3c-1.7,0.9-3.2,1.3-4.8-0.2c-1.8-1.6-3.1-3.2-2.1-5.7c0.7-1.9,1.1-3.8,2.1-5.6c1.8-1.8,3.6-3.5,5.9-4.7
			c5.9-3,12-5.4,18.6-6.4c2.8,0.2,2.8,0.2,4.2-2.7c0.3-0.7,1-1.1,1.5-1.7c0.3-0.4,0.6-0.7,0.9-1.1c0,0-0.1,0-0.1,0
			c2.1-0.9,3.9,0.4,5.7,1c0,0-0.1-0.1-0.1-0.1c2.7,3.3,2.7,3.3,6.1,1.7c0.3-0.1,0.5-0.3,0.8-0.5l0,0c4.1-1.3,8.2-2.5,12.3-3.8
			c3.5-0.2,6.8-1.8,10.4-1.6c2.5,0.7,5,0,7.5-0.4c2.3-0.3,4.9,0.3,7-1.4c0.1-0.1,0.3-0.1,0.3-0.1c1.6,1.4,4,0.8,6.1,2.4
			c-5.7-0.2-8.6,3.2-11.2,7c0,0.5,0,0.9-0.1,1.4c-2,3.7-5.1,6.5-7.5,9.9c-0.3,0.1-0.6,0.2-0.9,0.4c-2.4,2.2-5,2.1-7.6,0.4
			c-0.2-0.7-0.7-1-1.2-1.4c0.1-1.9,0.3-3.8,0.4-5.7c1-1.5,2-3,3-4.5c0.4,0,0.6-0.2,0.7-0.6c1.7-1.2,3.4-2.4,5-4.5
			c-7,0.9-13.3,2.1-19.3,4.6c-1.2,0.1-2.4,0.4-3.4,1.2c-0.6,0-1.1,0-1.4,0.5c-4.9,1.5-4.9,0.6-5.7,6.2c-0.3,2-0.3,3.9,0.2,5.9
			c0.8,3.1,0.9,6.3,2,9.3c0.3,2.6,0.7,5.2,1,7.8c-0.9,1.3-1.7,2.6,0.2,3.9c0.3,0.2,0.5,0.6,0.8,1c0.8,0.8,0.3,2,1,2.9
			c0,3.1,0.6,6.3-1.1,9.2c-1.1,0.1-1.2,1.5-2.1,1.8c0-0.1,0-0.2-0.1-0.3c0,0-0.1,0-0.2-0.1c0.1,0.1,0.2,0.2,0.3,0.3l0,0.3l0,0.3
			c-0.8,0.3-1.6,0.5-1.5,1.8c0,2-0.3,4-0.5,6c-1,0.8-1.8,1.8-3.3,1.4c-1.2-0.3-1.7,0.6-2.2,1.5c-0.8,0.1-1.5,0.5-2,1.2
			c-4.6,1.3-7.9-0.9-10.8-4.1c0-0.5,0-1.1-0.5-1.4c0.1-1.4-0.4-2.2-1.9-2.1c-1-0.6-2.1-0.8-3.3-0.9c-1.7-1.3-3.7-2.2-5.1-4.1
			c-1-1.3-0.6-3.5-1.9-4c-1.3-0.5-3-0.2-4.4-0.9c-0.4-0.2-0.8-0.4-1.2-0.6c-0.4-0.6-1.2-1.2-1.2-1.9c-0.2-2.7-2-2.9-4-2.9
			c-1.4,0-2.4-1.2-3.7-1.2C179.5,267.1,179.1,266.9,178.6,266.8z M201.1,267.8c0.1-0.5-0.1-0.9-0.6-0.7c-0.3,0.1-0.4,0.5-0.2,0.8
			l-0.1,0.3l0,0.3c-0.3,0.2-0.5,0.4-0.1,0.7c-0.3,0.8-0.6,1.6-0.9,2.4c-1.1,2.8-0.4,5.2,2.1,6.9c1.1,0.7,2.3,0.8,3.5,1
			c3.1,0.4,5.5,1.5,6.4,4.7c0.5,1.7,1.8,1.8,3.2,1.2c0.8-0.3,1.5-0.9,2.2-1.4c0.9-0.7,1.8-1.3,3-1.1c1.6,0.3,1.7-0.7,2-1.9
			c1-3.9-1.6-6.3-3.3-9.1c-3.1,2.7-5.3,2.6-7.9-0.1c-0.8-0.8-1.3-2-2.5-2.5c-2.8,2.9-2.8,2.9-5.7,0.7c0-0.4-0.1-0.7-0.6-0.8l0,0
			C201.7,268.7,201.7,268.1,201.1,267.8L201.1,267.8z M214.6,234c-0.5,0-1,0.1-1.4,0.5c-0.5,0.1-1.1,0.2-1.6,0.4
			c-5.5,1.9-10.6,4.8-15.5,7.9c-0.5,0.2-1,0.3-1.5,0.6c-1.7,0.8-1.7,0.9-0.2,2.8c0.2-1.9,2.3-1.5,3-2.7c1.5-0.2,2.8,1.7,4.6,0.2
			c3.9-3.2,8.2-5.9,12.6-8.4c0.7-0.1,1.3-0.4,1.7-1c0.3-0.1,0.6-0.1,0.8-0.3c0.2-0.2,0-0.4-0.3-0.4
			C215.9,233.4,215.2,233.5,214.6,234z M255.6,231.5c0.5,0.1,1.1,0.1,1.2-0.6c0-0.1-0.1-0.3-0.1-0.3
			C256,230.7,255.7,231,255.6,231.5c-2,1-3.1,2.6-3.9,4.6C253.5,235.1,255,233.7,255.6,231.5z M205.3,262.9
			c-0.3,0.7-0.5,1.4-0.2,2.4c1-1,1.4-1.9,1.7-2.9c3.3-8.7,6.6-17.5,11.5-25.5c-6,2.4-11.2,6.2-16.4,9.7c-0.9,0.6-1,1.4-1.3,2.2
			c-0.7,1.7-1.3,3.5-1.9,5.3c-0.6,1.8-0.6,3.7-0.3,5.6c0.2,1.3,0.7,2,2.3,1.5C203.5,260.1,203.5,260.2,205.3,262.9z M220.8,240.9
			c-0.3,0.1-0.4,0.2-0.5,0.2c-4.1,6.9-7,14.4-9.6,22c-0.5,1.5,0.7,3.6,2.2,4.2c1.8,0.8,2.6-0.4,3.5-1.6c0.2-0.3,0.3-0.6,0.5-0.9
			c1-1.5,1.6-1.5,2.8-0.1c1.1,1.3,1.7,2.9,2.2,4.4c0.5,1.5,1.4,2.8,2.2,4.1c0.4,0.7,1,1.2,1.9,1c1.1-0.3,0.7-1.2,0.7-1.9
			c0-0.4-0.2-0.9-0.3-1.3c-1.1-5.5-2.2-11-3.3-16.5C222.2,250,221.5,245.5,220.8,240.9z M182.5,226.3c0.2-0.1,0.4-0.2,0.4-0.3
			c0-0.2-0.1-0.5-0.2-0.5c-0.3-0.1-0.6,0-0.6,0.4C182.2,226,182.4,226.2,182.5,226.3z M169.3,241.4c0.2-0.1,0.4-0.1,0.5-0.2
			c0.1-0.1,0-0.4-0.1-0.5c-0.3-0.2-0.6-0.1-0.7,0.2C169,241.1,169.2,241.3,169.3,241.4z M173,238.9c-0.2,0.1-0.4,0.1-0.5,0.2
			c-0.1,0.1,0,0.4,0.1,0.5c0.3,0.2,0.6,0,0.6-0.3C173.3,239.1,173.1,239,173,238.9z M219.7,227.1c0-0.1-0.1-0.2-0.1-0.2
			c0,0-0.1,0.1-0.2,0.1c0.1,0.1,0.2,0.2,0.2,0.3C219.6,227.2,219.6,227.2,219.7,227.1z M190.3,214.8c0.1,0.1,0.1,0.2,0.2,0.2
			c0.2,0.1,0.4,0,0.5-0.2c0-0.1-0.1-0.2-0.2-0.2C190.7,214.6,190.5,214.7,190.3,214.8z M186,220.3c0-0.1,0.1-0.2,0.1-0.2
			c-0.1-0.3-0.2-0.3-0.3-0.1c0,0.1,0,0.2,0,0.3C185.8,220.3,185.9,220.3,186,220.3z M198.7,218.5c0.1,0,0.2-0.1,0.2-0.1
			c0-0.1,0-0.2,0-0.3c-0.2-0.2-0.3-0.1-0.3,0.1C198.6,218.4,198.6,218.5,198.7,218.5z"/>
		<path class="st0" d="M183.4,213.2c0.2,0.7,0.6,1.3-0.1,2.1c-1.9,2-1.8,2.1-0.2,4.3c0.5,0.7,1.5,1.3,1,2.3
			c-0.5,1.2-1.7,0.7-2.6,0.6c0.5-0.7,1.5-0.2,2-0.9C179.9,216.8,179.9,214.9,183.4,213.2z"/>
		<path class="st0" d="M199.9,217c-1.8,0.1-3.4,0-3.9-2.2c0.4,0.1,0.8,0.1,1.2,0.2c0,0,0,0,0,0C197.6,216.3,199.2,216,199.9,217z"/>
		<path class="st0" d="M489.5,151.5c0.6,0.1,1.1,0,1.4-0.5c1-0.2,1.9-0.5,2.7-1.2c1.7-0.4,3.3-0.7,4.8-1.7c1.8-0.4,3.7-0.6,5.5-1.2
			c4.5-1.6,9-0.9,13.5-0.4c6,0.6,12,1.5,18.1,0.3c1.4-0.3,2.9-0.2,3.6,1.5c0.2,0.5,0.7,0.9,1,1.3c1.2,1.4,1.2,2-0.2,3.2
			c-1.7,1.5-3.7,2.3-5.8,3c-7.6,2.4-15.4,2.6-23.3,1.8c-7.3-0.7-14.6-1.1-21.8,0.4c-0.8,0.2-1.8,0-2.4,1.2c3.3,0.5,6.6,0.8,9.9,1.3
			c3.8,0.5,7.2,2.2,10.6,3.8c1.5,0.7,3,1.5,4.4,2.2c0,0,0,0,0,0c0.5,0.8,1.1,1.3,2,1.5c0,0-0.1-0.1-0.1-0.1c0.3,0.6,0.7,1.1,1.3,1.4
			c0,0,0,0,0,0c1.8,2.7,1.8,2.7-1.2,3.7c-0.4,0.1-0.9,0.2-1.1,0.5l0,0c-2.4,0.1-4.5-0.9-6.7-1.4c-1.2-0.3-2.4-0.4-3.5-0.6
			c0,0,0,0,0,0c-1.3-0.9-2.8-1.1-4.8-1.5c1.3,1.8,0.6,2.4-0.8,2.9c-1.1,0.3-2.2,0.1-3.3,0c0,0,0.1,0,0.1,0c-1.4-1.1-2.8-2.1-4.6-2.4
			c0,0,0.1,0,0.1,0c-2.3-2-4.9-3.5-7.7-4.6c0,0,0.1,0.1,0.1,0.1c-1.9-1.9-3.8-3.7-5.8-5.6c0.2-0.2,0.3-0.5,0.5-0.7
			c0.6,0.1,1.2,0.1,1.5-0.7c0.3-0.3,0.7-0.6,1-1c1.8-1.3,3.6-2.5,5.4-3.8c1.1-0.4,2.1-0.8,2.9-1.7c0.6,0.1,1.1,0,1.4-0.6
			C488.7,152.1,489.2,152.1,489.5,151.5z M513.6,152c-0.5,2.2-0.5,2.2,1.5,3.6C514.5,154.2,514.1,153.1,513.6,152z M505.2,151.7
			c1,0.6,2,0.4,3.5,0.1C507.2,151.2,506.2,151.1,505.2,151.7z M528.8,149.2c-0.4,0-0.5-0.1-0.6,0c-0.6,0.2-1.3,0.2-1.5,1
			c0,0.1,0.2,0.3,0.4,0.4c0.6,0.1,1.1-0.1,1.4-0.5C528.6,149.9,528.6,149.6,528.8,149.2z"/>
		<path class="st0" d="M475.5,160.5c-0.2,0-0.5,0-0.7,0c-0.2,0-0.5,0-0.7,0c-0.2-0.1-0.4-0.1-0.7-0.2c1.6-0.8,2.6-2.4,4.3-3
			c0.3,0.3,0.5,0.6,0.8,0.9c-0.3,0.3-0.7,0.6-1,1c-0.5,0.1-1.2,0-1.5,0.7C475.8,160,475.6,160.2,475.5,160.5z"/>
		<path class="st0" d="M317.2,84.8c0.1-0.6,0-1.1-0.6-1.3c-0.3-1-0.1-2.1-1.1-2.8c-0.7-3.4-1.9-6.5-3.4-9.6
			c-0.6-3.4-2.3-6.1-4.4-8.7c-1.3-1.7-2.9-2-4.7-1.4c-2.7,0.9-5.4,0.8-8.2,1c-2.6,0.2-4.4-1.1-6.3-2.5c-1.2-0.9-1.1-1.9-0.1-3.1
			c1.5-1.7,3.6-2,5.6-2.7c0-0.2,0-0.5-0.1-0.5c-4.6-2.4-9.4-3.8-14.6-3.2c-5.1,0.7-11.6-3.9-13.4-8c-0.5-1.2,0-2.1,0.3-3.2
			c1.6-2.6,3.9-2.7,6.4-1.9c1.7,0.6,3.5,1.3,5.3,1.4c3.1,2,6.6,3.4,9.6,5.6c1.1,0.8,2.6,0.4,3.9,0.6c4.8,0.8,9.5,2.1,13.8,4.4
			c0.1,0.8,1.1,0.6,1.4,1.2c-0.2,0.5-0.7,1-0.2,1.5c0.5,0.5,0.7-0.1,1-0.3c1.7-0.7,1.6-1.8,0.7-3c-0.4-2.2-0.8-4.4-0.4-6.6
			c0.4-2.3,1.2-2.8,3.4-2.3c2.6,0.5,4.5,1.8,5.6,4.2c0.4,0.8,0.6,1.7,1.3,2.3c0.9,3.6,1.7,7.2,2.6,10.9c0.2,4.6-0.5,9.1-0.7,13.7
			c-0.2,1-0.6,2,0.5,2.8c0,0,0,0,0,0c-0.1,0.3-0.2,0.6-0.4,0.9c-1,1.5-1,1.5,0.8,1.9l0,0c-0.2,0.8-0.3,1.5,0.5,2.1
			c0.8,3,1.3,6.2,3.9,8.4c0.2,0.7,0.6,1.2,1.3,1.4c0,0.2,0,0.4,0.1,0.5c0.1,0.7,0.6,0.9,1.2,0.8c0,0,0,0,0,0c0,0.4,0.3,0.6,0.7,0.6
			c3,1.8,6.2,3.5,9,5.7c0,0.6,0.5,0.9,0.9,1.3c1.2,1.2,0.5,1.6-0.8,1.8c-0.5-0.1-1.1-0.2-1.6-0.4c-0.3-0.5-0.7-0.7-1.3-0.8
			c-0.7-0.8-1.6-1.2-2.6-1.4c-1.5-1.1-3.2-2.1-5.1-2.4c-1.6-1.3-3.4-2.1-5.2-3C320.5,88.5,318.8,86.7,317.2,84.8z M297.6,57.6
			c1.3,0,2.8,0.6,3.9-0.8c-1.7-1.2-3.1-0.3-4.6,0c-0.9-0.3-1.6,0.1-2.2,0.9C295.8,58.2,296.7,58.2,297.6,57.6z M313.9,50.7
			c0.1,0.4,0.1,0.8,0.2,1.2c-0.1,0.4,0,0.7,0.3,0.9c0.3,2,0.3,4.2,1.7,5.9c0.2,0.6,0.4,1.4,1.2,1.1c0.5-0.2,0.4-0.9,0.1-1.4
			c-0.1-0.2-0.2-0.3-0.4-0.5c0.1-2.6-1.1-4.9-1.8-7.3c0.1-0.4,0-0.7-0.4-0.9c0-0.2,0-0.3-0.1-0.5c-0.1-0.7-0.2-1.5-1.1-1.8
			C313.3,48.7,313.3,49.7,313.9,50.7z M273.7,42.3c0.1,1,1,1.1,1.6,1.4c0.6,0.3,1.4,0.5,1.7-0.2c0.4-0.9-0.5-1-1.1-1.1
			C275.1,42.3,274.4,41.7,273.7,42.3z M319.9,77.7c-0.1-0.2-0.2-0.4-0.3-0.4c-0.1,0-0.4,0.1-0.5,0.2c-0.1,0.3,0,0.6,0.4,0.6
			C319.6,78.1,319.8,77.9,319.9,77.7z M317.4,79.3c0.2-0.1,0.4-0.2,0.4-0.3c0-0.1-0.1-0.4-0.2-0.5c-0.3-0.1-0.6,0-0.6,0.4
			C317.1,79.1,317.3,79.2,317.4,79.3z"/>
		<path class="st0" d="M482.1,314c0,0.5,0.1,1,0.6,1.3c0.3,2,1,3.9,2.3,5.5c0.8,1.1,1.7,2.3,2.5,3.4c1.3,2.2,1.3,2.2,3.1,1.2
			c-0.3-1.2-2.5-1.3-1.6-3.1c1.1-0.8,2.1-0.8,3.2,0.1c1.4,1,2.8,2,4.4,2.6c0.2,0.5,0.7,0.7,1.3,0.8c0.5,0.7,1,1.3,1.9,1.4
			c2.2,2.4,5.1,3.9,7.6,5.9c2.2,2.3,4.3,4.6,6.3,7.2c0.7,0.9,1.2,1.8,1.7,2.8c1.2,2.1,0.9,4-0.9,5.6c-3.7,1.6-7.1,0.6-10.3-1.4
			c-2.2-1.3-4.3-2.6-6.5-3.8c-1.9-2.7-4.9-4.4-6.8-7.1c0.1-1-0.9-1.4-1.3-2c0-0.5-0.1-1.1-0.7-1.2c-0.8-0.1-0.7,0.6-0.7,1.1
			c0,0.5,0.2,1,0.6,1.4c0.1,0.3,0.1,0.7,0.5,0.8c0,0.2,0,0.4,0.1,0.5c-0.3,0.8-0.3,1.5,0.5,2c0.4,3.7,2.1,7.1,2,10.9
			c-0.6-0.4-1.2-1-1.9-1.2c-0.9-0.4-1.8,0.2-1.4,1.1c1,2,0.1,4.1,1,6c0.6,1.1,0.2,2.4,0,3.6c-1.5-4.6-1.8-9.5-2.9-14.2
			c-0.4-1.8-1.2-3.6-1.1-5.5c0.3-2.1,0.4-4.1-1.7-5.5l0,0c0.1-0.2,0.2-0.4,0.3-0.6c0.4-0.7,0.7-1.6-0.4-1.8c-0.8-0.2-1,0.7-1.1,1.3
			c-0.2,2.5-0.4,5-0.5,7.5c-0.1,4.7-1.5,9.1-3.3,13.3c-0.3,0.8-0.7,1.6-1.2,2.3c-1.2,1.7-1.9,1.7-3.3,0.1c-0.4-0.4-0.7-0.8-1-1.2
			c-0.8-3.2-1.2-6.5-0.9-9.8c0.3-2.4,0.7-4.8,0.8-7.2c0.2-2.4,0.1-4.8,0.3-7.3c0.1-1.2-0.7-1.8-1.7-2.1c-0.3-0.1-0.7,0-0.9,0.2
			c-0.7,0.9,0.8,1.2,0.5,2c0,0.1,0,0.2,0.1,0.3c0,0,0,0,0,0c-1.4,0.5-2.5,1.4-2.3,3.1l0,0c-0.4,0.1-0.6,0.3-0.7,0.7l0,0
			c-0.5,0.1-0.7,0.3-0.7,0.8c0,0.2,0,0.4-0.3,0.4c-0.4,0-0.6,0.3-0.6,0.6c-0.1,0.6-0.6,0.9-1,1.3c-1.1,1.1-2.2,1.8-3.7,0.7
			c-1.5-1.2-2.2-2.7-1.5-4.3c0.7-1.6,1.5-3.2,2.3-4.7c0.6-1.2,1.3-2.3,1.5-3.6c0.2-0.2,0.5-0.4,0.7-0.7c2.4-5,4.6-10.2,7.3-15.1
			c1.4-2.6,1.4-4.7,0.1-7c0-3.1,0-3.1,3.2-3.5c0.1,0,0.3-0.3,0.4-0.5c5.3-2.6,10.8-2.7,16.3-0.6c3.7,1.4,7.1,3.5,10,6.3
			c1.2,1.1,2.7,2.4,2,4.2c-0.8,2.1-2.4,3.7-4.8,4c-6.8,0.9-12.8-1.4-18.4-5c-0.6-0.4-1.1-0.8-1.6-1.2c-0.3-1-1-1.6-1.9-0.8
			c-0.8,0.6,0.2,1.1,0.5,1.6c0.1,0.2,0.5,0.3,0.8,0.5c0.7,1.4,1.4,2.9,2.2,4.3C481.5,313.2,481.6,313.7,482.1,314z M477.3,348.9
			c3.9-11.8,5.3-23.6-0.6-36c-0.9,2.9-2.3,4.9-2.7,7.2c3.1,1.4,3.7,2.1,3.5,5c-0.2,2.4-0.4,4.8-0.7,7.2c-0.6,5.5-0.8,11-0.3,16.5
			c-0.1,0.4-0.3,1,0.2,1.1C477.4,350.1,477.2,349.4,477.3,348.9z M497.9,309.4c-3.9-4.6-9.7-7-15.3-4.9
			C487.5,308.6,492.9,310.4,497.9,309.4z M488.6,343.2c-0.1,2.6,0,3.1,0.6,3.4c0.2,0.1,0.5,0,0.6-0.1c1.2-1.1-0.7-1.8-0.4-2.8
			C489.4,343.6,489.1,343.4,488.6,343.2z M507.3,345c0.4,0.1,0.8,0,0.8-0.3c0.1-0.5-0.3-0.8-0.7-1c-0.2-0.1-0.6,0.2-0.7,0.5
			C506.4,344.7,506.9,344.8,507.3,345z M468,333.6c-0.1-0.2-0.1-0.4-0.3-0.5c-0.1-0.1-0.5,0-0.5,0.2c-0.2,0.3,0,0.6,0.3,0.6
			C467.7,333.9,467.9,333.7,468,333.6z M475.1,330.3c0.2-0.2,0.4-0.4,0.6-0.6c0.1-0.1-0.1-0.5-0.1-0.5c-0.5,0-0.7,0.3-0.8,0.7
			C474.7,330,474.9,330.1,475.1,330.3z"/>
		<path class="st0" d="M476.5,299.3c-0.1,0.2-0.2,0.5-0.4,0.5c-3.2,0.4-3.2,0.4-3.2,3.5c-1.8-3.1-2.9-6.5-4.4-9.7
			c-1.1-2.3-2.1-4.4-3.6-6.4c-1-2.6-2.4-4.9-4.2-7c-0.4-2-1.7-3.4-3-4.9c-0.4-1-0.9-2.1-1.8-2.8c-0.2-1-1-1.6-1.4-2.4
			c-1.5,0-1.6,1.5-2.6,1.9c0.9-2.6,1-2.6,4.1-2.6c0.1,0.3,0.2,0.4,0.3,0.2c0,0-0.2-0.1-0.3-0.2c-1.9-3.6,0.4-7.2,0.1-10.8
			c0-0.6,0.4-1,1-1c0.9,0,1.3,0.7,1.5,1.5c-0.8-0.3-1.8-1.2-1.9,0.7c-0.1,1.9-0.4,3.7-0.7,5.5c-0.2,1.1,0.1,1.9,0.8,2.7
			c1.3,1.7,2.7,3.4,4.1,5.1c0,0.4,0.2,0.6,0.6,0.7c1.6,2.9,3.2,5.8,5.4,8.4c0.1,0.9,0.4,1.6,1.3,2c0.5,1.5,1.4,2.9,2.3,4.2
			c0.9,2.4,2.2,4.7,3.5,6.9C474.7,296.8,474.1,299,476.5,299.3z"/>
		<path class="st0" d="M479.4,308.3c-0.3-0.2-0.6-0.3-0.8-0.5c-0.3-0.5-1.2-0.9-0.5-1.6c1-0.7,1.6-0.2,1.9,0.8
			C479.5,307.3,479.6,307.9,479.4,308.3z"/>
		<path class="st0" d="M489.8,359.3c0.2-1.2,0.5-2.5,0-3.6c-1-1.9,0-4.1-1-6c-0.4-0.9,0.4-1.4,1.4-1.1c0.7,0.3,1.3,0.8,1.9,1.2
			c0.8,1.8,0.9,3.7,1.2,5.6c0.2,1.2,0.7,2,2,2.1c1.7,1.2,3.6,0.1,5.4,0.6c2.1,0.6,4.3,0.7,6.4,1.5c1.7,1,3.4,2,5.2,3
			c0.9,0.9,1.9,1.9,2.7,2.8c0.5,0.6,1,1.2,1.1,2c1,4.7-0.3,6-4.9,4.9c-2.5-0.6-4.8-1.6-7.1-2.8c-0.8-0.4-1.7-0.9-3-1.5
			c1,4.4,2.3,8,5.3,10.9c0,1.5,0.1,3.1,0.1,4.6c0,2.1-0.8,4.5,2.3,5.3c0.3,0.1,0.6,0.6,0.8,1c1.5,3.9,4.9,5.5,8.3,7.1
			c0.5,0.7,1.1,1.2,1.9,1.5c0.7,0.9,1.5,1.6,2.6,2.1c0,0.4,0.2,0.6,0.6,0.7c0.1,0.7,0.5,1.2,1.2,1.4c0.3,1,0.8,1.8,1.8,2.2
			c0,0.4,0.2,0.6,0.6,0.7c0.1,0.4,0.3,0.6,0.7,0.6c0.4,0.4,0.7,0.8,1.1,1.2c1.5,2.1,0.8,4.5-1.6,5.2c-4.9,1.4-9.4,0.6-13.5-2.5
			c-2.8-2.1-5-4.7-6.8-7.6c-0.3-2.4-1.7-4.4-2.4-7.5c-1.6,2.8-2.8,4.9-4,7c-0.8,0.4-1.2,1.1-1.4,1.9c-0.7,0.1-1.2,0.5-1.4,1.2
			c-1.5,0.7-3,1.4-4.6,1.7c-2.4,0.4-4.6,0-6.4-1.7c-1-1.8-1.8-3.7-0.9-5.8c0.5-0.3,0.7-0.8,0.8-1.3c1.3-1.2,2.2-2.8,3-4.4
			c0.9-0.6,1.2-1.6,1.5-2.6c0.5-0.3,0.7-0.8,0.7-1.3c1.6-1.7,2.7-3.7,3.7-5.7c2-1.7,2.5-4.6,5.1-5.9c0.5-0.3,0.1-1,0-1.5
			c-0.4-2.8-1.5-5.5-2.8-8c0.1-0.9-0.4-1.7-0.8-2.5c0.1-0.5-0.1-0.9-0.6-1c-0.6-0.1-0.6,0.5-0.7,0.9c-0.1,0.4,0,0.9-0.1,1.3
			c-1.5,4.6-3.6,8.8-6.3,12.8c-0.7,0.7-1.5,0.8-2.4,0.5c-0.3-0.5-0.8-0.7-1.3-0.8c-1-1.5-0.6-3.1-0.1-4.7c0.4-1.2,0.9-2.4,1.4-3.6
			c1.6-1.6,2.3-3.7,3.1-5.8c0.9-1,1.3-2.1,0.7-3.4C489.8,361.5,489.8,360.4,489.8,359.3z M499.2,391.2c0.6-0.7,0.9-1.4,0.4-2.3
			c-0.7,0.2-0.9,0.9-1.2,1.4c-0.5,0.9-0.9,1.8-1.4,2.7c-1.1,1.8-2.3,3.7-3.4,5.5c-0.6,1-1.8,1.7-1.6,3.8c1.1-1.3,1.7-2.1,2.4-3
			c1.1-1.6,2.3-3.2,3.1-5C498.1,393.4,498.6,392.3,499.2,391.2z M510.1,397c-0.2-0.6-0.6-1.3-1.2-1.1c-0.6,0.2-0.3,0.8,0.2,1.2
			c1.4,7,7.7,11.2,13,9.7c-1.6-2.9-4-4.9-6.9-6.3C513.4,399.6,511.7,398.4,510.1,397z M520.8,411.8c0.1,0,0.2,0.1,0.3,0.1
			c0.2-0.1,0.2-0.3,0-0.3c-0.1,0-0.2,0-0.2,0.1C520.8,411.6,520.8,411.7,520.8,411.8z"/>
		<path class="st0" d="M482.5,340.6c0.2-2.5,0.3-5,0.5-7.5c0.1-0.6,0.3-1.5,1.1-1.3c1.1,0.2,0.8,1.1,0.4,1.8
			c-0.1,0.2-0.2,0.4-0.3,0.6c-1,0.8-0.6,2-0.8,3.1C483.1,338.3,483.4,339.6,482.5,340.6z"/>
		<path class="st0" d="M484.1,334.1c2.1,1.4,1.9,3.4,1.7,5.5C485,337.8,484.3,336,484.1,334.1z"/>
		<path class="st0" d="M471.8,331.2c0-0.1-0.1-0.2-0.1-0.3c0.2-0.8-1.3-1.1-0.5-2c0.2-0.2,0.6-0.3,0.9-0.2c1,0.3,1.7,0.9,1.7,2.1
			c-0.1,2.4-0.1,4.8-0.3,7.3c-0.2,2.4-0.6,4.8-0.8,7.2c-0.8-3.1,0.1-6.2,0.1-9.3c0-1.5,0.2-3,0.2-4.5
			C472.9,330.5,472.2,331.3,471.8,331.2z"/>
		<path class="st0" d="M469.5,334.3c-0.2-1.8,0.9-2.6,2.3-3.1C471.4,332.5,470.3,333.3,469.5,334.3z"/>
		<path class="st0" d="M467.4,336.9c0-0.4,0.2-0.6,0.6-0.6C468,336.6,467.7,336.8,467.4,336.9z"/>
		<path class="st0" d="M468.2,335.8c0-0.5,0.2-0.7,0.7-0.8C468.8,335.4,468.6,335.7,468.2,335.8z"/>
		<path class="st0" d="M468.9,335c0.1-0.4,0.3-0.6,0.7-0.7C469.5,334.8,469.3,335,468.9,335z"/>
		<path class="st0" d="M487.7,119.4c0.6-0.5,0.6-1.3,0.8-1.9c1-1.7,2-3.5,2.9-5.2c0.7-0.4,1.3-1,1.5-1.9c1.2-1.3,2.3-2.6,3.6-3.9
			c1.8-1.8,4.1-3,6.4-4.1c1.3-0.2,2.6-0.4,3.9-0.5c2.3-0.2,4.4,0.3,5.7,2.4c1.3,2.4-0.1,4.4-1.1,6.4c-0.7,0.4-1.1,1.1-1.5,1.8
			c-1.4,0.4-2.3,1.7-3.5,2.5c-2.6,0.6-4.7,2.5-7.4,3c-1.2-0.2-2,0.3-2.8,1.1c-0.5,0.4-1,0.7-1.5,1.1c-1.1,0.3-2.5,0.2-2.9,1.8
			c-2.1,1-2.4,1-3.5-0.5C488,120.9,487.9,120.1,487.7,119.4z M507.6,108.8c-5.5,0-10.8,3.2-12,7.2
			C499.8,114.1,503.9,112.1,507.6,108.8z"/>
		<path class="st0" d="M401.7,362.2c0-0.5-0.1-1-0.6-1.3c-0.2-3.5-1.2-6.9-1-10.5c0.3-6,1.9-11.7,3.4-17.5c0.3-1.2,0.8-2.4,0.7-3.9
			c-0.2-1.6,1.3-2.4,2.5-3.1c1.4,0.3,3.2-0.3,4,1.7c-0.3,0-0.6,0-0.9,0c-0.5,0-0.9,0.2-0.7,0.7c0.2,0.6,0.7,0.3,1.1,0.2
			c0.2-0.1,0.4-0.1,0.6-0.2c0.2,0.2,0.4,0.5,0.6,0.7c0.1,0.3,0.2,0.4,0.3,0.2c0,0-0.2-0.1-0.3-0.2c-0.2-0.2-0.4-0.5-0.6-0.7
			c0-0.2,0-0.4,0-0.7c2.4,1.3,2.4,1.3,1.5,3.4c-0.5,1.3-0.1,2.1,1,2.7c0.5,0.8,1,1.6,1.5,2.3c0.6,2.3,2,4.3,2.4,6.6
			c-0.4,1.2,0.4,2.3,0.4,3.4c-0.1,0-0.2,0-0.3,0.1c0,0,0,0.1-0.1,0.2c0.1-0.1,0.2-0.2,0.3-0.3c0.5,0.2,0.9,0.5,1.4,0.7
			c1.4,3.3,2.8,6.7,4.3,9.9c1.1,2.4,2.2,4.9,4.5,6.9c0.8-3.2,0-5.9-0.2-8.7c0-1.1,1.4-1.7,1.3-3.1c-0.8,0.4-1.3,0.7-1.9,1
			c-0.5-0.3-0.7-0.7-0.6-1.2c0.4-1.1,0.5-2.7,2.1-2.5c1.4,0.1,1.7,1.4,2.1,2.6c0.8,2.7,0.9,2.7-0.7,4.4c2.5,1.3,3.5,2.8,2.8,5.1
			c-0.6,2-0.2,3.7,0.2,5.6c-0.4,1.5-1.5,2-2.9,2c-1.1,0-2.1-0.1-3.2-0.2c-3.8-3.4-6.5-7.6-9.2-12c-1.6-4.1-3.1-8.1-4.7-12.2
			c0-1.1-0.3-2-1.2-2.7l0,0c0-0.7,0.3-1.5-0.5-2.1l0,0c0.2-0.6-0.5-0.8-0.7-1.3c-0.1-0.5-0.3-1-0.4-1.5c-0.5-1.4-0.1-3.1-1.4-5.1
			c-0.6,2.5,0.1,4.2,0.5,5.8c0,0.5,0.1,1.1,0.6,1.5c0.1,1.1-0.3,2.3,0.6,3.2l0,0c-0.2,1-0.2,1.9,0.3,2.8c0,3.3,0,6.6-0.1,9.9
			c-0.1,3.9-1.7,7.2-4,10.2c-1.5,0.7-2.6,0.1-3.6-0.9C402.7,363.5,402.4,362.8,401.7,362.2z M405.3,346.7c-0.8,6.5-0.8,7.4,0.5,9.3
			c0.8-3,0.7-6.1,0.7-9.2c0.1-1.1,0.6-2.2-0.5-3.2C405.2,344.6,405.2,345.6,405.3,346.7z M419.5,356c0-0.1,0-0.2,0-0.2
			c-0.1-0.1-0.2-0.1-0.3-0.1c-0.2,0.1-0.2,0.3,0,0.4C419.3,356.1,419.4,356.1,419.5,356z"/>
		<path class="st0" d="M410.6,327.6c-0.8-1.9-2.6-1.3-4-1.7c0.2-0.6,0.6-0.7,1.1-0.5c0,0-0.1,0-0.1,0c0.6-0.1,1.2-0.3,1.7-0.4
			c1.1,0.7,1.8,1.9,3.2,2.2c0.5,0.7,1.1,1.2,1.9,1.5c0.7,0.9,1.5,1.7,2.6,2.1c0,0.4,0.2,0.6,0.6,0.7c3.7,4.1,7.3,8.2,10.5,12.7
			c1.3,2.8,2.7,5.7,4,8.6c1.7,4,1.8,8.3,1.5,12.6c0,0.6-0.3,1.1-0.8,1.4c-0.4-1.8-0.8-3.6-0.2-5.6c0.7-2.3-0.3-3.7-2.8-5.1
			c1.5-1.8,1.5-1.7,0.7-4.4c-0.4-1.2-0.8-2.5-2.1-2.6c-1.6-0.1-1.7,1.5-2.1,2.5c-1.7-3.4-2.9-7.1-5.2-10.2c-1.7-2.4-2.9-5.2-5.5-6.9
			c-0.4-1.2-1.2-2-2.3-2.5c-0.5,0.6-0.2,1.1-0.1,1.6c-1.1-0.6-1.5-1.4-1-2.7C413,328.9,412.9,328.9,410.6,327.6z M416.2,333.2
			c0.1,0,0.1-0.1,0.2-0.1c-0.1-0.1-0.1-0.2-0.2-0.2c-0.2-0.1-0.3,0-0.3,0.2C416,333.1,416.2,333.2,416.2,333.2z"/>
		<path class="st0" d="M380,118.7c0.4,0.9,1.2,1.1,2,1.3c3.6,0.9,4.5,2.6,3.1,6.2c-0.2,0.4-0.3,0.8-0.5,1.2c-0.8,0.4-1.3,1-2.3,1
			c-3.2,0.2-6.4,0.1-9.5-0.5c-2.1-0.4-2.3-0.9-2.1-3.2c0.2-1.9,1.3-3.5,2.1-5.1c0.4-0.8,1.1-1,1.9-1
			C376.5,118.7,378.3,118.7,380,118.7z"/>
		<path class="st0" d="M385.3,103.7c5,2,5.6,3.7,3.4,8.8c-1.3,1.5-2.7,0.9-4.2,0.3l0,0c0.1-1.2,0.7-2.4-0.4-3.4
			C384.2,107.5,383.3,105.3,385.3,103.7C385.3,103.7,385.3,103.7,385.3,103.7z"/>
		<path class="st0" d="M384.5,112.9c1.4,0.5,2.9,1.1,4.2-0.3C387.8,115.4,387.2,115.4,384.5,112.9z"/>
		<path class="st0" d="M384.1,109.5c1.1,1,0.5,2.2,0.4,3.4C383.5,111.9,384.2,110.6,384.1,109.5z"/>
		<path class="st0" d="M264.3,133.3c-1.3,1.4-1.4,1.4-2.6-0.3C262.6,132.9,263.5,132.7,264.3,133.3z"/>
		<path class="st0" d="M377.6,368.2c0.3,4.5,1.8,8.8,2.9,13.1c0.2,0.8,0,1.8,0.8,2.5c0.3,3.5,1.2,7,1.2,10.5c0,1.1,0,2.2-0.2,3.3
			c-0.8,0-1.6-0.1-2.4-0.1c-1-1-2.1-1.9-3.1-2.9c-0.4-1.8-1.2-3.4-2.3-4.9c-0.8-2.3-1.5-4.5-2.3-6.8c-0.1-1.6-0.5-3.2-1.1-4.7
			c0.1-0.5,0.2-1-0.4-1.5c-1,1.5-1.2,3.1-1.1,4.8c-0.2,0.5-0.3,1.1-0.5,1.6c-0.2,0.8-0.3,2-1.5,1.7c-1.1-0.3-2.7-0.4-2.7-2.3
			c0-5.9,0.8-11.7,3.3-17.1c0.4-0.8,0.8-1.6,0.9-2.5c0.5-0.3,0.7-0.7,0.8-1.3c1.3-1.3,2.7-0.1,3.9-0.2c0.6-0.6,0.5-1.3,0.6-1.9
			c0.2-1.1,0.3-2.4,1.9-2.2c1.7,0.2,1.6,1.7,1.4,2.8c-0.3,2.1-0.4,4.1-0.4,6.2C377.2,367,377.1,367.7,377.6,368.2z"/>
		<path class="st0" d="M321,75.8c-1.8-0.4-1.8-0.4-0.8-1.9c0.2-0.3,0.3-0.6,0.4-0.9C321.3,73.8,321.3,74.8,321,75.8z"/>
		<path class="st0" d="M320.6,73c-1.2-0.7-0.7-1.8-0.5-2.8C320.8,71.1,320.6,72.1,320.6,73z"/>
		<path class="st0" d="M321.5,77.8c-0.8-0.6-0.7-1.3-0.5-2.1C321.6,76.4,321.7,77.1,321.5,77.8z"/>
		<path class="st0" d="M308.3,48.2c0.9,1.3,1,2.3-0.7,3c-0.3,0.1-0.5,0.8-1,0.3c-0.5-0.5,0-1,0.2-1.5
			C308.6,50.6,307.9,49,308.3,48.2z"/>
		<path class="st0" d="M203.8,139.2c-0.3,1.6-1.2,2.8-2.8,3.2c0.1-0.4,0.1-0.8,0.2-1.2C202.4,141,202.6,139.4,203.8,139.2z"/>
		<path class="st0" d="M431.7,310.2c-2.2,1-3.6-0.9-5.3-1.6c-0.2-0.1-0.4-0.6-0.3-0.8c0.1-1.3,3.1-3.2,4.4-2.7
			c0.8,0.3,1.6,0.7,2.4,1.2c1.7,1,1.7,1.5,0.2,2.9C432.5,309.6,432.1,309.9,431.7,310.2c0,0,0.1,0.1,0.1,0.1L431.7,310.2z"/>
		<path class="st0" d="M455.8,251.3c0.5-0.3,1-0.7,1.6-1c1.3-0.7,0.6-1.5,0-2.2c0.9,0.2,1.9,0,2.7,0.8c-0.9,1-2.1,1.8-2.3,3.2
			c-0.7,0-1.3-0.1-2-0.1C455.8,251.7,455.8,251.5,455.8,251.3L455.8,251.3z"/>
		<path class="st0" d="M227.6,279c0.9-0.4,1-1.7,2.1-1.8c-0.1,1.4-0.5,2.5-2.2,2.5l0-0.3L227.6,279L227.6,279z"/>
		<path class="st0" d="M229.9,265.2c-0.3-0.3-0.4-0.8-0.8-1c-1.8-1.2-1.1-2.5-0.2-3.9C229.7,261.9,229.8,263.5,229.9,265.2z"/>
		<path class="st0" d="M455.1,164.4c0.6-0.8,1.3-0.7,2.1-0.4C456.6,164.5,455.9,164.5,455.1,164.4z"/>
		<path class="st0" d="M200.4,149.7c0.7,0.2,0.8,0.6,0.7,1.3c-0.2,0-0.4,0-0.6-0.1C200.5,150.5,200.4,150.1,200.4,149.7z"/>
		<path class="st0" d="M372.4,93.4c0.7,1.9,1.6,3.8-0.2,5.8c-1.3,1.4-1.3,1.5-2.7,0.2c-0.4-0.4-0.8-0.7-1.2-1.1
			c-0.7-1.8-0.2-3.3,0.9-4.8C370.4,92,370.5,91.9,372.4,93.4z"/>
		<path class="st0" d="M496.3,119.2c0.7-0.8,1.6-1.4,2.8-1.1c0,0.2-0.1,0.4-0.1,0.6c-0.4,0-0.6,0.1-0.8,0.5
			C497.5,119.2,496.9,119.2,496.3,119.2z"/>
		<path class="st0" d="M201.1,151c0.4,0.1,0.6,0.3,0.5,0.7c-0.2,0-0.4,0-0.6-0.1C201,151.4,201.1,151.2,201.1,151z"/>
		<path class="st0" d="M307,337.9c1.1,1,0.7,2.3,1.4,3.5c-1.6-0.1-1.8-0.9-2.1-1.7C307.5,339.5,306.9,338.6,307,337.9z"/>
		<path class="st0" d="M282.2,321.6c-1,1-2.1,1.7-3.5,1.8C279.4,321.9,280.7,321.5,282.2,321.6z"/>
		<path class="st0" d="M307,337.9c-0.1,0.7,0.5,1.6-0.7,1.8c-0.2-0.4-0.5-0.9-0.7-1.3c0.4-0.1,0.7-0.4,0.9-0.8
			C306.7,337.7,306.9,337.8,307,337.9z"/>
		<path class="st0" d="M288.5,364.7c0.1-0.3,0.1-0.6,0.2-0.9c0.1,0.1,0.2,0.1,0.3,0.2C288.9,364.3,288.7,364.5,288.5,364.7
			C288.5,364.7,288.5,364.7,288.5,364.7z"/>
		<path class="st0" d="M298.2,360.5c-0.1,0-0.2-0.1-0.2-0.1c-0.1-0.2,0-0.3,0.3-0.2c0.1,0,0.1,0.1,0.2,0.2
			C298.4,360.4,298.3,360.5,298.2,360.5z"/>
		<path class="st0" d="M347.6,313.5c-0.1-1.2,0.5-1.6,1.5-1.4c0.7,0.1,1.6-0.2,2.1,0.6c0.3,0.5,0,0.9-0.3,1.1
			c-0.9,0.7-0.1,1.6-0.2,2.4c-1.1-0.2-1.8,0.7-2.6,1.2c0-0.2-0.1-0.5-0.1-0.7c0.3-0.6,0.6-1.2,0.9-1.9c0.5-0.4,1-0.9,0.8-1.5
			c-0.1-0.3-1-0.7-1.5,0.1C347.9,313.4,347.7,313.4,347.6,313.5z"/>
		<path class="st0" d="M347.9,316.6c0,0.2,0.1,0.5,0.1,0.7c-0.3,0.9-0.3,1.9-0.9,2.6c-0.3-0.5-0.1-1.1-0.6-1.4
			c-0.1-1,0.1-1.9,0.8-2.7C347.4,316.1,347.7,316.4,347.9,316.6z"/>
		<path class="st0" d="M362.9,311c-0.5-0.1-1-0.2-0.9-0.9c0-0.1,0.1-0.2,0.2-0.2C363,309.9,362.9,310.5,362.9,311
			C363,311,362.9,311,362.9,311z"/>
		<path class="st0" d="M371.2,346.5c-0.1-0.2-0.1-0.3-0.2-0.5c0.2,0,0.4-0.2,0.5-0.1c0.1,0.1,0.2,0.3,0.2,0.5
			C371.6,346.6,371.4,346.7,371.2,346.5z"/>
		<path class="st0" d="M391.6,322.3c0.1,0.1,0.3,0.1,0.3,0.2C391.7,322.7,391.7,322.6,391.6,322.3
			C391.6,322.3,391.6,322.3,391.6,322.3z"/>
		<path class="st0" d="M381.7,259.6c1.2,0.4,1.7,1.6,2.7,2.2c0.6,0.4,0,0.9-0.3,1.4C383.1,262.2,382.2,261.1,381.7,259.6z"/>
		<path class="st0" d="M410.6,298.3c-1.2-0.2-2.7,0.6-3.3-1.2c-0.2-0.6-0.9-0.8-1.7-0.6c-0.7,0.2-1.5,0.2-2.3-0.2
			c2-2.8,3.5-3.2,5.6-1.6c0.5,0.4,1.2,1,0.7,1.6C408.2,297.9,410.6,297.4,410.6,298.3L410.6,298.3z"/>
		<path class="st0" d="M415,302.7c-0.3,0.1-0.7,0.4-0.8,0.3c-1.5-0.8-2.6-0.5-3.6,1c-0.6,1-1.4,0.6-1.5-0.4
			c-0.1-1.1-0.5-2.5,0.9-3.2c0.8-0.3,1.7-0.4,2.6-0.5c1.1-0.2,1.2,0.8,1.4,1.5C414.1,301.9,415.3,301.6,415,302.7z"/>
		<path class="st0" d="M403.9,316.4c1.2-0.7,1.9-1.6,2.1-3.1c0.1-0.7,0.7-1.5,1.7-1c0.8,0.4,0.7,1.2,0.4,1.7c-1,2.1-2.1,4.1-3.3,6.4
			C403.3,318.9,404.2,317.5,403.9,316.4C403.9,316.3,403.9,316.4,403.9,316.4z"/>
		<path class="st0" d="M407.1,307.9c0.8,0.5,1.6,1,2.4,1.5c-0.2,1-1.1,1.3-1.7,1.1C406.6,310,407.4,308.7,407.1,307.9z"/>
		<path class="st0" d="M409.6,307c0-0.1,0-0.2-0.1-0.3c0.1,0,0.2-0.1,0.2,0C409.9,307,409.8,307.1,409.6,307z"/>
		<path class="st0" d="M410.5,298.9c-0.1,0.3-0.4,0.5-0.7,0.4c-0.1,0-0.1-0.2-0.2-0.4C409.9,299,410.2,299,410.5,298.9
			C410.5,299,410.5,298.9,410.5,298.9z"/>
		<path class="st0" d="M410.6,298.2c0.3,0.1,0.7,0.2,0.7,0.3c0,0.5-0.5,0.3-0.8,0.4c0,0,0,0,0,0
			C410.5,298.7,410.5,298.5,410.6,298.2C410.6,298.3,410.6,298.2,410.6,298.2z"/>
		<path class="st0" d="M416.3,302.6c0.1-0.3-0.2-0.9,0.5-0.8c0.1,0,0.1,0.6,0.1,0.9C416.7,302.6,416.5,302.6,416.3,302.6z"/>
		<path class="st0" d="M416.3,302.6c0.2,0,0.4,0,0.6,0c0.2,0,0.5,0.1,0.7,0.1l0,0C417.1,303.4,416.7,303.4,416.3,302.6z"/>
		<path class="st0" d="M329.9,266.2c-1.5-2.7-2-5.6-1.4-8.6c0.2-0.8,0.4-1.5,1.2-1.9c1-0.5,2.2-0.1,2.1,1.1c-0.2,3.2,1.4,6,2.3,8.9
			c-1.1,0.2-1.6-0.4-2.1-1.4c-0.2-0.5-0.6-1.6-1.7-1c-0.8,0.4-0.4,1.1-0.3,1.7C330.1,265.3,330,265.7,329.9,266.2z"/>
		<path class="st0" d="M377.7,165c2.8,2.2,5.5,4.4,8.3,6.6c-1.2-0.2-1.9,1.1-3,1c0-2-0.2-3-1.8-3.7
			C379.2,168.1,378.5,166.6,377.7,165z"/>
		<path class="st0" d="M334.8,187c-1.2,0.8-2.6,0.4-3.9,0.3c-3-0.2-5.9-0.4-9.3-0.6c1.3-1.9,2.8-1,4-1c2.2,1.5,4.7,0.8,7,0.9
			C333.4,186.8,334.1,186.9,334.8,187z"/>
		<path class="st0" d="M450.3,138.8c-0.3-1.1,0.8-2.5-0.5-3.5c0-1.8,0.7-3.5,1-5.3c0.2,0,0.4,0,0.6,0.1
			C451.3,133.1,451.6,136.1,450.3,138.8z"/>
		<path class="st0" d="M385.9,171.6c0.9,0.1,1.6,0.7,2.4,1.1c1,0.6,1.8,1.3,1.6,2.6c-0.3,1.3-0.6,2.6-2.4,2.6
			c0.2-0.4,0.5-0.7,0.7-1.1c1.1-1.8,1.1-2.2-0.6-3.4C386.9,172.9,386.1,172.6,385.9,171.6z"/>
		<path class="st0" d="M334.8,187c-0.7-0.1-1.4-0.2-2.1-0.4c-0.9-0.9-2.3-0.4-3.3-0.9c2.2-0.6,4.5-0.1,6.7-0.2
			c0.4,0.3,1.1,0.2,1.3,0.8C336.5,186.6,335.6,186.8,334.8,187z"/>
		<path class="st0" d="M420.7,218.2c-0.2,0.2-0.5,0.4-0.7,0.6c-1.3-0.9-2.4-1.9-3.1-3.3c0-0.3,0.1-0.6,0.1-0.9
			c0.4,0.3,0.8,0.5,1.2,0.8C419.1,216.2,419.9,217.2,420.7,218.2z"/>
		<path class="st0" d="M387.5,177.9c-1.7,1.2-3.6,1.9-5.5,2.3C383.2,177.9,385.4,178.1,387.5,177.9z"/>
		<path class="st0" d="M338.2,203.9c-1.8-1-3.2-2.6-4.3-4.3C335.9,200.4,337.4,201.8,338.2,203.9z"/>
		<path class="st0" d="M473.2,221.7c0.2-0.7,0.8-0.7,1.3-0.7c0,0.1,0.1,0.2,0.1,0.3c0.2,1,1.7,2.2,0.2,2.8c-1.9,0.7-0.5-1.7-1.5-2.1
			C473.3,221.9,473.2,221.8,473.2,221.7z"/>
		<path class="st0" d="M399.8,221.4c-0.4-0.5-0.8-0.9-1.2-1.4c1.2,0,2.3-0.1,3.4-0.4c0.3,0.6,0.9,0.6,1.4,0.8
			C402.2,220.7,401.2,221.9,399.8,221.4z"/>
		<path class="st0" d="M418.3,215.3c-0.4-0.3-0.8-0.5-1.2-0.8c-0.3-0.6-0.6-1.3-0.8-1.9c0.4,0.1,0.8,0.3,1.2,0.3
			C419.5,213.1,418.9,214.1,418.3,215.3z"/>
		<path class="st0" d="M337.4,186.4c-0.2-0.6-0.9-0.5-1.3-0.8c1-0.7,2.1-0.4,3.3-0.3C339.1,186.6,338.3,186.6,337.4,186.4z"/>
		<path class="st0" d="M327.5,175.8c0.2,0.4,0.4,0.8,0.6,1.2c-1.1-0.1-2.2-0.1-3.3-0.2c0.2-0.4,0.5-0.8,0.7-1.2
			C326.2,175.7,326.9,175.7,327.5,175.8z"/>
		<path class="st0" d="M393.2,230.3c0-1.5,0.4-3,1.5-4.1c0.3,1.5-0.9,2.7-0.8,4.1c0,0,0,0,0,0C393.6,230.3,393.4,230.3,393.2,230.3z
			"/>
		<path class="st0" d="M451.4,130.1c-0.2,0-0.4,0-0.6-0.1c-0.3-1.2-0.3-2.3,0.7-3.6C451.6,127.9,451.7,129,451.4,130.1z"/>
		<path class="st0" d="M341.8,192.2c-0.6,0.6-0.6,1.2-0.2,1.9c-0.8,0-1.8,0-1.7-1C340,192.3,341,192,341.8,192.2z"/>
		<path class="st0" d="M449.6,243c0.3-0.2,0.5-0.5,0.8-0.7c0.5,0.7,1.2,1.3,1.1,2.5C450.5,244.5,449.9,243.9,449.6,243z"/>
		<path class="st0" d="M459.2,241.7c-0.5,0.4-1.1,1.5-1.7,0.6c-0.6-0.8,0.4-1.2,1.1-1.4C458.8,241.1,459,241.4,459.2,241.7z"/>
		<path class="st0" d="M392.2,232.9c0.2-0.9-0.1-2,1-2.6C393.2,231.3,394,232.5,392.2,232.9z"/>
		<path class="st0" d="M393.6,206.3c0.5,0.4,0.6,0.8,0.4,1.4c-0.2-0.1-0.4-0.1-0.5-0.3c-0.3-0.4-1.2,0.1-1.1-0.6
			C392.4,206.2,393.1,206.3,393.6,206.3z"/>
		<path class="st0" d="M459.1,252.8c-0.4,0-0.8,0.1-1.3,0.1c-0.7-0.1-1.4-0.2-2.1-0.3c0-0.2,0-0.4,0.1-0.6c0.7,0,1.3,0.1,2,0.1
			C458.3,252.3,458.8,252.3,459.1,252.8z"/>
		<path class="st0" d="M325.5,175.6c-0.2,0.4-0.5,0.8-0.7,1.2c-0.2-0.1-0.4-0.1-0.6-0.2c-0.3-0.3-0.9-0.4-0.7-0.9
			c0.1-0.2,0.7-0.2,1.1-0.3C324.9,175.5,325.2,175.6,325.5,175.6z"/>
		<path class="st0" d="M478.5,226.2c-0.6,0.8-1.5,1.2-2.4,1.7C476.3,226.5,477.1,226,478.5,226.2z"/>
		<path class="st0" d="M459.2,241.7c-0.2-0.3-0.4-0.6-0.6-0.8c0.4-0.2,0.9-0.4,1.3-0.6c0.1,0.4,0.4,0.7,0.7,0.9
			C460.3,241.6,459.8,241.6,459.2,241.7z"/>
		<path class="st0" d="M455.9,251.3c-0.5-0.1-1.1-0.1-1-0.9c0-0.1,0.1-0.2,0.2-0.2C455.9,250.2,455.8,250.8,455.9,251.3
			C455.8,251.3,455.9,251.3,455.9,251.3z"/>
		<path class="st0" d="M335,172.4c0.4-0.2,0.7-0.4,0.9-0.8c0.5,0.2,1.1,0.7,0.7,1.1C336.1,173.3,335.5,172.8,335,172.4z"/>
		<path class="st0" d="M318.2,179.8c-0.3-0.1-0.7-0.1-0.6-0.5c0.1-0.3,0.4-0.5,0.7-0.4c0.2,0.1,0.4,0.2,0.4,0.4
			C318.9,179.7,318.5,179.7,318.2,179.8z"/>
		<path class="st0" d="M476.1,227.9c-0.4,0.7-1.1,1.3-1.9,1.5C474.4,228.3,475,227.9,476.1,227.9z"/>
		<path class="st0" d="M483.8,224.5c0-0.4,0-0.8,0-1.2c0.4-0.1,1-0.1,1,0.3C484.9,224.1,484.2,224.2,483.8,224.5z"/>
		<path class="st0" d="M329.5,154.6c-0.1,0.1-0.1,0.1-0.2,0.2c-0.1-0.2-0.1-0.3-0.2-0.5c0,0,0.1-0.1,0.2-0.2
			C329.4,154.3,329.4,154.5,329.5,154.6z"/>
		<path class="st0" d="M395.2,230.4c-0.5,0.7-0.9,0.6-1.3-0.1c0,0,0,0,0,0C394.3,230.4,394.7,230.4,395.2,230.4L395.2,230.4z"/>
		<path class="st0" d="M395.2,230.4c0.2-0.3,0.7-0.6,0.7-0.4C396.1,230.8,395.4,230.3,395.2,230.4
			C395.2,230.4,395.2,230.4,395.2,230.4z"/>
		<path class="st0" d="M409.9,290.3c0-0.1,0.1-0.2,0.1-0.2c0.2-0.1,0.3,0,0.2,0.3c0,0.1-0.1,0.1-0.2,0.2
			C410,290.4,410,290.4,409.9,290.3z"/>
		<path class="st0" d="M474,227.1c0,0.1-0.1,0.1-0.1,0.2c-0.1-0.1-0.1-0.2-0.2-0.3c0.1,0,0.2-0.1,0.2-0.1
			C474,226.9,474,227,474,227.1z"/>
		<path class="st0" d="M386.9,176.5c0.1-0.1,0.1-0.3,0.2-0.3C387.3,176.3,387.2,176.4,386.9,176.5L386.9,176.5z"/>
		<path class="st0" d="M418.4,232.7c0.1-0.1,0.1-0.3,0.2-0.3C418.8,232.5,418.7,232.6,418.4,232.7
			C418.4,232.7,418.4,232.7,418.4,232.7z"/>
		<path class="st0" d="M483.2,223.3c0,0.2-0.1,0.4-0.2,0.6c-0.2,0-0.4-0.1-0.6-0.1C482.6,223.4,482.8,223.2,483.2,223.3z"/>
		<path class="st0" d="M419.8,242.1c0.2-0.3,0.7-0.6,0.7-0.5C420.7,242.5,420,242,419.8,242.1C419.7,242.1,419.8,242.1,419.8,242.1z
			"/>
		<path class="st0" d="M411.2,252.6c0-0.1,0.1-0.1,0.1-0.2c0.1,0.1,0.2,0.2,0.2,0.2c-0.1,0.1-0.1,0.1-0.2,0.2
			C411.3,252.7,411.2,252.6,411.2,252.6z"/>
		<path class="st0" d="M482.8,88.7c-0.4,0-0.6,0.3-0.7,0.6c-1.3,0.3-2,0-1.4-1.5c0.4-1,2.1-1.5,1.2-3c1.4-0.2,2.2-1.6,3.6-1.8
			c1.6-1.4,3.2-2.9,4.7-4.3c0,0.5,0,0.9,0,1.4c0.2,0.3,0.4,0.5,0.6,0.8c-1.3,2-3.2,3.3-5,4.7C484.8,86.4,483.7,87.5,482.8,88.7z"/>
		<path class="st0" d="M496.1,70.3c1.8-3.7,2.9-7.6,3.5-11.6c1.2,0.5,2.1,0.8,0.7,2.4c-1.5,1.6-1.1,4.1-1.4,6.1
			c-0.2,1,0.8,1.1,1.6,0.8c-0.2,1.1-0.6,2-1.5,2.7c0,0-0.2-0.2-0.2-0.2c0.1-0.7,0.1-1.3-0.7-1.6c-0.6-0.2-0.9,0.4-1.2,0.8
			c-0.2,0.3-0.4,0.5-0.6,0.7L496.1,70.3z"/>
		<path class="st0" d="M487.6,64.8c-0.2-0.2-0.3-0.5-0.2-0.8c0.1-0.4,0.4-0.4,0.7-0.2c0.1,0.1,0.3,0.4,0.2,0.5
			C488.2,64.6,488,64.9,487.6,64.8z"/>
		<path class="st0" d="M486.6,78.6c-0.3,0.6-0.6,1.3-1,1.9C485.5,79.6,485.5,78.8,486.6,78.6z"/>
		<path class="st0" d="M485.5,81.1c0,0.4-0.1,0.9-0.1,1.3C484.8,81.9,484.8,81.5,485.5,81.1z"/>
		<path class="st0" d="M489.1,62.3c-0.1-0.1-0.2-0.2-0.2-0.2c0.1-0.2,0.2-0.3,0.3-0.5c0.1,0.1,0.2,0.2,0.2,0.2
			C489.3,62,489.2,62.1,489.1,62.3z"/>
		<path class="st0" d="M461.6,162.4c0-0.1-0.1-0.1-0.1-0.2c0-0.2,0.2-0.3,0.3-0.1c0,0,0,0.2,0,0.2
			C461.7,162.4,461.6,162.4,461.6,162.4z"/>
		<path class="st0" d="M261.7,170c-0.6-0.2-1.2-0.3-1.8-0.1c0.5-1.3,1-2.5,0.4-4c-0.3-0.7-0.3-1.5,0-2.2c0.4,1.2,0.9,2.3,2.5,1.7
			C261.3,166.6,260.7,168.2,261.7,170z"/>
		<path class="st0" d="M292.8,175.4c0.9,1,1.8,2.1,2.7,4.1c-2-0.9-2.8-2.2-3.5-3.4C292.3,176,292.6,175.8,292.8,175.4z"/>
		<path class="st0" d="M292.8,175.4c-0.1,0.4-0.4,0.6-0.8,0.7c-0.7-0.7-1.4-1.3-1.7-2.2c0.4-0.1,0.7-0.4,0.9-0.8
			C292,173.6,292.3,174.6,292.8,175.4z"/>
		<path class="st0" d="M298.1,194.4c-1.3-0.1-2.6-0.8-3.9-0.2c0-0.4,0.1-1,0.6-0.9c1.1,0.2,2.1,0.1,3.2,0.1
			C298.9,193.2,298.3,194,298.1,194.4z"/>
		<path class="st0" d="M290.8,185.2c0.4-0.1,0.7-0.3,0.8-0.7c1.6,0.7,1,1.6,0,2.5C291.3,186.4,291,185.8,290.8,185.2z"/>
		<path class="st0" d="M248.2,153.4c0,0-0.3-0.1-0.3-0.5c0-0.4,0.3-0.5,0.6-0.5c0.3,0,0.6,0.1,0.6,0.4
			C249.1,153.1,248.8,153.3,248.2,153.4z"/>
		<path class="st0" d="M251.1,160.5c-0.4,0-0.9,0-1.3,0c0.1-0.4,0.3-0.8,0.4-1.2c0.2-0.4,0.1-0.8,0.8-1.1
			C251.4,159,251.2,159.7,251.1,160.5z"/>
		<path class="st0" d="M299.3,195.8c-0.1-0.6-1.1-0.6-1.1-1.3c0.6,0,1.3-0.1,1.7,0.5C300.1,195.4,299.7,195.7,299.3,195.8z"/>
		<path class="st0" d="M301.7,191.1c-0.1,0.2-0.2,0.5-0.3,0.5c-0.3,0-0.6-0.2-0.7-0.6c0-0.1,0.2-0.4,0.3-0.4
			C301.4,190.5,301.6,190.7,301.7,191.1z"/>
		<path class="st0" d="M283.5,162.9c-0.3-0.1-0.7-0.1-1-0.2c-0.3-0.2-0.5-0.5,0-0.6C283,161.9,283.4,162.2,283.5,162.9z"/>
		<path class="st0" d="M272.3,158.9c0-0.2-0.2-0.4-0.1-0.5c0.1-0.1,0.3-0.2,0.5-0.2c0.2,0,0.3,0.3,0.1,0.5
			C272.6,158.7,272.4,158.8,272.3,158.9z"/>
		<path class="st0" d="M269.6,140.5c-0.1,0.2-0.3,0.3-0.5,0.1c-0.1-0.1-0.2-0.4-0.2-0.5c0.2,0,0.4-0.2,0.5-0.1
			C269.6,140,269.6,140.3,269.6,140.5z"/>
		<path class="st0" d="M212.5,172.1c0,0.1,0,0.2,0,0.2c-0.1,0-0.2,0.1-0.2,0c-0.3-0.1-0.2-0.3,0.1-0.3
			C212.3,172,212.4,172.1,212.5,172.1z"/>
		<path class="st0" d="M238.3,159.6c0,0.1-0.1,0.2-0.1,0.2c-0.1-0.1-0.2-0.2-0.2-0.3c0.1,0,0.2-0.1,0.2-0.1
			C238.2,159.4,238.3,159.5,238.3,159.6z"/>
		<path class="st0" d="M284.3,163.9c-0.5-0.2-0.8-0.5-0.8-1.1C284.1,162.9,284.3,163.3,284.3,163.9z"/>
		<path class="st0" d="M294.5,186.8c0,0.1-0.1,0.1-0.1,0.2c-0.1-0.1-0.2-0.2-0.2-0.3c0.1,0,0.2-0.1,0.2-0.1
			C294.5,186.6,294.5,186.7,294.5,186.8z"/>
		<path class="st0" d="M299.5,187.6c-0.1,0-0.2,0.1-0.2,0.1c-0.3-0.1-0.3-0.2,0-0.4c0.1,0,0.2,0,0.3,0.1
			C299.5,187.4,299.5,187.5,299.5,187.6z"/>
		<path class="st0" d="M282.4,163.2c0.4,0.2,0.4,0.5,0.3,0.9C282.3,163.9,282.2,163.6,282.4,163.2z"/>
		<path class="st0" d="M294.2,194.2c-0.1,0.4-0.4,0.5-0.8,0.5C293.6,194.3,293.9,194.1,294.2,194.2z"/>
		<path class="st0" d="M297.3,129c1.1-0.4,2.3,0.7,3.3-0.4c0.5,0,0.9,0.3,1,0.7c0.1,0.6-0.4,0.6-0.9,0.6
			C299.5,129.7,298.3,129.8,297.3,129z"/>
		<path class="st0" d="M303.9,130.3c0.1,0.1,0.3,0.3,0.3,0.4c0,0.4-0.3,0.5-0.6,0.3c-0.1-0.1-0.2-0.4-0.1-0.5
			C303.5,130.4,303.8,130.4,303.9,130.3z"/>
		<path class="st0" d="M283.6,122.5c0-0.1-0.1-0.2,0-0.2c0.1-0.1,0.2-0.1,0.2-0.1c0.3,0.1,0.3,0.2,0,0.4
			C283.8,122.5,283.7,122.5,283.6,122.5z"/>
		<path class="st0" d="M246.7,211c-1.2-0.4-2.4-0.9-3-2.1c-0.7-2-2.2-3.5-3.2-5.5c2.1-2.2,4.7-2,7.1-1c2.3,0.9,4.5,2.3,6.7,3.5
			c0.4,0.2,0.7,0.5,0.6,1.3c-2.2-0.3-4-2.3-6.3-2.1c-0.5-0.1-1.1-0.2-1.6-0.3c-0.5,0-1.2-0.3-1.2,0.5c0,0.3,0.6,0.5,1,0.8
			c3.2,2.7,7.1,4.4,10.8,6.2c0.3,0.5,0.7,0.8,1.3,0.7c0.2,0.1,0.3,0.2,0.5,0.2c0.6,1,1.6,1.3,2.7,1.5l0,0.3l0,0.3
			c0,0.2,0,0.5-0.1,0.7c-0.6,0.2-0.8,0.9-1.9,0.5c-3.7-1.3-7.3-3-10.8-4.7C248.5,211.4,247.7,210.9,246.7,211z"/>
		<path class="st0" d="M309,223.7c1.1,3.9,0.6,4.4-3.5,3.5C306.4,225.8,307.8,225,309,223.7z"/>
		<path class="st0" d="M295.4,250.9c0.1-0.5,0.1-0.9-0.4-1.2c0.7-1,1.8-0.5,2.7-0.5l0,0C297.2,250,296.7,250.9,295.4,250.9z"/>
		<path class="st0" d="M259.4,213.2c0.3-0.3,0.6-0.5,0.9-0.8c0.8,0.2,1.4,0.9,1.9,1.5c0,0.3-0.1,0.5-0.1,0.8
			C261,214.5,260,214.2,259.4,213.2z"/>
		<path class="st0" d="M259.6,211.8c-0.1-0.1-0.1-0.3-0.1-0.4c-0.2-0.5-0.3-1.1-0.5-1.6c0.8,0,1.5,0.5,1.9,1.2
			c0.5,0.8-0.1,0.9-0.7,0.9C260.1,211.8,259.8,211.8,259.6,211.8z"/>
		<path class="st0" d="M248.8,205.7c-0.7,0.2-1.5-0.3-2,0.5c-0.3-0.3-1-0.5-1-0.8c0-0.9,0.7-0.6,1.2-0.5c0.5,0,1.1,0.2,1.6,0.3
			C248.6,205.3,248.7,205.5,248.8,205.7z"/>
		<path class="st0" d="M297.2,264.4c-0.3,0.5-0.6,0.5-0.8,0.4c-0.5-0.3-0.9-0.6-0.7-1.2c0.1-0.3,0.3-0.3,0.5-0.1
			C296.6,263.7,297.1,264,297.2,264.4z"/>
		<path class="st0" d="M263,216.5c-0.1,0.2-0.2,0.5-0.3,0.5c-0.3,0.1-0.6-0.1-0.6-0.4c0-0.1-0.5-0.7,0.2-0.5
			C262.5,216.1,262.8,216.3,263,216.5z"/>
		<path class="st0" d="M263.7,230.8c0-0.5,0-0.9,0.1-1.4c0.5-0.2,0.9-0.4,1.4-0.6C265,229.8,264.5,230.4,263.7,230.8z"/>
		<path class="st0" d="M298,225.1c-0.3-0.1-0.6-0.3-0.6-0.3c0.2-0.6,0.6-0.3,1-0.3c0.2,0,0.3,0.2,0.4,0.3
			C298.5,225,298.3,225.1,298,225.1z"/>
		<path class="st0" d="M300.5,243.9c-0.2,0-0.4-0.3-0.4-0.6c0-0.2,0.1-0.5,0.2-0.5c0.3-0.1,0.6,0.1,0.7,0.4
			C301.2,243.6,301.1,243.8,300.5,243.9z"/>
		<path class="st0" d="M292.2,254.1c0.1-0.2,0.3-0.3,0.5-0.1c0.1,0.1,0.2,0.3,0.2,0.5c-0.2,0-0.4,0.2-0.5,0.1
			C292.3,254.5,292.3,254.2,292.2,254.1z"/>
		<path class="st0" d="M262.1,214.7c0-0.3,0.1-0.5,0.1-0.8c0.5,0.2,1.1,0.5,0.9,1.1c-0.1,0.4-0.7,0.3-1.1,0.3c0,0,0-0.3,0-0.3
			L262.1,214.7z"/>
		<path class="st0" d="M258.5,209.6c0,0-0.3-0.2-0.5-0.4c0,0,0.2-0.2,0.3-0.4c0.2,0.2,0.4,0.4,0.6,0.6
			C259.2,209.8,259.1,209.9,258.5,209.6z"/>
		<path class="st0" d="M297.8,249.1c0.1-0.3,0.6-0.6,0.7-0.5C298.7,249.5,298,249,297.8,249.1C297.8,249.1,297.8,249.1,297.8,249.1z
			"/>
		<path class="st0" d="M259.6,211.8c0.2,0,0.5,0,0.7,0.1c0,0.2,0,0.4,0,0.6C259.9,212.4,259.7,212.2,259.6,211.8z"/>
		<path class="st0" d="M265.8,228.2c0,0.4-0.2,0.6-0.6,0.7C265.1,228.5,265.3,228.3,265.8,228.2z"/>
		<path class="st0" d="M337.6,78.4c2.4-1.8,2.5-1.8,5.1,0.4c1.6,2.6,1.7,5.4,1.2,8.2c-0.3,2.1-0.6,4.2-0.9,6.2
			c-1.1,0.7,0.2,2-0.7,2.7c-1.2,0.8-1.8-0.5-2.7-0.8c-1.1-1.8-0.2-3.8-0.5-5.9c-1,0.4-2.3,1.4-3-0.4c0.1-1-0.3-1.7-1.3-2.1
			C334.8,83.7,336.9,81.3,337.6,78.4z"/>
		<path class="st0" d="M339.6,95.1c0.9,0.3,1.5,1.6,2.7,0.8c-0.5,1.3-0.8,2.4,1,2.9c1,1,1.8,2.3,3.1,2.9c0.1,0.4,0.3,0.6,0.6,0.7
			c0,0.4,0.2,0.6,0.6,0.7c0.1,0.4,0.3,0.6,0.6,0.7c0,0.4,0.2,0.6,0.6,0.8c0.7,1.6,1.7,3,3.1,4.2c0.2,0.6,0.5,1.2,0.7,1.8
			c0.2,0.6,0.8,1.1,0,1.7c-0.9,0.7-1.3-0.2-1.9-0.5c-0.4-1.5-1.5-2.4-2.4-3.5c0-0.4-0.2-0.6-0.6-0.7c0-0.4-0.3-0.6-0.6-0.7
			c-0.1-0.4-0.3-0.6-0.6-0.7c0-0.4-0.2-0.6-0.6-0.7c-0.1-0.4-0.3-0.6-0.6-0.7c-1.4-1.8-2.9-3.5-5.1-4.3c-0.3-1.1-1.8-1-2.2-2
			c1.2-0.2,2-0.6,0.8-1.8c-0.4-0.4-0.9-0.6-0.9-1.3C338.4,95.4,339.1,96.1,339.6,95.1z"/>
		<path class="st0" d="M334.8,86.8c1,0.4,1.3,1.1,1.3,2.1C335.2,88.5,334.7,87.8,334.8,86.8z"/>
		<path class="st0" d="M328.8,89.7c-0.4,0-0.7-0.2-0.7-0.6c0.2,0,0.5,0,0.7,0C328.8,89.2,328.8,89.4,328.8,89.7z"/>
		<path class="st0" d="M328,89c-0.7,0.1-1.1-0.1-1.2-0.8c0.4,0.1,0.8,0.2,1.2,0.2C328,88.6,328.1,88.8,328,89z"/>
		<path class="st0" d="M499.1,70.8c-0.6,1.2-1.3,2.4-1.9,3.6c-0.4,0.3-0.7,0.6-1.1,0.8c0,0-0.2-0.2-0.2-0.2c0.7-1.7,1.4-3.3,3-4.5
			L499.1,70.8z"/>
		<path class="st0" d="M490.9,80.8c-0.2-0.3-0.4-0.5-0.6-0.8c1.1-0.8,2.3-1.6,3.4-2.5l0.2,0.2C493.3,79.2,492.1,79.9,490.9,80.8z"/>
		<path class="st0" d="M496.1,75.2c-0.1,0.5-0.2,1-0.8,1.2c0,0-0.2-0.1-0.2-0.1c0.1-0.5,0.3-1,0.8-1.3L496.1,75.2z"/>
		<path class="st0" d="M494.6,77.1c-0.1,0.4-0.3,0.6-0.7,0.7c0,0-0.2-0.2-0.2-0.2c0.2-0.2,0.5-0.4,0.7-0.6L494.6,77.1z"/>
		<path class="st0" d="M495.2,76.4c-0.1,0.4-0.3,0.6-0.7,0.7c0,0-0.1-0.2-0.1-0.2c0.2-0.2,0.4-0.4,0.6-0.7L495.2,76.4z"/>
		<polygon class="st0" points="407.5,325.4 407.6,325.5 407.7,325.3 407.7,325.1 407.8,325.4 		"/>
		<path class="st0" d="M212.2,230.6c0.5-0.2,1-0.4,1.5-0.5c0.4-0.1,0.8,0,1.2-0.6c-1.9-1.5-4.5-1.7-6.4-3.1c1.1-0.2,2.1,0.3,3.1,0.6
			c1.5,0.5,2.1,0,2.4-1.8c1.3,0.1,2.4,1.2,3.8,1c-0.5,0.6-1.2,1-1.5,1.7C215,230.8,215,230.8,212.2,230.6z"/>
		<path class="st0" d="M196.1,242.9c0.1,0.7,0.8,0.4,1.2,0.7c-0.7,1.3-2.8,0.9-3,2.7c-1.5-2-1.5-2,0.2-2.8
			C195.1,243.2,195.6,243.1,196.1,242.9z"/>
		<path class="st0" d="M255.6,231.5c-0.6,2.1-2.1,3.5-3.9,4.6C252.4,234.2,253.6,232.5,255.6,231.5L255.6,231.5z"/>
		<path class="st0" d="M208.8,222.3c1.5,0.3,2.7,1.4,3.9,2.3c-0.8,0.2-1.7,1.9-2.3-0.3C210.2,223.5,209,223.3,208.8,222.3z"/>
		<path class="st0" d="M182.5,226.3c-0.1-0.1-0.3-0.3-0.3-0.4c0-0.4,0.3-0.5,0.6-0.4c0.1,0,0.2,0.4,0.2,0.5
			C182.9,226.1,182.7,226.2,182.5,226.3z"/>
		<path class="st0" d="M169.3,241.4c-0.1-0.2-0.3-0.4-0.2-0.5c0.1-0.3,0.4-0.4,0.7-0.2c0.1,0.1,0.2,0.4,0.1,0.5
			C169.7,241.4,169.5,241.4,169.3,241.4z"/>
		<path class="st0" d="M173,238.9c0.1,0.1,0.3,0.3,0.3,0.4c0,0.4-0.3,0.5-0.6,0.3c-0.1-0.1-0.2-0.4-0.1-0.5
			C172.6,239,172.8,238.9,173,238.9z"/>
		<path class="st0" d="M202.4,218.5c0.4,0.1,0.8,0.2,1.2,0.2c0.3,0.4,0.5,0.8,0.8,1.2C203.4,220,202.6,219.6,202.4,218.5z"/>
		<path class="st0" d="M216.2,234.3c-0.5-0.1-1.1-0.1-1.6-0.2c0.6-0.5,1.3-0.7,2.1-0.5c0.3,0.1,0.5,0.2,0.3,0.4
			C216.8,234.1,216.5,234.1,216.2,234.3z"/>
		<path class="st0" d="M255.6,231.6c0.1-0.5,0.4-0.9,1.1-0.9c0.1,0,0.1,0.2,0.1,0.3C256.6,231.6,256.1,231.6,255.6,231.6
			C255.6,231.5,255.6,231.6,255.6,231.6z"/>
		<path class="st0" d="M219.7,227.1c0,0.1-0.1,0.1-0.1,0.2c-0.1-0.1-0.2-0.2-0.2-0.3c0.1,0,0.2-0.1,0.2-0.1
			C219.6,226.9,219.6,227,219.7,227.1z"/>
		<path class="st0" d="M208.5,226.4c-0.6,0-1.1-0.2-1.4-0.7C207.7,225.5,208.3,225.7,208.5,226.4z"/>
		<path class="st0" d="M190.3,214.8c0.2-0.1,0.4-0.2,0.5-0.2c0,0,0.2,0.2,0.2,0.2c-0.1,0.2-0.3,0.3-0.5,0.2
			C190.4,215,190.4,214.9,190.3,214.8z"/>
		<path class="st0" d="M186,220.3c-0.1,0-0.2,0-0.2,0c0-0.1-0.1-0.2,0-0.3c0.1-0.3,0.3-0.2,0.3,0.1C186.1,220.2,186,220.2,186,220.3
			z"/>
		<path class="st0" d="M212.7,224.6c0.6-0.1,1.2,0,1.4,0.7C213.5,225.4,212.9,225.2,212.7,224.6z"/>
		<path class="st0" d="M198.7,218.5c0-0.1-0.1-0.2-0.1-0.2c0-0.3,0.2-0.3,0.3-0.1c0,0.1,0,0.2,0,0.3
			C198.9,218.5,198.8,218.5,198.7,218.5z"/>
		<path class="st0" d="M227.6,279.1c-0.1-0.1-0.2-0.2-0.3-0.3c0.1,0,0.2,0,0.2,0.1C227.6,278.9,227.6,279,227.6,279.1L227.6,279.1z"
			/>
		<path class="st0" d="M513.6,152c0.5,1.1,0.9,2.2,1.5,3.6C513.1,154.1,513.1,154.1,513.6,152z"/>
		<path class="st0" d="M505.2,151.7c1-0.5,2-0.5,3.5,0.1C507.2,152.1,506.2,152.3,505.2,151.7z"/>
		<path class="st0" d="M528.8,149.2c-0.2,0.4-0.2,0.7-0.3,0.8c-0.4,0.4-0.8,0.7-1.4,0.5c-0.2,0-0.4-0.3-0.4-0.4
			c0.2-0.8,0.9-0.8,1.5-1C528.3,149.2,528.4,149.2,528.8,149.2z"/>
		<path class="st0" d="M476,159.8c0.3-0.6,1-0.5,1.5-0.7C477.2,159.8,476.6,159.9,476,159.8z"/>
		<path class="st0" d="M296.9,56.8c1.5-0.2,2.9-1.2,4.6,0c-1.2,1.3-2.6,0.7-3.9,0.8C297.4,57.4,297.2,57.1,296.9,56.8z"/>
		<path class="st0" d="M273.7,42.3c0.8-0.5,1.5,0,2.2,0.2c0.6,0.1,1.5,0.2,1.1,1.1c-0.3,0.7-1.1,0.5-1.7,0.2
			C274.6,43.4,273.7,43.3,273.7,42.3z"/>
		<path class="st0" d="M296.9,56.8c0.2,0.3,0.4,0.5,0.7,0.8c-0.9,0.5-1.8,0.6-2.8,0.1C295.3,56.9,296,56.6,296.9,56.8z"/>
		<path class="st0" d="M314.7,49.4c-0.6,0.2-0.6,0.9-0.8,1.4c-0.6-1-0.6-2-0.2-3.1C314.6,47.9,314.6,48.6,314.7,49.4z"/>
		<path class="st0" d="M319.9,77.8c-0.1,0.1-0.3,0.3-0.4,0.3c-0.4,0-0.5-0.3-0.4-0.6c0-0.1,0.3-0.2,0.5-0.2
			C319.7,77.4,319.8,77.6,319.9,77.8z"/>
		<path class="st0" d="M317.4,79.3c-0.1-0.1-0.3-0.3-0.3-0.4c0-0.4,0.3-0.5,0.6-0.4c0.1,0,0.2,0.3,0.2,0.5
			C317.8,79.1,317.6,79.2,317.4,79.3z"/>
		<path class="st0" d="M316.1,58.8c0.3-0.3,0.6-0.6,1-0.8c0.1,0.2,0.3,0.3,0.4,0.5c0.2,0.5,0.3,1.3-0.1,1.4
			C316.5,60.2,316.3,59.4,316.1,58.8z"/>
		<path class="st0" d="M488.6,343.2c0.5,0.3,0.8,0.4,0.8,0.5c-0.3,1,1.6,1.7,0.4,2.8c-0.1,0.1-0.4,0.2-0.6,0.1
			C488.6,346.3,488.6,345.7,488.6,343.2z"/>
		<path class="st0" d="M489.6,334.3c-0.7,0.2-0.6,0.8-0.8,1.3c-0.4-0.4-0.6-0.9-0.6-1.4c0-0.5-0.1-1.2,0.7-1.1
			C489.5,333.2,489.6,333.8,489.6,334.3z"/>
		<path class="st0" d="M507.3,345c-0.4-0.2-0.9-0.3-0.6-0.9c0.1-0.2,0.5-0.5,0.7-0.5c0.4,0.1,0.8,0.5,0.7,1
			C508,345,507.6,345,507.3,345z"/>
		<path class="st0" d="M468,333.6c-0.1,0.1-0.3,0.3-0.4,0.3c-0.4,0-0.5-0.3-0.3-0.6c0.1-0.1,0.4-0.2,0.5-0.2
			C467.9,333.2,467.9,333.4,468,333.6z"/>
		<path class="st0" d="M475.1,330.3c-0.2-0.2-0.4-0.3-0.4-0.4c0.1-0.4,0.3-0.7,0.8-0.7c0.1,0,0.2,0.4,0.1,0.5
			C475.5,329.9,475.3,330.1,475.1,330.3z"/>
		<path class="st0" d="M476.5,348.9c0.3,0,0.5,0,0.8,0.1c0,0.5,0.1,1.2-0.6,1C476.2,349.9,476.4,349.3,476.5,348.9z"/>
		<path class="st0" d="M455.9,269.3c0.1,0.1,0.3,0.1,0.3,0.2C456.1,269.7,456,269.6,455.9,269.3L455.9,269.3z"/>
		<path class="st0" d="M493.6,398.6c1.1-1.8,2.3-3.7,3.4-5.5c0.5,0.3,0.4,0.9,0.5,1.4c-0.8,1.8-2,3.4-3.1,5
			C494,399.3,493.8,399,493.6,398.6z"/>
		<path class="st0" d="M497.5,394.4c-0.1-0.5,0-1-0.5-1.4c0.5-0.9,0.9-1.8,1.4-2.7c0.4,0.1,0.6,0.5,0.8,0.9
			C498.6,392.3,498.1,393.4,497.5,394.4z"/>
		<path class="st0" d="M493.6,398.6c0.1,0.4,0.4,0.7,0.8,0.9c-0.7,0.8-1.3,1.6-2.4,3C491.8,400.3,493,399.6,493.6,398.6z"/>
		<path class="st0" d="M499.2,391.2c-0.2-0.4-0.4-0.7-0.8-0.9c0.3-0.6,0.5-1.2,1.2-1.4C500,389.8,499.8,390.6,499.2,391.2z"/>
		<path class="st0" d="M510.1,397c-0.3,0-0.7,0.1-1,0.1c-0.5-0.3-0.8-0.9-0.2-1.2C509.5,395.7,509.9,396.4,510.1,397z"/>
		<path class="st0" d="M520.8,411.8c0-0.1-0.1-0.2,0-0.2c0.1-0.1,0.2-0.1,0.2-0.1c0.3,0.1,0.3,0.2,0,0.3
			C521,411.8,520.9,411.8,520.8,411.8z"/>
		<path class="st0" d="M409.1,337.6c-0.5-1.7-1.1-3.3-0.5-5.8c1.3,2,0.9,3.7,1.4,5.1C409.7,337.1,409.4,337.3,409.1,337.6z"/>
		<path class="st0" d="M406.5,346.8c-0.4,0-0.8-0.1-1.2-0.1c-0.1-1-0.2-2.1,0.7-3.1C407.1,344.6,406.6,345.7,406.5,346.8z"/>
		<path class="st0" d="M416.9,342.7c1.1,1.2,1.2,2.8,1.7,4.2c-0.5-0.2-0.9-0.5-1.4-0.7l0,0C417.4,345,416.6,343.9,416.9,342.7z"/>
		<path class="st0" d="M427.3,354.9c-0.8-0.6-0.5-1.4-0.5-2.1c0.5-0.3,1.1-0.6,1.9-1C428.7,353.2,427.3,353.8,427.3,354.9z"/>
		<path class="st0" d="M410.5,328.3c-0.2,0.1-0.4,0.2-0.6,0.2c-0.4,0.1-0.9,0.4-1.1-0.2c-0.2-0.5,0.3-0.7,0.7-0.7c0.3,0,0.6,0,0.9,0
			C410.5,327.8,410.5,328.1,410.5,328.3z"/>
		<path class="st0" d="M409.1,337.6c0.3-0.2,0.6-0.5,0.9-0.7c0.1,0.5,0.3,1,0.4,1.5c-0.2,0.2-0.5,0.4-0.7,0.7
			C409.2,338.7,409.1,338.1,409.1,337.6z"/>
		<path class="st0" d="M419.5,356c-0.1,0-0.2,0.1-0.2,0.1c-0.3-0.1-0.3-0.2,0-0.4c0.1,0,0.2,0,0.3,0.1
			C419.5,355.8,419.5,356,419.5,356z"/>
		<path class="st0" d="M411.1,329c-0.2-0.2-0.4-0.5-0.6-0.7C410.7,328.5,410.9,328.8,411.1,329L411.1,329z"/>
		<path class="st0" d="M411.1,329c0.1,0.1,0.3,0.1,0.3,0.2C411.3,329.4,411.2,329.3,411.1,329L411.1,329z"/>
		<path class="st0" d="M417.3,346.1c-0.1,0.1-0.2,0.2-0.3,0.3c0-0.1,0-0.2,0.1-0.2C417.1,346.2,417.2,346.2,417.3,346.1
			C417.3,346.1,417.3,346.1,417.3,346.1z"/>
		<path class="st0" d="M416.2,333.2c-0.1,0-0.2-0.1-0.2-0.1c-0.1-0.2,0-0.3,0.3-0.2c0.1,0,0.1,0.1,0.2,0.2
			C416.4,333.1,416.3,333.2,416.2,333.2z"/>
		<path class="st0" d="M322.8,225.2c0.6,2.3-0.5,4.5-2.8,6.3c-5.1,4.1-4.2,12.6,0.3,16.9c1.8,1.7,3.8,3,5.7,4.6
			c0.8,0.7,1.9,1.4,1.7,2.6c-0.1,0.9-2.3,1.2-3.6,0.4c-6-3.5-11.4-7.7-13.3-15c-1.3-4.9-0.8-9.4,3.5-12.9c1.1-0.9,2-2,1.6-3.7
			c-1.5-7.1,3.5-13.2,12-14.5c3.7-0.6,7.3-0.7,10.4,1.9c1.3,1.1,2.4,2.3,3.2,3.7c0.7,1.3,0.3,1.9-1.1,1.9c-0.8,0-1.5-0.2-2-1
			c-2.2-3.3-5.4-3.8-8.8-2.8c-3.8,1.1-6,4.1-6.7,8C322.9,222.6,322.9,223.6,322.8,225.2z M321.3,219.8c0-0.1,0-0.2,0-0.2
			c-0.1-0.1-0.2-0.1-0.2-0.1c-0.2,0.1-0.2,0.3,0,0.3C321.2,219.9,321.2,219.8,321.3,219.8z"/>
		<path class="st0" d="M338.8,222.5c5.6,0.7,10.7,2.5,15,6.5c2.8,2.6,3.9,5.9,3.3,9.6c-0.2,0.9-0.4,2.2-1.7,2.1
			c-1.4-0.1-1.6-1.2-1.5-2.5c0.4-3.8-1.1-6.4-4.5-7.8c-3.8-1.6-7.7-1.8-11.6-0.1c-4.5,2-6.8,5.6-6.6,10.5c0.1,2.1,0.5,4.2,0.8,6.3
			c0.1,1.2,1.1,2.7-0.7,3.4c-1.5,0.6-4-0.7-4.7-2.2c-0.2-0.5-0.3-1.1-0.5-1.6c-1.3-4.1-2-8.4-2.1-12.7c0-5.2,2.8-8.8,7.7-10.4
			C334,222.8,336.3,222.1,338.8,222.5z"/>
		<path class="st0" d="M349,221.4c-0.2,0-0.4-0.1-0.5-0.3c0-0.4-0.2-0.6-0.7-0.6c-1.1-3-0.2-4.3,2.5-4.6c10.6-1,19.2,8.4,19.4,16.1
			c0.1,4.7-0.3,9.3-4.2,12.7c-1,0.9-0.8,1.9-0.6,3c0.5,3.8,0.5,7.5-2.2,10.7c-0.2,0-0.6-0.1-0.6,0c-1.3,1.8-3.1,2.9-5.1,3.8
			c-0.3,0.1-0.4,0.8-0.9,0.3c-0.4-0.3-0.4-0.8-0.1-1.2c0.5-0.8,1.6-1.2,1.7-2.3c0.3-0.3,0.5-0.7,0.9-1c4.4-3.7,3.5-7.9,1.9-11.7
			c-0.7-1.5-1.7-2.9-1.1-4.7c0.4-1.1,0.7-1.9,1.8-2.5c3.5-1.8,4.1-3.4,3.2-7.3c-1-4.1-3.3-7.2-7.7-8.2c-2.2-0.5-4.3-1-6.4-1.5
			C350.1,221.3,349.7,221.1,349,221.4z M357.2,220.5c0.1-0.1,0.2-0.2,0.3-0.3C357.3,220.3,357.2,220.4,357.2,220.5
			c-0.6,0-1.1,0-1.1,0.7c0,0.1,0.1,0.2,0.2,0.2C357,221.5,357.1,221,357.2,220.5z"/>
		<path class="st0" d="M357.8,259c-0.2,1.1-1.2,1.5-1.7,2.3c-0.3,0.4-0.3,0.8,0.1,1.2c0.5,0.4,0.6-0.2,0.9-0.3c2-0.9,3.8-2,5.1-3.8
			c0.1-0.1,0.4,0,0.6,0c-2.5,4.9-7.6,7.2-12.1,5.5c-1.8-0.7-3.1-1.6-3-3.7c-5.3,1.1-8.6-0.3-11.4-5c-0.4-0.7-0.9-1.3-0.8-2.1
			c0.5-2.9,0.4-5.9,1.1-8.8c0.9-3.4,6-5.1,9.1-4.4c0.7,0.2,1.2,0.7,1.1,1.4c0,0.6-0.5,1-1.1,1.1c-0.6,0.1-1.3,0.1-2,0.1
			c-2.5,0.2-3.9,1.4-4.3,3.9c-0.2,1.6-0.8,3.4,0.4,4.8c1.7,1.9,3.5,3.7,6.2,4.2c1.1,0.2,2-0.2,2.5-1.2c1-1.9,2.1-3.9,1.3-6.2
			c-0.1-0.4-0.4-0.9-0.3-1.3c0.1-0.6,0.4-1,1-1.2c0.7-0.3,1.1,0.2,1.2,0.7c0.3,0.8,0.6,1.7,0.6,2.6c0.2,4.1-0.3,8-4.1,10.7
			C351.8,261.9,354.8,261.1,357.8,259z M352.5,263.1c-1.4-1.7-1.4-1.7-3.3-1.5C349.9,263,351.3,262.9,352.5,263.1z M354,262.5
			c0-0.1,0.1-0.2,0.1-0.3c0,0-0.1-0.1-0.2-0.1c0,0.1-0.1,0.2-0.1,0.3C353.8,262.4,353.9,262.5,354,262.5z"/>
		<path class="st0" d="M349,221.4c0.7-0.3,1.2,0,1.4,0.7C349.7,222.2,349.3,221.9,349,221.4z"/>
		<path class="st0" d="M347.8,220.5c0.4-0.1,0.7,0.1,0.7,0.6C348.1,221.1,347.9,220.9,347.8,220.5z"/>
		<path class="st0" d="M417.8,187.5c-4.4-1.2-8.4-2.5-10.1-7c-0.9-2.2-0.2-3.3,2-3.9c2.2-0.5,4.3-1.1,6.5-0.2
			c1.9,0.8,3.5,1.8,3.8,4.8c-3.1-2.3-5.8-4.2-9.2-1.5c0.6,2.2,2.7,2.9,4.5,3.9C416.6,184.4,418.1,184.9,417.8,187.5z"/>
		<path class="st0" d="M493.2,74.9c1-1.5,1.6-3.2,2.9-4.6c0,0,0.2,0.2,0.2,0.2c-0.3,2-1.3,3.5-3,4.5L493.2,74.9z"/>
		<path class="st0" d="M492.4,76.1c0.1-0.4,0.2-0.8,0.3-1.2c0.2-0.1,0.3-0.1,0.5-0.1c0,0,0.2,0.2,0.2,0.2
			C493.2,75.5,493.1,76,492.4,76.1z"/>
		<path class="st0" d="M492.4,76.1c0.6-0.1,0.8-0.6,1-1.1c1.7-1,2.7-2.5,3-4.5c0.2-0.2,0.4-0.4,0.6-0.7c0.3-0.4,0.6-1,1.2-0.8
			c0.7,0.2,0.8,0.9,0.7,1.6c-1.5,1.1-2.2,2.8-3,4.5c-0.5,0.3-0.6,0.8-0.8,1.3c-0.2,0.2-0.4,0.4-0.7,0.7c-0.2,0.2-0.5,0.4-0.7,0.6
			c-1.1,0.8-2.3,1.6-3.4,2.5c0-0.5,0-0.9,0-1.4l0,0.1c0.4-0.1,0.6-0.4,0.6-0.8c0,0-0.1,0.1-0.1,0.1c0.7-0.1,0.9-0.6,0.9-1.2l0,0
			C492.2,76.7,492.4,76.4,492.4,76.1L492.4,76.1z"/>
		<path class="st0" d="M491.8,76.8c0,0.6-0.2,1.1-0.9,1.2C491,77.5,491.3,77,491.8,76.8z"/>
		<path class="st0" d="M490.9,77.9c0,0.4-0.2,0.7-0.6,0.8C490.3,78.3,490.5,78,490.9,77.9z"/>
		<path class="st0" d="M492.4,76c0,0.4-0.3,0.6-0.6,0.8l0-0.3l0-0.3C492.1,76.1,492.3,76.1,492.4,76z"/>
		<path class="st0" d="M257.5,212.4c0.6-0.1,1.1,0.1,1.3,0.7C258.3,213.1,257.8,212.9,257.5,212.4z"/>
		<path class="st0" d="M321.3,219.8c-0.1,0-0.2,0.1-0.2,0.1c-0.2-0.1-0.3-0.2,0-0.3c0.1,0,0.2,0,0.2,0.1
			C321.3,219.6,321.3,219.7,321.3,219.8z"/>
		<path class="st0" d="M357.2,220.5c-0.1,0.5-0.2,1-0.9,0.9c-0.1,0-0.2-0.1-0.2-0.2C356.1,220.5,356.6,220.5,357.2,220.5
			L357.2,220.5z"/>
		<path class="st0" d="M357.1,220.5c0.1-0.1,0.2-0.2,0.3-0.2C357.4,220.3,357.3,220.4,357.1,220.5
			C357.2,220.5,357.1,220.5,357.1,220.5z"/>
		<path class="st0" d="M352.5,263.1c-1.2-0.2-2.6-0.1-3.3-1.5C351.1,261.4,351.1,261.4,352.5,263.1z"/>
		<path class="st0" d="M354,262.5c-0.1,0-0.2-0.1-0.2-0.1c0-0.1,0.1-0.2,0.1-0.3c0.1,0,0.2,0.1,0.2,0.1
			C354.1,262.3,354,262.4,354,262.5z"/>
	</g>
</g>
<g id="TEXTS">
</g>
</svg>
