<?xml version="1.0" encoding="utf-8"?>
<!-- Generator: Adobe Illustrator 27.9.5, SVG Export Plug-In . SVG Version: 9.03 Build 54986)  -->
<svg version="1.1" xmlns="http://www.w3.org/2000/svg" xmlns:xlink="http://www.w3.org/1999/xlink" x="0px" y="0px"
	 viewBox="0 0 418.3 450" style="enable-background:new 0 0 418.3 450;" xml:space="preserve">
<style type="text/css">
	.st0{fill:#7E92A3;}
	.st1{fill:#7E92A3;stroke:#7E92A3;stroke-miterlimit:10;}
	.st2{fill:#B79C7B;stroke:#B79C7B;stroke-miterlimit:10;}
	.st3{fill:#B79C7B;}
</style>
<g id="BACKGROUND">
</g>
<g id="OBJECT">
</g>
<g id="TEXTS">
	<g>
		<g>
			<path class="st3" d="M163.2,103.5c0.4,2.4-3.5,1.6-5,1.5c-4.1-0.2-7.9-1.9-12-1.5c3.8,5.7,8.9,10.4,16.2,9.9
				c5.7-0.4,4.9-3.9,5.2-4.1c4.6-2.8,12.6,16.5,16.8,17.8c8.1,2.3,13.6-0.5,7.2-7.9c2.3,0.4,4.6-3.3,6.4-2.9
				c1.8,0.4,4.4,14.4,10.6,4.6c7-11.2,6.8-26.5,17.1-39.3c44.3-55.3,139.3-29.4,154.2,39c9.1,41.7-0.9,117.2-11.3,159.3
				c-5.7,23-23.1,46.1-34.2,66.7c-14.6,27-11.4,32.8-37.5,53.5c-2.6,2-2.9,5.8-7.2,7.1c-3.4,1.1-21-1.8-26-2.6
				c-11.5-2-22.9-5.5-34.1-8.5C150.3,374.7,42,348.8,35.3,249.2C32,200.1,40,157.9,78.7,124.8C106.2,101.4,127.7,98,163.2,103.5z
				 M301.8,59.4c-8.8-0.9-18.8,0.7-27.7,0c-0.8,3.3,0.6,2.3,1.8,3.3c6.2,4.8,13.9,12,22,8.5c5.2-2.3,5.3-10.6,12.1-8.7
				c6.2,1.7,6.4,14.8,17.3,14.1c1.7-0.1,11.9-2.9,9.3-5.8C325.8,66.5,313.6,60.6,301.8,59.4z M238.6,79.3h22c0.4,0,5.2-3.8,5.6-4.4
				c2.4-3.3,1.3-7.6,2.5-10.3c1.1-2.7,4.2-1.4,4-3.8c-17.9,0.8-43.3,20.8-48.3,37.7c-1.4,4.8,11.5,0.7,13.4-3.6
				C239.8,90.6,238,84,238.6,79.3z M306.8,67.9c-6.8,15.7-22.6,8-32.7,0c0,3.3-1.4,6.3-3.1,9c-7.8,12.4-25.7,8.3-26.8,9.5
				c-0.8,0.8,1.8,12.8-8.9,18.8c-1.8,1-7.5,2.2-7.9,2.8c-1.7,2.7,2.1,12.2-4.5,20.4c-6,7.4-6.5,3.1-11.4,4.4
				c-2.2,0.6-4.9,4.9-7.8,4.9c-3.5,0-6.4-6.6-8.5-6.7c-1-0.1-3.6,2.2-5.8,2.4c-13.9,1.6-19-18.4-21.2-18.4c-0.3,0-3.1,3.1-4.9,3.7
				c-10.3,3.1-18.1-7.9-19.2-7.9c-1.1,0-8.6,11.1-16.6,13.2c-8.6,2.3-18.8-2.5-19.6-1.9c-0.4,0.3-2,6.1-3.7,8.4
				c-1.7,2.3-7.7,8.6-9.8,10.1c-4.3,2.9-17,5.1-17.6,5.8c-0.6,0.7,0.1,7.6-0.5,10.2c-1.8,8.9-13.1,14.2-21,16.7
				c4.7,10.1,4.1,21.3-3.5,29.9c-2.5,2.7-7.8,4.6-8,5.1c-2.9,10.7,3.2,30,7.2,40.3c2.1,0.3,2.5-3.7,2.7-5.1
				c1.2-10.8-0.6-18.6-8.4-26.2c15.1,2.6,13.6,22.4,11.4,34.1c19.6-7.1,17,15.7,17.3,28.2c9,6,24.9,4.8,31.1,13.7
				c1.6,2.3,2.5,7.6,4.2,8.7c2.2,1.3,5.8-3.2,12.9,2.7c4.2,3.5,6.7,11.7,8.5,12.8c4.2,2.6,10.2-1.9,15.7-0.1
				c5.9,1.8,7.3,9.9,12.7,11.6c6.5,2,14.4-3.1,23.3-0.7c5.1,1.4,9.2,6.2,11.9,6.7c2.4,0.5,6.3-1.4,9.6-1.3
				c11.2,0.3,15.4,10.8,16.9,11c5.4,0.9,12.1-3.2,21.9,0c9.9,3.3,14.3,14.6,15.3,14.8c2.7,0.4,9.6-2.4,15.4-1.4
				c3.6,0.6,9.9,5.3,11.5,5.2c1.2-0.1,3.7-3.8,6.3-4.7c2.5-0.8,7.8-0.2,8.5-0.8c0.6-0.5,2.3-11.1,5.2-15.4
				c3.3-4.9,11.4-8.2,11.8-8.8c3.7-5.8-6.1-19.3,9.1-30c2.2-1.6,6.4-2.3,6.6-2.6c1.1-1.2-1.2-6.6-1.2-9c0.3-8.9,6.1-16.7,15.5-16.5
				c-3.4-5.8-6.1-11.3-3.2-18.1c3.2-7.3,16.3-7,17.4-12.5c0.2-0.8-2.7-0.9-3.5-2.1c-2.3-3.4-1.3-13,0.3-16.7
				c1.5-3.4,6.1-4.6,6.1-5.4c0.1-1.6-2.5-5.8-2.8-8.6c-1.8-16,10.4-20.2,11.1-24.2c0.1-0.8-5-10.3-5.2-14.4c-0.3-5,4-12.3,3.6-15
				c-0.2-1.4-2.8-3.7-3.6-6.3c-1.8-6.2-2.8-16.8,1.2-22.3c1.8-2.5,5.3-1.8,5.7-3c2-6.9-3-4.1-7.3-5.5c-11.8-4-7.7-17.9-10.1-21.9
				c-0.3-0.5-7.1-2.7-9.7-5.2c-3.6-3.4-8.3-11.2-8.5-16.3C323.4,88.1,316.2,78.6,306.8,67.9z M359.4,93.5c0.6-0.5-7.7-11-9.9-11.4
				C350.2,87.3,353.5,93.5,359.4,93.5z M372.2,120.5c1.2-2.7-6.5-23.3-9.9-19.9C360.9,101.9,365,121.5,372.2,120.5z M140.5,103.5
				c-39.7-3.6-75.4,30.1-88.1,65.4c1.1,1.1,15.2-5.7,17.1-7.8c6.3-7.1-1.2-14.8,3.5-19.2c2.6-2.5,9.7-2.3,13.5-3.6
				c10.9-3.8,14.7-13.9,19.2-23.4C118.1,123.7,136.4,118.4,140.5,103.5z M218.6,123.4c0.7-0.7,1.6-6.9,1.4-8.5l-4.2,7.8
				C215.6,123.9,218.5,123.5,218.6,123.4z M376.4,154.6l-2.1-24.2c-5.4,5.2-4.3,14.9-1.4,21.3C373.9,154,372.7,155.3,376.4,154.6z
				 M375,183.1l1.4-19.9c-3.1,1.1-4.1,4.9-4.3,7.8L375,183.1z M50.9,177.4c-2.3-2.4-2.4,0.5-2.9,2.1c-2.2,7.6-2.9,15.7-4.2,23.5
				c3.4-1.7,7.5-8.9,8.2-12.4C52.5,188.2,51.9,178.4,50.9,177.4z M369.3,217.2l4.3-22.7c-6.5,4.7-8,10.9-6.7,18.8
				C367.1,214.5,367.5,217.6,369.3,217.2z M366.5,225.7c-7.6,1.1-7.5,9.9-7.1,15.6c3.7,0.7,2.5-0.7,3.5-2.8
				C363.8,236.6,367.3,226.7,366.5,225.7z M367.9,247.1c-9.4,38.1-32.1,70.8-51.4,104.2c-4.8,8.2-7.9,21.8-18.2,24.5
				c-15.1,3.9-48.1-8.1-64-12.8c-25.3-7.6-54.2-16-78.8-25c-44-16-96.5-49.6-114.4-94.6c-1.4-3.6-1.9-3.5-1.6,0.2
				c0.5,8,6.1,40.1,9.4,46.1c15.5,28.3,61.9,62,90.6,75.7c30.3,14.5,63.8,17.7,96.3,24.5c16.8,3.5,33.4,9.4,50.5,11.9
				c7.5,0.3,10.8-16.3,15.6-18.2c5.6-2.3-2.1,9.3,0,9.9c15.9-14.5,20.1-34,28.9-52.1c4.1-8.4,10.3-17,14.3-25.5
				c8.6-18.7,19.7-44.3,24-64.1C369.3,250.2,370.4,246.7,367.9,247.1z M66.2,255.9c-2.9-3-11.5-0.9-11,0.4l6.5,10.6l7.7,7.2
				C68.1,269.3,69.8,259.5,66.2,255.9z M350.8,272.6l5.7-18.5C346.9,255.9,341.8,266.7,350.8,272.6z M338,298.2l8.5-19.9
				C337.9,279.6,330.8,291.9,338,298.2z M102.1,302.5c-1.6-9.6-11.6-13.4-19.9-15.6C87.7,293.3,95.2,297.8,102.1,302.5z
				 M333.8,305.3c-10,0.4-13.6,11.3-12.8,19.9L333.8,305.3z M122,312.4c2.7-2.5-7.4-7.2-9.9-5.7C112.4,309.1,121.1,313.3,122,312.4z
				 M188.8,335.2c-0.3-0.3-7.4-3.8-8.1-4c-4.1-0.9-9,0-13.2-0.3l19.2,7.1C189.1,339,189.6,336.1,188.8,335.2z M214.4,348
				c0-9.7-11.5-9.7-18.5-8.5C200.3,344.5,208.7,345,214.4,348z M306.8,350.8c3.1-1.7,5.3-6.6,5.7-9.9
				C308.8,342.6,306.5,346.8,306.8,350.8z M252.8,360.7c-5.2-11.5-18.7-11.8-29.8-11.4c-0.7,4,1,2.3,3.1,3.2
				C229.4,353.9,251.7,361.6,252.8,360.7z M282.6,369.3c-3.9-6.6-12.9-7.5-19.9-7.1c-0.7,3.8,0.7,2.5,3.1,3.2
				C271.2,367.1,277.2,367.6,282.6,369.3z M292.1,363.8c-3.3,1.1-3.3,5.2-0.3,6.6C302.5,370.1,301.1,360.9,292.1,363.8z"/>
			<path class="st3" d="M190.2,303.9c-3.7,0.6-2.5-0.6-3.5-2.9c-2.8-6.8-1.2-13.3-3.6-19.9c6.1-1.4,0.3,7.9,4.2,8.5
				c0.1-3.7-0.9-7.3,1.4-10.7c3.4-5.2,4.4,2.9,7.2,3.6c0.5-3.5,2.1-15.6,8.4-11.2c0.8,0.6,5.1,15.8,6.2,18.7
				c0.7,1.9,1.8,6.4,3.9,6.7c4.2-10.6-4.3-21.8,3.6-31.3c0,5.4-1.8,10.3,0.7,15.6l3.6-15.6c2.5-1.2,2.6,2.5,3.1,4
				c0.4,1.3,5.1,19.3,7.4,10.8c1.4-5.2-0.4-12-2.9-16.7c-0.9-1.7-3.9-3.8-4-4.5c-1.2-5.2,6.5-1.8,8.9-2.3c2.5-0.5,4.4-3.4,6.3-3.7
				c7.5-1.5,5.5,17.9,11.8,21c0.5-10.9-2-21.2-5.7-31.3c8.4,3,11.2,0,18.5-2.9c0.2,3.2,3.9,21.2,6.4,21.3c4.2-2.6,1.7-28.9,9.2-22.7
				c0.8,0.6,3.7,20,10,16.4c5.7-3.2-0.3-19.1,1.4-25c10.6-2.3,8.4,6.3,8.5,14.2c9.8-2,7.4-11.5,9.6-18.1c1.6-4.8,6-5.8,6.8-8.8
				c1.1-4-0.8-22.8,2.7-22.9c3.7,0,2.1,32.6,11.4,35.5l2.1-7.1c9.8-2.1,4.9,14.3-0.7,14.3c-3.5,0-7.2-7.4-10.6-8.6
				c0.3,3.2-2.6,11.9-4.6,13.9c-1.4,1.4-4.2,0.3-5.4,1.1c-1.9,1.4-3.1,5.9-5.7,7.1c-2.8,1.2-5.6-1.3-7.1-0.2c-2.6,1.9-3,15.6-14,8.6
				c-3.3-2.1-3.1-5-5.8-6.3c-2.4,33.2-17,15.3-18.5-5.7c-1,1-5.4,2.8-5.5,3.1c-1,1.7,7.2,30.2-0.9,35.3
				c-12.8-2.2-10.4-17.3-14.1-24.2c-1.3-2.5-3,0.6-5,0.1c5,11.9,5.6,38.9-12.8,24.2c-1.9,3.9-1.5,18.5-5.2,19.8
				c-12.3,4.3-11.7-20.6-16.9-26.9c-2.8,2.9,2,17.9-1.4,18.5c-4.8,0.8-4.6-11.7-9.2-12.8V303.9z M315.3,232.8l1.4-11.4
				C313.3,222.1,312.3,231.5,315.3,232.8z"/>
			<path class="st3" d="M281.2,123.4c1.2,1.2-1.2,9.3-2.1,11.4c-3.8,8.7-12.1,14.8-20.7,17.9c2.2,4.2,1.5,33.3,7.9,31.8
				c5.3-1.2,2.7-12.2,2.5-15.3c-0.6-11.4,7.1-2.3,8.4,4.6c3.4,17.3-14.5,26.6-22,9.1l-3.8-21.1c-1.7,9.2-6.9,18.2-9.4,26.9
				c-1.2,4.3-0.2,17.1-7,18.6c-6.8,1.4,0.6-13.3,0.4-15c-0.2-1.4-4.8-3.7-6-3.5c-3.1,0.6-2.8,26.5-14.3,28.5
				c-3.4,0.6-7.5-1.8-7.7-1.5c-0.5,0.8,0.2,10.6-7.6,8.4c-6.1-1.7-2.7-19.5-8-22.6c-7.4,11.2-1.4,21.8-1.7,33.4
				c-0.1,4.5-4.8,27.9-11.7,26.3c-2.5-0.6-5-10.8-5-13.5c-0.2-21,13.2-30,5.6-55.1c-0.4-1.4-3.6-0.7-2.7-3.2
				c1.2-3.4,3.5-1.2,4.9,0.8c2.8,4,2.4,9.2,5.8,12.7c8.9-16,13.6-1,13.5,10c5.8-1.5-0.2-18.4,6.4-17c3.8,0.8-0.2,21.3,9.1,15.4
				c1.6-1,6.7-23.5,6.6-26.7c-0.1-3-2.7-5.5-2.1-7.8c0.6-2.3,5.6-3.1,6.9-2.1c0.7,0.5,3.3,11.7,9.4,12.6l13.5-33.4
				c-8.6-3.7-16,5-23.4,6.4c-2.8,0.5-2.1,0.4-1.4-1.4c1.4-3.8,7.8-6.7,11.7-8.2c3.5-1.3,13.8-2.9,14.4-3.4
				c2.3-1.9,0.2-16.1,3.8-16.9c5.8-1.2,2.3,13,4.2,15.6c3.8-2.5,7.9-5.7,10.7-9.2C271.8,134.4,277.6,119.7,281.2,123.4z
				 M180.3,251.3c2.4-8.3,3.5-16.9,2.8-25.6l-4.2,14.9L180.3,251.3z"/>
			<path class="st3" d="M125.9,231.7c4.5,4,7.4,26.8-9.7,21.8c-4.7-1.4-24.2-15.3-16-20.4c6.1-3.8,8.5,5.1,14.6,5.4
				C113.3,232,121.3,227.7,125.9,231.7z"/>
			<path class="st3" d="M328.1,130.5c2.4,7.4-0.8,20.5-9,23.1c-3.9,1.2-20.5-11.6-12.8-17.3c4.6-3.5,8.8,4.2,9.8,4.2
				C316.9,140.4,322.1,127.9,328.1,130.5z"/>
			<path class="st3" d="M279.8,325.2c0.4-9.6,7.7-10.8,8.4-0.5c0.9,13.1-2.6,22.2-14.1,9.8C263,322.3,265.7,307.5,279.8,325.2z"/>
			<path class="st3" d="M147.4,175.7c-8.6,5.3-25.2-17.8-11.8-16.7c2.1,0.2,3.5,2.4,4.3,2.4c1,0,4.9-5.5,7.8-6.2
				C157.9,152.4,148.7,174.9,147.4,175.7z"/>
			<path class="st3" d="M294,200.1l-0.7,4.3c-1.5-1.3-2.6-2.2-2.1-4.2L294,200.1z"/>
		</g>
	</g>
</g>
</svg>
