<?xml version="1.0" encoding="utf-8"?>
<!-- Generator: Adobe Illustrator 27.9.5, SVG Export Plug-In . SVG Version: 9.03 Build 54986)  -->
<svg version="1.1" xmlns="http://www.w3.org/2000/svg" xmlns:xlink="http://www.w3.org/1999/xlink" x="0px" y="0px"
	 viewBox="0 0 700 700" style="enable-background:new 0 0 700 700;" xml:space="preserve">
<style type="text/css">
	.st0{fill:#7E92A3;}
	.st1{fill:#7E92A3;stroke:#7E92A3;stroke-miterlimit:10;}
	.st2{fill:#B79C7B;stroke:#B79C7B;stroke-miterlimit:10;}
</style>
<g id="BACKGROUND">
</g>
<g id="OBJECT">
	<g>
		<path class="st2" d="M232.8,226.3c1.1,4.4,2.4,8.8,3.4,13.2c1.8,8.1,1.5,16-2.9,23.4c-0.6,1-1,2.1-1.7,3.6
			c10,0.5,19.2,3.1,28.6,5.1c2.4,0.5,5.7,0.4,5.7,4.6c-2.6,0.2-4.8-0.4-7.1-1c-6-1.4-12-2.5-17.9-3.9c-7.5-1.7-13.6,0.9-18.6,6.3
			c-8.2,8.8-15.7,18.2-22.9,27.9c-1.9,2.5-3.8,5-5.7,7.5c-1.9-0.1-2.3,0.7-1.3,2.3l0,0c-0.7,0.2-1.1,0.7-1,1.4
			c-12.1,19.5-22,40.1-30.2,61.5c-11.4,29.6-21,59.9-33,89.2c-3.8,9.3-8.2,18.3-12.6,27.4c-5.2,10.4-11.1,20.3-17.5,30
			c-9.1,13.9-19.9,26.4-31.4,38.4c-7,7.2-14.8,13.6-21.9,20.7c-1.4,0.5-2.9,1-4.3,0l-0.2,0.3c0,0,0.3-0.3,0.3-0.3c0-0.6,0-1.2,0-1.9
			c0,0-0.1,0-0.1,0c0.7-0.1,1.1-0.6,1.2-1.3c0,0-0.1,0.1-0.1,0.1c1.3-0.3,2.1-1.1,2.4-2.5c0,0-0.1,0-0.1,0c0.7-0.1,1.1-0.5,1.3-1.2
			l0,0c0.7-0.1,1.1-0.5,1.2-1.2l0,0c0.9-0.2,1.5-0.7,1.8-1.6c0,0,0.3-0.3,0.3-0.3c0.5,0,0.8-0.3,0.9-0.9c0,0,0.3-0.2,0.3-0.2
			c0.6,0,0.9-0.3,1-0.9c0,0,0.2-0.2,0.2-0.2c0.6,0,1-0.3,1-1c0,0,0.2-0.2,0.2-0.2c0.6,0,1-0.4,1-1c0,0,0.2-0.1,0.2-0.1
			c0.7,0,1.1-0.3,1.2-1c0,0,0.1-0.1,0.1-0.1c0.7-0.1,1.1-0.4,1.1-1.1c0,0,0,0,0,0c0.7-0.1,1-0.5,1.1-1.1c0,0,0.1-0.1,0.1-0.1
			c0.7-0.1,1.2-0.3,1.2-1.1c0,0,0,0,0,0c0.7-0.1,0.9-0.6,1-1.2c0,0,0.2-0.1,0.2-0.1c0.7,0,1.1-0.3,1.1-1.1c0,0,0.1-0.1,0.1-0.1
			c0.6-0.1,1-0.4,1.1-1c0,0,0.1-0.1,0.1-0.1c0.7,0,1.2-0.4,1.1-1.1l0,0c0.6-0.2,0.9-0.6,0.9-1.2c0,0,0.2-0.2,0.2-0.2
			c0.6,0,1-0.3,1-1c0,0,0.2-0.2,0.2-0.2c0.6,0,1-0.3,0.9-1c0.4,0,0.6-0.3,0.5-0.7c0.7-0.3,1.2-0.8,1.3-1.5c0,0-0.1,0.1-0.1,0.1
			c0.7-0.1,1.1-0.6,1.2-1.3l-0.1,0.1c0.7-0.1,1.1-0.6,1.2-1.3c0,0,0,0.1,0,0.1c0.7-0.1,1.1-0.6,1.2-1.3l0,0c0.7-0.1,1.2-0.4,1.2-1.2
			c0,0,0,0,0,0c1.5-1.4,3.2-2.5,3.7-4.7c0,0,0,0,0,0c0.7-0.2,1.1-0.6,1.1-1.3l0,0c0.7-0.1,1.1-0.5,1.2-1.2c0,0,0,0,0,0
			c0.8-0.1,1.1-0.5,1.1-1.3l0,0c0.6-0.2,0.9-0.6,0.9-1.2c0,0,0.2-0.2,0.2-0.2c1.5-0.6,2.4-1.7,2.5-3.3c0,0,0,0,0,0
			c0.6-0.2,1-0.6,0.9-1.3c0,0,0.2-0.2,0.2-0.2c0.8-0.4,1.3-1.1,1.5-2l-0.1,0.1c0.7-0.2,1.1-0.6,1.1-1.3c0,0,0,0,0,0
			c0.7-0.2,1-0.6,1-1.3c0,0,0.1-0.1,0.1-0.1c1.2-1.9,3.8-2.9,3.9-5.6l-0.1,0.1c0.8-0.2,1-0.7,1-1.4c0,0,0,0,0,0
			c1-0.4,1.3-1.3,1.6-2.2c0.6,0,0.9-0.4,0.9-1c1.2-0.5,1.2-1.6,1.2-2.6l-0.1,0.1c0.7-0.2,1.2-0.4,1.2-1.2c0,0,0,0,0,0
			c1-0.5,1.2-1.4,1.3-2.3c0,0-0.1,0.1-0.1,0.1c1.1-0.5,1.1-1.5,1.2-2.5c0,0-0.1,0.1-0.1,0.1c0.7-0.2,1-0.7,1-1.4
			c0,0,0.1-0.1,0.1-0.1c0.9-0.5,1.4-1.2,1.4-2.2c0,0-0.1,0.1-0.1,0.1c1.1-0.5,1.2-1.5,1.2-2.5l0,0c0.9-0.5,1.2-1.3,1.4-2.3l-0.1,0.1
			c0.7-0.2,1.1-0.7,0.9-1.5l0.3-0.2c0,0-0.1-0.4-0.1-0.4c0.7-0.3,1.1-0.9,1-1.7c0,0,0,0,0,0c0.9-0.5,1.3-1.3,1.3-2.3
			c0,0,0,0.1,0,0.1c1-0.6,1.2-1.5,1.1-2.5c0,0,0,0,0,0c0.7-0.7,1.3-1.4,1.2-2.4l0,0c0.8-0.6,1.2-1.4,1.2-2.3c0,0,0,0,0,0
			c1.1-0.5,1.2-1.4,1.2-2.4c0,0,0,0,0,0c1-0.5,1.3-1.4,1.1-2.5l0.3-0.3l-0.2-0.4c1.7-1.3,2.1-3.2,2.3-5.2l0,0.1
			c1-0.6,1.1-1.5,1.1-2.5c0,0,0,0,0,0c0.9-0.6,1.2-1.4,1.1-2.4l0.3-0.3l-0.1-0.4c0.7-0.3,1-0.9,0.9-1.7l0.4-0.3c0,0-0.1-0.4-0.1-0.4
			c0.9-0.7,1.1-1.7,1.2-2.8c0,0,0,0.1,0,0.1c1.2-0.9,1.2-2.2,1.4-3.5c0,0,0,0.1,0,0.1c0.9-0.7,1.1-1.6,0.9-2.7l0.3-0.3l-0.1-0.4
			c0.7-0.3,1-0.8,0.9-1.6l0.3-0.2c0,0-0.1-0.4-0.1-0.4c0.9-0.8,1-1.8,1-3l0.3-0.2c0,0-0.1-0.4-0.1-0.4c1-0.7,1.2-1.8,1.1-2.9l0,0.1
			c0.6-0.2,0.9-0.6,0.8-1.3c1-0.6,0.6-1.4,0.4-2.2c0.8-0.7,1.2-1.5,1-2.6c0.4-0.2,0.4-0.4,0.3-0.8c1.2-0.5,1.4-1.5,1.3-2.7
			c0,0-0.1,0.1-0.1,0.1c1.2-1,0.9-2.4,1-3.7l0,0c1.5-1.7,2.6-3.5,2.1-5.9c0.4-0.2,0.5-0.6,0.3-1c1-1,1.7-2.2,1.3-3.7
			c0,0,0,0.1,0,0.1c0.8-0.7,1.1-1.5,0.9-2.6c0.3-0.3,0.4-0.7,0.2-1.1c1-1,1.1-2.3,1.3-3.6c0,0,0,0.1,0,0.1c1.3-0.4,1.4-1.4,1.1-2.5
			l0.3-0.3l-0.2-0.4c1.2-1,1.2-2.5,1.3-3.9l0,0.1c1.8-2.1,2.2-4.6,2.3-7.3c0,0,0,0.1,0,0.1c1.1-1,1.3-2.3,1.1-3.7l0,0
			c0.7-0.6,1.4-1.3,1-2.4c0.3-0.3,0.4-0.7,0.1-1.1c1.1-1,1.3-2.2,1.3-3.6c0,0,0,0.1,0,0.1c1.5-0.9,1.3-2.3,1.1-3.7c0,0,0,0,0,0
			c0.7-0.7,1.1-1.5,1.1-2.5l0-0.1c1.3-2.6,2.4-5.2,2.6-8.1c0,0,0,0.1,0,0.1c1.2-1,1.1-2.4,1.2-3.7c0,0,0,0.1,0,0.1
			c1-0.6,1.2-1.5,1-2.5c0.4-0.2,0.4-0.4,0.2-0.8c1.6-1.8,2-4,2.4-6.3l0,0c1-0.6,1.1-1.5,1.1-2.5c0,0,0,0,0,0
			c1.2-0.8,1.4-2.1,1.4-3.4c0,0-0.1,0.1-0.1,0.1c1.1-0.5,1.2-1.5,1.2-2.5c0,0,0,0.1,0,0.1c1.1-0.5,1-1.5,0.9-2.5
			c0.4-0.2,0.5-0.5,0.3-0.9c1-0.6,1.2-1.6,1.2-2.7c0,0,0,0.1,0,0.1c0.8-0.6,1.3-1.4,1.3-2.4c0,0,0,0.1,0,0.1c1-0.6,1.1-1.5,1.1-2.5
			c0,0,0,0,0,0c0.8-0.6,1.3-1.3,1.3-2.3c0,0,0,0,0,0c1.2-0.8,1.2-2.2,1.5-3.4c0,0-0.1,0.1-0.1,0.1c1.5-1.3,2.4-2.9,2.3-4.9
			c0,0,0,0.1,0,0.1c1.1-0.4,1.3-1.3,1.4-2.3c0,0,0,0.1,0,0.1c0.8-0.2,0.9-0.8,0.9-1.5l0,0c1.5-1.2,2.1-2.9,2.3-4.7l0.4-0.2l-0.1-0.4
			c0.7-0.3,1.1-0.9,1.1-1.7l0,0c1-0.4,1.3-1.4,1.3-2.3c0,0,0,0.1,0,0.1c1-0.4,1.2-1.4,1.4-2.3l-0.1,0.1c0.7-0.2,0.9-0.8,0.9-1.5
			c0,0,0,0,0,0c1-0.4,1.2-1.3,1.3-2.3l-0.1,0.1c0.7-0.2,1.2-0.5,1.1-1.3l0,0c0.9-0.5,1.1-1.4,1.2-2.4c0,0,0,0,0,0
			c0.9-0.4,1.3-1.2,1.5-2.2c0,0,0,0.1,0,0.1c1.6-1.3,2.8-2.9,3.6-4.8l-0.1,0.1c0.7-0.1,1.2-0.5,1.2-1.3c0,0,0,0,0,0
			c1-0.5,1.1-1.5,1.2-2.4c0,0-0.1,0.1-0.1,0.1c0.7-0.2,1-0.6,1.1-1.3c0,0,0,0,0,0c0.7-0.1,1.1-0.5,1.1-1.2c0,0,0.1-0.1,0.1-0.1
			c1.5-0.6,2.3-1.8,2.6-3.3l-0.1,0.1c0.7-0.2,1.1-0.6,1.1-1.3c0,0,0,0,0,0c1.4-0.7,2.1-2,2.6-3.4c0,0-0.1,0.1-0.1,0.1
			c0.7-0.1,1.2-0.5,1.3-1.3c0,0-0.1,0.1-0.1,0.1c0.7-0.2,0.9-0.8,0.9-1.5c0,0,0.1-0.1,0.1-0.1c0.7-0.1,1-0.5,1-1.2
			c0,0,0.1-0.1,0.1-0.1c1.3-0.7,2.2-1.8,2.8-3.1l0,0.1c0.7-0.1,1.1-0.5,1.2-1.2l-0.2-0.2c0,0,0.2,0.3,0.2,0.3c0.8-0.2,1-0.7,1.1-1.4
			l-0.1,0.1c0.7-0.2,1.1-0.6,1.2-1.3l0,0c0.7-0.1,1.1-0.5,1.2-1.2l0,0c0.7-0.1,1.1-0.5,1.1-1.2c0,0,0-0.1,0-0.1
			c0.6-0.1,1-0.5,1.1-1.1c0,0,0.1-0.1,0.1-0.1c3.4-2.1,5.5-5.5,8.2-8.3c0,0,0.1-0.1,0.1-0.1c0.7,0,1.1-0.3,1.2-1c0,0,0,0,0,0
			c0.7,0,1.2-0.4,1.3-1.1l-0.1,0.1c0.7-0.1,1.2-0.5,1.5-1.2c0.4,0.1,0.7,0,0.8-0.4c0.7,0.1,1.1-0.2,1.2-0.9c0,0,0.1-0.1,0.1-0.1
			c0.7-0.1,1.1-0.4,1.3-1.1c0,0,0,0,0,0c1.6-0.1,2.1-1.1,2.2-2.5c0,0,0.1-0.1,0.1-0.1c0.9-0.5,1.2-1.3,1.2-2.2c0,0,0,0,0,0
			c1-0.5,1.2-1.3,1.1-2.3l0.3-0.2c0,0-0.1-0.4-0.1-0.4c0.7-0.4,0.9-1,0.8-1.7c0.4-0.1,0.5-0.4,0.3-0.8c1.6-3.4,1.3-6.9,0-10.3
			c0-0.7-0.1-1.4-0.1-2c0.1-5.8-1.1-11.4-2.2-17c0.6-2.1,0.4-4.3,0.1-6.5c0.4-0.5,0.7-1,1.1-1.5c0.2,0,0.5,0,0.7,0
			C232,222.3,230.9,224.7,232.8,226.3z"/>
		<path class="st2" d="M326.9,323.9c-4.5-8.3-9.5-16.4-15.4-23.8c-1.7-2.2-3.6-4.1-5.6-6.1c-5.1-5.2-10.1-10.5-13.9-16.8
			c-2.3-3.8-2.7-4-6.3-1.6c-4.3,2.8-8.7,1.6-13.1,1.6c-0.4-2.2,0.6-3.2,2.5-3.3c1.2-0.1,2.4,0,3.6-0.2c4.8-0.5,8-3.3,8.8-8
			c1.4-8.2,4.7-15.4,9.7-22c2.3-3,4.4-6.1,4.8-10c1.1-1,0.5-4.1,3.4-2.6c0.9,2,0.2,4,0.5,6.1c-0.9,1.7-1.6,3.7-2.8,5.1
			c-4.2,4.8-4.4,9.7-1.2,15.1c0.2,0.3,0.1,0.8,0.2,1.2c-0.8,0-1.7,0-2.5,0.1c-1.5-1.1-0.5-4-3.2-4.2c-1.2,4.3-3.4,8.3-3.9,12.9
			c-0.2,2.1,0.2,3.8,1.6,5.4c3.6,3.9,7.1,7.8,10.6,11.7c0.1,0.9,0.6,1.3,1.5,1.4c4.3,2,7.9,5.1,11.6,8
			c13.7,10.7,22.7,24.3,25.9,41.7c1.9,10.5,5.8,20.4,9.6,30.3c0.9,6,3.5,11.4,5.8,16.9c-0.2,0.4-0.2,0.7,0.2,0.9
			c-0.2,1.1,0.2,1.9,1,2.6c-0.2,0.4-0.1,0.7,0.2,1c-0.2,1,0.3,1.7,1,2.4l0,0c-0.1,1.3,0.2,2.6,1.2,3.6c0,0,0,0,0,0
			c-0.1,1.1,0,2.1,1.1,2.8l-0.1,0.4l0.3,0.3c-0.2,1.5-0.1,3,1,4.2c-0.4,0.7-0.3,1.2,0.3,1.7c0.5,3.7,0.6,7.6,2.1,11.2
			c-0.4,1.5-0.2,2.9,0.2,4.3c-0.2,2.4,0.5,4.8-0.2,7.1c-1.4-0.7-0.7-2.8-2.2-3.6c-1.1-2.8-0.8-6-2.3-8.7c0.2-0.3,0.2-0.6-0.2-0.8
			c0.1-1.4-0.2-2.6-1.1-3.6l0,0c0.1-1.4,0.2-2.7-1.1-3.7l0,0.1c-0.2-1.3,0-2.7-1.2-3.7l0,0.1c-0.1-1.3-0.2-2.6-1.3-3.5c0,0,0,0,0,0
			c0.1-1-0.1-2-1-2.6l0.1,0.1c-0.2-1.3-0.1-2.6-1.4-3.5c0,0,0,0,0,0c0-1-0.2-1.9-1.1-2.5l0,0c-1-4.9-3.6-9.3-5-14.1
			c0.2-1.7-1.5-3-1.1-4.8c0-0.9-0.1-2.3-1.2-1.9c-1.7,0.6-1.1,2-0.1,3c0.1,10.7,0.3,21.4,0.4,32.1c-0.4,7.1-0.9,14.2-1.3,21.3
			l-0.3,0.4c0,0,0.2,0.4,0.2,0.4c-1.1,2-1,4.2-1.2,6.3c0,0,0-0.1,0-0.1c-1.1,1.5-1.2,3.1-1.1,4.9l-0.3,0.3c0,0,0.1,0.4,0.1,0.4
			c-1.4,1.1-0.9,2.6-1,4c-0.4,0.2-0.4,0.5-0.2,0.8c-1,0.7-1.2,1.7-1.1,2.8l-0.3,0.2c0,0,0.1,0.4,0.1,0.4c-1,0.8-1.1,1.8-0.9,3
			c-0.4,0.2-0.4,0.5-0.2,0.8c-1,0.7-1.1,1.7-1.2,2.7l0,0c-1,0.6-1.3,1.4-1,2.5c-0.3,0.3-0.4,0.6-0.2,0.9c-0.9,0.6-1.3,1.5-1.2,2.6
			l0,0c-1.1,0.9-1.2,2.3-1.3,3.6l0-0.1c-1,0.6-1,1.6-1,2.5c0,0,0,0,0,0c-1.6,3-3.1,6.1-3.6,9.5c0,0,0,0,0,0c-0.8,0.6-1.2,1.4-1,2.4
			c-0.3,0.2-0.4,0.6-0.2,0.9c-0.9,0.6-1.2,1.6-1,2.6c-0.4,0.2-0.4,0.4-0.2,0.8c-1,0.7-1.1,1.7-1,2.8c-0.4,0.2-0.4,0.4-0.2,0.8
			c-1.1,0.7-1,1.7-0.9,2.8c-0.4,0.2-0.4,0.6-0.2,0.9c-1.2,1-1.3,2.4-1.1,3.8l0,0c-1,1-1.3,2.2-1.1,3.6c-0.5,0.5-0.6,1.2-0.3,1.8
			c-1,0.8-1,1.8-0.8,2.9c-0.3,0.3-0.4,0.6-0.3,1c-1.5,1.4-0.8,3.2-1,4.9c-0.4,0.3-0.4,0.6-0.2,1c-1.2,1.5-1.1,3.2-1,5
			c-0.1,0.4-0.1,0.8-0.2,1.1c-1.5,3.8-2,7.9-2.1,11.9c-0.1,0.6-0.2,1.3-0.2,1.9c-0.4,0.5-0.7,1.1-1.1,1.6c-1.1,0.7-2.3,0.8-3.4,0
			c-0.5-7.2,1.9-14,3.1-21c3.1-17.6,9.2-34.3,16-50.7c8-19.1,10.5-39,9.7-59.6c-0.6-16.3-3.6-32-6.8-47.9c-1.6-8-4.9-15.3-6.9-23.1
			c0.9-0.4,2.1,0.7,2.9-0.6C329.4,325.1,328.1,324.5,326.9,323.9z M341.4,354c-0.7-0.2-1.2-0.4-1.8-0.4c-0.3,0-1,0.4-1,0.5
			c0.3,1,1.2,0.7,1.9,0.6C340.8,354.7,341,354.3,341.4,354z"/>
		<path class="st2" d="M382.3,616.4l-0.4-0.1l-0.3,0.3c-1.4-0.2-2.6,0-3.6,1.1l0,0c-1.9,0-3.7,0-5.3,1.2l-0.3-0.2l-0.3,0.2
			c-1.4-0.1-2.6,0-3.6,1.2c0,0-0.1,0-0.1,0c-1.5,0.2-2.7,1-3.7,2.2c0,0,0,0,0,0c-1,0.1-1.9,0.3-2.3,1.3l0,0
			c-3.1,0.5-5.7,1.9-8.3,3.6c0,0,0,0,0,0c-1.3-0.1-2.6,0.1-3.5,1.2l0,0c-1.4-0.1-2.8,0-3.9,1.1l-0.4-0.2l-0.4,0.3
			c-1.7-0.1-3.5-0.4-4.9,1c0,0-0.1,0-0.1,0c-2.9,0-5.8-0.2-8.5,1.2c-0.7-0.3-1.4-0.3-2.1,0.1c-4.9,0.1-9.9-0.5-14.7,1.1l-0.4-0.2
			l-0.4,0.3c-2.1,0-4.2-0.4-6.1,1.1l0,0c-1.6,0.2-3.4-0.2-4.7,1.3l-0.1,0c-1,0-1.9,0-2.5,1c0,0,0,0,0,0c-1,0-1.9,0.1-2.4,1.1
			c0,0,0,0,0,0c-3.2,0.2-5.7,1.9-8.2,3.6l0,0c-1,0-1.9,0.2-2.4,1.2l0,0c-5.5,0.6-10.9,2.1-16.5,1.4c-1.4-0.6-2.8-0.7-4.2-0.1
			c-5.2-1.9-10.7-1-16-1.2l-0.4-0.3c0,0-0.4,0.3-0.4,0.3c-2.8-1.2-5.8-1-8.7-1l-0.3-0.3c0,0-0.5,0.1-0.5,0.1c-0.6-1-1.7-1-2.7-1.1
			c0,0,0,0,0,0c-0.5-1.1-2.3-1.9-1.2-3.5c1.1-1.7,2.4-0.3,3.6,0c0.4,0.1,0.8,0,1.1,0.1c10.6,0.9,21.2-0.2,31.9,0.1
			c6.5,0.1,12.4-1.4,18.1-4.7c2-1.2,4.4-1.7,6.6-2.7c5.7-2.6,11.7-3,17.8-3.3c9.1-0.4,18.2,0.5,27.2-1.1c5.3-1,10.5-2.1,15.5-3.9
			c1.3-0.5,2.9-0.8,3.7-1.7c4.4-5.1,10.7-5.5,16.8-7c-0.9-2.3-3-2.5-4.7-3.1c-9.9-3.9-18.8-9.1-25.8-17.3c-3-3.5-5-7.6-7.2-11.5
			c-3.6-6.4-7.4-12.6-11.6-18.6c-3.1-4.4-4.2-9.7-6.3-14.5c0.1-2,0.1-3.9,0.2-5.9c0,0-0.1,0.1-0.1,0.1c0.9-0.1,1.7-0.5,2.2-1.3
			c0,0,0.1-0.1,0.1-0.1c2.3-1,3.8,1.1,5.7,1.5c0,0,0,0,0,0c0.8,1.5,1.7,3.1,2.5,4.6l0-0.1c-0.1,1.1,0.1,2.1,1.1,2.7
			c-0.2,0.4-0.1,0.6,0.3,0.8c-0.1,0.7,0.1,1.2,0.8,1.4l-0.1-0.1c0.1,1,0.2,1.9,1.2,2.4c0,0,0-0.1,0-0.1c0.1,1,0.7,1.6,1.5,2.1
			c0,0,0,0.1,0,0.1c-0.1,0.7,0.2,1.2,0.9,1.4l-0.1-0.1c0.5,1.4,1.3,2.6,2.6,3.4c0,0,0,0,0,0c0,0.7,0.4,1.2,1.1,1.3l0-0.1
			c0.4,1.5,1.2,2.7,2.5,3.5c0,0,0,0,0,0c0,0.7,0.3,1.2,1,1.4l-0.1-0.1c0.1,1,0.4,1.9,1.4,2.3c0,0,0-0.1,0-0.1c0.1,1,0.3,1.9,1.3,2.4
			l0,0c0,1,0.1,1.9,1.1,2.5l0,0c0,0.8,0.5,1.2,1.2,1.3c0,0-0.1-0.1-0.1-0.1c0.1,1-0.1,2.1,1.2,2.5l0,0c0.2,0.9,0.3,1.9,1.3,2.4
			c0,0-0.1-0.1-0.1-0.1c0.1,1.3,0.1,2.6,1.5,3.4c0,0,0.1,0.1,0.1,0.1c0,0.7,0.1,1.2,0.8,1.5c0,0-0.1-0.1-0.1-0.1
			c0.1,1,0.4,1.8,1.4,2.3l0-0.1c0.1,1,0.3,1.9,1.3,2.4l0,0c0,1,0.3,1.9,1.3,2.2l0,0.1c0,0.7,0.3,1.2,1,1.4l0-0.1
			c0,0.7,0.4,1.2,1.1,1.4c0,0-0.1-0.1-0.1-0.1c0.1,1,0.2,1.9,1.5,2.1c0,0,0.1,0.1,0.1,0.1c0.1,0.6,0.4,0.9,1.1,0.9l0.2,0.4
			c0,0,0.5,0,0.5,0c0.2,0.8,0.7,1.2,1.5,1.3l0.2-0.3c0,0-0.2,0.3-0.2,0.3c1.3,1.6,2.8,2.9,4.9,3.5c0,0,0,0,0,0
			c0.2,0.7,0.7,1,1.3,0.9c0,0,0.2,0.1,0.2,0.1c0.4,0.9,1.2,1.2,2.2,1.2c0,0,0,0,0,0c0.1,0.6,0.5,1,1.2,0.8c0.2,0.4,0.6,0.5,1,0.4
			c0.2,0.7,0.6,1,1.4,0.9c0.3,0.4,0.6,0.5,1,0.3c0.6,0.9,1.5,1.2,2.5,1.2c0,0,0,0,0,0c0.5,0.9,1.3,1.2,2.3,1.3c0,0-0.1-0.1-0.1-0.1
			c0.1,0.7,0.6,1.2,1.3,1.4c0,0.5,0,1,0,1.6c-0.7,0.3-1,0.9-1.1,1.6l0,0c-0.7,0.1-1.2,0.3-1.3,1l0.2,0.2c0,0-0.2-0.2-0.2-0.2
			C384,615.2,382.9,615.4,382.3,616.4z"/>
		<path class="st2" d="M305.2,231.1c-3-1.5-2.4,1.6-3.4,2.6c-1.3-1.9-1.3-4-1.2-6.2c3.3-3,2.5-7,2.2-10.7c-0.1-0.7-1.3-0.3-2,0
			c-0.1-1.5,0-3,1.7-3.3c1.7-0.2,1.5,1.3,1.7,2.4c0.4,2.9-1.6,6.8,0.9,8.4c2.3,1.5,6,0.8,9.2,0.9c1.7,0.1,3.5,0.5,5.3-0.2
			c0.1-4-2.2-7.5-2.3-11.5c0.6-1.1,1.3-0.9,2-0.1c0.6,0.7,1.1,1.4,1.6,2.1c0.5,0.8,0.3,2,1.2,2.6c-0.2,0.4-0.2,0.7,0.2,1
			c0.3,2.5-0.3,5.5,3.5,5.9c0,0,0.1,0.1,0.1,0.1c0.3,0.4,0.7,0.8,1,1.3l0-0.1c0,1,0.1,1.9,1.1,2.6l-0.1-0.1c0.6,2.9-0.3,6.1,1.4,8.9
			l-0.1,0.4c-0.4,1.9,0,3.7,1.3,5.2c-0.2,0.3-0.2,0.6,0.2,0.8c-0.1,2.1-0.3,4.3,1.1,6.2c0,0.6,0,1.3,0,1.9c-1.3,2.1-2.5,4.2,0,6.3
			l0,0c0,1,0.4,1.8,1.3,2.4c0,0,0,0,0,0c-0.1,1,0.4,1.8,1.2,2.3c0,0,0,0.1,0,0.1c0,1,0.2,1.9,1.1,2.5l0-0.1c0,2.7,0.7,5.1,2.4,7.2
			l0,0c-0.1,1.1,0.1,2.2,1.1,2.9l-0.1,0.4l0.3,0.2c-0.1,1.1-0.1,2.2,1,3l-0.1,0.3l0.3,0.2c-0.1,1.1,0.1,2.2,1,3l-0.1,0.4l0.3,0.3
			c-0.2,1.1,0.4,1.8,1.2,2.4c0,0,0,0,0,0c0,1-0.1,2,1.1,2.5l0-0.1c0.1,1.1,0.2,2.1,1.2,2.8l-0.1,0.4l0.3,0.3c-0.2,1,0.3,1.8,1.1,2.3
			c0,0,0,0.1,0,0.1c-0.1,1,0.3,1.8,1.1,2.5l0,0c-0.3,2.1,0.2,3.9,2.4,4.8l0-0.1c0.2,2.2,1.1,4.2,2.5,5.9l0,0
			c0.1,0.8,0.2,1.5,0.4,2.3c-0.5,0.2-1.1,0.4-1.6,0.5c0.5,1.2,1.5,0.7,2.4,0.8c0,0,0.1,0.1,0.1,0.1c0,0.7,0.4,1,1,1.1
			c0.1,0.4,0.2,0.7,0.4,1.1c-0.5,0.1-1,0.2-1.5,0.2c-0.6,0-0.9,0.3-0.9,0.9c0.6,1.6,2.1,1.2,3.4,1.4c0.8,0.8,1.5,1.6,2.3,2.5l0,0
			c-0.1,1,0,2,1.1,2.5c0,0,0-0.1,0-0.1c-0.1,1.1,0.3,1.9,1.3,2.4c0,0,0,0,0,0c1,1.5,1,3.5,2.4,4.8l0,0c0,1.4-0.2,2.8,1.2,3.6l0-0.1
			c0.1,2,0.1,3.9,0.2,5.9l-0.3,0.2c0,0,0.2,0.4,0.2,0.4c-0.3,0.6-0.7,1.2-1,1.8c-2-1-0.5-3.8-2.4-4.8c-4.2-7.6-10.8-13.4-15.5-20.7
			c-7.5-11.7-14-23.5-15.7-37.6c-0.7-5.3-1-10.8-2.9-16.3c-2.4,1.2-4.5,2.2-6.6,3.2c-1.1,0.5-2.3,1.8-3.6,0.1
			c-1.4-1.8-0.2-3.1,0.9-4c2.1-1.8,4.3-3.5,6.7-4.8c2.2-1.2,2.6-2.8,1.8-4.9c-2.1-5.5-2.4-11.4-2.8-17.3c-5.2,0-10.2,0.1-14.7-2.3
			c-0.5-0.6-0.9-1.3-1.7-1.1C304.9,229.2,305.5,230.3,305.2,231.1z M327.3,243.6c-0.1-0.1-0.1-0.3-0.2-0.4c-0.1,0-0.4,0-0.4,0.1
			c-0.3,0.3-0.2,0.5,0.3,0.5C327,243.9,327.2,243.7,327.3,243.6z"/>
		<path class="st2" d="M441.3,523.2c0.2-1,0.4-2-0.1-3c-0.2-6.1-0.4-12.2-2.3-18.2l0.2-0.3l-0.2-0.3c0.6-0.5,0.8-1.1,0-1.6l0,0.1
			c-0.3-2.9,0.5-6-1.2-8.8c0,0,0-0.2,0-0.2c0.7-0.7,0.7-1.3,0-2l0.2-0.4l-0.3-0.4c0.3-2.9,0.3-5.8-1.1-8.4l0,0.1
			c0-2.1,0.4-4.4-1.2-6.2c0.2-0.3,0.2-0.6-0.1-0.9c0.2-1.5,0.1-3-1-4.2l0.2-0.3l-0.2-0.3c0.3-1.6-0.2-3-1.2-4.2l0.1-0.3l-0.2-0.2
			c-0.1-2-0.1-4.1-1.2-6l0,0c-0.1-1.7-0.2-3.3-1.2-4.7c0-0.4-0.1-0.8-0.1-1.2c0.2-2.2,0.3-4.3-1-6.3c0.3-1.1,0.3-2.2-0.2-3.3
			c0-2.1,0.3-4.3-1-6.2c-0.1-0.7-0.1-1.4-0.2-2.1c0-4.9,0.5-9.9-1-14.7c0.2-4.9,0.5-9.7,0-14.6c0.9-1.1,0.9-2.1-0.1-3.1
			c0.3-1.9,0.4-3.8-0.1-5.7c0.7-8.2-0.6-16.4-0.1-24.7c0.1-2.9,0.3-5.8,0.4-9.2c0.9,1.4,1.4,2.1,1.9,2.9c2,14.9,2.8,29.8,2.9,44.8
			c0.1,19.8,1.3,39.5,6.7,58.8c5.3,19,6.9,38.7,9.2,58.2c0.4,3.5,1,7,0.5,10.6c-2,1.6-1.5,3.9-1,5.8c0.6,2.6-1.2,2.9-2.6,3.7
			c-0.4-1.3-0.7-2.6-1.1-3.9l0.3-0.4l-0.2-0.4c0.2-3.4-0.1-6.7-1.2-10l0.2-0.4l-0.3-0.4C442.3,528.3,442.7,525.6,441.3,523.2z"/>
		<path class="st2" d="M132.8,627.3c6.7,3.3,13.4,6.7,20.2,9.9c3.9,1.9,8.1,3.1,12.4,3.8c1.4,0.2,2.8,0.2,4.1,0.1
			c1,0,2.1-0.2,2.5-1.2c0.5-1.3-0.3-2.3-1.3-3c-1.4-1.1-2.6-2.4-4.6-2.6c-0.8-0.1-1.6-0.2-2.3-0.5c-1.2-0.5-3.2-0.3-3.1-2.1
			c0.1-1.6,1.3-2.9,2.9-3.4c1.3-0.4,2.7-0.4,4.1-0.4c7,0.3,13.8,1.9,20.3,4.2c9.9,3.5,19.8,2.8,29.9,1.4c5.7-0.7,11.1-3,16.9-2.6
			c1.1,0.9,2.2,1.7,0.7,3.3c-0.7,0.7-1.1,1.6-1.7,2.3c0,0,0,0,0,0c-1.6,0.3-3.4-0.2-4.8,1.2c0,0,0,0,0,0c-1.7,0.1-3.4-0.1-4.7,1.3
			l0,0c-1.7,0.1-3.4-0.1-4.7,1.3c0,0,0,0,0,0c-2.1,0.1-4.3-0.1-6.2,1.1l-0.5-0.2c0,0-0.4,0.3-0.4,0.3c-6.3,0-12.7-0.1-19-0.1
			l-0.4-0.3l-0.5,0.2c-1.5-1.2-3.2-1.2-4.9-1.2c0,0,0,0,0,0c-1.3-1.4-3.1-1.1-4.7-1.2c0,0,0,0,0,0c-1-1.2-2.3-1.1-3.6-1.1
			c0,0-0.1,0-0.1,0c-1.4-0.6-3.6-3.4-3.2,1.2c0.1,1.1-0.4,2.2-0.7,3.4l0.1,0c-3.8,3.3-8.3,2.8-12.8,2.7l-0.4-0.3
			c0,0-0.5,0.2-0.5,0.2c-1.4-1.3-3.2-1-4.8-1.3c0,0-0.1,0-0.1,0c-1-1.2-2.4-0.9-3.6-1.1c0,0,0,0,0,0c-0.6-1-1.5-1-2.5-0.9l-0.4-0.3
			c0,0-0.5,0.1-0.5,0.1c-0.7-0.9-1.6-1.2-2.6-1.2c0,0,0,0,0,0c-0.5-1-1.4-1.2-2.4-1.1c0,0,0,0,0,0c-0.5-0.9-1.4-1.2-2.3-1.2
			c0,0-0.1,0-0.1,0c-0.5-1-1.4-1.1-2.3-1.1c0,0-0.1,0-0.1,0c-0.4-1-1.3-1.3-2.2-1.3c0,0,0,0,0,0c-0.5-1-1.3-1.2-2.3-1.3c0,0,0,0,0,0
			c-0.5-1-1.4-1.1-2.4-1.2c0,0,0,0,0,0c-0.5-1-1.4-1.1-2.3-1.3c0,0,0,0,0,0c-0.5-1-1.4-1.1-2.3-1.2l-0.3,0.2c0,0,0.3-0.2,0.3-0.2
			c0-0.3-0.1-0.6-0.3-0.9c0.4-0.4,0.8-0.8,1.2-1.2c0.4-0.4,0.8-0.8,1.2-1.2C131.3,627.3,132.1,627.3,132.8,627.3z"/>
		<path class="st2" d="M299.7,180.5l0.1-0.4l-0.4-0.2c0.1-1-0.3-1.9-1-2.6c0-0.7,0.1-1.4,0.1-2.1c1.6-3,1-6,0.2-9.1
			c-1.7-6.1-3.1-12.2-2.7-18.6c0.4-5.8-0.9-11.3-2.6-16.8c-1.7-5.7-3.9-11.1-8-15.6c-3.8-4.2-8.3-5.9-13.8-4.3
			c-2.1,0.6-4.1,1.2-6.2,2c-0.9,0.3-2,1.2-2.7,0.4c-2.2-2.3-3.4-0.6-4.6,0.9c-1.9,2.5-4.2,4.7-5.6,7.6c-1.2,0.7-1.9,1.6-1.9,3
			c-0.4,0.2-0.8,0.3-1.2,0.5c-0.4-0.4-0.8-0.9-1.2-1.3c2.2-5.1,6-9.2,8.5-14.2c0.6-0.2,0.9-0.7,0.4-1c-0.9-0.6-1.6-0.1-2.1,0.8
			c-2,0.3-3.9,0.4-5.6-1.1c-0.7-0.6-1.8-1.1-1.2-2.3c0.4-0.8,1.2-0.7,2-0.8c4.2-0.1,8-1.4,11.3-3.9c0.5,0.1,0.7-0.1,0.8-0.6
			c1.3-1.4,2.6-2.8,3.8-4.2l0.5,0l0.5-0.1c0.4,0.4,0.8,0.7,1.2,1.1c0,0-0.1,0.1-0.1,0.1c-0.7,0.1-1,0.4-1.1,1.1l-0.1,0.1
			c-0.7,0.1-1,0.6-1,1.3c-0.2,1.6,0.5,2.4,2,2.7l-0.1-0.1c-0.3,0.7-0.5,1.4-0.8,2.1c-1,0.5-2.4,0.7-1.6,2.2c0.3,0.5,1.4,0.2,1.6-0.8
			c1.3-0.2,2.7-0.2,3.7-1.3c0.4,0.2,0.8,0.2,1.1-0.2c3.6,0,7.2-0.2,10.7,1.1c0.1,0.4,0.4,0.5,0.8,0.3c0.3,0.7,0.9,0.9,1.6,0.9
			c0,0,0.2,0.1,0.2,0.1c0.5,0.8,1.2,1.2,2.1,1.2c0,0,0.1,0.1,0.1,0.1c0.1,0.6,0.5,0.9,1.2,1l0.1,0.1c0.7,1.7,2.2,2.5,3.4,3.6
			c0,0,0,0,0,0c0,0.7,0.3,1.2,1,1.4c0,0-0.1-0.1-0.1-0.1c0.3,1.8,0.7,3.7,2.4,4.8l-0.1-0.1c0.1,1.1,0.4,2.1,1.3,2.8l-0.2,0.4
			l0.3,0.3c-0.3,1.4,0.2,2.6,1.2,3.6c0,0,0,0,0,0c0.1,1.7-0.2,3.4,1.2,4.8l0,0c0.1,2.2,0.1,4.5,1.1,6.5l-0.2,0.3l0.3,0.3
			c0.5,2.9-0.4,6,1.1,8.8c-0.4,3-0.2,6,0.2,9c-0.2,1.5-0.1,2.8,1,4l-0.1,0.5l0.4,0.3c0.3,2.3,0.8,4.5,2.1,6.4l-0.2,0.4l0.3,0.3
			c0,3.2-0.1,6.3-0.1,9.5l0,0c-1,0.9-1,2.3-1.4,3.4c0,0,0.1-0.1,0.1-0.1C302.6,180.7,301.2,180.6,299.7,180.5z"/>
		<path class="st2" d="M499.4,321.5c0,1-0.1,1.9-1.1,2.4c-0.5-0.5-0.9-1-1.4-1.5c-5.1,0-10,1.7-15.1,1.2c-9.4-1-18.8-1.6-28.2-2.4
			c-8-0.7-16.2-1-23.8-4.3c-1.3-0.6-2.7-0.4-4.1-0.1c-0.4-1.2-0.9-2.5-1.3-3.7c-0.2-1.5-0.6-2.9-2.1-3.7l0.1,0.1
			c-0.1-2.3-0.2-4.7-0.3-7c0-0.8,0.1-1.5,0.1-2.3c1.3-1.9,1-4,1-6c0.1-0.6,0.2-1.3,0.3-1.9c1-0.7,1.1-1.7,1.1-2.8c0,0,0,0.1,0,0.1
			c1-0.5,0.7-1.7,1.2-2.5c0.9,0,1.7,0,2.6,0c1.5,5.2-0.4,10.5-0.1,15.7c0.2,2.7-1.3,6.1,0.9,7.9c2.6,2.2,6.1,4.2,9.4,4.7
			c6.4,1,12.9,2.1,20.1,1.2c-2.2-2.5-4-4.6-5.9-6.8c-0.9-1-2-2-2.7-3.1c-1.1-1.6-2.9-3.6-1.1-5.2c1.5-1.4,3.3,0.5,4.6,1.6
			c3.6,3.1,7.6,5.9,10.7,9.4c3.7,4.2,8.1,5.3,13.3,4.6c0.6-0.3,0.9-0.8,0.6-1.4c-0.9-2.1-0.8-4.3,1.1-5.3c2.3-1.4,3.3,1.3,4.8,2.4
			c0.8,0.6,1.6,1.2,2.2,2c1.9,2.8,4.4,3.7,7.7,2.9c1-0.2,2.3-0.6,3.3,0.4C497.9,319.1,498.7,320.3,499.4,321.5z M462.6,315.5
			c0.1,0.4,0,1.3,0.8,0.5C463.1,315.9,462.8,315.7,462.6,315.5c-0.1-0.1-0.1-0.3-0.2-0.5c-0.1-0.1-0.4-0.1-0.4-0.1
			C461.9,315.3,462.1,315.5,462.6,315.5z M480.5,316.4c-0.2,0.8,0.2,1.2,0.8,1.3c0.3,0.1,1-0.1,1.1-0.2c0.2-0.9-0.4-1.4-1.1-1.6
			C481.1,315.8,480.7,316.3,480.5,316.4z"/>
		<path class="st2" d="M478.6,631.9l-0.3-0.2L478,632c-3,0.1-5.9-0.1-8.8,1.1l-0.3,0c-1.9-1.6-4.2-0.7-6.3-1.2c0,0,0,0,0,0
			c-0.8-0.8-1.6-1.5-2.4-2.3l0,0.1c-0.5-2.3-0.3-4.7-0.1-7c0,0,0,0,0,0c0.9-0.6,1.1-1.4,1.1-2.4c0,0,0,0,0,0c1-0.5,1.5-1.5,2.1-2.4
			c0,0,0.3-0.2,0.3-0.2c0.6,0,0.9-0.3,1-0.9c0,0,0.2-0.2,0.2-0.2c0.6,0,1.2-0.1,1.4-0.8c0,0,0,0,0,0c1,0,1.6-0.6,2.1-1.4
			c0,0,0.1-0.1,0.1-0.1c0.8,0.1,1.1-0.4,1.3-1.1c0,0,0,0,0,0c0.8,0,1.1-0.5,1.3-1.2l0,0c0.8-0.1,1.4-0.4,1.6-1.2l0.4,0l0.2-0.4
			c3.1-1.7,5.5-4,7.1-7.2c5.2-5.3,6.3-12.6,9.6-18.8c3.5,0.1,3.5,0.1,2.9,5.7c2.1,0.4,4.2,0.8,6.3,1.1c1.4,0.2,3,0.4,3.6,1.7
			c1.9,3.7,4.2,2.4,7.1,1.1c3.8-1.7,7.4-4.8,12.1-3.7c0.3,1.2,1.4,2,1.2,3.4c-1.1,0.5-2.2,0.9-3.2,1.5c-3.8,2.1-7.5,4.4-11.4,6.2
			c-5.3,2.5-8.4,1.3-9.1-3.9c-0.5-3.2-2.2-3.2-4.3-3.6c-2.5-0.5-4,0.2-4.9,2.8c-3,8.3-8.8,14.3-16.2,19c-2.3,1.5-4.4,3.4-6.6,4.9
			c-1.2,0.8-2,1.8-2.8,2.9c-0.7,1-1.4,2.1-0.7,3.2c0.6,1,1.8,0.7,2.7,0.6c2.3-0.3,4.7-0.5,7-1.1c8.4-2,16.5-5,24.7-7.6
			c1,2.4,3.3,2.9,5.3,4c-0.6,0.6-1.2,1.3-1.8,1.9c0,0-0.1,0-0.1,0c-1.5-0.2-2.7,1.1-4.2,0.4c-0.2-1,0-1.9,1-2.5
			c0.2,0.6,0.4,0.7,0.5,0.3c0-0.1-0.3-0.2-0.5-0.3c-1.3-1.6-3.1-1.6-3.7,0c-0.9,2.1,1.3,2.2,2.7,2.5c-1.3,1.7-3.6,1.8-5.1,3.1
			c0,0,0,0,0,0c-1.6,0.3-3.4-0.1-4.6,1.4c0,0-0.1,0-0.1,0C484.4,630,481.3,630.2,478.6,631.9z"/>
		<path class="st2" d="M186.5,252.4l-0.3-0.3c0,0-0.4,0.2-0.4,0.2c-1.1-1-2.5-1.1-4-1.1c0,0-0.1,0-0.1,0c-1.3-1.3-3-1.8-4.7-2.4
			c0,0,0,0,0,0c-0.8-0.8-1.6-1.6-2.4-2.5c0.5-0.9,1.5-0.9,2.3-1.1l0.1,0.1c2.4,1.9,2.6,1.8,3.5-1.2c-0.1-1-0.3-1.8-1.2-2.4
			c-0.3-0.2-0.3-0.5-0.2-0.9c0.1-1.3,0.2-2.6,0.3-3.9c0.3,0,0.6,0.1,0.9,0.2c0.1,0.7,0.1,1.5,0.2,2.2c0.4,0.4,0.8,0.8,1.2,1.1
			c0.3,0.3,0.3,0.6,0.2,1c-0.3,2.2-1,4.4,1.2,6.1c2.2,1,4.5,1.3,6.9,1.1c9.8-0.9,17.7-4.8,22.5-13.9c5.1-9.8,10.4-19.4,17.8-27.7
			c6.4-7.2,11.6-15.3,16.7-23.5c2.6-4.2,3.1-8.2,1.1-12.8c-1.6-3.7-3.7-7.5-3.4-11.8c0.4-0.5,0.9-1.1,1.3-1.6
			c1.5,4.1,2.9,8.2,4.6,12.1c2.6,6,2.6,11.9-0.7,17.6c-5.3,9.2-10.9,18.3-18.1,26.2c-1.1,0.5-1.4,1.4-1.2,2.5
			c-1.2,0.8-2.1,1.9-2.4,3.3c0,0,0.1,0.1,0.1,0.1c-1,0.4-1.4,1.2-1.5,2.2c0,0,0.1-0.1,0.1-0.1c-0.7,0.2-0.9,0.8-0.8,1.5l-0.3,0.2
			l0.1,0.4c-0.7,0.4-1,0.9-1,1.7c0,0,0,0.1,0,0.1c-0.8,0.6-1.3,1.3-1.2,2.3l0,0c-0.9,0.5-1.1,1.4-1.1,2.3l0,0.1
			c-1.2,0.8-1.4,2-1.6,3.3c0,0,0.1-0.1,0.1-0.1c-0.9,0.6-1.1,1.5-1.2,2.5l0-0.1c-0.9,0.6-1.1,1.5-1.2,2.5l0.1-0.1
			c-1.1,1-2,2.2-2.2,3.8c0,0,0,0,0,0c-1,0.4-1.3,1.3-1.4,2.2c0,0,0-0.1,0-0.1c-1.1,0.5-1.9,1.2-2.4,2.4c-0.7,0.1-1.1,0.5-1.2,1.2
			c0,0,0.1-0.1,0.1-0.1c-0.9,0.2-1.7,0.5-2.2,1.4c0,0-0.1,0-0.1,0c-1,0-1.8,0.2-2.4,1.1c0,0,0,0,0,0c-1.3,0-2.5,0.3-3.4,1.3
			c0,0-0.2,0-0.2,0c-1.4-0.2-2.8,0-3.9,1l-0.4-0.2l-0.4,0.3C194.4,252.4,190.4,252.4,186.5,252.4z"/>
		<path class="st2" d="M447.7,604.5l-0.4-0.2l-0.3,0.3c-2.5,0.1-5-0.5-7.2,1.1c0,0,0,0,0,0c-11.5,0.6-22.9,0.6-34.4,0.1l-0.3-0.3
			c0,0-0.4,0.2-0.4,0.2c-0.7-1-1.7-1-2.8-1c0,0-0.2-0.1-0.2-0.1c-0.7-0.9-1.4-1.8-2.2-2.7c0.2-0.3,0.2-0.6-0.1-0.9
			c0.2-0.3,0.3-0.7,0.2-1.1l0,0.1c0.6-0.2,1-0.6,0.9-1.3c0.4-0.2,0.5-0.5,0.3-0.9c1.2-1.2,2.5-2.4,3.7-3.6l-0.2-0.2
			c0,0,0.2,0.2,0.2,0.2c1.3-0.2,2.7-0.1,3.5-1.4c0.4,0.2,0.7,0.1,1-0.2c1,0.2,1.8-0.2,2.5-1c0.4-0.1,0.7-0.1,1.1-0.2
			c1,0.2,1.8-0.3,2.5-1c0.4-0.1,0.7-0.1,1.1-0.2c1,0.2,1.9,0,2.5-1c0.4,0.2,0.8,0.1,1.1-0.3c0.7,0,1.4,0,2.1,0
			c1.8,1.8-1,2.4-0.9,3.7c-3.8,3.1-8.6,3.6-12.9,5.5c-1.3,0.6-3.2,0.5-3.3,2.8c9.6,0,19,0.6,28.5-0.5c9.8-1.1,19.6-1.9,29.5-2.4
			c3.5-0.2,7.1-0.6,10.6-1c2-0.2,2.3-1.8,2.3-3.5c0.1-2-1.2-2.2-2.7-2.2c-3,0-5.9,0-8.9,0c-4.5,0-9.1,0.3-13.6,0
			c-3.3-0.2-2-1.9-0.7-3.4c8.6-0.1,17.2-0.1,25.8-0.2c5-0.9,5.8-0.4,6.1,4c0.1,1.2,0.1,2.4,0.1,3.5c0.3,0.3,0.3,0.6-0.1,0.9
			c-1.9,0.1-4.9-0.8-2.9,3.1c0.2,0.3-0.4,1-0.7,1.5c-1.7,0.6-3.7-0.1-5.3,1.2c-2.9-0.9-5.9,0.1-8.7,0.4
			C458.6,603.1,453,602.7,447.7,604.5z"/>
		<path class="st2" d="M503.4,622.7c-1.9-1.1-4.3-1.6-5.3-4c3.7-2.5,7.8-4.5,10.9-7.9c0.5-0.5,1.5-1.2,2-1c4.8,1.3,7-2.7,10.2-4.6
			c2.7-1.6,3.7-3.9,3.3-6.9c-0.2-1.4-0.3-2.7-0.4-4.1c0.4-1.8,0.2-3.5-0.9-5c-0.4-3-2.3-2.4-4.3-1.9c-6.3,1.5-12.5,1.6-18.5-1.4
			c1-1.7,1.4-3.2-0.9-4.3c-0.6-0.3-1-1.2-1.4-1.8c7.7,0.6,15.3,0,22.7-1.9c8.1-2.1,8.1-2.4,6.5-10.9c-1-5.6-1.4-11.3-0.7-17
			c0.7,0,1.5,0,2.2,0c1.1,2.5-0.4,5.4,1.2,7.8c-0.5,1.4-0.2,2.8,0.2,4.1c-0.1,2.1-0.3,4.3,1,6.2c0,0.7,0.1,1.4,0.1,2.1
			c0,2.8,0,5.5-0.1,8.3l-0.3,0.3l0.1,0.4c-1,0.6-1.2,1.7-1.3,2.7c0,0,0.1-0.1,0.1-0.1c-0.7,0.2-1,0.7-1.2,1.3l0,0
			c-1.6,0.2-3.5,0.9-2.6,2.7c1.9,3.5,1,7.6,2.6,11.1c0,0,0,0.2,0,0.2c-0.7,0.6-0.6,1.2,0.1,1.8c0,1.9,0,3.7-0.1,5.6
			c-1.2,1-1,2.5-1.2,3.8l0,0c-0.9,0.4-1.2,1.3-1.4,2.2l0.3,0.2c0,0-0.2-0.3-0.2-0.3c-1.9,0.8-3.3,2.2-4.6,3.7c0,0,0,0,0,0
			c-1.4,0.5-2.9,1.5-4.3,1.3c-3.7-0.4-6.1,1.2-8.3,3.9c-1,1.3-2.7,2-4.1,3c0,0,0,0,0,0C504.6,622.4,504,622.6,503.4,622.7z"/>
		<path class="st2" d="M525.5,447.1c-0.4,1.8-0.1,3.5,0.2,5.3c0.2,5.7-1,11.5,1,17.2c-0.2,1-0.1,2.1,0.3,3c0.1,4.2,0.8,8.2,2.1,12.2
			c-0.3,1.1-0.3,2.2,0.2,3.3c0.3,3.6-0.4,7.3,1.1,10.8c-0.2,1.2-0.3,2.3,0.1,3.5c-0.4,4.8,0.8,9.5,0,14.3c-0.9,0.5-0.9,0.8,0.1,1.1
			l0,0c-0.1,3.3-0.1,6.5-0.2,9.8c-0.1,1.9,0.1,3.9-0.4,5.7c-0.4,1.4-1.4,0.6-2.1-0.2c0-1.1,0.1-2.2,0.1-3.3c0.8-0.4,0.8-0.8,0-1.2
			c0-0.7-0.1-1.4-0.1-2.1c0-0.5,0-1.1,0-1.6c0-0.7,0-1.5,0.1-2.2c0.8-0.5,0.8-0.8-0.1-1.1l0,0c-0.1-3.6,1.1-7.4-1-10.8
			c-1.6-9.4-0.9-19.1-2.8-28.3c-3.6-17.3-2.3-35-5.6-52.3c-1.5-8.3-0.4-17-3.3-25.2c-0.5-1.4-0.3-3.1-0.4-4.7
			c0.4-2.4-0.3-5.1,1.3-7.3l0,0c0.4,0,0.7,0,1.1,0c1.1,3.2,0.5,6.8,2.4,9.7c-0.2,0.3-0.2,0.7,0.1,1c-0.4,1.6,0,3,1,4.2l-0.2,0.3
			l0.2,0.3c0.5,1.7-0.3,3.7,1.2,5.2c-0.3,0.3-0.2,0.6,0.1,0.8c0,7.2,0.1,14.5,2.4,21.4c0,0.4,0,0.8,0,1.2
			C524.5,440.3,524.1,443.8,525.5,447.1z"/>
		<path class="st2" d="M130.6,627.3c-0.4,0.4-0.8,0.8-1.2,1.2c-1.3-1.9-2.4-0.4-3.6,0.1c-0.4-0.1-0.8-0.2-1.1-0.4
			c-0.3-0.6-0.9-0.9-1.6-0.7c-1.1-0.1-2.1-0.1-3.2-0.2l-0.4-0.3c0,0-0.5,0.2-0.5,0.2c-8.4-3-16.9-3-25.5-1.2l-0.5-0.2l-0.4,0.3
			c-2.9-0.1-5.8-0.3-8.4,1.1l0,0c-2.8,0.3-5.7-0.1-8.3,1.2c0,0,0,0,0,0c-1.6-0.2-3.1-0.3-4.6,0.1c-0.7-0.4-1.4-0.4-2.1-0.1
			c-1.4-1.1-3.2-1.1-4.8-1.3c0,0,0,0,0,0c-0.5-1-1.5-1-2.4-1.1c0,0,0,0,0,0c-0.5-1-1.3-1.2-2.3-1.3c0,0,0,0,0,0
			c-0.2-0.7-0.6-1-1.3-1c0,0-0.1,0-0.1,0c-1.6-2-3.1-4-4.7-6l0,0c-0.2-1.2,0-2.7-1.3-3.5l0,0c0-1.4-0.1-2.7-1.1-3.7
			c0.2-0.4,0.2-0.7-0.1-1c-0.1-3,0.4-6-1-8.9l0.2-0.4l-0.3-0.3c0.3-1.4,0-2.6-1.2-3.5l0-0.1c-0.7-3.2-3.1-4.8-5.7-6.2c0,0,0,0,0,0
			c0-0.4-0.1-0.7-0.4-0.9c0.5-0.4,1-0.9,1.5-1.3c6.4,2.9,10.2,7.9,11.5,14.8c0.6,3.1,1.5,6.1,2.7,9c0,1.7,1.1,2.8,2.3,3.7l-0.1-0.1
			c2.9,5.7,7.6,7.5,13.7,6.7c6.4-0.8,12.8-1.4,19.2-2.4c9.6-1.5,18.8,0.2,27.9,3c2.2,3,5.4,3.3,8.7,3.3c0.3-0.1,0.6,0,0.8,0.3
			C130.5,626.5,130.5,626.9,130.6,627.3z"/>
		<path class="st2" d="M159.2,221.4c0.2-0.4,0.1-0.8-0.2-1.1c0-1.4,0.3-2.8-0.9-3.8c-0.1-2.1,0.8-4.3,0-6.4c1.6-1.9,1-4.2,1.1-6.4
			l0,0c1-2.7,2.1-5.4,2.2-8.3c0.4-0.2,0.5-0.5,0.3-0.9c1.1-0.6,1.2-1.6,1.1-2.7c0,0,0-0.1,0-0.1c1-0.9,1.5-2,1.5-3.4l-0.1,0.1
			c0.7-0.3,0.7-0.8,0.7-1.5c0.4-0.2,0.5-0.4,0.4-0.8c0.8-0.6,1.2-1.5,1.4-2.5c0,0-0.1,0.1-0.1,0.1c0.7-0.3,0.9-0.8,0.8-1.5l0.4-0.2
			l-0.1-0.4c0.7-0.3,1-0.9,1-1.7c0,0,0,0,0,0c0.6-0.2,1-0.6,0.9-1.2c0,0,0.1-0.2,0.1-0.2c0.9-0.4,1.2-1.2,1.3-2.1l0,0
			c1-0.4,1.3-1.2,1.5-2.1c0,0-0.1,0.1-0.1,0.1c0.7-0.2,1-0.7,1-1.4l0,0c0.7-0.1,1.1-0.6,1-1.3l0.4-0.2l-0.1-0.4
			c1.3-0.6,2.2-1.4,2.2-2.9c0,0,0,0,0,0c0.6-0.2,1-0.5,1-1.2c0,0,0.1-0.2,0.1-0.2c1.3-0.8,2.3-1.7,2.6-3.2c0,0,0,0,0,0
			c0.7-0.1,1.2-0.5,1.2-1.3c0,0,0,0,0,0c0.6-0.2,0.9-0.7,1-1.3c0,0,0.1-0.1,0.1-0.1c1-0.3,1.4-1,1.6-2l-0.3-0.2c0,0,0.2,0.3,0.2,0.3
			c0.7-0.2,0.9-0.8,1-1.5l0,0c0.7-0.2,1.1-0.5,1.1-1.3c0,0,0,0,0,0c0.7-0.1,0.9-0.5,1-1.2c0,0,0.2-0.2,0.2-0.2
			c0.9-0.3,1.4-1,1.6-1.9l-0.3-0.2c0,0,0.2,0.2,0.2,0.2c2.4-1.1,3-4,5.3-5.2c1.4-0.1,2.2-1,2.8-2.1l0.6-0.2l0.5,0.2
			c0.5,0.9,1,1.7,1.5,2.6c-3.7,6.8-8.9,12.5-13.5,18.6c-7.8,10.2-15.7,20.4-20.6,32.4c-3.2,7.8-6.3,15.9-2.9,24.6
			c-0.4,0.5-0.9,0.9-1.3,1.4c-0.4-0.4-0.8-0.8-1.2-1.1l0-0.1C160.3,222.9,160,222.1,159.2,221.4z M194.3,153l-0.2,0.3l0.3,0.1
			L194.3,153z"/>
		<path class="st2" d="M481.7,595.4c0-1.2-0.1-2.4-0.1-3.5c-0.3-4.3-1.2-4.9-6.1-4c0.4-3.6-0.4-7.1-0.8-10.6
			c-0.2-1.8-0.9-2.5-2.6-2.4c-5.8,0.3-11.4-1.2-17.1-1.7c-0.8-0.1-1.8-0.7-2.1,0.1c-0.8,2.1-3.5,3.6-2.8,6.2c0.7,2.8-0.4,5-1.8,7.2
			c-3.7,1-3.9,0.7-3.3-3.4c0.9-0.4,1.5-1.1,0.7-2c-0.4-0.4-0.8,0.1-0.9,0.6c-7.9,3.7-15.3,8.4-23.7,10.7c-0.1-1.3,2.8-1.9,0.9-3.7
			c0-0.3,0.1-0.7,0.2-1c0,0,0,0,0,0c1,0,2.1,0.1,2.7-1.1c0.4,0.2,0.6,0.1,0.8-0.3c1,0.1,1.9,0,2.5-1c0,0,0,0,0,0
			c1,0,1.9-0.2,2.4-1.1l0,0c1,0,1.9-0.2,2.3-1.3l0,0c0.7-0.1,1.3-0.4,1.6-1.1c0.4,0.1,0.6,0,0.7-0.4c3.9-1.2,6.4-4.6,9.5-6.8
			c0,0,0.1,0,0.1,0c0.8,0,1.1-0.4,1.3-1.1c0,0,0,0,0,0c0.7-0.1,1.1-0.6,1.1-1.3c0,0,0,0,0,0c0.7-0.1,0.9-0.6,1.1-1.2
			c0.8-0.9,1.6-1.7,2.4-2.6c5.4,1.6,11,1.2,16.5,1.9c4.5,0.6,8.9-0.1,13.1-1.9c1.1,0.1,2.3,0.1,3.4,0.2c0.3,1.5-0.8,2.3-1.8,2.7
			c-2.9,1.2-2.7,2.7-1.7,5.4C482.5,583,483.9,589.1,481.7,595.4z"/>
		<path class="st2" d="M245.9,157.3c-0.4,0.5-0.9,1.1-1.3,1.6c-1.7-4.3-1.8-4.5-5.9-3.4c-3,0.8-5.8,0.3-8.6-0.7
			c-5.4-1.9-9.6-5.3-12.4-10.2c-1.9-3.4-4.2-6.1-8.5-6.2c-1.6-0.4-3.4,0.3-4.7-1.2c0.7-0.8,1.4-1.7,2.2-2.5c0,0,0.2-0.1,0.2-0.1
			c3-1.3,6.8,1.1,9.3-2.3c0,0,0.2-0.2,0.2-0.2c1-0.5,2-1,2.2-2.2c0,0,0.2-0.2,0.2-0.2c0.5-0.1,0.9-0.4,0.9-1c0,0,0.3-0.3,0.3-0.3
			c0.6,0,0.9-0.3,1-0.9c0,0,0.2-0.1,0.2-0.1c0.7,0,1.1-0.3,1.2-1l0,0c0.8,0,1.4-0.3,1.7-1.1c0.4,0,0.6-0.1,0.6-0.5
			c0.9-0.3,1.3-0.9,1.5-1.8c0,0-0.1,0-0.1,0c0.7-0.1,1.1-0.6,1.2-1.3l0,0.1c0.7-0.1,1.1-0.6,1.2-1.3c0,0,0,0,0,0
			c0.7-0.1,1.1-0.5,1.1-1.3c0,0,0-0.1,0-0.1c0.6-0.2,0.9-0.5,1-1.2c0,0,0.2-0.2,0.2-0.2c1-0.3,1.4-1,1.5-2c0,0-0.1,0.1-0.1,0.1
			c0.4,0,0.7-0.1,1.1-0.3c0.4,0.5,0.8,0.9,1.2,1.4c-3.4,8.6-11.4,12.6-17.9,18.3c4.5,2.4,6.3,7.4,10.4,10.2c3.6,5,9,4.2,14.2,4.4
			c2.6-0.2,2.4,2.8,4.1,3.7C246.2,154.7,245.9,156,245.9,157.3z"/>
		<path class="st2" d="M320.9,215.6c-0.5-0.7-1.1-1.4-1.6-2.1c-0.7-0.9-1.4-1-2,0.1c-2-3.9-2.6-8.3-2.8-12.5
			c-0.4-7.6-3.9-9.6-11.9-11.5c-2.1-0.5-4.3-0.5-6.5-0.5c-4.6-0.1-8.9-1.4-13-3.6c-1.6-0.9-3-1.9-4.5-2.9c-1.4,2.5,0.3,5.2-1.4,7.2
			c0.1-3.3-1.4-6.8,1-9.9c1.8-0.4,3,1.4,4.7,1.1c0.2,0.4,0.4,0.4,0.8,0.2c0.8,0.8,1.7,1.2,2.8,1l0.3,0.3c0,0,0.4-0.2,0.4-0.2
			c0.3,0.6,0.9,0.8,1.5,0.7c2.3,0.6,4.7,0.5,7.1,0.4c1.9,1,4,0.9,6,1c0.2,0.4,0.4,0.4,0.8,0.2c0.7,0.9,1.7,1.1,2.8,1
			c0,0,0.1,0,0.1,0c0.6,0.8,1.3,1.1,2.3,1c0.1,0.4,0.4,0.5,0.7,0.3c0.3,0.7,0.9,0.9,1.6,1c0,0,0.1,0.1,0.1,0.1
			c0.4,1,1.3,1.2,2.2,1.4l-0.1-0.1c0.1,0.7,0.5,1.2,1.2,1.3c0,0-0.1-0.1-0.1-0.1c0.2,0.8,0.6,1.3,1.3,1.6c-0.1,0.4,0,0.6,0.4,0.7
			c0,0.7,0.3,1.1,0.9,1.4c-0.1,0.4,0,0.7,0.3,1c-0.1,0.7,0.1,1.3,0.8,1.6l-0.1,0.4l0.3,0.3c0.1,1.4-0.1,2.9,1,4.1
			c0.1,0.6,0.2,1.2,0.3,1.8c-0.1,1.3-0.1,2.6,1,3.7c-0.2,0.8-0.2,1.6,0.3,2.3c-0.1,1-0.2,2,0.8,2.6c-0.2,0.4-0.2,0.7,0.2,0.9
			C320.9,214,320.9,214.8,320.9,215.6z"/>
		<path class="st2" d="M428.4,287c-0.9,0-1.7,0-2.6,0c-0.9-3.6,0.7-7.6-1.2-11.1c-0.1-0.7-0.2-1.3-0.3-2c-0.3-2.9,0.4-6-0.9-8.8
			c0.6-1,0.3-2-0.1-2.9c1.5-1.9,1-4,1-6.1c0.5-0.7,0.5-1.4,0.3-2.2c1.5-1.4,1.3-3.2,1.1-5c0.1-0.4,0.2-0.7,0.4-1.1
			c1-1.2,0.7-2.6,0.7-3.9c0.1-6.3,0.2-12.5,0.3-18.8c0.7,0,1.4,0,2.1,0c1.3,7.1,1.3,14.2,1.5,21.4c-0.5,3.5-0.8,7.1-1.6,10.5
			c-1.7,7.1-1.3,14.1-0.4,21.2C429,281.2,429.2,284.1,428.4,287z"/>
		<path class="st2" d="M544.4,243.5c-1.2-1.3-0.6-3-0.8-4.5c-0.4-3.7-0.6-7.6-2.1-11c-4.7-10.8-4.6-22.3-5.3-33.7
			c-0.2-2.8-0.6-5.5-1.1-8.2c0.4-0.4,0.8-0.9,1.3-1.3c0.7,0.9,1.5,1.8,2.2,2.8c-0.2,0.4-0.1,0.6,0.2,0.8c0.1,1.4-0.2,2.9,1,4
			c0.1,0.6,0.2,1.3,0.3,1.9c-0.1,1.7-0.1,3.4,1.1,4.8l0,0c0.4,5.2,0.8,10.3,1.1,15.5c-0.2,1.2-0.3,2.4,0.3,3.6
			c-0.1,1-0.1,1.9,0.9,2.6c-0.2,0.4-0.1,0.7,0.2,1c0,1.4-0.3,2.8,1,3.8c0.1,0.7,0.2,1.4,0.2,2.1c0.2,1.7-0.5,3.6,0.9,5.1
			c-0.3,1.1-0.4,2.2,0.2,3.2c0,1.6-0.1,3.2-0.1,4.8C544.7,241.3,544.6,242.4,544.4,243.5z"/>
		<path class="st2" d="M531.4,308.1c3.4-6,6.7-12,10.1-18.1c3.5-6.1,5.5-12.6,5.7-19.7c0.4-0.5,0.7-0.9,1.1-1.4
			c0.3,0.1,0.7,0.3,1,0.4c-0.1,0.4,0,0.7,0.3,1c-0.1,0.7,0.2,1.3,0.8,1.6c-0.2,0.3-0.1,0.6,0.2,0.8c0,3.2,0,6.3,0,9.5
			c-0.3,0.2-0.4,0.5-0.2,0.9c-1,0.7-1,1.7-1,2.7c0,0,0,0.1,0,0.1c-0.8,0.6-1.4,1.2-1.3,2.2c0,0,0,0,0,0c-0.7,0.6-1.2,1.4-1.3,2.3
			c0,0,0.1-0.1,0.1-0.1c-0.7,0.2-1.1,0.5-1,1.3c0,0,0,0.1,0,0.1c-1.3,1.3-2.2,2.8-2.5,4.6c0,0,0,0,0,0c-1,0.4-1.3,1.3-1.5,2.2
			l0.2,0.2c0,0-0.2-0.3-0.2-0.3c-0.7,0.2-1,0.7-1,1.4l0-0.1c-0.7,0.2-1,0.6-0.9,1.3l-0.4,0.2c0,0,0,0.4,0,0.4
			c-0.7,0.3-1.2,0.8-1.3,1.6l0.1-0.1c-0.7,0.2-0.8,0.8-0.9,1.5c0,0-0.1,0.1-0.1,0.1c-1,0.3-1.3,1.2-1.5,2.1l0.1-0.1
			c-0.7,0.2-0.9,0.8-1,1.4c0,0,0,0,0,0c-0.7,0.1-1.1,0.5-1.1,1.2c0,0,0,0.1,0,0.1c-0.3,0-0.6,0-0.9,0.1
			C532.4,309.2,531.9,308.6,531.4,308.1z"/>
		<path class="st2" d="M360.2,334.6c1.9,1,0.5,3.8,2.4,4.8c0,0.4,0,0.8,0,1.2c-1.2,0.8-1.3,1.5-0.1,2.4c-0.1,1.6-0.1,3.1-0.2,4.7
			c0,0,0.1-0.1,0.1-0.1c-0.3,0.2-0.7,0.3-0.8,0.6c-0.2,0.6,0.4,0.8,0.9,0.9l0,0c0.1,0.7,0.5,1.1,1.2,1.3l-0.1-0.1
			c0.1,0.7,0.4,1.2,1.1,1.4l0.2-0.2c0,0-0.2,0.2-0.2,0.2c0.7,1.3,1.2,2.7,2.6,3.3c0,0,0,0,0,0c0.1,0.9,0.4,1.7,1.3,2.2
			c0,0,0.1,0.1,0.1,0.1c0,0.9,0.3,1.8,1.1,2.3l0,0.1c0,2.8,0,5.6,0,8.3l-0.3,0.3c0,0,0.1,0.4,0.1,0.4c-0.9,0.7-1.1,1.7-1,2.9
			c-0.3,0.2-0.4,0.5-0.2,0.8c-1,0.7-1.1,1.6-1.2,2.7l0-0.1c-0.4,0.4-0.8,0.8-1.2,1.3c-0.4-0.5-0.9-1-1.3-1.5c2.8-7,1.5-13-3.7-18.4
			c-0.8-0.8-1.7-1.7-2.4-2.6c-1.4-2-2.7-4.1,0.1-6c1.2-0.8,1.3-1.9,1.3-3C360.1,341.3,360.2,337.9,360.2,334.6z"/>
		<path class="st2" d="M282.8,54.8c1.4,0.1,2.8,0.2,4.2,0.3c0.8,0.8,1.9,0.9,2.9,0.8c0.8,0.1,1.6,0.2,2.3,0.4
			c0.8,0.4,1.6,0.7,2.4,1.1c0,0.3,0.1,0.6,0.1,0.8c-0.2,0.2-0.2,0.4-0.1,0.6c-2.5-0.1-5.1-0.2-7.6-0.2c-2,0-4.4-0.5-5.8,0.4
			c-5.1,3.4-9.9,7.3-13.3,13.6c1.9-0.7,2.9-1.1,4-1.5c-2.2,3.5-2.4,3.5-7,1.8c0-0.8-0.1-1.6-0.1-2.4c0.4-0.2,0.5-0.4,0.3-0.8
			c0.9-0.7,1.1-1.7,1.2-2.7c0,0,0,0.1,0,0.1c0.9-0.5,1.2-1.4,1.3-2.4l-0.1,0.1c0.7-0.2,1-0.7,1-1.4c0,0,0,0,0,0c0.6-0.1,1-0.5,1-1.2
			c0,0,0.1-0.1,0.1-0.1c0.7-0.1,1-0.4,1-1.1c0,0,0.1-0.1,0.1-0.1c1-0.3,1.3-1.1,1.5-2.1c0,0-0.1,0.1-0.1,0.1
			c0.7-0.1,1.1-0.5,1.3-1.2l-0.1,0.1c0.7-0.1,1.2-0.6,1.4-1.3c0.4,0.1,0.6,0,0.8-0.3c0.7,0.1,1.2-0.2,1.4-0.9c0.4,0.1,0.7,0,0.9-0.3
			C279.7,54.9,281.3,54.8,282.8,54.8z"/>
		<path class="st2" d="M430.3,176.4c-0.1,3.1-0.1,6.1-0.2,9.2c-1.5,4.8-0.7,9.7-0.8,14.6c0,0.4,0.1,0.8,0.1,1.3
			c-0.2,0.4-0.2,0.7,0,1.1c-0.4,4.4,1.1,8.7,1,13.2l0,0c-0.6,0.2-1,0.5-1,1.2l-0.4-0.1c-0.7,0.8-1.4,1.6-2.1,2.4
			c-0.3-1.2-0.7-2.4-0.1-3.6c0.8-0.3,0.9-0.7,0.1-1.2c-0.5-0.9-0.1-2.1-1-2.9c0-0.6-0.1-1.2-0.1-1.8c1.7-4.4,0.8-8.8,0.1-13.2
			c0,0-0.1,0.1-0.1,0.1c0.6-3.2,1.6-6.5-0.1-9.7c0,0-0.1-0.1-0.1-0.1c-0.3-1.2-1.3-1.2-2.2-1.3c0,0,0,0,0,0c-0.5-1.1-1.5-1-2.4-1.1
			c0,0,0,0,0,0c-0.4-0.5-0.8-0.9-1.3-1.4c0-0.7,0-1.3-0.1-2l0,0c0.8,0,1.6,0,2.4,0c1.4,0.6,2.8,1.2,4.3,1.8c1.1-2,1.3-4.3,1.7-6.5
			C428.9,176.4,429.6,176.4,430.3,176.4z"/>
		<path class="st2" d="M481.7,77.4c-4.3-4.2-9.9-3.8-15.2-4.4c-2.1-0.3-4.3,0-6.4,0c-0.8-0.4-1.9-0.2-2.3-1.2
			c0.5-0.4,0.9-0.8,1.4-1.1c0.4,0.2,0.7,0.1,1-0.2c1.3,0.1,2.5-0.1,3.5-1.1c0.8-0.1,1.6-0.2,2.4-0.2c3.2,0,6.3,0,9.5,0
			c1.1,0.1,2.2,0.2,3.4,0.3c0.7,0.8,1.6,1,2.6,1c0,0,0.2,0.1,0.2,0.1c1.3,1.1,2.5,2.4,4.3,2.7c0.2,0.7,0.7,1,1.3,1.1l0,0
			c0.1,0.7,0.6,1.1,1.3,1.2c0,0,0,0,0,0c0.1,0.7,0.5,1.1,1.2,1.3l-0.1-0.1c0,2.6-1.3,3.6-3.7,2.7C484.5,78.7,483.1,78,481.7,77.4z"
			/>
		<path class="st2" d="M244.5,82.4c0.1-0.4,0.2-0.7,0.3-1.1c0.9-0.6,1.1-1.5,1-2.5c0.3-0.3,0.4-0.6,0.3-1c1-0.6,1-1.6,1-2.6
			c0,0,0.1-0.1,0.1-0.1c1.3-1.4,2.9-1.9,4.8-1.2c0,0,0.2,0.1,0.2,0.1c0.1,0.6,0.4,1.1,1,1.2l0,0c-0.1,0.4,0,0.8,0.2,1.1
			c-0.2,1.1-0.3,2.2,0.3,3.2c1.5-0.5,1.6-1.9,1.9-3.1c1-0.8,1.9-1.8,3.4-1c0,0-0.1-0.1-0.1-0.1c0.2,4.3-1.4,8.1-3.3,11.8
			c-0.3,0-0.6,0.1-0.8,0c-0.5-1.5,1.1-2.8,0.2-4.6c-1.4,1.4-2.5,2.8-3,4.6c-0.7,1.3-1.5,2.6-2.1,4c-0.6,1.4-1.5,1.5-2.7,0.7
			c0.6-4,2.7-7.7,2.5-11.8c0.8-0.8,1.8-2.2,0.7-2.9c-1.4-0.8-1.5,0.8-1.8,1.8c-1.9,2.5-1.1,5.9-2.4,8.6c-0.4-1.3,0.1-3-1.4-4
			C244.7,83.2,244.6,82.8,244.5,82.4z"/>
		<path class="st2" d="M244.8,83.6c1.5,1,1,2.7,1.4,4c0.3,2.1-1.4,3.5-1.5,5.5c-3.3,3.7-5.6,7.6-6.2,12.9c-0.4,3.9-1.4,8.1-4.3,11.2
			c-0.4-0.5-0.8-0.9-1.2-1.4c0-0.4,0-0.8,0-1.2l0,0c1-0.5,1-1.5,0.9-2.4c0.1-0.4,0.2-0.8,0.3-1.1c1.3-2.1,1.6-4.3,0.1-6.4
			c0-1,0-2-0.1-3c1-1,1.1-2.4,1.4-3.6c0,0-0.1,0.1-0.1,0.1c0.7-0.2,1-0.7,1-1.4l0-0.1c0.9-0.4,1.3-1.2,1.4-2.2l-0.1,0.1
			c0.7-0.2,0.9-0.7,1-1.4l0.1-0.1c1-0.3,1.4-1.1,1.5-2.1c0,0-0.1,0.1-0.1,0.1c0.7-0.3,0.8-0.8,0.8-1.5c0,0,0.1-0.1,0.1-0.1
			c0.9-0.5,1.3-1.2,1.3-2.2c0,0,0,0,0,0c1.1-0.5,1.1-1.5,1.1-2.5l0,0C244,84.4,244.4,84,244.8,83.6z"/>
		<path class="st2" d="M486.2,133.6c-1.6,0.2-2.7,3.1-4.5,1.3c-1.4-1.3,0.1-3,0.7-4.3c1.1-2.2,1.8-4,5.1-4.8
			c2.1-0.5,5.4-2.7,6.4-6.1c0.4-1.4,0.5-3.2,2-4.1c0.5,0,1,0.1,1.5,0.1c-0.1,1.2-0.1,2.3-0.2,3.5l0,0.1c-1.1,1.4-1.1,3-1.1,4.7
			c-0.3,0.3-0.4,0.6-0.2,1c-1.3,1-1.2,2.3-1.1,3.7c0,0,0,0,0,0c-1.9,1.6-5.1,1.7-5.7,4.8C488,133.6,487.1,133.6,486.2,133.6z"/>
		<path class="st2" d="M513.6,367.9c0.9-5.1-0.7-10.3,0.1-15.4c0.8,0,1.6,0,2.4,0c0.9,2.4-0.4,5.2,1.2,7.5c0,0,0,0.5,0,0.5
			c-0.9,1.4-0.9,2.8,0,4.2c-0.2,0.2-0.2,0.5,0,0.7c-1.1,1-0.9,2.1-0.1,3.1c-0.1,0.3-0.2,0.6-0.3,0.9c0,0.1,0.2,0.3,0.3,0.4
			c-1,2.6-1,5.2,0.1,7.8c-0.6,3.5-0.2,7.1,0.2,10.6c-0.1,1.6-0.2,3.2-0.2,4.8c-0.4,0-0.7,0-1.1,0c0-3.5,0-7.1,0-10.6
			c-1,3.6-2.1,7.2,0,10.6c-1.5,2.2-0.9,4.9-1.3,7.3c-1.6-2.1-0.8-4.6-1-6.9C513,384.8,514.9,376.3,513.6,367.9z"/>
		<path class="st2" d="M323.4,74.1c0.3,0.2,0.7,0.2,1,0c2.4,1.9,0.7,3.9,0.2,5.9c-3.4,4.4-7.9,7-13.3,8.2c-1.7,0.1-0.7,1.4-1,2.1
			c0.1,0.4,0.1,0.9,0.2,1.3l-0.2,0.2c-0.3-0.2-0.7-0.4-1.1-0.5l0.1-0.4l-0.3-0.2c0.1-1.9-1.5-3-2-4.6l-0.1,0.1
			c0.7-0.2,1-0.7,1.1-1.4l0,0c0.6-0.1,1.2-0.3,1.4-1l-0.3-0.1c0,0,0.3,0.1,0.3,0.1c0.6-0.3,1.2-0.6,1.8-0.9
			c-0.6-0.3-1.2-0.6-1.8-0.9l-0.3,0.3c0,0,0.3-0.3,0.3-0.3c0-0.4-0.1-0.8-0.3-1.1c0.1-0.9,0.3-1.7,1.2-2.1c6.1,4.2,8,3.8,11.9-2.7
			C322.5,75.4,323,74.8,323.4,74.1z"/>
		<path class="st2" d="M450.6,568.9c-0.8,0.9-1.6,1.7-2.4,2.6c-0.3-0.2-0.6-0.4-1-0.5c0.2-0.4,0.1-0.6-0.3-0.8c0-0.7,0-1.4,0-2.1
			c0.4-0.4,0.8-0.8,1.1-1.3c0.2-0.5,0.3-1.1-0.4-1.4c0,0-0.3,0.6-0.4,1c-0.1,0.6-0.2,1.1-0.2,1.7c-0.3-0.1-0.7-0.2-0.9-0.3
			c0.2-0.4,0.1-0.7-0.1-1c0.1-1.5,0.3-3.1,0.2-4.6c-0.4-5.2-0.8-10.4-1.2-15.6c1.4-0.8,3.2-1.1,2.6-3.7c-0.5-1.9-1-4.2,1-5.8
			c0.6,1,0.8,2.2,0.9,3.3c0.5,7.8,0.5,15.6,0.3,23.4C449.5,565.3,448.2,567.5,450.6,568.9z"/>
		<path class="st2" d="M337.7,508.3c-0.3,0.3-0.4,0.6-0.2,1c-1.2,1-0.9,2.4-1,3.8c0,0.4-0.1,0.8-0.1,1.2c-0.5,1.4,0.7,3.4-1.3,4.1
			c-1.6,0.5-1.2-1.7-2.2-2.1c0.3-0.5,0.4-1,0-1.4c1.3-2,0.6-4.3,0.9-6.5c0.3-0.2,0.4-0.6,0.2-0.9c1-0.6,1.1-1.6,1.1-2.7c0,0,0,0,0,0
			c0.8-0.6,1.2-1.3,1.1-2.3l0.3-0.2c0,0-0.1-0.4-0.1-0.4c0.7-0.4,1-1,1-1.8c0,0,0-0.1,0-0.1c0.8-0.5,1.3-1.2,1.3-2.3c0,0,0,0,0,0
			c1.4-1.8,2.9-3.6,3.4-6c0,0,0.1-0.1,0.1-0.1c0.9-0.4,1.2-1.3,1.3-2.2l0,0c0.7-0.2,1-0.7,0.9-1.3l0.1-0.2c1.4-1.2,2.1-2.7,2.6-4.4
			l0,0c0.7-0.2,1-0.7,0.9-1.4c0.4-0.1,0.5-0.3,0.3-0.7c0.4-0.1,0.7-0.3,1.1-0.5c0.5,0.5,0.9,1,1.4,1.6c-0.1,0.7-0.1,1.3-0.2,2
			c0,0,0,0.1,0,0.1c-0.9,0.5-1.2,1.3-1.4,2.2c0,0,0-0.1,0-0.1c-0.7,0.2-1,0.6-1,1.3c0,0,0,0.1,0,0.1c-0.9,0.5-1.1,1.3-1.2,2.3
			c0,0,0,0,0,0c-1,0.4-1.2,1.3-1.4,2.3l0.1-0.1c-0.7,0.2-1,0.7-0.9,1.4c0,0-0.1,0.2-0.1,0.2c-0.8,0.5-1.3,1.2-1.4,2.1c0,0,0,0,0,0
			c-1,0.5-1.2,1.4-1.3,2.4l0-0.1c-0.9,0.6-1.1,1.5-1.2,2.5l0.1-0.1c-0.7,0.2-0.9,0.7-0.8,1.4c-0.4,0.2-0.5,0.5-0.3,0.9
			c-0.9,0.6-1.2,1.6-1.3,2.6c0,0,0-0.1,0-0.1C337.6,506.3,337.6,507.3,337.7,508.3z"/>
		<path class="st2" d="M497.3,115.8c-0.5,0-1-0.1-1.5-0.1c1.1-6.4,3-12.8,1.3-19.3c-1-3.9-1.8-8.2-5.9-10.4c-0.4-1.4-3.2-1.7-2-3.7
			c0.8-1.3,2,0.5,3.1,0.4c0,0-0.1,0-0.1,0c0.6,1.1,1.6,0.8,2.6,0.9c0,0,0.2,0.1,0.2,0.1c0.1,0.6,0.5,0.9,1,1l0.1,0.2
			c0,0.7,0.3,1.1,1,1.3c0,0,0,0,0,0c0.1,1,0.2,1.9,1.2,2.4l0-0.1c0.2,1.3,0,2.7,1.2,3.7c-0.1,0.4-0.1,0.7,0.2,1.1
			c0.2,1.7-0.3,3.5,1,4.9c0,1.5,0,3,0,4.6c-1.3,3.1-0.7,6.4-1.2,9.6l-0.3,0.2c0,0,0.1,0.3,0.1,0.3c-0.9,0.8-1.1,1.8-1.1,2.9
			c0,0,0,0,0,0C497.9,115.7,497.6,115.8,497.3,115.8z"/>
		<path class="st2" d="M536.3,184.7c-0.4,0.4-0.8,0.9-1.3,1.3c-3.3-3-6.3-6.3-9.9-8.9l0.1,0.1c-1.2-3.7-4.7-5.4-7-8
			c-1.4-1.6-2.8-3.1-4.2-4.7c0,0,0.3,0,0.3,0c0.7-0.1,1.3-0.4,1.7-1.1c0-0.4,0.1-0.9,0.1-1.3c0.4,0,0.7,0.1,1.1,0.1l0,0
			c0.1,0.7,0.5,1.2,1.2,1.3l-0.1-0.1c0.1,0.7,0.4,1.2,1.1,1.4l-0.1-0.1c0.1,0.7,0.6,1.1,1.3,1.2l-0.1-0.1c0.2,0.7,0.6,1.1,1.3,1.4
			c-0.1,0.4,0.1,0.7,0.6,0.8c0.3,0.9,0.9,1.3,1.7,1.5c0,0-0.1-0.1-0.1-0.1c0.2,0.9,0.7,1.5,1.6,1.8c0,0,0.2,0.3,0.2,0.3
			c0,0.6,0.4,0.9,0.9,1c0,0,0.1,0.2,0.1,0.2c0,0.7,0.3,1.1,1,1.2c0,0,0,0,0,0c0.1,0.7,0.4,1.1,1.1,1.2c0,0,0,0,0,0
			c0.1,0.7,0.4,1.2,1.1,1.3l-0.1-0.1c0.1,0.7,0.4,1.2,1.1,1.4c0,0-0.1-0.1-0.1-0.1c0.1,0.7,0.5,1.1,1.2,1.3c0,0-0.1-0.1-0.1-0.1
			c0.2,0.9,0.7,1.5,1.6,1.8c0,0,0.3,0.3,0.3,0.3c0,0.6,0.3,0.9,0.9,1c0,0,0.2,0.3,0.2,0.3c0,0.6,0.3,1,0.9,1.2c0,0,0,0.1,0,0.1
			C536.3,183.9,536.3,184.3,536.3,184.7z"/>
		<path class="st2" d="M486.2,133.6c0.9,0,1.8,0,2.7,0c1.2,1.6,2.9,1.1,4.5,1.2c0,0,0.1,0,0.1,0c0.6,0.8,1.4,0.9,2.3,0.9
			c0.2,0.4,0.5,0.5,0.8,0.4c0.2,0.7,0.6,1.2,1.3,1.4l0.2-0.3c0,0-0.2,0.3-0.2,0.3c0.8,1.2,1.4,2.4,2.7,3.1c0,0,0.1,0.1,0.1,0.1
			c0.1,0.6,0.5,0.9,1,1.1c0,0,0.1,0.1,0.1,0.1c0,0.7,0.3,1.2,1,1.4c0,0-0.1-0.1-0.1-0.1c0,0.7,0.1,1.5,0.1,2.2l0,0
			c-0.6,0.2-1.2,0.3-1.3,1.1c0,0,0,0,0,0c-0.4-0.2-0.8-0.1-1.1,0.3c-1.6-2-3.2-4-4.8-6c-1.3-3-1.3-3-4.2-2.9c0.6,1,1.1,1.9,1.7,2.9
			c-0.4,0.5-0.7,1-1.1,1.4C486.6,140.9,486.4,140.5,486.2,133.6z"/>
		<path class="st2" d="M527.8,533c0.7,0.8,1.7,1.6,2.1,0.2c0.5-1.8,0.3-3.8,0.4-5.7c0.1-3.3,0.2-6.5,0.2-9.8
			c0.3,0.1,0.6,0.2,0.9,0.3c-0.1,1.5-0.7,3.1,0.1,4.6c0,2.4,0,4.7,0,7.1c-0.8,1.8-0.2,3.6-0.2,5.4c-1.5,2.4-0.7,5.1-0.9,7.6
			c-0.1,0.7-0.1,1.5-0.2,2.2c-1,0.5-1,1,0,1.6c-0.2,0.3-0.2,0.5,0,0.8c-0.9,0.6-1,1.6-1.3,2.6c-0.7,0-1.5,0-2.2,0
			C526.2,544.2,526.6,538.6,527.8,533z"/>
		<path class="st2" d="M516.1,162.1c0,0.4-0.1,0.9-0.1,1.3c-0.6,0.4-1.1,0.7-1.7,1.1c0,0-0.3,0-0.3,0c-3.7-3.4-7.8-6.4-11.4-10
			c-0.9-0.9-0.5,1.2-1,1.7c-1.4-1.4-1.4-2.6,0.5-3.5c0.9-0.4,1.7-0.7,2.2-1.6c0.3,0,0.7,0.1,1,0.2c0,0,0.1,0.1,0.1,0.1
			c0,0.7,0.4,1.1,1.1,1.1c0,0,0.1,0.1,0.1,0.1c0.1,0.6,0.5,1,1.1,1.1c0,0,0.1,0.1,0.1,0.1c0,0.7,0.4,1.1,1.1,1c0,0,0.2,0.1,0.2,0.1
			c0.1,0.5,0.4,0.8,1,0.9c0,0,0.3,0.3,0.3,0.3c0,0.5,0.3,0.8,0.8,0.8c0.3,0.2,0.6,0.4,0.9,0.6c0.2,0.7,0.6,1.2,1.3,1.3
			c0,0-0.1-0.1-0.1-0.1c0.1,0.7,0.5,1.2,1.2,1.3l-0.1-0.1c0.1,0.7,0.6,1.1,1.3,1.2c0,0-0.1-0.1-0.1-0.1
			C515.9,161.4,516,161.7,516.1,162.1z"/>
		<path class="st2" d="M531.4,308.1c0.5,0.6,1,1.1,1.6,1.7c-0.1,2.3-2.2,3.6-2.9,5.6l0.3,0.2c0,0-0.2-0.2-0.2-0.2
			c-0.7,0.3-0.9,0.8-0.8,1.5l0,0.1c-0.8,0.5-1.2,1.3-1.3,2.2c0,0,0,0,0,0c-0.7,0.1-1,0.6-0.8,1.3c-0.3,0.2-0.4,0.6-0.3,1
			c-0.7,0.3-1,0.7-1,1.4c0,0-0.1,0.1-0.1,0.1c-0.4,0.4-0.9,0.7-1.3,1.1c-0.7,0.3-1,0.8-0.9,1.6c0.1,0.3,0,0.6-0.3,0.8
			c-1.1-0.4-1-1.5-1.2-2.4C524.6,318.3,527,312.6,531.4,308.1z"/>
		<path class="st2" d="M424.4,313.1c0.4,1.2,0.9,2.5,1.3,3.7c-1,4.8,0.7,9.6-0.2,14.3c-1.6,1.3-0.5,3.3-1.2,4.9
			c-0.3-0.2-0.6-0.4-0.9-0.6c-0.1-5-0.3-10-0.4-15c0.2-0.4,0.2-0.8,0-1.1c0.1-1.9,0.2-3.9,0.3-5.8
			C423.7,313.2,424,313.1,424.4,313.1z"/>
		<path class="st2" d="M204.4,137.2c1.3,1.5,3.1,0.8,4.7,1.2c-0.5,0.3-1,1-1.4,1c-2.7-0.3-3.8,0.1-3.1,3.5c0.7,3-1.3,5.2-4.7,5.4
			c-0.5-0.9-1-1.7-1.5-2.6c0.7-0.2,1.3-0.4,1.4-1.2l0,0c0.7-0.2,1-0.6,0.9-1.3c0.1-0.7,0.2-1.4,0.3-2.1c0.6-0.3,0.8-0.8,0.8-1.4
			c0.2-0.4,0.4-0.8,0.5-1.1c0.7-0.1,0.9-0.7,1-1.2c0,0,0,0,0,0c0,0,0.6,0,0.6,0L204.4,137.2z"/>
		<path class="st2" d="M349.4,375.1c-1.5,1.1-1.2,2.8-1.2,4.3c0.1,3.7,0.3,7.4,0.4,11.1c-0.1,4.3-0.2,8.6-0.4,12.9
			c-0.3,0.1-0.6,0.2-1,0.3c-0.1-10.7-0.3-21.4-0.4-32.1c0.3-0.6,0.6-1.2,1.4-1.1C347.9,372.1,349.5,373.4,349.4,375.1z"/>
		<path class="st2" d="M350.9,482.5c-0.5-0.5-0.9-1-1.4-1.6c0-0.4,0-0.8,0-1.1l0,0c0.7-0.2,1-0.6,1.1-1.3c0,0,0.1-0.1,0.1-0.1
			c1.2-0.4,1-1.4,1-2.3c0.3-0.1,0.5-0.3,0.4-0.7c0.7-0.4,0.9-1,0.9-1.8l0.1-0.1c0.8-0.5,1.2-1.3,1.2-2.2c0,0,0-0.1,0-0.1
			c0.6-0.2,0.9-0.5,0.8-1.1c0.1-0.4,0.3-0.8,0.4-1.1c0.4-0.4,0.8-0.8,1.2-1.3c0.5,0.5,0.9,1,1.4,1.5c-0.1,0.7-0.2,1.3-0.2,2l0,0
			c-0.9,0.5-1.2,1.4-1.2,2.3c0,0,0,0,0,0c-0.9,0.6-1.1,1.4-1.2,2.4c0,0,0,0,0,0c-0.9,0.5-1.2,1.4-1.3,2.3c0,0,0-0.1,0-0.1
			c-0.9,0.5-1.1,1.4-1.3,2.3c0,0,0,0,0,0C352.2,481.3,351.5,481.9,350.9,482.5z"/>
		<path class="st2" d="M364.9,428.6c0.1-2.4,0.1-4.8,0.2-7.1c1.5,0.7,0.8,2.8,2.2,3.6c0,0.4,0,0.8,0,1.2c-0.1,0.1-0.4,0.3-0.4,0.3
			c0.1,0.3,0.3,0.6,0.4,0.8c0,0.8,0,1.6,0,2.4c-1.1,0.8-1.1,1.6,0,2.3c0.1,0.8,0.2,1.6,0.2,2.4c-0.1,0.7-0.2,1.4-0.2,2.1
			c-1.2,1-0.6,2.6-1.3,3.8c-0.4-0.5-0.8-1-1.2-1.5c-0.3-2.6,0.8-5.3,0.1-7.9C364.9,430.2,364.9,429.4,364.9,428.6z"/>
		<path class="st2" d="M276.2,83.7c0,0,0.2,0,0.2,0c0.6,0.4,1.1,0.7,1.7,1.1l0,0c-0.1,0.4-0.1,0.7,0,1.1l0,0c-1,0.5-1,1.5-1.1,2.4
			c0,0,0,0.1,0,0.1c-0.6,0.1-1,0.4-0.9,1.1c-0.4,0.1-0.5,0.4-0.4,0.8c-0.4,0.1-0.7,0.2-1,0.4c-0.4-0.4-0.8-0.7-1.3-1.1
			c-0.3-0.7-0.9-1-1.5-1.1c-0.2,0.1-0.4,0.1-0.7,0c0.8-1,1.6-2.1,2.4-3.1c0.3-0.2,0.7-0.4,1-0.7C275.3,84.6,275.9,84.4,276.2,83.7z"
			/>
		<path class="st2" d="M285.1,73.8c-1.9-0.3-3.8-0.3-5.6,0.1c-0.8-0.4-1.6-0.7-2.4-1.1c0.4-0.4,0.8-0.8,1.2-1.2
			c4.3,0,8.6-0.1,12.9-0.1l-0.1,0.5c-1.6,1.3-3.6,0.5-5.3,0.9C285.6,73.2,285.3,73.5,285.1,73.8z"/>
		<path class="st2" d="M426.7,370.6c-0.4-0.1-0.7-0.2-1-0.4c-0.1-1.6-0.1-3.1-0.2-4.7c0.1-2.8,0.1-5.5,0.2-8.3c1,0.6,1.3,2,2.6,2.3
			c0.9,1.5,0.8,3.2,0.7,4.9c-0.5-0.8-1-1.6-1.9-2.9C427,364.8,426.8,367.7,426.7,370.6z"/>
		<path class="st2" d="M424.5,351.1c-0.1-1.5-0.1-3.1-0.2-4.6c0.1-1.6,0.2-3.2,0.2-4.8c1.4-1.2,1.3-2.3,0-3.5c0-0.4,0-0.8,0-1.2
			c0.4,0,0.8,0,1.2,0c1.6,2.2,0.8,4.8,1,7.2c-2.1,2.2-0.3,5.1-1.4,7.5C425.1,351.5,424.8,351.3,424.5,351.1z"/>
		<path class="st2" d="M545.6,261.2c-1.2-4-1.4-8.1-0.9-12.3c0.4,0,0.8,0,1.2,0c0.4,0.8,0.8,1.6,1.3,2.3c-0.1,1.6-0.2,3.3-0.3,4.9
			C545.5,257.6,546,259.6,545.6,261.2z"/>
		<path class="st2" d="M545.6,261.2c0.5-1.7-0.1-3.6,1.3-5l0.4-0.2c-0.1,2.5-0.3,5,1,7.3c0.1,1.1,0.2,2.3,0.3,3.4
			c-0.1,0.4-0.2,0.8-0.3,1.2c-0.4,0.4-0.8,0.9-1.2,1.3C545.3,266.8,545.6,264,545.6,261.2z"/>
		<path class="st2" d="M271.9,81.9c-1,1.4-2,2.8-3,4.1c-0.5-0.1-1.1-0.1-1.6-0.2c0.5-1.2,0.9-2.3,1.4-3.5c1.4-0.9,0.8-2.9,2.2-3.8
			c0.4,0.4,0.7,0.9,1.1,1.3c0.1,0.4,0.2,0.8,0.3,1.3C271.9,81.3,271.8,81.6,271.9,81.9z"/>
		<path class="st2" d="M362.7,444.3c2-1.3,0.3-4,2-5.4c0.4,0.5,0.8,1,1.2,1.5c0.1,0.8,0.1,1.6,0.2,2.4c-0.3,0.2-0.4,0.5-0.2,0.8
			c-1,0.7-0.8,1.8-1.1,2.7c0,0,0,0,0,0c-1.1,0.1-1.6-0.8-2.3-1.4C362.8,444.8,362.9,444.6,362.7,444.3z"/>
		<path class="st2" d="M517.1,346.2c-0.3,0.2-0.6,0.3-0.8,0.5c-0.7-1.2,0.3-3-1.4-3.8c0.3-2.1,0.6-4.2,3.5-2.4c-0.1,0.3-0.1,0.7,0,1
			c-1.1,1-1.2,2.4-1.2,3.7C516.9,345.6,516.9,345.9,517.1,346.2z"/>
		<path class="st2" d="M161.5,225.1c0.4-0.5,0.9-0.9,1.3-1.4c1.5,1.4,2.5,3.2,3.4,5c-0.4,0.5-0.9,0.9-1.3,1.4
			c-0.3-0.2-0.6-0.3-0.9-0.3l0,0c-0.1-0.7-0.5-1.3-1.2-1.6c0-0.4-0.1-0.6-0.5-0.7c0-0.6-0.3-1-0.9-1.1c0,0,0-0.1,0-0.1
			C161.4,225.9,161.5,225.5,161.5,225.1z"/>
		<path class="st2" d="M352.9,313.4c0.5-0.1,1-0.2,1.5-0.2c0.3,0,0.6,0.1,0.9,0.3c-0.2,0.4-0.1,0.7,0.3,1c-0.1,0.4-0.1,0.8-0.2,1.2
			c-1.2-0.2-2.7,0.3-3.4-1.4C352.4,313.9,352.7,313.6,352.9,313.4z"/>
		<path class="st2" d="M125.7,628.6c1.2-0.5,2.4-2,3.6-0.1c-0.4,0.4-0.8,0.8-1.2,1.2c-0.4,0-0.8,0.1-1.1,0.2l-0.4-0.3
			c0,0-0.5,0-0.5,0C125.9,629.2,125.8,628.9,125.7,628.6z"/>
		<path class="st2" d="M415,181.2l-0.3-0.3c0,0-0.4,0-0.4,0c-0.1-0.3-0.2-0.7-0.3-1c1-0.2,1.8,0.2,2.1,1.2
			C415.7,181.1,415.3,181.2,415,181.2z"/>
		<path class="st2" d="M546.9,247.7c-0.3,0.1-0.6,0.2-0.8,0.3c0-0.5,0-1.1,0-1.6c0.3,0.2,0.6,0.3,0.9,0.5
			C546.6,247.1,546.6,247.4,546.9,247.7z"/>
		<path class="st2" d="M266.6,622.6c-6-5.8-9.7-12.3-11.2-20.1c-1.7-8.8-0.3-17.4,2.1-25.8c9-31.4,20.1-62,33.9-91.6
			c8.9-19.1,15.6-38.9,18-59.9c2.2-18.9,2.2-37.8-2.3-56.5c-0.8-3.2-2.5-6.7-0.4-11.1c2.6,5,3.4,9.8,4.4,14.4
			c3.6,16.1,4.8,32.5,3.9,49c-1.1,20.4-6.2,39.8-15,58.2c-13.6,28.4-25.5,57.4-35.1,87.3c-1.8,5.6-3.4,11.3-4.8,17.1
			c-2.9,12.1-1.3,23.6,6.1,33.8C267.4,619,267.9,620.2,266.6,622.6z"/>
		<path class="st2" d="M161.6,512c-2.8,10.4-8.3,19.6-13.4,28.9c-7.7,13.8-16.1,27.1-25.8,39.7c-11.3,14.6-25.7,24.9-42.9,31.3
			c-3.1,1.2-6.4,2.1-9.5,3.3c-3.2,1.1-6.3,1.8-9.6,0.3c0,0,0.1,0.1,0.1,0.1c0-1.6,0-3.2-0.1-4.9c2.9-2.6,6.8-3.1,10.3-4.3
			c24.4-8.7,42.9-24.7,57.7-45.4c12-16.7,23.4-33.8,32.1-52.6C161.8,509.2,161.2,510.8,161.6,512z"/>
		<path class="st2" d="M219.9,405.2c-1.6,6.1-3.9,11.9-6.1,17.8c-7.4,19.5-15.1,39-23.2,58.2c-3.3,7.8-6.4,15.7-9.5,23.5
			c-0.8,2.1-1.7,4-4.6,4.4c-1.7-2.1-0.8-4.2,0-6.4c2.7-6.8,5.1-13.7,7.9-20.4c7.4-18.1,14.5-36.3,21.6-54.4
			c9.4-24,18.9-48,26.1-72.8c2.5-8.5,4.4-17.1,6.6-25.7c0.7-2.7,1.1-5.4,2.6-7.8c1.9,0.7,0.7,2.5,1.3,3.7
			c-2.7,14.6-5.8,29.2-9.8,43.5c-3.5,10-6.3,20.3-10.4,30.2c-1.1,0.5-1.3,1.4-1.2,2.4l0,0C219.5,402.2,219.9,403.7,219.9,405.2z"/>
		<path class="st2" d="M224.7,480c-2.1,8.8-5.7,17.2-8.8,25.7c-6.8,19-12.3,38.3-17.7,57.7c-3.4,12.5-6.9,25.1-10.3,37.6
			c-0.4,1.3-0.3,3-2.3,2.7c-1.8-0.3-2-1.9-1.8-3.3c0.4-2.5,0.9-5,1.6-7.5c5.1-19.4,10-38.9,15.5-58.2c6.2-21.4,13.3-42.5,21.4-63.2
			c0.8,1,1.7,2,2.5,3C221.3,476.1,224.7,478.1,224.7,480z"/>
		<path class="st2" d="M269.9,281c4,6.5,5.1,13.9,5.7,21.4c1,12-1.4,23.6-4.1,35.1c-5.6,24-12.9,47.5-21.1,70.6
			c-1.4,4.1-3,8.1-4.5,12.1c-1.9-0.2-4.4,0.7-4.7-2.5c3.1-9.1,6.2-18.2,9.3-27.3c7.3-21.7,13.9-43.6,19.2-65.8
			c2.6-11,3.6-22.1,1.4-33.4c-0.5-2.8-1.8-5.2-2.5-7.9C268.8,282.5,268.7,281.4,269.9,281z"/>
		<path class="st2" d="M234,372.6c7.6-22,15.9-43.7,21.7-66.3c1.7-6.5,2.4-13.2,2.2-20c-0.1-2.2-0.2-4.5-2.3-5.8
			c-1.6-0.9-2.1-2-0.8-3.2c1.2-1.2,2.8-1.6,4.2-0.2c1.3,1.3,2.1,2.8,2.4,4.6c0.8,4.3,1,8.6,0.5,13c-1.5,12-4.5,23.6-8.3,35.1
			c-7.6,23.3-15.7,46.3-24.2,69.3c-1.3,3.5-2.6,7-3.9,10.6c-0.3,0.7-0.6,1.5-1.2,2c-0.5,0.4-1.1,1.3-1.9,0.7c-0.4-0.3-0.6-1-0.7-1.5
			c-0.4-1.6,1.5-2.8,0.6-4.5C227.2,395.4,230.3,384,234,372.6z"/>
		<path class="st2" d="M316.2,528.5c0,2.8,0.1,5.6,0.1,8.3c-0.9,4-0.5,7.9,0,11.9c-0.1,1.2-0.1,2.4-0.2,3.6
			c-2.6-4.3,0.1-9.3-1.7-13.7c-2.4-0.1-0.3,3.4-2.8,2.9c0-1.8,0-3.5,0-5.3c-2.2,3.4-3.9,7-4.7,10.9c-1.1,6-3,11.8-4.1,17.9
			c-2.4,13.2-0.9,25.5,6.5,37c-0.5,0.6-1.1,1.1-1.6,1.7c-8.2-7-11-16.5-11.8-26.8c-0.8-10.2,1.6-20,4.6-29.6
			c1.4-4.5,3.1-8.9,4.7-13.3c1.8-4.8,2.1-4.9,7.3-3.3c0.4,1.9,0.8,3.8,1.2,5.7c1.5-2.4,2.4-4.7-1.2-5.7c0.1-0.7,0.2-1.4,0.3-2.2
			C313.9,529.3,315,529.2,316.2,528.5z"/>
		<path class="st2" d="M300.8,216.8c0.7-0.2,2-0.7,2,0c0.3,3.7,1.1,7.7-2.2,10.7c-0.1-0.2-0.2-0.3-0.3-0.5c-1.3-1.8,0.8-4.8-2.2-6.2
			c-3.6-1.6-7.3-3.1-11.3-2.2c-4.9,1.1-9.1,3.5-12.5,7.3c-1.1,1.3-1.8,3.1-3.9,3.8c-4.8-9.6-12.5-15.6-23.2-17.6
			c-2.5-0.5-2.2-2-1.1-3.6c8.3-2.7,15-0.7,19.9,6.8c1.8,2.7,3.4,5.4,4.8,8.6c1.3-1.6,2.4-2.9,3.6-4.2c7.2-7.7,11.6-8.6,21.3-4.1
			c1.2,0.6,2.5,1.2,3.7,1.8C299.9,217.7,300.5,217.4,300.8,216.8z"/>
		<path class="st2" d="M241.2,417.8c0.3,3.2,2.8,2.3,4.7,2.5c-2.3,8.7-5.7,17.1-8.7,25.6c-3.8,10.9-7.7,21.8-11.6,32.7
			c-0.2,0.5-0.7,0.9-1,1.4c0-1.8-3.4-3.8,0.2-5.5c-0.8-1-1.7-2-2.5-3c4-12.5,8-24.9,13-37C237.6,429,238.4,423,241.2,417.8z"/>
		<path class="st2" d="M311.5,541.6c2.5,0.5,0.5-3,2.8-2.9c1.8,4.4-0.9,9.4,1.7,13.7c0.6,1.2,0,2.8,1.2,3.8c0.4,9,3.9,17.2,6.8,25.5
			c2.1,5.9,4.4,11.8,5.9,17.9c1.1,4.7,0.8,7-1.1,9.9c-0.4-0.4-1-0.8-1.1-1.3c-1.3-9.9-6-18.7-9.3-27.9c-4-11.2-7.2-22.5-7.2-34.6
			C311.3,544.4,311.5,543,311.5,541.6z"/>
		<path class="st2" d="M238.8,627.3c-5.7-4-7.3-10-8.1-16.3c-1.1-8.7,0.3-17.4,1.3-26c0.9-7.6,2.2-15.2,3.4-22.8
			c0.2-1.4,0.1-2.8,1.3-3.8c0.4-0.3,1.1-0.8,1.5-0.7c0.4,0.1,1,0.8,1,1.3c0.1,1.4,0,2.8-0.2,4.1c-1.7,11.5-3.3,23-4.3,34.6
			c-0.7,7.7-1,15.4,3,22.5c1,1.7,2.2,3.2,3.5,4.7C240.8,626.1,239.9,626.8,238.8,627.3z"/>
		<path class="st2" d="M238.8,627.3c1.1-0.5,2-1.2,2.5-2.4c4.6,3.4,9.8,4.5,15.5,3.6c0,0.4,0,0.8,0,1.2
			C250.1,633.7,244.2,632.2,238.8,627.3z"/>
		<path class="st2" d="M246,208.5c-1.1,1.7-1.4,3.1,1.1,3.6c-5,0.6-9.7,2.3-14.2,4.6c-0.2-0.1-0.3-0.2-0.5-0.3
			c0.1,0.1,0.2,0.2,0.3,0.3c0,3.2,0,6.3,0,9.5c-1.9-1.6-0.8-4-1.5-5.9c-0.2-0.4-0.3-0.7-0.5-1.1c-0.1-1.2-0.2-2.4-0.3-3.5
			c-0.2-1.1,0.1-2,1.2-2.5c0.5,1.7,1.6,1.3,2.7,0.7c2.2-1.2,4-3.3,6.8-3.2c0.5,0.4,0.8,1.5,1.6,0.4c-0.5-0.1-1.1-0.3-1.6-0.4
			C242.4,209.1,244.2,208.8,246,208.5z"/>
		<path class="st2" d="M161.6,512c-0.4-1.2,0.3-2.8-1.1-3.6c1.6-4.4,3.2-8.7,4.7-13.1c1.1,0.5,1,1.7,1.3,2.6
			C165.6,502.9,164,507.6,161.6,512z"/>
		<path class="st2" d="M264.4,232.7c0,0.6-0.2,1.3-1.1,1.4c-0.5,0.1-1.1-0.2-1.7-0.3c-2.1-0.1-3-1.7-3.5-3.3
			c-0.2-0.8,0.6-1.5,1.4-1.4C261.6,229.6,263.9,229.7,264.4,232.7z"/>
		<path class="st2" d="M307.6,603.7c0.5-0.6,1.1-1.1,1.6-1.7c2.3,2.1,4.6,4.2,6.9,6.3c-0.4,0.4-0.8,0.9-1.1,1.3
			C311.8,608.5,309.6,606.2,307.6,603.7z"/>
		<path class="st2" d="M257.7,220.5c1.7,0.1,2,1.3,2.2,2.4c0.3,2-1.3,2.8-2.8,3.1c-1.6,0.3-1.7-1.2-1.8-2.3
			C255.1,221.8,256,220.7,257.7,220.5z"/>
		<path class="st2" d="M242.6,325.2c-0.6-1.2,0.6-3-1.3-3.7c0.7-1.9,1.4-3.6,4.4-3.5C245.1,320.8,243.8,323,242.6,325.2z"/>
		<path class="st2" d="M283.7,229.3c-0.4,1.9-1.9,2.4-3.4,2.6c-1.2,0.1-2.3-0.8-1.9-2.2c0.5-2,2.6-0.9,3.9-1.7
			C282.8,227.6,283.4,228.6,283.7,229.3z"/>
		<path class="st2" d="M315,609.5c0.4-0.4,0.8-0.9,1.1-1.3c2.1,0,4.1,0.8,6.5,1.6C318.9,611,318.9,611,315,609.5z"/>
		<path class="st2" d="M166.4,497.9c-0.3-0.9-0.2-2.1-1.3-2.6c-0.3-1.8,0.3-3.3,1.9-5.3C168.2,493.2,167.7,495.6,166.4,497.9z"/>
		<path class="st2" d="M129.8,625.9c-3.3,0-6.5-0.3-8.7-3.3C124.1,623.3,127.2,623.8,129.8,625.9z"/>
		<path class="st2" d="M269.9,281c-1.2,0.4-1.1,1.5-1.3,2.4c-0.3-0.3-0.8-0.5-0.8-0.8c-0.4-1.6-3.6-2.7-1.8-4.2
			C268.3,276.5,268.8,279.7,269.9,281z"/>
		<path class="st2" d="M259.9,627.1c0.6-0.4,1.1-1,1.8-1.3c0.6-0.2,1.4-1,1.9-0.1c0.7,1.2-0.4,1.6-1.1,2.1c-0.3,0.2-0.7,0.3-1,0.4
			C260.9,627.9,260.4,627.5,259.9,627.1z"/>
		<path class="st2" d="M326.9,323.9c1.3,0.6,2.6,1.2,3.9,1.7c-0.8,1.3-2,0.2-2.9,0.6C326.9,325.8,326.7,324.9,326.9,323.9z"/>
		<path class="st2" d="M259.9,627.1c0.5,0.4,1,0.8,1.5,1.2c-0.8,0.5-1.4,1.3-2.5,1.2c-0.4-0.4-0.9-0.8-1.3-1.2
			C258.2,627.4,259.1,627.3,259.9,627.1z"/>
		<path class="st2" d="M42.4,589.2l-0.5,0.1l-0.5-0.1c-0.2-0.6-0.5-1.1-1.1-1.2c0-0.4,0-0.8,0-1.1c1.2-0.5,2.3,0,3.5,0.2
			c0.1,0.3,0.1,0.6,0.3,0.9C43.4,588.4,42.9,588.8,42.4,589.2z"/>
		<path class="st2" d="M192.4,315.5c-1-1.6-0.6-2.4,1.3-2.3C193.7,314.2,193.4,315.1,192.4,315.5z"/>
		<path class="st2" d="M221.1,401.3c-0.1,1.2-0.2,2.3-0.3,3.5c-0.3,0.2-0.6,0.3-0.9,0.5C219.9,403.7,219.5,402.2,221.1,401.3z"/>
		<path class="st2" d="M130.6,627.3c0-0.4,0-0.7,0-1.1c1-0.1,1.7,0.3,2.3,1.1C132.1,627.3,131.3,627.3,130.6,627.3z"/>
		<path class="st2" d="M257.6,628.2c0.4,0.4,0.9,0.8,1.3,1.2c-0.7,0.4-1.5,0.6-2.3,0.3c0-0.4,0-0.8,0-1.2
			C256.9,628.1,257.2,628,257.6,628.2z"/>
		<path class="st2" d="M191.4,317c0-0.7,0.4-1.2,1-1.4C192.5,316.4,192.1,316.8,191.4,317z"/>
		<path class="st2" d="M499.4,321.5c-0.8-1.2-1.6-2.4-2.3-3.5c1.9-0.4,2.1-1.9,2.7-3.4c3.3-8,6.7-16,10-24.1
			c1.7-0.6,1.5-2.1,1.5-3.5c2.8-5.6,2.2-11.3,0.4-17c-0.3-0.9-0.4-1.9-0.6-2.9c0.6-2.4-0.9-4.4-1.2-6.7c-1.9,0.9-0.3,3.3-2.1,4
			c-1.3-8.2-0.3-16.6-2.6-24.7c0.9-1.6,2.4-1.4,3.8-1.5c3.9,6.1,5.2,13.1,5.8,20.1c0.3,3.3,1.4,5.3,4.2,7.1c4.6,3,8.9,6.4,13.3,9.7
			c0.9,0.7,1.8,1.5,2.6,2.4c0.7,0.7,1.3,1.6,0.4,2.5c-0.8,0.8-1.7,0.8-2.6,0.2c-2.6-1.7-5.2-3.4-7.9-5.2c-2.2-2.8-5.5-4.1-8.6-7.1
			c0,2.9-1.6,5.2,2.3,5.1c1.3,0,1.9,1.2,2.4,2.2c-0.1,0.4-0.1,0.8,0,1.2c-0.4,0.4-0.9,0.8-1.3,1.2c-0.4-0.1-0.7-0.1-1.1,0.1
			c-2.9,3.9-3.5,8.8-5.3,13.3C509,301.2,504.4,311.5,499.4,321.5z"/>
		<path class="st2" d="M409,125.2l0.3,0.3c0,0,0.4-0.1,0.4-0.1c0.7,0.9,1.7,1,2.8,1c0,0,0.2,0.1,0.2,0.1c2.1,1.4,4.4,2.4,6.9,2.5
			l0,0c0.2,0.6,0.5,1,1.3,0.9c1.1,1.4,1.2,2.4-0.8,3c-1.6,0.5-3.1-0.3-4.6-0.8c-7.7-2.5-15.3-5-22.9-7.8c-3-1.1-4.3-0.2-4.9,2.7
			c-0.6,2.9-1.8,5.6-3.2,8.2c-0.6,1.2-1.3,2.8-3,1.9c-1.6-0.8-0.3-2,0-3c0.5-1.7,1.8-3.1,1.5-5c1-0.5,1-1.5,1.2-2.5
			c1.1-1.6,2.1-3.1,0.1-4.8c-1.2-0.6-1.3-1.8-1.5-2.9c-0.9-2.2-2.8-3.2-4.9-3.9c-7.6-2.4-13.5-7-18.5-13.2
			c-3.9-4.8-9.1-8.1-14.4-11.2c-5.8-3.3-12.1-5.6-16.9-10.5c0.5-0.5,1-0.9,1.6-1.4c1.8,0.3,2.6,2.5,4.6,2.4c0,0,0.1,0,0.1,0
			c0.6,0.8,1.3,1.1,2.3,1c0.3,0.3,0.6,0.4,1,0.3c0.2,0.6,0.7,0.9,1.3,0.8c0.2,0.4,0.5,0.6,0.9,0.4c0.6,0.9,1.6,1.1,2.6,1.1
			c0,0,0.1,0,0.1,0c0.5,1,1.4,1.1,2.3,1.1c0,0,0.1,0.1,0.1,0.1c0.5,0.8,1.3,1.1,2.3,1.1c0,0,0.1,0.1,0.1,0.1
			c0.4,0.9,1.3,1.2,2.2,1.3c0,0,0,0,0,0c0.4,1.1,1.3,1.3,2.3,1.3c0.2,0.7,0.8,0.8,1.4,0.8c0,0,0.2,0.1,0.2,0.1c0.4,0.8,1,1.4,2,1.5
			l0.3-0.3c0,0-0.3,0.3-0.3,0.3c0.2,0.7,0.7,1,1.4,1l0,0c0.1,0.7,0.6,1,1.3,1c0,0,0.1,0.1,0.1,0.1c0.1,0.6,0.4,0.9,1.1,0.9
			c0,0,0.3,0.2,0.3,0.2c0.1,0.6,0.4,0.9,0.9,0.9c0,0,0.3,0.3,0.3,0.3c0,0.6,0.3,0.9,0.9,0.9c0,0,0.2,0.3,0.2,0.3
			c0,0.6,0.4,0.9,0.9,1.1c0,0,0.1,0.1,0.1,0.1c0,0.7,0.3,1.1,1.1,1.2c0,0,0.1,0.1,0.1,0.1c0.1,0.7,0.4,1.1,1.1,1.3c0,0,0-0.1,0-0.1
			c0,0.8,0.4,1.2,1.2,1.3l0,0c0.1,0.7,0.6,1.1,1.3,1.2l0,0c0.1,0.7,0.5,1.1,1.2,1.2c0,0,0,0,0,0c0.1,0.7,0.6,1,1.3,1
			c0,0,0.1,0.1,0.1,0.1c0.4,1,1.2,1.2,2.2,1.3c0,0,0,0,0,0c0.2,0.7,0.5,1,1.3,0.9c0.2,0.4,0.5,0.5,0.9,0.3c0.5,1.1,1.5,1.2,2.6,1.2
			c0,0,0,0,0,0c0.5,1,1.4,1.1,2.4,1.2l-0.1,0c0.2,0.7,0.7,1,1.4,0.9l0.2,0.3c0,0,0.4-0.1,0.4-0.1c0.3,0.7,0.9,1.1,1.7,1.2l0,0
			c0.1,0.7,0.5,1.1,1.2,1.2l0,0c0.1,0.7,0.5,1.2,1.2,1.5c-0.2,0.4-0.1,0.6,0.2,0.8c0.6,2,2.3,0.6,3.4,1.3c0,0,0,0,0,0
			c0.8,2.5,3,1.9,4.8,2.2c0.4,0.1,0.8,0.1,1.2,0.2c0.6,0.9,1.4,0.9,2.4,0.8c0.7,0.2,1.3,0.3,2,0.5c0.7,0.9,1.7,1.1,2.8,1
			c0,0,0.2,0.1,0.2,0.1c0.6,0.7,1.3,1,2.2,0.8c0.7,0.2,1.4,0.3,2.1,0.5C407,125.2,407.9,125.2,409,125.2z"/>
		<path class="st2" d="M379.5,160.7c-0.1-0.7-0.5-1.1-1.2-1.2c-0.2-0.7-0.6-1-1.3-1.1c-0.1-0.7-0.4-1.2-1.2-1.2
			c-0.2-0.7-0.7-0.9-1.3-1c-2.6-4-6.7-6.1-10.4-8.6c-0.7-1.4-2.3-1.8-3.5-2.4c-0.3-0.7-0.9-0.8-1.5-0.8c-0.5-0.8-1.1-1.4-2.2-1.4
			c-0.2-0.7-0.7-0.9-1.3-1c-0.3-1.2-1.3-1.2-2.2-1.4c-0.2-0.7-0.7-1-1.4-1c-1.3-2.7-4.1-3.8-5.9-6c-0.3-2-0.6-4,2.2-4.5
			c2.8,4,6.7,6.7,10.8,9c7.4,4.2,14.2,9.2,20.5,14.9c9.8,9,21.4,15.6,32.9,22.2c0.9,0.5,1.7,1.1,2.5,1.6c0.1,0.7,0.5,1,1.2,0.8
			c0,0,0.1,0,0.1,0c0.4,0.9,1,1.4,2,1.3c0,0,0.2,0.2,0.2,0.2c0.2,0.7,0.6,1,1.3,0.9c0,0,0,0,0,0c0,0.4,0,0.8,0,1.2c0,0,0,0,0,0
			c-0.4,0.4-0.8,0.8-1.2,1.1c-0.4-0.1-0.8-0.2-1.2-0.3c-0.1-0.7-0.5-0.9-1.2-0.8c0,0-0.1-0.1-0.1-0.1c-0.4-1-1.1-1.3-2.1-1.2
			c0,0-0.2-0.1-0.2-0.1c-0.3-0.7-0.7-1-1.5-0.8c-0.7-0.1-1.3-0.2-2-0.3c-1.2-1.5-3.1-1.8-4.8-2.3c-0.6-0.8-1.4-1.2-2.4-1.2
			c-0.5-0.9-1.3-1.2-2.3-1.3c-0.4-1.1-1.3-1.3-2.3-1.3c-1.1-1.8-2.9-2.1-4.7-2.5c-1.1-1-2.2-2-3.8-2.1c-0.5-0.9-1.3-1.3-2.2-1.4
			c-1.9-1.7-3.7-3.6-6.1-4.5C381.2,161.2,380.4,160.8,379.5,160.7z"/>
		<path class="st2" d="M513.6,333.5c1.5,3.6,0.6,5.4-2.7,5c-3.9-0.4-7.5-2.2-11-3.9c-3.4,6-3.5,6.6,1.1,10.8c3,2.8,5,7.1,10,7.4
			c1,0,0.7,1.7,0.9,2.6c0.4,2.2-0.7,4.2-0.9,6.4c-5.5,1.3-5.5,2.6-9.4-3.9c-2.9-4.8-6.8-8.7-9.7-13.4c-1.3-2-2.5-4-3.7-6
			c-0.7-1.1-0.7-2.3,0.3-3.2c1-0.9,2.1-0.7,3.2,0.1c1,0.7,1.4,2.2,2.9,2.6c1.4-2.1,2.6-4.9,1.5-6.2c-3-3.7-0.3-6.2,0.9-9.2
			c0.5,0.5,0.9,1,1.4,1.5c0.2,0.7-0.7,1.7,0.2,2.1C503.6,328.5,508,332.2,513.6,333.5z"/>
		<path class="st2" d="M444.7,78.8c1.1,0.1,2.3-0.9,3.2,0.1c0.9,1-0.5,1.5-0.8,2.2c-3.4,0.9-6.8,1.7-10.3,2.6
			c-0.1,1.8,1.6,2,2.4,2.9c0.7,0.8,1.1,1.4,0.5,2.5c-2.1,3.6-1.5,5.3,2.2,6c1.2,0.2,2.4-0.1,3.5,0.3c2.5,0.7,5-0.4,7.6,1.8
			c1.9,1.6,5.3-0.1,8-0.9c0.7-0.2,1.4-0.6,2.1-1c1.3-0.7,2.9-2.2,4.2-0.6c1.1,1.4-0.5,2.9-1.2,4.3c-0.8,0-1.5,0.1-2.3,0.1
			c-0.7-0.1-1.2,0.1-1.2,0.9c-5.1,1.5-10,2.8-15.2-0.5c-1.8-1.2-5-0.3-7.5-0.3c-1.3,0-1.5,1.1-1.5,2.1c-0.1,2.3-0.1,4.7-0.1,7.1
			c0,3.6-0.3,7-3,9.7c-0.8,0-1.6,0-2.5-0.1c0.5-1.1,1-2.3,1.5-3.4c0,0,0,0.1,0,0.1c3.4-4.8,1.4-10.2,1.8-15.4c0-0.1-1-0.3-1.5-0.4
			c0,0-0.1,0-0.1,0c-0.5-0.9-1.4-1-2.3-1.2l0.1,0.1c-1.2-1.7,0.1-4.1-1.5-5.7l0,0c0-1.2-0.1-2.4-0.1-3.5c0.3-0.2,0.4-0.5,0.2-0.9
			c0.3-0.5,1-1,0.9-1.4c-0.8-3.5,1.2-5,4.1-5.9c0.7-0.1,1.3-0.2,2-0.3C440,80,442.4,80,444.7,78.8L444.7,78.8z"/>
		<path class="st2" d="M431.7,190.7c2.2-1.6,3.6-1.5,3.8,1.6c0.3,8,0.5,16,1,24c0.6,9.2,1.4,18.4,2.1,27.6c0.2,2.2,0.3,4.3,0.4,6.5
			c0.1,1.6,0.2,3.5-1.8,3.8c-2.2,0.4-2.4-1.7-2.5-3.2c-0.4-3.3-0.6-6.7-1-10c-0.2-1.8-0.6-3.5-0.9-5.2c0.2-6.8-0.6-13.5-1.2-20.2
			c0.3-5.6,0.2-11.1-0.2-16.7C431.5,196.2,431.6,193.5,431.7,190.7z"/>
		<path class="st2" d="M492.1,142.1c0.4-0.5,0.7-1,1.1-1.4c0.4,0.5,0.8,0.9,1.3,1.4c-0.1,6.5-2.4,12-7.4,16.4
			c-2.5,2.2-4.6,4.7-6.8,7.1c-1.7,0.6-2.8,1.8-3.5,3.4c-0.4,0.1-0.8,0.2-1.3,0.2c-1,0-1.8,0.3-2.2,1.3c-0.1,0.4-0.2,0.7-0.1,1.1
			l0.1-0.1c-0.4,0.1-0.8,0.2-1.1,0.3c-1.1,0.4-2.3,0.7-2.5,2.1l0.1-0.1c-0.9,0-1.2,0.5-1.3,1.3l0.1-0.1c-0.4-0.1-0.8,0-1.1,0.1
			c-0.5-0.5-1-1-1.4-1.5c4.1-5.2,8.3-10.3,11.4-16.2c2.3-4.3,5.8-7.4,10.3-9.2C490.5,147.2,492,145.2,492.1,142.1z"/>
		<path class="st2" d="M504.2,150.2c0.1,0.3,0.1,0.6,0.1,0.9c-0.5,0.9-1.3,1.2-2.2,1.6c-1.9,0.8-1.8,2.1-0.5,3.5
			c1.3,2.9,2.6,5.7,2.7,9c0.1,3.5-1.1,4.7-4.6,4c-4.4-1-8.4-0.6-12.5,1.5c-3.5,1.8-7.9,0.4-11.4,2.5c-0.5-0.4-0.9-0.9-1.4-1.3
			c0.4-0.4,0.8-0.9,1.2-1.3l-0.1,0.1c0.4-0.2,0.8-0.3,1.2-0.5c2-1,4.1-2,6.1-3.1c0.9-0.3,1.9-0.5,2.7-1c4.9-2.8,9.8-3.5,15-0.9
			c0.3,0.5,0.9,0.6,1.1,0.1c0.4-0.9-0.2-1.6-1-2.1c-2.1-4.9-1.4-10.5-3.8-15.3c0.4-0.4,0.9-0.8,1.3-1.2l0.6,0l0.6,0.2
			c0.5,0.4,1,0.7,1.4,1.1c0.7,0.4,1.4,0.8,2.1,1.2C503.1,149.7,503.5,150.1,504.2,150.2z"/>
		<path class="st2" d="M456.8,153.4c-0.6-1.9-1.2-3.7-1.9-6.1c-3.7,1.4-7.6,3.3-11.4,0.4c0.1-0.9,0.2-1.7,1-2.2
			c5.1,3.3,8.8-1.4,13.6-2.9c-0.3,4.7,2.3,7.9,4.1,11.5c0.5,1.1,0.9,2.2,1.2,3.3c0.3,1.6,1.7,3.6-0.5,4.7c-2.1,1-3.1-0.9-4.2-2.3
			C457.8,157.7,458.4,155.3,456.8,153.4z"/>
		<path class="st2" d="M474.3,109.6c4.6-4.6,9.5-3.2,10.7,4.8c1,6.6-3.5,12-10.1,12.7c-0.8,0.1-1.6,0.1-1.7-1
			c-0.1-0.7,0.3-1.2,0.8-1.4c1.3-0.5,2.5-1.1,3.8-1.4c1.7-0.5,2.7-1.5,3.3-3c1.2-3,0.6-6.4-1.8-7.9c-3-2-4.6,0.3-6.3,2.2
			c-0.3,0-0.6,0-0.9,0c-0.1-0.8-0.2-1.6-0.2-2.4c0,0,0.3,0.1,0.3,0.1c0.6-0.2,0.8-0.7,0.8-1.3l0,0
			C473.8,110.7,474.2,110.2,474.3,109.6z"/>
		<path class="st2" d="M525.1,177.1c1.3,1.2,1.1,2.4-0.2,3.4c-0.6,0.4-1.5,0.5-2.2,0.5c-7.9,0.5-12.9,4.8-16.2,11.7
			c-0.7,1.4-1.5,2.7-2.2,4.1c-0.3-0.9-0.2-1.9-1.1-2.5c0.8-3.5,2.4-6.6,4.6-9.4c3.4-4.5,7.7-7.2,13.5-7.1c1.4,0,2.7-0.3,4.1-0.5
			C525.3,177.2,525.1,177.1,525.1,177.1z"/>
		<path class="st2" d="M461.2,105.9c-0.1-0.4,0-0.7,0.2-0.9c0.9-0.5,1.2-1.4,1-2.4c0,0,0,0,0,0c0.5,0,1,0.1,1.5,0.1
			c-0.1,0.7-0.6,1.4,0.3,1.8c0,0,0.3-0.5,0.5-0.8c0.8,0.3,2.2-1.4,2.4,0c0.2,2.2,0.9,2.4,2.7,1.9c0.7-0.2,1.1,1,1.1,1.8
			c0,1.6-0.2,3.1-0.4,4.7c-1.4,0.9-1,2.3-1,3.6c-0.5,1.8-0.6,3.9-3.1,4.7c-2-2.4-1.3-5.8-2.8-8.3c1.3-1.1,1.7-2.7,0.7-3.9
			c-0.7-0.8-2,0.4-3.1,0.4c0,0,0-0.1,0-0.1C461.3,107.6,461.3,106.8,461.2,105.9z"/>
		<path class="st2" d="M322,72.7c-1.4,0.8-2.5,1.1-4-0.4c-4.7-4.7-10.6-7.8-16.1-11.4c0.5-0.4,1-0.9,1.5-1.3
			c0.7,0.1,1.4,0.1,2.1,0.2c0,0,0,0,0,0c0.5,1,1.4,1.2,2.4,1.1l0.3,0.3c0,0,0.4-0.1,0.4-0.1c0.4,0.7,1,0.9,1.7,0.8
			c0.1,0.4,0.4,0.5,0.7,0.3c0.3,0.7,0.8,1.1,1.6,1.2c0,0-0.1-0.1-0.1-0.1c0.2,0.7,0.6,1.1,1.4,1c0,0,0.1,0.1,0.1,0.1
			c0.5,0.8,1.2,1.3,2.2,1.3l-0.1,0c0.2,0.7,0.6,1,1.3,1.1c0,0,0.1,0.1,0.1,0.1c0.1,0.7,0.5,1,1.2,1.1c0,0,0.1,0.1,0.1,0.1
			c0,0.7,0.5,1,1.1,1c0,0,0.2,0.2,0.2,0.2c0.3,0.4,0.6,0.7,1,1.1l0.1,0.1c0,0.7,0.3,1.2,1,1.4l-0.1-0.1C322,72.1,322,72.4,322,72.7
			L322,72.7z"/>
		<path class="st2" d="M520.8,276.3c0-0.4,0-0.8,0-1.2c0.7,0.5,1.5,0.9,2.2,1.4c3.2,3.4,6.5,6.9,9.7,10.3c0.6,0.7,1.5,1.6,0.6,2.5
			c-1,1.1-2.3,0.6-3.1-0.2c-4-3.8-7.8-7.7-11.8-11.6c0.4-0.1,0.7-0.1,1.1-0.1C520,277.1,520.4,276.7,520.8,276.3z"/>
		<path class="st2" d="M382.7,118.9c0.3,1.1,0.4,2.3,1.5,2.9c-0.1,0.6-0.2,1.2-0.3,1.9c-1.3,1-1.7,2.5-2.3,3.9
			c-2.4,3.5-4.9,7.1-7.3,10.6c-1-0.5-0.9-1.5-1.1-2.3c0-0.4,0.2-0.8,0.4-1.1c0.7-0.2,0.9-0.7,0.8-1.3
			C377.2,128.6,379.9,123.8,382.7,118.9z"/>
		<path class="st2" d="M430.3,176.4c-0.7,0-1.5,0-2.2,0c0.6-6.8,0.4-13.6,1.7-20.3c0-0.2,0.7-0.3,1.6-0.6
			C431.9,162.6,431.7,169.5,430.3,176.4z"/>
		<path class="st2" d="M502.9,227.5c-1.9-4.6-2.1-9.6-2.9-14.4c-0.2-1.1,0.3-2,1.5-2.1c1.5-0.2,1.3,1,1.5,1.9
			c0.9,4.4,2.7,8.7,2.5,13.3C504.6,226.6,503.8,227.1,502.9,227.5z"/>
		<path class="st2" d="M432.6,118c0.8,0,1.6,0,2.5,0.1c-0.9,2.3-2.8,4.7-2.6,6.9c0.2,2.3,4,1.8,5.6,3.5c0.4,0.4,0.5,1,0.7,1.5
			c-1,0.1-1.9,0.1-2.9,0.2c-2.5,0-4.5-1.5-6.5-2.7c-0.1-1.5-0.3-3.1-0.4-4.6c0.3-0.2,0.5-0.5,0.4-0.9c1.3-0.9,2.1-2.2,2.3-3.8
			c0,0,0,0,0,0C432,118,432.3,118,432.6,118z"/>
		<path class="st2" d="M507.8,264.4c1.8-0.7,0.1-3.1,2.1-4c0.4,2.3,1.8,4.3,1.2,6.7c-2.2,2.9-0.4,6.2-1.2,9.3
			c-2.2,2.6-0.4,5.7-1.2,8.5c-1.8-2.9-0.9-6.2-1-9.3C507.7,271.9,507.8,268.1,507.8,264.4z"/>
		<path class="st2" d="M502.9,227.5c0.9-0.4,1.7-0.9,2.6-1.3c0,0,0,0,0,0c-0.1,1,0.1,2,1.1,2.5c1.1,3.1,2.1,6.2,2.5,9.5
			c-1.4,0-2.9-0.1-3.8,1.5C503.7,235.8,503,231.7,502.9,227.5z"/>
		<path class="st2" d="M319.7,105c0-0.3-0.1-0.7-0.2-1c0.1-0.6,0.2-1.2,0.3-1.7c0.3,0.2,0.7,0.4,1,0.7c0,0.6,0.4,0.9,1,0.9
			c5,5.1,10.1,10.2,15.1,15.2c-0.6,0.1-1.3,0.2-1.9,0.3c-0.3-0.1-0.7-0.1-1-0.2c-2-2-4-3.9-6-5.9c-1.2-1.2-2.4-2.4-3.6-3.6
			C322.9,108.2,321.3,106.6,319.7,105z"/>
		<path class="st2" d="M465.9,173.7c0.5,0.5,1,1,1.4,1.5c-0.1,0.4-0.1,0.7-0.1,1.1c0.4,0.4,0.8,0.8,1.3,1.3
			c-2.4,2.1-4.9,3.9-8.3,3.8L460,181C461.5,178.3,463.5,175.8,465.9,173.7z"/>
		<path class="st2" d="M444.5,145.5c-0.8,0.5-0.9,1.4-1,2.2c-3.7-2.1-3.7-5.2-2.5-8.7c-0.2-0.6-0.4-1.2-0.6-1.8
			c0.2-0.2,0.4-0.2,0.6-0.2c2,0.5,2.8,1.9,2.8,3.9C443.8,142.5,443.9,144,444.5,145.5z"/>
		<path class="st2" d="M457.7,163.3c0.3,0.8,0.4,1.6,0.1,2.4c-0.7-0.4-1.4-0.8-2.1-1.2c-0.9-2.3-1.9-4.6-2.8-7
			c-0.3-0.8-1.3-1.8,0.1-2.4c1.1-0.5,1.7,0.7,2.5,1.1c0.4,1.2,0.8,2.3,1.2,3.5C456.6,160.9,456.4,162.3,457.7,163.3z"/>
		<path class="st2" d="M455.6,164.5c0.7,0.4,1.4,0.8,2.1,1.2c0.8,3.3-0.5,6.4-1.3,9.5c-1.1,0.6-1.2,1.6-0.9,2.6
			c0.2,0.3,0.1,0.6-0.2,0.9c-1.2-0.6-0.9-1.8-1.4-2.7c0.2-0.7,0.3-1.3,0.5-2c0.6-0.3,0.9-0.8,0.8-1.4
			C455.4,169.8,455.5,167.2,455.6,164.5z"/>
		<path class="st2" d="M457.8,71.7c0.4,1,1.5,0.8,2.3,1.2c-2,1.1-4.1,2.2-6.1,3.3c-1.1,0.2-2.2,0.1-3.3-0.4c0.4-0.7,0.7-1.4,1.1-2.1
			c0.6,0,1.2-0.2,1.4-0.8c0.4,0.1,0.7-0.1,1-0.4c0.7,0,1.3-0.1,1.6-0.8c0.3,0.1,0.6,0,0.7-0.3C457,71.6,457.4,71.7,457.8,71.7z"/>
		<path class="st2" d="M508.8,284.9c0.8-2.8-1-5.9,1.2-8.5c0.1,2.2,0.1,4.3,0.3,6.5c0.1,1.4-0.9,3.2,1,4.2c0,1.4,0.2,2.8-1.5,3.5
			C508.9,288.7,507.7,287,508.8,284.9z"/>
		<path class="st2" d="M520.5,331.9c-0.3,0.5-0.6,1-0.8,1.5c-1,0.5-1.1,1.4-1.2,2.4L518,336l-0.5-0.1c-0.4,0-0.9,0-1.3,0
			c-0.5-1.4,0.7-2.4,1-3.6c1.2-2,2.4-4.1,3.6-6.1c0.1,1,0.2,2.1,0.2,3.1C520.8,330.1,520.7,331,520.5,331.9z"/>
		<path class="st2" d="M440.5,132.1c0.6,0.1,1.2,0.1,1.8,0.2c0.5,0,1-0.1,1.6-0.1c0.8,0.3,1.2,0.9,0.9,1.7c-0.7,1.6-2.1,0.9-3.3,1
			c-1.1,0-2.2,0-3.3,0l-0.4,0c0,0-0.2-0.4-0.2-0.4c0-1.4,0-2.9,1.4-3.7l-0.2,0.4l0.2-0.4C439.1,131.6,439.6,132,440.5,132.1z"/>
		<path class="st2" d="M335,119.4c0.6-0.1,1.3-0.2,1.9-0.3c2.3,1.1,3.9,3,5.4,5c0.1,0.3,0,0.5-0.2,0.7l-0.3-0.2l0.1,0.3
			c-0.2,0.3-0.5,0.3-0.8,0.2c-1.2-0.8-2.4-1.6-3.6-2.4c-0.2-0.6-0.6-1-1.2-1.2c-0.1-0.6-0.4-1.1-1.2-1.2
			C335.2,120.1,335.1,119.8,335,119.4z"/>
		<path class="st2" d="M468.6,177.6c-0.4-0.4-0.8-0.8-1.3-1.3c0.6-0.2,1-0.6,1.2-1.2l-0.1,0.1c0.7-0.1,1.2-0.5,1.3-1.3l-0.1,0.1
			c1,0.1,2.1,0.2,2.5-1.2c0.8-0.1,1.2-0.5,1.2-1.3l-0.1,0.1c0.4,0,0.9,0.1,1.3,0.1c0.5,0.4,0.9,0.9,1.4,1.3
			C473.5,174.6,471.3,176.6,468.6,177.6z"/>
		<path class="st2" d="M467.3,135.9c-1.3,1.7-3,5.5-4.6,3.9c-2.3-2.3,2-3.6,3.2-5.5C466.4,134.9,466.9,135.4,467.3,135.9z"/>
		<path class="st2" d="M467.3,135.9c-0.5-0.5-1-1.1-1.4-1.6c0.8-1.8,1.9-3.5,3.8-4.4c0.3,0.4,0.7,0.8,1,1.1
			C470.2,133.1,468.8,134.6,467.3,135.9z"/>
		<path class="st2" d="M297,57.8c0.3-0.1,0.5-0.2,0.8-0.2c1.1,1.6,2.7,0.3,4.1,0.8c0.3,0.3,0.7,0.4,1.1,0.3c0.1,0.3,0.2,0.6,0.4,1
			c-0.5,0.4-1,0.9-1.5,1.3c-2.4-0.7-4.7-1.4-7.1-2.2c-0.2-0.2-0.2-0.4,0.1-0.6C295.6,58.4,296.4,58.3,297,57.8z"/>
		<path class="st2" d="M315.1,99c-0.3-0.1-0.7-0.2-1-0.3c-0.2-0.9-0.5-1.7-1.4-2.1c-0.3-0.4-0.7-0.9-1-1.3c0-0.4,0-0.8,0.1-1.2
			c0.3-0.4,0.7-0.8,1-1.2c1.8,1.1,2.7,2.9,3.6,4.8c0.1,0.4,0,0.6-0.3,0.9l-0.3-0.2l0.1,0.4C315.6,99.1,315.3,99.2,315.1,99z"/>
		<path class="st2" d="M503,200.2c-0.4,2.4-0.9,4.8-1.5,8.3c-1.6-3.7-1.1-6,0-8.4C502,200.1,502.5,200.1,503,200.2z"/>
		<path class="st2" d="M454,176c0.4,0.9,0.2,2.2,1.4,2.7c-0.1,0.9-0.2,1.9-0.5,2.8c-0.1,0.4-0.9,0.7-1.4,0.7c-0.5,0-0.9-0.6-0.8-1.3
			C452.8,179.2,452.9,177.4,454,176z"/>
		<path class="st2" d="M546,246.4c0,0.5,0,1.1,0,1.6c0.1,0.4,0,0.7-0.2,1c-0.4,0-0.8,0-1.2,0c-0.1-1.8-0.2-3.6-0.3-5.4
			c0.2-1.1,0.3-2.2,1.3-2.9C545.8,242.5,545.9,244.5,546,246.4z"/>
		<path class="st2" d="M319.8,102.3c-0.1,0.6-0.2,1.2-0.3,1.7c-0.4,0-0.7-0.1-1-0.2c-0.4-1.5-2.3-1.8-2.5-3.5
			c0.4-0.4,0.9-0.9,1.3-1.3C318.6,99.8,319.6,100.8,319.8,102.3z"/>
		<path class="st2" d="M461.4,108.5c1.1,0,2.4-1.2,3.1-0.4c1,1.3,0.6,2.8-0.7,3.9C464.5,109.9,462.2,109.8,461.4,108.5z"/>
		<path class="st2" d="M439,130.8c-1.5,0.8-1.4,2.3-1.4,3.7c-1.8-1-0.6-3.1-1.7-4.4c1-0.1,1.9-0.1,2.9-0.2
			C439.1,130.2,439.2,130.4,439,130.8z"/>
		<path class="st2" d="M503,200.2c-0.5,0-1-0.1-1.5-0.1c0.4-1.6,0-3.5,1.4-4.8c0.1,0.9,0.2,1.9,1.1,2.5
			C504.2,198.8,503.6,199.5,503,200.2z"/>
		<path class="st2" d="M464.1,102.7c-0.5,0-1-0.1-1.5-0.1c-0.1-0.4-0.1-0.8,0.1-1.1c1-0.5,1.1-1.4,1-2.4c0.8,0,1.5-0.1,2.3-0.1
			c-0.3,1.2-0.7,2.4-1,3.6C464.6,102.6,464.3,102.6,464.1,102.7z"/>
		<path class="st2" d="M521,329.2c-0.1-1-0.2-2.1-0.2-3.1c0.1-0.9,0.4-1.7,1.3-2.2c0.1,0.9,0,1.9,1.2,2.4c0,0.4,0,0.8,0,1.2
			c-0.7,0.2-1,0.6-1.1,1.2C521.7,328.9,521.4,329.1,521,329.2z"/>
		<path class="st2" d="M373.2,135.9c0.2,0.9,0.1,1.9,1.1,2.3c-0.2,1.1-1,1.1-1.6,0.5C371.6,137.6,372.3,136.7,373.2,135.9z"/>
		<path class="st2" d="M326.9,80c0.1-0.9-0.4-2,0.9-2.3c0.8-0.2,1.4,0.3,1.7,1.1c-0.5,0.5-1,0.9-1.6,1.4
			C327.5,80.2,327.2,80.1,326.9,80z"/>
		<path class="st2" d="M312.6,93c-0.3,0.4-0.7,0.8-1,1.2c-0.4-0.4-0.9-0.8-1.3-1.2c0-0.4,0-0.8,0-1.2c0,0,0.2-0.2,0.2-0.2
			c0.3,0.1,0.6,0.2,1,0.3c0.3,0,0.7,0.1,1,0.1C312.5,92.4,312.5,92.7,312.6,93z"/>
		<path class="st2" d="M317.4,99.1c-0.4,0.4-0.9,0.9-1.3,1.3c-0.3-0.2-0.5-0.3-0.9-0.3c0-0.3,0-0.7-0.1-1c0.3,0.1,0.5,0,0.7-0.2
			c0,0,0.2-0.2,0.2-0.2c0.3-0.2,0.4-0.5,0.3-0.9C316.6,98.2,317,98.6,317.4,99.1z"/>
		<path class="st2" d="M343.5,126.6c-1,0-1.9-0.4-2.3-1.3c0.3,0.1,0.6,0,0.8-0.2c0,0,0.2-0.2,0.2-0.2c0.2-0.2,0.3-0.5,0.2-0.7
			c0.7,0.2,1,0.6,1.1,1.3C343.5,125.8,343.5,126.2,343.5,126.6z"/>
		<path class="st2" d="M438.1,134.9c1.1,0,2.2,0,3.3,0c-0.4,0.7-0.7,1.4-0.3,2.2c-0.2-0.1-0.4,0-0.6,0.2c0,0-0.2-0.1-0.2-0.1
			C440.2,135.8,438.7,135.8,438.1,134.9z"/>
		<path class="st2" d="M433.8,138.3c0.8-0.5,1.7-1.1,2.4,0.2c0.3,0.6-0.2,1-0.8,1.3C434.6,139.5,434.1,139,433.8,138.3z"/>
		<path class="st2" d="M433.8,138.3c0.3,0.8,0.8,1.3,1.6,1.5c-0.6,1.2-1.5,1.2-2.2,0.3C432.7,139.4,432.8,138.6,433.8,138.3z"/>
		<path class="st2" d="M456.6,159.6c0.3,0.3,0.6,0.3,0.9,0.1c0,1.2,0.1,2.3,0.1,3.5C456.4,162.3,456.6,160.9,456.6,159.6z"/>
		<path class="st2" d="M461.4,168.6c-0.2,0.4-0.4,1.3-0.6,1.3c-0.6,0-0.8-0.7-0.7-1.2c0.1-0.5,0.4-0.9,0.7-1.3
			C461,167.8,461.2,168.2,461.4,168.6z"/>
		<path class="st2" d="M504,197.8c-0.9-0.6-1-1.6-1.1-2.5c-0.2-0.4-0.1-0.7,0.2-1c0.9,0.6,0.9,1.6,1.1,2.5
			C504.4,197.2,504.3,197.5,504,197.8z"/>
		<path class="st2" d="M462.5,102.6c0.2,1-0.1,1.8-1,2.4C461.3,104,461.8,103.2,462.5,102.6z"/>
		<path class="st2" d="M464.1,102.7c0.3-0.1,0.5-0.1,0.8-0.1c0.2,0.4,0.2,0.7,0,1.1c-0.2,0.3-0.5,0.8-0.5,0.8
			C463.4,104.1,464,103.3,464.1,102.7z"/>
		<path class="st2" d="M455.5,177.8c-0.3-1.1-0.1-2,0.9-2.6C456.5,176.2,456.1,177.1,455.5,177.8z"/>
		<path class="st2" d="M418.2,178.8c-1,0.1-1.6-0.4-2-1.3C417.2,177.4,417.9,177.9,418.2,178.8z"/>
		<path class="st2" d="M419.7,181.1c0-0.4,0-0.8,0-1.2c1.1-0.2,1.7,0.5,2.4,1.2C421.3,181.1,420.5,181.1,419.7,181.1z"/>
		<path class="st2" d="M506.6,228.7c-1-0.6-1.2-1.5-1.1-2.5C506.6,226.7,506.7,227.7,506.6,228.7z"/>
		<path class="st2" d="M548.1,268c0.2,0.3,0.3,0.6,0.2,1c-0.4,0.5-0.7,0.9-1.1,1.4c-0.3-0.3-0.4-0.6-0.3-1
			C547.3,268.9,547.7,268.4,548.1,268z"/>
		<path class="st2" d="M461.2,105.9c0.1,0.9,0.1,1.7,0.2,2.6C460.3,107.7,460,106.8,461.2,105.9z"/>
		<path class="st2" d="M463.7,99.1c0.1,1,0,1.9-1,2.4c0-0.5-0.1-1-0.1-1.4C462.5,99.2,463,99,463.7,99.1z"/>
		<path class="st2" d="M343.5,126.6c0-0.4,0-0.8,0-1.2c0.5,0.3,1,0.7,1.6,1c-0.2,0.5-0.4,1.4-0.6,1.4
			C343.8,127.8,343.5,127.2,343.5,126.6z"/>
		<path class="st2" d="M470.7,131.1c-0.3-0.4-0.7-0.8-1-1.1c0.2-0.5,0.5-0.6,0.9-0.3C471,130.1,471.3,130.6,470.7,131.1z"/>
		<path class="st2" d="M474.3,109.6c-0.1,0.7-0.5,1.1-1.1,1.3C473.2,110.2,473.6,109.7,474.3,109.6z"/>
		<path class="st2" d="M473.2,110.9c0,0.6-0.3,1-0.8,1.3C472.3,111.5,472.7,111.1,473.2,110.9z"/>
		<path class="st2" d="M472.1,115.7c0.1-0.4,0.1-0.8,0.2-1.2c0.3,0,0.6,0,0.9,0C473.3,115.3,473,115.8,472.1,115.7z"/>
		<path class="st2" d="M440.5,132.1c-0.8-0.1-1.3-0.5-1.4-1.3C439.7,131,440.2,131.4,440.5,132.1z"/>
		<path class="st2" d="M443.8,132.2c-0.5,0-1,0.1-1.6,0.1C442.7,131.7,443.3,131.6,443.8,132.2z"/>
		<path class="st2" d="M374.4,133.4c0.1,0.7-0.1,1.1-0.8,1.3C373.4,134.1,373.9,133.7,374.4,133.4z"/>
		<path class="st2" d="M440.3,137.1c0,0,0.2,0.1,0.2,0.1c0.2,0.6,0.4,1.2,0.6,1.8C440.4,138.5,439.7,138.1,440.3,137.1z"/>
		<path class="st2" d="M416.1,177.5c-0.7,0.2-1.1-0.1-1.2-0.8C415.6,176.6,415.9,176.9,416.1,177.5z"/>
		<path class="st2" d="M459.9,176.9c-0.1,0.1-0.2,0.2-0.3,0.3c-0.1-0.1-0.3-0.3-0.3-0.4c0-0.1,0.2-0.2,0.3-0.3
			C459.7,176.7,459.8,176.8,459.9,176.9z"/>
		<path class="st2" d="M419.7,179.9c-0.7,0.1-1.1-0.2-1.3-0.9C419.1,179,419.5,179.3,419.7,179.9z"/>
		<path class="st2" d="M460.2,181.4c-0.2,0.2-0.4,0.5-0.6,0.7c-0.2-0.2-0.3-0.4-0.5-0.6c0.3-0.1,0.6-0.3,0.9-0.4
			C460,181,460.2,181.4,460.2,181.4z"/>
		<path class="st2" d="M455.3,172.5c0.1,0.7-0.2,1.1-0.8,1.4C454.4,173.3,454.7,172.9,455.3,172.5z"/>
		<path class="st2" d="M321.8,103.9c-0.6,0-1-0.3-1-0.9C321.5,102.9,321.8,103.3,321.8,103.9z"/>
		<path class="st2" d="M459.5,174.3c0.1,0,0.3,0,0.4,0c0.3,0.3,0.3,0.5-0.2,0.8c0,0-0.3-0.2-0.3-0.4
			C459.2,174.6,459.4,174.4,459.5,174.3z"/>
		<path class="st2" d="M230.8,219.3c0.2,0.4,0.3,0.7,0.5,1.1c-0.2,0-0.5,0-0.7,0C230.4,220,230.5,219.6,230.8,219.3z"/>
		<path class="st2" d="M301.9,258.5c0.3,0.3,0.6,0.5,0.8,0.8c0.5,1.3,1.6,3.2-0.2,3.9c-1.6,0.7-1.8-1.5-2.4-2.5
			c-0.4-0.6-0.5-1.4-0.7-2.1C300.2,258.5,301.1,258.5,301.9,258.5z"/>
		<path class="st2" d="M307.9,230c-1.4,0.6-1,1.8-1,3c-0.1,1.5,0.5,3.1-1.1,4.2c-0.3-2,0.4-4.1-0.5-6.1c0.2-0.8-0.4-1.9,0.9-2.2
			C307,228.7,307.4,229.4,307.9,230z"/>
		<path class="st2" d="M348.3,370.4c-0.8,0-1.1,0.6-1.4,1.1c-0.9-1.1-1.6-2.4,0.1-3C348.1,368.1,348.3,369.4,348.3,370.4z"/>
		<path class="st2" d="M341.4,354c-0.4,0.3-0.6,0.7-0.9,0.7c-0.7,0.1-1.5,0.4-1.9-0.6c0-0.1,0.6-0.5,1-0.5
			C340.2,353.6,340.7,353.9,341.4,354z"/>
		<path class="st2" d="M304.5,284.2c0.5-0.1,0.8,0,1,0.4l-0.1-0.1c0.2,0.3,0.4,0.7,0.6,1C305.1,285.5,304.6,285.1,304.5,284.2z"/>
		<path class="st2" d="M352.2,309.5c0.7,0.2,0.8,0.7,0.8,1.3c-0.9,0-1.9,0.4-2.4-0.8C351.1,309.9,351.6,309.7,352.2,309.5z"/>
		<path class="st2" d="M327.3,243.6c-0.1,0.1-0.3,0.2-0.4,0.2c-0.4,0-0.6-0.2-0.3-0.5c0.1-0.1,0.3-0.1,0.4-0.1
			C327.2,243.3,327.2,243.5,327.3,243.6z"/>
		<path class="st2" d="M354.1,311c0.1,0.4,0.1,0.7,0,1.1c-0.7-0.1-1-0.4-1-1.1C353.4,310.9,353.7,310.9,354.1,311z"/>
		<path class="st2" d="M352.9,313.4c-0.3,0.3-0.6,0.6-0.9,0.9C352.1,313.6,352.3,313.3,352.9,313.4z"/>
		<path class="st2" d="M229.1,143c7.3-5.5,13.8-11.8,19.2-19.2c0.4,0.4,0.8,0.9,1.2,1.3c-0.3,1.2-1.5,2.2-1.2,3.6l0.1-0.1
			c-1.5,0.2-2,1.3-2.4,2.5c-1.6,1.7-3.2,3.5-4.8,5.2c-3,3.2-6.5,5.8-10,8.2C229.2,146.2,229.1,144.6,229.1,143z"/>
		<path class="st2" d="M274.3,91.7c-0.7,0.2-1,0.7-1,1.3c-1.3,0.8-2.1,1.9-2.6,3.3c-0.7,0.1-1,0.5-1.2,1.2c-0.3,0.1-0.7,0.1-1,0.1
			c-0.4-0.4-0.8-0.7-1.2-1.1c0.1-0.4,0.1-0.8,0.1-1.1c0,0-0.1,0.1-0.1,0.1c0.4-0.4,0.9-0.9,1.3-1.3l0,0c0.4-0.4,0.8-0.8,1.2-1.2
			l-0.1,0.1c0.6-0.2,1-0.6,1.1-1.2c1.3-0.3,1.9-1.3,2.4-2.4c0.4,0.4,0.8,0.7,1.3,1.1C274.4,91,274.4,91.3,274.3,91.7z"/>
		<path class="st2" d="M252.5,121.7c0.6,0,1.2,0,1.7,0c-1.2,1.6-2.3,3.3-3.5,4.9c0-0.6-0.1-1.2-0.1-1.8
			C250.6,123.3,251.4,122.3,252.5,121.7z"/>
		<path class="st2" d="M266.3,96.7c-1.3,1.4-2.6,2.8-3.8,4.2c0.1-0.3,0.1-0.7,0.2-1.1c0,0,0-0.5,0-0.5c0.3-1.3,1.5-1.8,2.4-2.6
			C265.5,96.7,265.9,96.7,266.3,96.7z"/>
		<path class="st2" d="M267.4,104.9c0,0.5,0,0.9,0,1.4c-0.2,1-1.4,1.4-1.6,0.8C264.9,105.7,266.4,105.4,267.4,104.9z"/>
		<path class="st2" d="M266.3,96.7c-0.4,0-0.8,0.1-1.2,0.1c0.4-1.1,1.3-1.3,2.3-1.3c0,0.4-0.1,0.8-0.1,1.1c0,0-0.5,0.1-0.5,0.1
			L266.3,96.7z"/>
		<path class="st2" d="M256.8,109.7c-0.5-0.1-1.1-0.1-1.6-0.2c0.4-0.9,1.2-1.4,2.1-0.8C257.7,109,257.4,109.6,256.8,109.7z"/>
		<path class="st2" d="M268.4,98.8c-0.3,0.1-0.7,0.1-1,0.1c0-0.7,0.4-1,1.1-1.1C268.4,98.1,268.4,98.5,268.4,98.8z"/>
		<path class="st2" d="M267.3,99c0,0.4,0,0.7,0,1.1c-0.3,0-0.7,0.1-1,0.2C266.2,99.6,266.5,99.1,267.3,99z"/>
		<path class="st2" d="M261.7,101.4c-0.1-0.4-0.1-0.9-0.2-1.3c0,0-0.1,0.1-0.1,0.1c0.4-0.1,0.9-0.3,1.3-0.4c0,0.4-0.1,0.7-0.2,1.1
			C262.4,101.3,262.1,101.5,261.7,101.4z"/>
		<path class="st2" d="M480.5,316.4c0.2-0.1,0.5-0.6,0.7-0.5c0.7,0.2,1.4,0.7,1.1,1.6c0,0.2-0.7,0.3-1.1,0.2
			C480.8,317.6,480.3,317.2,480.5,316.4z"/>
		<path class="st2" d="M462.6,315.5c-0.5,0-0.7-0.2-0.6-0.5c0,0,0.3,0,0.4,0.1C462.5,315.2,462.5,315.4,462.6,315.5L462.6,315.5z"/>
		<path class="st2" d="M462.5,315.6c0.3,0.1,0.6,0.3,0.9,0.4C462.6,316.8,462.7,315.9,462.5,315.6
			C462.6,315.5,462.5,315.6,462.5,315.6z"/>
		<path class="st2" d="M497.3,625.1c-1.4-0.4-3.6-0.4-2.7-2.5c0.7-1.6,2.5-1.6,3.7,0l0,0C497.2,623.1,497.1,624,497.3,625.1
			C497.3,625,497.3,625.1,497.3,625.1z"/>
		<path class="st2" d="M522,590.5c0.5-0.5,0.9-0.9,1.4-1.4c1.1,1.5,1.3,3.2,0.9,5l-0.6,0.1l-0.5-0.3
			C523.4,592.5,522.2,591.7,522,590.5z"/>
		<path class="st2" d="M498.2,622.5c0.2,0.1,0.5,0.2,0.5,0.3C498.6,623.2,498.4,623.1,498.2,622.5
			C498.2,622.5,498.2,622.5,498.2,622.5z"/>
		<path class="st2" d="M248.3,128.8c1.7,0.2,2-1.2,2.5-2.3c1.2-1.6,2.3-3.3,3.5-4.9c4.3-2.9,8.4-4.9,13-0.3c1.4,1.4,4.2,0.2,5.9,1.7
			c-1.5,1.8-4.5-0.1-5.8,2.2c-0.9,0.4-1.7,0.9-2.6,1.3c-6.1,2.8-10.8,6.6-12.3,13.7c-0.9,4.1-2.3,8.2-3,12.4
			c-0.8-0.8-1.6-1.6-2.4-2.4l-0.3,0.1c0.2-1.6,0.3-3.1,0.5-4.7c0.4-1.2,0.7-2.5,1.1-3.7c1.3-1.5,1.3-2.9,0.1-4.5
			c-1.3,1.2,0,2.3-0.3,3.4c-1.4,0.4-1.1,1.5-1.2,2.5c-1.9,1.5-2.2,3.6-2.2,5.8c-0.8,1.5-0.2,3.1,0,4.6c-1.7-0.9-1.5-3.9-4.1-3.7
			c2.2-6.3,4.5-12.5,6.7-18.8c1.1-0.5,1-1.5,0.9-2.5L248.3,128.8z M255.2,126.2c3-0.2,5.1-1.3,7.2-2c0.6-0.2,1.1-0.5,1-1.1
			c-0.1-0.9-0.9-1.3-1.7-1.3C258.9,121.6,257.1,123.3,255.2,126.2z"/>
		<path class="st2" d="M277.1,189.8c0,1,0.1,2,0,2.9c-0.2,1.4,0.3,3.7-2.1,3.4c-1.9-0.3-1.8-2.3-1.8-3.9c-0.1-4.5,0.5-8.9,1.5-14.2
			c-6.4,1.9-11.1-0.5-15.3-4.4c-0.8-0.8-1.6-1.8-2.2-2.7c-0.5-0.7-0.5-1.5,0.1-2.2c0.7-0.8,1.4-0.4,2.1,0c0.8,0.5,1.7,1,2.5,1.6
			c4.1,3.1,8.3,3.3,12.7,0.7c1.2-0.7,2.5-1.8,3.7-1.7c3.8,0.3,5.5-2.5,7.5-4.8c1.2,0.2,3.1-1.8,3.3,1.2c-1.1,3.2-4.1,4.6-6,7
			c-0.7,0-1.2,0.4-1.3,1.1c-1.3,0.3-2.3,0.9-2.4,2.4c-1.4,0.9-0.5,2.5-1,3.7C275.7,183,277.2,186.5,277.1,189.8z"/>
		<path class="st2" d="M288.8,165.7c-0.2-3-2.1-1-3.3-1.2c3-5,3.3-10.7,3.4-16.3c0.1-2.1,0-4.3,0-6.4c0.9-0.6,0.9-1.7,1.2-2.6
			C292,148.2,292.8,157,288.8,165.7z"/>
		<path class="st2" d="M292.3,170.1c0.2-2.3,0-4,1.1-5.6c0.6-1,1.4-1.2,2.5-0.9c0.9,0.3,1.2,0.9,1.2,1.7c-0.2,2.1-0.5,4.2-0.8,6.4
			c-0.2,1.6-1,2.6-2.7,2.4c-1.6-0.2-1.2-1.7-1.3-2.8C292.2,170.7,292.3,170.1,292.3,170.1z"/>
		<path class="st2" d="M267.5,125.2c1.3-2.3,4.3-0.4,5.8-2.2c4.1,1,7.5,3.4,11,5.7c-0.4,0.4-0.9,0.8-1.3,1.2
			c-1.8-0.9-3.6-1.7-5.2-2.7C274.5,125.2,271.1,124.4,267.5,125.2z"/>
		<path class="st2" d="M288.6,138.5c-1.4-1.4-1-3.5-2.1-5c0.4-0.4,0.8-0.9,1.2-1.3c1.6,1.3,1.8,3.2,2,5.1
			C289.4,137.6,289,138.1,288.6,138.5z"/>
		<path class="st2" d="M287.8,132.1c-0.4,0.4-0.8,0.9-1.2,1.3c-1.2-1.2-2.4-2.4-3.7-3.6c0.4-0.4,0.9-0.8,1.3-1.2
			C285.8,129.4,286.9,130.6,287.8,132.1z"/>
		<path class="st2" d="M288.6,138.5c0.4-0.4,0.8-0.9,1.2-1.3c0.1,0.7,0.2,1.4,0.3,2c-0.3,0.9-0.3,2-1.2,2.6
			C288.9,140.7,288.7,139.6,288.6,138.5z"/>
		<path class="st2" d="M180.7,207.8c0,8.5,0,17.1,0,25.6c-0.8,0.3-1,0.7-0.1,1.2c0.3,0.3,0.3,0.6,0.1,0.9c-0.1,0.6-0.2,1.1-0.3,1.7
			c-0.3-0.1-0.6-0.1-0.9-0.2c-0.4,0-0.7,0-1.1,0c-2.1-10.7-1.7-21.4,0-32.1c0.6-0.4,1.2-1.3,1.7-1.2c1,0.2,0.4,1.2,0.5,1.9
			C180.6,206.3,180.6,207.1,180.7,207.8z"/>
		<path class="st2" d="M171,235.8c1.4,3.5,2.9,7,6,9.4c-0.8,0.2-1.8,0.2-2.3,1.1c-0.3,0-0.7,0-1-0.1c-0.5-0.7-1-1.4-1.5-2.1
			c-0.1-1.6-1.1-2.7-2.2-3.7c-0.1-0.9-0.2-1.8-0.3-2.8c0.1-0.7,0.2-1.4,0.2-2.1C170.3,235.7,170.7,235.7,171,235.8z"/>
		<path class="st2" d="M181.8,241.6c1.1,1.9,0.9,4,1.2,6.1C180.8,246,181.6,243.7,181.8,241.6z"/>
		<path class="st2" d="M177,245.3c1.1,0.2,2.4,0.7,2.5-1.2l0.5,0l0.5,0C179.7,247.1,179.4,247.2,177,245.3z"/>
		<path class="st2" d="M180.3,237.2c0.1-0.6,0.2-1.1,0.3-1.7c1,1.1,1.2,2.5,0.8,3.9c-0.3,0-0.6,0-1,0
			C180.4,238.7,180.4,238,180.3,237.2z"/>
		<path class="st2" d="M178.4,237c0.4,0,0.7,0,1.1,0c-0.1,1.3-0.2,2.6-0.3,3.9C177.7,239.9,178.3,238.4,178.4,237z"/>
		<path class="st2" d="M180.6,244.2l-0.5,0l-0.5,0c-0.4-0.8-0.4-1.6-0.2-2.4C180.3,242.3,180.5,243.2,180.6,244.2z"/>
		<path class="st2" d="M180.5,239.5c0.3,0,0.7,0,1,0c0.1,0.3,0.2,0.5,0.3,0.8c0,0.1,0,0.3-0.1,0.4
			C181.3,240.2,180.9,239.9,180.5,239.5z"/>
		<path class="st2" d="M481.6,596.3c0.3,2.7-0.5,4.5-3.6,4.6c0.2-0.5,0.8-1.2,0.7-1.5C476.7,595.5,479.7,596.5,481.6,596.3z"/>
		<path class="st2" d="M500.5,585.7c-3.4,0.1-5.5-2.4-8.1-4c-2-4-1.6-8.5-2-12.8c-1.2-11.8-1.9-23.6-3.1-35.4
			c-0.9-8.6-3-17.1-4.5-25.7c-3.3-18-6-36.2-8.5-54.4c-0.3-2.3-0.8-4.7-1.2-7c0-1.2,0-2.4,0-3.6c-0.3-2-0.2-4.1-1.1-6
			c0-0.4,0.1-0.8,0.1-1.1c-0.1-0.5-0.3-1.5-0.5-1.5c-1,0-0.7,1-0.7,1.5c0,0.4,0.1,0.7,0.1,1.1c0.3,6-0.5,12,0.9,17.9
			c-0.5,14.5,1.9,28.8,3.3,43.1c0.2,2.6,0.8,5.1,0.6,7.7c-0.1,2.5-1,5.1,1,7.4c0.1,1.5,0.1,3.1,0.2,4.6c-0.7,1.6,0.5,3.6-1.2,4.9
			c-0.3-0.3-0.3-0.6-0.2-1c0.1-2.1,0.9-4.4-1-6.2c-2.3-11.4-3.4-23-4.9-34.6c-2.2-17.7-1.9-35.5-2.3-53.2
			c-0.4-17.9-3.3-35.3-8.6-52.4c-0.7-2.2-1.6-4.4-0.4-6.8c2.4,0.6,2.5,2.7,3,4.2c7.4,22.9,13.9,46,17,70c2.6,21,4,42.1,8.3,62.8
			c3.9,19,5.5,38.3,7.9,57.4c0.5,3.7,0.6,7.5,0.4,11.3c-0.2,2.9,1.2,4.4,3.5,5.5c0.5,0.6,0.8,1.5,1.4,1.8
			C502,582.6,501.5,584.1,500.5,585.7z"/>
		<path class="st2" d="M527.9,521.5c-1.6-3.5-1.1-7.2-1-10.8C528.9,514.1,527.8,517.9,527.9,521.5z"/>
		<path class="st2" d="M530.5,516.6c0.3,0.3,0.3,0.7,0.1,1.1C529.6,517.4,529.6,517.1,530.5,516.6z"/>
		<path class="st2" d="M528,522.6c-0.2-0.3-0.3-0.7-0.1-1.1C528.7,521.7,528.8,522.1,528,522.6z"/>
		<path class="st2" d="M527.9,526.4c-0.8-0.5-0.8-1.1,0-1.6C527.9,525.3,527.9,525.8,527.9,526.4z"/>
		<path class="st2" d="M528,529.7c0-0.4,0-0.8,0-1.2C528.8,528.9,528.8,529.3,528,529.7z"/>
		<path class="st2" d="M124.6,628.2c-0.4,0-0.8,0.1-1.2,0.2c-0.2-0.3-0.3-0.6-0.4-0.9C123.7,627.3,124.3,627.6,124.6,628.2z"/>
		<path class="st2" d="M195.1,145.8c0.7-0.1,1.4-0.1,2.1-0.2c-0.6,1.1-1.4,2-2.8,2.1C194.7,147,194.9,146.4,195.1,145.8z"/>
		<polygon class="st2" points="194.3,153 194.4,153.3 194.1,153.3 		"/>
		<path class="st2" d="M481.5,563c1.9,1.6,0.6,4.4,2.2,6.1c-1.1-0.1-2.3-0.1-3.4-0.2c0.1-0.3,0.2-0.6,0.2-1c1.9-1.3,0.5-2.6,0-3.9
			c0.1-0.3,0.2-0.7,0.2-1c0,0,0.4-0.1,0.4-0.1L481.5,563z"/>
		<path class="st2" d="M444.9,583.4c-0.1-0.4-0.2-0.9-0.2-1.3c0.1-0.6,0.6-1,0.9-0.6C446.4,582.3,445.8,583,444.9,583.4z"/>
		<path class="st2" d="M514.9,342.9c1.7,0.8,0.7,2.6,1.4,3.8c-0.1,1.9-0.2,3.8-0.3,5.7c-0.8,0-1.6,0-2.4,0
			C513.2,349.2,513.1,345.9,514.9,342.9z"/>
		<path class="st2" d="M516.2,335.8c0.4,0,0.8,0,1.3,0c-0.1,0.6-0.3,1.1-1,0.9C516.1,336.7,516,336.3,516.2,335.8z"/>
		<path class="st2" d="M429,216.8c-0.2,2.8,0.7,5.6,0,8.4c-0.7,0-1.4,0-2.1,0c-0.3-2-0.4-4-0.1-6C427.6,218.4,428.3,217.6,429,216.8
			z"/>
		<path class="st2" d="M361.6,371.2c1.5,0.7,0.7,3.6,3.2,3.5c0.4,0.5,0.9,1,1.3,1.5c0,0.4,0,0.8,0.1,1.2c-0.3,0.1-0.6,0.1-0.9,0.1
			c-0.9,0-1.7-0.1-2.6-0.1c-1.4-1.3-1.8-3.1-2.3-4.8C360.7,372.2,361.1,371.7,361.6,371.2z"/>
		<path class="st2" d="M362.6,340.5c0.4,0.8,0.3,1.6-0.1,2.4C361.3,342.1,361.4,341.3,362.6,340.5z"/>
		<path class="st2" d="M272,71.1c3.3-2.1,6.2-4.8,10.3-5.6c2.6-0.5,5.1-0.4,7.6,0.1c3.7,0.7,7.4,1.1,12.3,1.9
			c-6.2,2.6-11.8,0.6-16.9,1.9c-2.6,0-5.2,0.2-7.1,2.3c-0.4,0.4-0.8,0.8-1.2,1.2c-4.3-0.8-4.6-0.6-5,3.6c-0.3,0-0.6,0-0.8,0
			c-0.8-2.9-1.8,0.2-2.7-0.1l0.1,0.1c-0.1-0.8-0.4-1.3-1.3-1c-1.3-0.4-2.7-0.7-2.3-2.6C269.6,74.6,269.8,74.6,272,71.1z"/>
		<path class="st2" d="M297,57.8c-0.7,0.6-1.4,0.6-2.2,0.4c0-0.3-0.1-0.6-0.1-0.8C295.5,57.5,296.3,57.6,297,57.8z"/>
		<path class="st2" d="M418.5,182.3c0.4-0.4,0.8-0.8,1.2-1.1c0,0.7,0,1.3,0.1,2c-0.3,0-0.7,0.1-1,0.1
			C418.7,182.9,418.6,182.6,418.5,182.3z"/>
		<path class="st2" d="M426.8,215.6c0-0.4,0.1-0.8,0.1-1.2C427.7,214.9,427.6,215.3,426.8,215.6z"/>
		<path class="st2" d="M253.4,88.5c-0.3-0.6-0.5-1.4-1.4-1.3c0.5-1.8,1.5-3.2,3-4.6c1,1.8-0.7,3.1-0.2,4.6c-0.1,0.4-0.1,0.8-0.2,1.2
			C254.1,88.4,253.8,88.4,253.4,88.5z"/>
		<path class="st2" d="M249.6,80.1c-0.4-0.4-0.7-0.7-1.1-1.1c0.3-1,0.4-2.7,1.8-1.8C251.4,77.9,250.5,79.2,249.6,80.1z"/>
		<path class="st2" d="M254.5,88.3c0.1-0.4,0.1-0.8,0.2-1.2c0.3,0,0.6,0,0.8,0c-0.1,0.4-0.1,0.8-0.2,1.2
			C255.1,88.3,254.8,88.3,254.5,88.3z"/>
		<path class="st2" d="M516.1,392.9c-2.1-3.4-1-7,0-10.6C516.1,385.8,516.1,389.4,516.1,392.9L516.1,392.9z"/>
		<path class="st2" d="M291.1,72c5.6-0.5,10.6,2.3,15.9,3.1c2.1,0.3,2.5,2.2,3.2,3.7c-0.9,0.4-1.1,1.2-1.2,2.1
			c-0.3,0-0.6-0.1-0.9-0.1c-1.6-4.1-5.4-2.8-8.5-3.5c-0.6-0.9-1.5-1-2.4-1.1c-0.5-1-1.4-1.2-2.4-1.1c-2.7-1.9-6.2-0.8-9-2.2
			C287.5,72.5,289.5,73.3,291.1,72z"/>
		<path class="st2" d="M311.5,90.7c0,0.4,0,0.8,0,1.2c-0.3,0-0.7-0.1-1-0.3c-0.1-0.4-0.1-0.9-0.2-1.3
			C310.7,90.4,311.1,90.6,311.5,90.7z"/>
		<path class="st2" d="M446.9,568c0.1-0.6,0.1-1.2,0.2-1.7c0.1-0.3,0.4-1,0.4-1c0.7,0.2,0.7,0.9,0.4,1.4
			C447.7,567.2,447.3,567.6,446.9,568C446.9,568,446.9,568,446.9,568z"/>
		<path class="st2" d="M254.5,88.3c0.3-0.1,0.6-0.1,0.9,0c0.1,0.6,0.3,1.1,0.5,2.1c3.5-2,5.2-5.6,7.9-8c0.4,0.4,0.9,0.9,1.3,1.3
			c-0.1,0.4-0.1,0.7,0,1.1c0,0,0,0.1,0,0.1c-0.5,0.2-0.9,0.6-0.8,1.2c-1.6,1.7-3,3.6-4.7,5.2c-1.2,1.2-2.7,2.6-4.6,1.8
			c-2-0.8-1.7-2.8-1.6-4.6C253.8,88.4,254.1,88.4,254.5,88.3z"/>
		<path class="st2" d="M265.1,83.6c-0.4-0.4-0.9-0.9-1.3-1.3c1.2-1.9,2.5-3.9,3.7-5.8c0.4,0,0.8-0.1,1.1-0.1c0,0-0.1-0.1-0.1-0.1
			c-0.4,1.6-0.8,3.2-1.2,4.8c0,0,0,0,0,0c-0.6,0.2-1,0.6-0.9,1.3c-0.2,0.3-0.4,0.6-0.5,0.9C265.7,83.4,265.4,83.5,265.1,83.6z"/>
		<path class="st2" d="M514.4,164.4c0.6-0.4,1.1-0.7,1.7-1.1C515.7,164,515.1,164.4,514.4,164.4z"/>
		<path class="st2" d="M361.6,371.2c-0.4,0.5-0.9,1-1.3,1.5c-0.9-3.3-4.9-3.9-5.9-7.1c3.3-2.8,3.3-2.8,5,0.2
			C360.3,367.5,361.3,369.2,361.6,371.2z"/>
		<path class="st2" d="M362.6,377.4c0.9,0,1.7,0.1,2.6,0.1c-0.1,0.4-0.2,0.7-0.2,1.1C363.9,378.7,362.6,379.4,362.6,377.4z"/>
		<path class="st2" d="M524.4,325.1c-0.3,0.1-0.7,0.2-1,0.4c-0.1-0.8,0.2-1.3,0.9-1.6C524.4,324.3,524.4,324.7,524.4,325.1z"/>
		<path class="st2" d="M425.5,331.1c0.5,1.9,0.5,3.9,0.2,5.8c-0.4,0-0.8,0-1.2,0c-0.2-0.3-0.3-0.6-0.2-1
			C425.1,334.4,423.9,332.4,425.5,331.1z"/>
		<path class="st2" d="M359,469c-0.3,0.1-0.6,0.2-0.9,0.4c-0.5-0.5-0.9-1-1.4-1.5c0-0.4,0-0.8,0-1.2c0.9-0.5,1.1-1.4,1.3-2.3
			c0.4-0.4,0.8-0.8,1.2-1.2c1.7-1.7,2.2-0.8,2.2,1.1c-1,0.5-1,1.5-1.1,2.4C359.4,467.2,359.1,468.1,359,469z"/>
		<path class="st2" d="M367.3,429.8c0,0.8,0,1.6,0,2.3C366.2,431.3,366.2,430.6,367.3,429.8z"/>
		<path class="st2" d="M367.3,426.2c0,0.4,0,0.8,0,1.2c-0.1-0.3-0.3-0.5-0.4-0.8C366.8,426.5,367.1,426.3,367.3,426.2z"/>
		<path class="st2" d="M273.3,89.5c-0.5,1.1-1.2,2-2.4,2.4c-0.3,0.1-0.6,0.1-0.9,0.2c0.3-0.8,0.7-1.7,1-2.5c0.6-0.2,1-0.5,0.8-1.2
			C272.4,88.5,273,88.8,273.3,89.5z"/>
		<path class="st2" d="M271.8,88.4c0.2,0.7-0.2,1-0.8,1.2c0.1-0.4,0.1-0.8,0-1.2c0,0,0.1-0.1,0.1-0.1
			C271.3,88.5,271.5,88.5,271.8,88.4z"/>
		<path class="st2" d="M426.8,344.1c0.1,1.1,0.2,2.1,0.2,3.2c-0.2,3-1,6,0.9,8.7c0.2,1.2,0.3,2.3,0.5,3.5c-1.3-0.3-1.6-1.7-2.6-2.3
			c-0.1-1.9-0.2-3.7-0.4-5.6C426.4,349.2,424.6,346.3,426.8,344.1z"/>
		<path class="st2" d="M271.2,76.4c0.3,0,0.6,0,0.8,0c0.5,1.2,0.4,2.3-0.1,3.5c-0.4-0.4-0.7-0.9-1.1-1.3
			C271,77.9,271.1,77.2,271.2,76.4z"/>
		<path class="st2" d="M424.6,341.7c-0.4-1.2-0.3-2.3,0-3.5C425.9,339.4,425.9,340.5,424.6,341.7z"/>
		<path class="st2" d="M271,88.4c0.1,0.4,0,0.8,0,1.2c-0.3,0.8-0.7,1.7-1,2.5c-0.1,0.3-0.2,0.7-0.3,1c0,0,0.1-0.1,0.1-0.1
			c-0.6,0.2-1.1,0.6-1.2,1.2c0,0,0,0,0,0c-0.4,0.4-0.9,0.9-1.3,1.3c0,0,0.1-0.1,0.1-0.1c-1,0.1-1.9,0.3-2.3,1.3
			c-0.9,0.8-2.1,1.3-2.4,2.6c-0.8-0.2-1.2,0.2-1.3,0.9c0,0,0.1-0.1,0.1-0.1c-0.9,0.2-1.4,1.6-2.5,1.1c-1.3-0.6-0.8-1.6-0.1-2.3
			c1.7-1.6,1.7-4.4,3.7-5.8c0.7-0.3,1-0.8,1-1.5c-0.1-0.4,0.1-0.7,0.4-0.8c0.3-0.4,0.6-0.7,1-1.1c0,0,0.1-0.1,0.1-0.1
			c0.3,0,0.7,0,1-0.1l0.2,0.1c0,0.8,0,1.5,0,2.3c-0.2,0.1-0.4,0.1-0.5,0.2c-0.1,0.1-0.1,0.3-0.1,0.4c0.2-0.2,0.4-0.4,0.6-0.7
			c1.2-0.2,2-0.9,2.4-2.1C269.4,89.3,270.2,88.8,271,88.4z"/>
		<path class="st2" d="M266,87.1c0.4-0.4,0.8-0.8,1.2-1.2c0.5,0.1,1.1,0.1,1.6,0.2c-0.1,0.7-0.2,1.4-0.4,2.2
			c-0.7,0.5-1.5,0.9-2.2,1.4c0,0-0.2-0.1-0.2-0.1c0-0.4,0-0.9,0-1.3C266.2,87.8,266.1,87.4,266,87.1z"/>
		<path class="st2" d="M166.2,228.7c1,1.1,1.9,2.2,2.2,3.7c-0.4,0.4-0.8,0.9-1.2,1.3c-0.3-0.1-0.6-0.2-1-0.3
			c-0.5-1.1-0.9-2.2-1.4-3.3C165.4,229.6,165.8,229.2,166.2,228.7z"/>
		<path class="st2" d="M499.4,146.7c0.4,0,0.8-0.1,1.3-0.1c0.1,0.4,0.1,0.8,0.2,1.2C500.4,147.4,499.9,147.1,499.4,146.7z"/>
		<path class="st2" d="M167.3,233.7c0.4-0.4,0.8-0.9,1.2-1.3c0,0,0.4-0.1,0.4-0.1c0,0.7,0.1,1.2,0.8,1.4c0,0-0.1-0.1-0.1-0.1
			c0.1,0.7,0.2,1.3,0.4,2c-0.1,0.7-0.2,1.4-0.2,2.1c-0.4-0.2-0.8-0.4-1.1-0.6c0-0.6-0.2-1.2-0.9-1.5
			C167.6,235,167.4,234.3,167.3,233.7z"/>
		<path class="st2" d="M412.2,179c0.7-0.2,1.2,0.1,1.5,0.8c-0.4,0-0.8,0.1-1.1,0.1C412.4,179.6,412.3,179.3,412.2,179z"/>
		<path class="st2" d="M416.2,181.1c0.6-0.1,1.1,0.2,1.2,0.8c-0.3,0.1-0.7,0.2-1,0.1C416.3,181.8,416.2,181.5,416.2,181.1z"/>
		<path class="st2" d="M222.3,398.9c0,1-0.1,2-1.2,2.4C221,400.3,221.2,399.4,222.3,398.9z"/>
		<path class="st2" d="M312.4,530.7c3.6,1,2.7,3.3,1.2,5.7C313.2,534.5,312.8,532.6,312.4,530.7
			C312.4,530.7,312.4,530.7,312.4,530.7z"/>
		<path class="st2" d="M241.2,210.8c0.5,0.1,1.1,0.3,1.6,0.4C241.9,212.4,241.6,211.3,241.2,210.8L241.2,210.8z"/>
		<path class="st2" d="M232.8,216.8c-0.1-0.1-0.2-0.2-0.3-0.3c0.2,0.1,0.3,0.2,0.5,0.3C233,216.8,232.8,216.8,232.8,216.8z"/>
		<path class="st2" d="M520.8,276.3c-0.4,0.4-0.9,0.8-1.3,1.2C520,277.1,520.4,276.7,520.8,276.3z"/>
		<path class="st2" d="M384.1,126.5c-0.1-1-0.1-1.9-0.2-2.9c0.1-0.6,0.2-1.2,0.3-1.9C386.2,123.4,385.2,125,384.1,126.5z"/>
		<path class="st2" d="M472.1,172.8c-0.3,1.4-1.4,1.2-2.5,1.2c0.2-1.4,1.4-1.8,2.5-2.1C472.2,172.2,472.1,172.5,472.1,172.8z"/>
		<path class="st2" d="M473.3,170.5c0.4-1,1.2-1.3,2.2-1.3c0,0.4,0.1,0.9,0.1,1.3l0.1-0.1C474.9,170.4,474.1,170.5,473.3,170.5z"/>
		<path class="st2" d="M473.3,170.5c0.8,0,1.6-0.1,2.4-0.1c-0.4,0.4-0.8,0.9-1.2,1.3c-0.4,0-0.9-0.1-1.3-0.1
			C473.1,171.2,473.2,170.9,473.3,170.5z"/>
		<path class="st2" d="M469.7,173.9c-0.1,0.8-0.6,1.2-1.3,1.3C468.5,174.4,468.8,173.9,469.7,173.9z"/>
		<path class="st2" d="M468.5,175.1c-0.2,0.6-0.6,1.1-1.2,1.2c0-0.4,0-0.7,0.1-1.1C467.7,175.1,468.1,175,468.5,175.1z"/>
		<path class="st2" d="M475.6,170.5c0-0.4-0.1-0.9-0.1-1.3c0.4-0.1,0.8-0.2,1.3-0.2c0,0.4,0.1,0.7,0,1.1
			C476.4,170.2,476,170.3,475.6,170.5z"/>
		<path class="st2" d="M472.1,172.8c0.1-0.3,0.1-0.6,0.1-1c0.4-0.1,0.8-0.2,1.1-0.3C473.3,172.3,472.8,172.7,472.1,172.8z"/>
		<path class="st2" d="M497,147.8c-0.4-0.6-0.1-1.2,0.4-1.6c0.4-0.3,0.8-0.1,0.9,0.4C497.8,147,497.4,147.4,497,147.8z"/>
		<path class="st2" d="M342.1,124.9c0,0-0.2,0.2-0.2,0.2c0,0-0.1-0.3-0.1-0.3L342.1,124.9z"/>
		<polygon class="st2" points="316,98.7 315.8,98.8 315.7,98.5 		"/>
		<path class="st2" d="M305.5,284.7c0.1-3.3,0.2-6.6,0.2-10c0-2.2,0.5-4.3,1.7-6.1c1-1.6,2.4-2,4-1.1c1.7,0.9,0.3,2-0.1,2.9
			c-1.1,3.2-0.7,6.6-1,9.9c-0.3,4.1-0.4,4.1-5,4.3C305.4,284.6,305.5,284.7,305.5,284.7z"/>
		<path class="st2" d="M273.3,157.4c-1.8-3.4-2.4-7-2.2-10.8c0.1-1.5,0.2-3.2,1.5-4.4c1-0.9,2.1-2,3.6-0.8c1.4,1.1,0.4,1.9-0.2,2.9
			c-2.1,3.2-0.8,6.9-1.2,10.3C274.3,155.6,274.5,156.9,273.3,157.4z"/>
		<path class="st2" d="M273.3,157.4c1.2-0.5,1-1.8,1.4-2.7c0.9,1.4,0.9,2.9,0.9,4.5c0,1.1-0.4,1.9-1.6,1.8c-2.2-0.1-1-1.5-0.9-2.5
			C273.1,158.2,273.2,157.8,273.3,157.4z"/>
		<path class="st2" d="M247.2,150.2c0.8,0.8,1.6,1.6,2.4,2.4c-0.3,1.6-1.2,1.2-1.9,0.4C247,152.2,247,151.2,247.2,150.2z"/>
		<path class="st2" d="M475.7,522.6c1.8-1.3,0.5-3.3,1.2-4.9c1.7,5.5,2,11.2,2.2,16.9c-1,0.6-1,1.8-1.3,2.7
			C476.2,532.5,475.8,527.5,475.7,522.6z"/>
		<path class="st2" d="M453.7,360c-0.3,1.1-0.8,2-2,1.3c-2.2-1.2-3.3-3.3-4.4-5.4c-0.3-0.5,0.1-1.1,0.7-1.4c0.5-0.3,1.1-0.3,1.6-0.1
			C452.1,355.5,452.7,357.9,453.7,360z"/>
		<path class="st2" d="M479.5,540.1c1.6,2,0.8,4.2,0.7,6.4c-0.4,0.8-0.7,1.6-1.1,2.4c-1.5-1.9-1.2-4.1-0.9-6.2
			C479.1,542.1,479.1,541,479.5,540.1z"/>
		<path class="st2" d="M480.6,551c1.5,2.3,0.9,4.9,0.9,7.4c-0.4,0.4-0.8,0.9-1.2,1.3c-1.3-1.5-1.1-3.3-0.9-5c1-0.6,1-1.5,0.8-2.4
			C480.3,551.8,480.4,551.4,480.6,551z"/>
		<path class="st2" d="M428,322.4c2.2-1.1,3.7-1.1,5.5-0.4C431.9,323.8,430.4,323.9,428,322.4z"/>
		<path class="st2" d="M427.9,356c-1.9-2.8-1-5.8-0.9-8.7C428.5,350.1,428.1,353.1,427.9,356z"/>
		<path class="st2" d="M479.5,540.1c-0.4,0.9-0.4,2-1.3,2.6c-0.1-1.8-0.3-3.7-0.4-5.5c0.3-1,0.3-2.1,1.3-2.7
			C479.2,536.4,479.3,538.2,479.5,540.1z"/>
		<path class="st2" d="M480.6,551c-0.2,0.4-0.3,0.8-0.5,1.2c-0.3,0.1-0.6,0.1-0.8,0.1c-0.1-1.1-0.1-2.2-0.2-3.4
			c0.4-0.8,0.7-1.6,1.1-2.4C480.3,548,480.4,549.5,480.6,551z"/>
		<path class="st2" d="M474.5,515.4c1.9,1.8,1.1,4,1,6.2C474.1,519.7,474.3,517.6,474.5,515.4z"/>
		<path class="st2" d="M480.2,559.6c0.4-0.4,0.8-0.9,1.2-1.3c0.2,1.6,0.7,3.1,0.1,4.7l-0.4-0.1c0,0-0.4,0.1-0.4,0.1
			C480.5,561.9,480.4,560.8,480.2,559.6z"/>
		<path class="st2" d="M479.3,552.3c0.3,0,0.6-0.1,0.8-0.1c0.2,0.9,0.2,1.8-0.8,2.4C479.3,553.8,479.3,553.1,479.3,552.3z"/>
		<path class="st2" d="M266.2,88.2c0,0.4,0,0.9,0,1.3c-0.3,0-0.7,0.1-1,0.1c0-0.3,0-0.7,0.1-1C265.6,88.5,265.9,88.4,266.2,88.2z"/>
		<path class="st2" d="M263.7,91.5c0,0.7-0.4,1.2-1,1.5C262.7,92.4,263.1,91.9,263.7,91.5z"/>
		<path class="st2" d="M265.1,89.6c-0.3,0.4-0.6,0.7-1,1.1C264.1,90.1,264.5,89.8,265.1,89.6z"/>
		<path class="st2" d="M247.5,131.2c-0.5,0-1,0-1.5,0.1c0.4-1.2,0.9-2.3,2.4-2.5C248.6,129.7,248.6,130.6,247.5,131.2z"/>
		<path class="st2" d="M267.4,95.5c0.4-0.4,0.9-0.9,1.3-1.3C268.2,94.7,267.8,95.1,267.4,95.5z"/>
		<path class="st2" d="M269.7,93.1c0.1-0.3,0.1-0.7,0.3-1c0.3-0.1,0.6-0.2,0.9-0.2C270.8,92.6,270.4,93,269.7,93.1z"/>
		<path class="st2" d="M268.6,94.3c0.2-0.7,0.6-1,1.2-1.2C269.4,93.4,269,93.9,268.6,94.3z"/>
		<path class="st2" d="M261.4,100.3c0.1-0.7,0.5-1.1,1.3-0.9c0,0,0,0.5,0,0.5C262.2,100,261.8,100.1,261.4,100.3z"/>
		<path class="st2" d="M476.7,513.1c-1.9-2.2-1.1-4.8-1-7.4C477.2,508,476.7,510.6,476.7,513.1z"/>
		<path class="st2" d="M248.3,140.7c0.3-1-1-2.1,0.3-3.4c1.2,1.6,1.2,3.1-0.1,4.5C248.5,141.5,248.4,141.1,248.3,140.7z"/>
		<path class="st2" d="M248.3,140.7c0.1,0.4,0.1,0.8,0.2,1.2c-0.4,1.2-0.7,2.5-1.1,3.7c-0.1-0.8-0.2-1.6-0.3-2.3
			C247.2,142.3,246.9,141.1,248.3,140.7z"/>
		<path class="st2" d="M188,204.2c-0.4-3,0.4-5.9,0.8-8.8c0.2-1.4,0.7-2.7,1.6-3.8c0.5-0.6,1.2-1.2,1.9-0.6c0.4,0.3,0.6,1.2,0.4,1.6
			c-3.1,7.7-1.6,15.5-0.5,23.3c1,7.3,3,14.3,4.6,21.4c0.4,1.8,2,4.9-0.7,5.4c-2.2,0.4-1.8-3.1-2.1-4.8c-1.8-9.3-5.1-18.2-5.5-27.8
			C188.4,208,188.2,206.1,188,204.2z"/>
		<path class="st2" d="M180.7,207.8c0-0.7,0-1.5-0.2-2.2c-0.1-0.7,0.4-1.7-0.5-1.9c-0.5-0.1-1.1,0.8-1.7,1.2
			c0.8-6.6,1.4-13.3,4.4-19.4c0.3,0.9,0.3,2.1,1.3,2.7C182.9,194.8,181.8,201.3,180.7,207.8z"/>
		<path class="st2" d="M183.1,183.6c-0.1-1.2,0.5-2.2,1.2-3.1c0.5-0.6,1.2-0.8,2-0.3c0.6,0.4,0.4,1.2,0.1,1.5
			c-1.2,1.3-0.5,3.4-2,4.6C184,185.3,184.1,184.2,183.1,183.6z"/>
		<path class="st2" d="M183.1,183.6c1,0.6,0.9,1.7,1.3,2.7c-0.1,0.7-0.3,1.3-0.4,2c-1-0.6-0.9-1.8-1.3-2.7
			C182.8,184.9,183,184.2,183.1,183.6z"/>
		<path class="st2" d="M180.6,234.7c-0.9-0.5-0.8-0.8,0.1-1.2C180.6,233.9,180.6,234.3,180.6,234.7z"/>
		<path class="st2" d="M472,436.9l-0.5,0L471,437c0-0.4-0.2-0.8-0.1-1.1c0.1-0.6-0.3-1.5,0.7-1.5c0.1,0,0.4,1,0.5,1.5
			C472.2,436.2,472.1,436.6,472,436.9z"/>
		<path class="st2" d="M266.2,91.8c-0.2,0.2-0.4,0.4-0.6,0.7c0-0.1,0-0.3,0.1-0.4C265.9,92,266.1,91.9,266.2,91.8
			C266.3,91.9,266.2,91.8,266.2,91.8z"/>
	</g>
</g>
<g id="TEXTS">
</g>
</svg>
